# Generated from OpenSCAD STL
o Chair
v -31.000000 -31.000000 38.500000
v -31.000000 31.000000 49.500000
v -31.000000 31.000000 38.500000
v -31.000000 -31.000000 49.500000
v -25.000000 -31.000000 49.500000
v -25.000000 31.000000 49.500000
v -25.000000 31.000000 38.500000
v -25.000000 -31.000000 38.500000
v -3.000000 -31.000000 38.500000
v -3.000000 31.000000 49.500000
v -3.000000 31.000000 38.500000
v -3.000000 -31.000000 49.500000
v 3.000000 -31.000000 49.500000
v 3.000000 31.000000 49.500000
v 3.000000 31.000000 38.500000
v 3.000000 -31.000000 38.500000
v 25.000000 -31.000000 38.500000
v 25.000000 31.000000 49.500000
v 25.000000 31.000000 38.500000
v 25.000000 -31.000000 49.500000
v 31.000000 -31.000000 49.500000
v 31.000000 31.000000 49.500000
v 31.000000 31.000000 38.500000
v 31.000000 -31.000000 38.500000
v -41.238499 -33.000000 23.811701
v -41.000000 -23.000000 22.000000
v -41.238499 -23.000000 23.811701
v -41.000000 -33.000000 22.000000
v -41.937801 -33.000000 25.500000
v -41.937801 -23.000000 25.500000
v -55.000000 -33.000000 22.000000
v -54.761501 -23.000000 23.811701
v -55.000000 -23.000000 22.000000
v -54.761501 -33.000000 23.811701
v -48.000000 -23.000000 29.000000
v -46.188301 -33.000000 28.761499
v -46.188301 -23.000000 28.761499
v -48.000000 -33.000000 29.000000
v -43.050301 -33.000000 26.949699
v -43.050301 -23.000000 26.949699
v -52.949699 -23.000000 26.949699
v -51.500000 -33.000000 28.062201
v -51.500000 -23.000000 28.062201
v -52.949699 -33.000000 26.949699
v -49.811699 -33.000000 28.761499
v -49.811699 -23.000000 28.761499
v -41.937801 -33.000000 18.500000
v -43.050301 -23.000000 17.050301
v -41.937801 -23.000000 18.500000
v -43.050301 -33.000000 17.050301
v -44.500000 -33.000000 28.062201
v -44.500000 -23.000000 28.062201
v -54.062199 -33.000000 25.500000
v -54.062199 -23.000000 25.500000
v -54.761501 -33.000000 20.188299
v -41.238499 -33.000000 20.188299
v -54.062199 -33.000000 18.500000
v -52.949699 -33.000000 17.050301
v -51.500000 -33.000000 15.937800
v -44.500000 -33.000000 15.937800
v -49.811699 -33.000000 15.238500
v -46.188301 -33.000000 15.238500
v -48.000000 -33.000000 15.000000
v -54.761501 -23.000000 20.188299
v -46.188301 -23.000000 15.238500
v -48.000000 -23.000000 15.000000
v -44.500000 -23.000000 15.937800
v -51.500000 -23.000000 15.937800
v -52.949699 -23.000000 17.050301
v -48.000000 -23.000000 26.000000
v -46.964699 -23.000000 25.863701
v -46.000000 -23.000000 25.464100
v -49.035301 -23.000000 25.863701
v -45.171600 -23.000000 24.828400
v -44.535900 -23.000000 24.000000
v -44.136299 -23.000000 23.035299
v -44.000000 -23.000000 22.000000
v -44.136299 -23.000000 20.964701
v -41.238499 -23.000000 20.188299
v -44.535900 -23.000000 20.000000
v -45.171600 -23.000000 19.171600
v -46.000000 -23.000000 18.535900
v -46.964699 -23.000000 18.136299
v -50.000000 -23.000000 25.464100
v -50.828400 -23.000000 24.828400
v -51.464100 -23.000000 24.000000
v -51.863701 -23.000000 23.035299
v -52.000000 -23.000000 22.000000
v -51.863701 -23.000000 20.964701
v -51.464100 -23.000000 20.000000
v -54.062199 -23.000000 18.500000
v -50.828400 -23.000000 19.171600
v -50.000000 -23.000000 18.535900
v -49.035301 -23.000000 18.136299
v -49.811699 -23.000000 15.238500
v -48.000000 -23.000000 18.000000
v -41.238499 23.000000 23.811701
v -41.000000 33.000000 22.000000
v -41.238499 33.000000 23.811701
v -41.000000 23.000000 22.000000
v -41.937801 23.000000 25.500000
v -41.937801 33.000000 25.500000
v -48.000000 33.000000 29.000000
v -46.188301 23.000000 28.761499
v -46.188301 33.000000 28.761499
v -48.000000 23.000000 29.000000
v -43.050301 23.000000 26.949699
v -43.050301 33.000000 26.949699
v -52.949699 33.000000 26.949699
v -51.500000 23.000000 28.062201
v -51.500000 33.000000 28.062201
v -52.949699 23.000000 26.949699
v -49.811699 23.000000 28.761499
v -49.811699 33.000000 28.761499
v -41.937801 23.000000 18.500000
v -43.050301 33.000000 17.050301
v -41.937801 33.000000 18.500000
v -43.050301 23.000000 17.050301
v -44.500000 23.000000 28.062201
v -44.500000 33.000000 28.062201
v -54.062199 23.000000 25.500000
v -54.062199 33.000000 25.500000
v -48.000000 23.000000 26.000000
v -49.035301 23.000000 25.863701
v -50.000000 23.000000 25.464100
v -46.964699 23.000000 25.863701
v -50.828400 23.000000 24.828400
v -51.464100 23.000000 24.000000
v -54.761501 23.000000 23.811701
v -51.863701 23.000000 23.035299
v -55.000000 23.000000 22.000000
v -52.000000 23.000000 22.000000
v -51.863701 23.000000 20.964701
v -54.761501 23.000000 20.188299
v -51.464100 23.000000 20.000000
v -54.062199 23.000000 18.500000
v -50.828400 23.000000 19.171600
v -52.949699 23.000000 17.050301
v -50.000000 23.000000 18.535900
v -51.500000 23.000000 15.937800
v -49.035301 23.000000 18.136299
v -46.000000 23.000000 25.464100
v -45.171600 23.000000 24.828400
v -44.535900 23.000000 24.000000
v -44.136299 23.000000 23.035299
v -44.000000 23.000000 22.000000
v -44.136299 23.000000 20.964701
v -41.238499 23.000000 20.188299
v -44.535900 23.000000 20.000000
v -45.171600 23.000000 19.171600
v -46.000000 23.000000 18.535900
v -44.500000 23.000000 15.937800
v -46.964699 23.000000 18.136299
v -46.188301 23.000000 15.238500
v -48.000000 23.000000 18.000000
v -49.811699 23.000000 15.238500
v -48.000000 23.000000 15.000000
v -55.000000 33.000000 22.000000
v -54.761501 33.000000 20.188299
v -46.188301 33.000000 15.238500
v -48.000000 33.000000 15.000000
v -44.500000 33.000000 15.937800
v -54.761501 33.000000 23.811701
v -51.500000 33.000000 15.937800
v -52.949699 33.000000 17.050301
v -41.238499 33.000000 20.188299
v -54.062199 33.000000 18.500000
v -49.811699 33.000000 15.238500
v 54.761501 -33.000000 23.811701
v 55.000000 -23.000000 22.000000
v 54.761501 -23.000000 23.811701
v 55.000000 -33.000000 22.000000
v 54.062199 -33.000000 25.500000
v 54.062199 -23.000000 25.500000
v 46.188301 -23.000000 28.761499
v 48.000000 -33.000000 29.000000
v 48.000000 -23.000000 29.000000
v 46.188301 -33.000000 28.761499
v 51.500000 -23.000000 28.062201
v 52.949699 -33.000000 26.949699
v 52.949699 -23.000000 26.949699
v 51.500000 -33.000000 28.062201
v 41.937801 -33.000000 25.500000
v 43.050301 -23.000000 26.949699
v 41.937801 -23.000000 25.500000
v 43.050301 -33.000000 26.949699
v 44.500000 -33.000000 28.062201
v 44.500000 -23.000000 28.062201
v 49.811699 -33.000000 15.238500
v 51.500000 -23.000000 15.937800
v 51.500000 -33.000000 15.937800
v 49.811699 -23.000000 15.238500
v 49.811699 -33.000000 28.761499
v 49.811699 -23.000000 28.761499
v 41.238499 -33.000000 23.811701
v 41.238499 -23.000000 23.811701
v 48.000000 -23.000000 27.000000
v 49.294102 -23.000000 26.829599
v 46.705898 -23.000000 26.829599
v 50.500000 -23.000000 26.330099
v 51.535500 -23.000000 25.535500
v 52.330101 -23.000000 24.500000
v 52.829601 -23.000000 23.294100
v 53.000000 -23.000000 22.000000
v 52.829601 -23.000000 20.705900
v 54.761501 -23.000000 20.188299
v 52.330101 -23.000000 19.500000
v 54.062199 -23.000000 18.500000
v 51.535500 -23.000000 18.464500
v 52.949699 -23.000000 17.050301
v 50.500000 -23.000000 17.669901
v 49.294102 -23.000000 17.170401
v 45.500000 -23.000000 26.330099
v 44.464500 -23.000000 25.535500
v 43.669899 -23.000000 24.500000
v 43.170399 -23.000000 23.294100
v 43.000000 -23.000000 22.000000
v 41.000000 -23.000000 22.000000
v 43.170399 -23.000000 20.705900
v 41.238499 -23.000000 20.188299
v 43.669899 -23.000000 19.500000
v 41.937801 -23.000000 18.500000
v 44.464500 -23.000000 18.464500
v 43.050301 -23.000000 17.050301
v 45.500000 -23.000000 17.669901
v 44.500000 -23.000000 15.937800
v 46.705898 -23.000000 17.170401
v 46.188301 -23.000000 15.238500
v 48.000000 -23.000000 17.000000
v 48.000000 -23.000000 15.000000
v 41.000000 -33.000000 22.000000
v 41.238499 -33.000000 20.188299
v 54.761501 -33.000000 20.188299
v 41.937801 -33.000000 18.500000
v 54.062199 -33.000000 18.500000
v 43.050301 -33.000000 17.050301
v 52.949699 -33.000000 17.050301
v 44.500000 -33.000000 15.937800
v 46.188301 -33.000000 15.238500
v 48.000000 -33.000000 15.000000
v 54.761501 23.000000 23.811701
v 55.000000 33.000000 22.000000
v 54.761501 33.000000 23.811701
v 55.000000 23.000000 22.000000
v 54.062199 23.000000 25.500000
v 54.062199 33.000000 25.500000
v 46.188301 33.000000 28.761499
v 48.000000 23.000000 29.000000
v 48.000000 33.000000 29.000000
v 46.188301 23.000000 28.761499
v 51.500000 33.000000 28.062201
v 52.949699 23.000000 26.949699
v 52.949699 33.000000 26.949699
v 51.500000 23.000000 28.062201
v 41.937801 23.000000 25.500000
v 43.050301 33.000000 26.949699
v 41.937801 33.000000 25.500000
v 43.050301 23.000000 26.949699
v 44.500000 23.000000 28.062201
v 44.500000 33.000000 28.062201
v 49.811699 23.000000 15.238500
v 51.500000 33.000000 15.937800
v 51.500000 23.000000 15.937800
v 49.811699 33.000000 15.238500
v 49.811699 23.000000 28.761499
v 49.811699 33.000000 28.761499
v 41.238499 23.000000 23.811701
v 41.238499 33.000000 23.811701
v 41.000000 33.000000 22.000000
v 54.761501 33.000000 20.188299
v 41.238499 33.000000 20.188299
v 54.062199 33.000000 18.500000
v 41.937801 33.000000 18.500000
v 52.949699 33.000000 17.050301
v 43.050301 33.000000 17.050301
v 44.500000 33.000000 15.937800
v 46.188301 33.000000 15.238500
v 48.000000 33.000000 15.000000
v 48.000000 23.000000 27.000000
v 46.705898 23.000000 26.829599
v 49.294102 23.000000 26.829599
v 45.500000 23.000000 26.330099
v 44.464500 23.000000 25.535500
v 43.669899 23.000000 24.500000
v 43.170399 23.000000 23.294100
v 41.000000 23.000000 22.000000
v 43.000000 23.000000 22.000000
v 43.170399 23.000000 20.705900
v 41.238499 23.000000 20.188299
v 43.669899 23.000000 19.500000
v 41.937801 23.000000 18.500000
v 44.464500 23.000000 18.464500
v 43.050301 23.000000 17.050301
v 45.500000 23.000000 17.669901
v 44.500000 23.000000 15.937800
v 46.705898 23.000000 17.170401
v 46.188301 23.000000 15.238500
v 50.500000 23.000000 26.330099
v 51.535500 23.000000 25.535500
v 52.330101 23.000000 24.500000
v 52.829601 23.000000 23.294100
v 53.000000 23.000000 22.000000
v 52.829601 23.000000 20.705900
v 54.761501 23.000000 20.188299
v 52.330101 23.000000 19.500000
v 54.062199 23.000000 18.500000
v 51.535500 23.000000 18.464500
v 52.949699 23.000000 17.050301
v 50.500000 23.000000 17.669901
v 49.294102 23.000000 17.170401
v 48.000000 23.000000 17.000000
v 48.000000 23.000000 15.000000
vn -0.577350 -0.577350 -0.577350
vn -0.577350 0.577350 0.577350
vn -0.577350 0.577350 -0.577350
vn -0.577350 -0.577350 0.577350
vn 0.577350 -0.577350 0.577350
vn 0.577350 0.577350 0.577350
vn 0.577350 0.577350 -0.577350
vn 0.577350 -0.577350 -0.577350
vn -0.577350 -0.577350 -0.577350
vn -0.577350 0.577350 0.577350
vn -0.577350 0.577350 -0.577350
vn -0.577350 -0.577350 0.577350
vn 0.577350 -0.577350 0.577350
vn 0.577350 0.577350 0.577350
vn 0.577350 0.577350 -0.577350
vn 0.577350 -0.577350 -0.577350
vn -0.577350 -0.577350 -0.577350
vn -0.577350 0.577350 0.577350
vn -0.577350 0.577350 -0.577350
vn -0.577350 -0.577350 0.577350
vn 0.577350 -0.577350 0.577350
vn 0.577350 0.577350 0.577350
vn 0.577350 0.577350 -0.577350
vn 0.577350 -0.577350 -0.577350
vn 0.687742 -0.709799 0.152302
vn 0.596496 0.802189 0.026175
vn 0.671757 0.709799 0.211963
vn 0.703727 -0.709799 -0.030880
vn 0.624882 -0.709800 0.325124
vn 0.593992 0.709800 0.378625
vn -0.703727 -0.709799 0.030880
vn -0.582946 0.802190 0.129095
vn -0.703727 0.709799 -0.030880
vn -0.671757 -0.709799 0.211963
vn 0.036391 0.557631 0.829291
vn 0.152302 -0.709799 0.687742
vn 0.211962 0.709799 0.671757
vn -0.041558 -0.318405 0.947043
vn 0.563930 -0.603296 0.563930
vn 0.389902 0.834238 0.389901
vn -0.563930 0.603296 0.563930
vn -0.378625 -0.709800 0.593992
vn -0.325124 0.709800 0.624882
vn -0.389902 -0.834238 0.389901
vn -0.249782 -0.557631 0.791616
vn -0.152302 0.709799 0.687742
vn 0.593992 -0.709800 -0.378625
vn 0.563930 0.603296 -0.563930
vn 0.624882 0.709800 -0.325124
vn 0.389902 -0.834238 -0.389902
vn 0.325124 -0.709800 0.624882
vn 0.378625 0.709800 0.593992
vn -0.593992 -0.709800 0.378625
vn -0.624882 0.709800 0.325124
vn -0.687742 -0.709799 -0.152302
vn 0.671757 -0.709799 -0.211963
vn -0.624882 -0.709800 -0.325124
vn -0.563930 -0.603296 -0.563930
vn -0.325124 -0.709800 -0.624882
vn 0.378625 -0.709800 -0.593992
vn -0.152302 -0.709799 -0.687742
vn 0.249782 -0.557631 -0.791616
vn 0.041558 -0.318405 -0.947043
vn -0.671757 0.709799 -0.211963
vn 0.152302 0.709799 -0.687742
vn -0.036390 0.557631 -0.829291
vn 0.325124 0.709800 -0.624882
vn -0.378625 0.709800 -0.593992
vn -0.389902 0.834238 -0.389902
vn -0.026177 0.802190 0.596495
vn 0.152309 0.709799 0.687740
vn 0.325129 0.709800 0.624880
vn -0.211972 0.709799 0.671754
vn 0.563930 0.603296 0.563930
vn 0.624880 0.709800 0.325129
vn 0.687740 0.709799 0.152309
vn 0.829291 0.557631 -0.036393
vn 0.671754 0.709799 -0.211971
vn 0.687742 0.709799 -0.152302
vn 0.593994 0.709800 -0.378624
vn 0.389901 0.834239 -0.389901
vn 0.378624 0.709800 -0.593993
vn 0.211972 0.709799 -0.671754
vn -0.378624 0.709800 0.593993
vn -0.389901 0.834239 0.389901
vn -0.593994 0.709800 0.378624
vn -0.791613 0.557631 0.249793
vn -0.703727 0.709799 0.030882
vn -0.687740 0.709799 -0.152309
vn -0.624880 0.709800 -0.325129
vn -0.593992 0.709800 -0.378625
vn -0.563930 0.603296 -0.563930
vn -0.325129 0.709800 -0.624880
vn -0.152309 0.709799 -0.687740
vn -0.211962 0.709799 -0.671757
vn 0.026177 0.802190 -0.596495
vn 0.582946 -0.802190 0.129095
vn 0.703727 0.709799 0.030880
vn 0.671757 0.709799 0.211963
vn 0.703727 -0.709799 -0.030880
vn 0.624882 -0.709800 0.325124
vn 0.593992 0.709800 0.378625
vn 0.041558 0.318405 0.947043
vn 0.152302 -0.709799 0.687742
vn 0.249782 0.557631 0.791616
vn -0.036391 -0.557631 0.829291
vn 0.563930 -0.603296 0.563930
vn 0.389902 0.834238 0.389901
vn -0.563930 0.603296 0.563930
vn -0.378625 -0.709800 0.593992
vn -0.325124 0.709800 0.624882
vn -0.389902 -0.834238 0.389901
vn -0.211962 -0.709799 0.671757
vn -0.152302 0.709799 0.687742
vn 0.593992 -0.709800 -0.378625
vn 0.563930 0.603296 -0.563930
vn 0.624882 0.709800 -0.325124
vn 0.389902 -0.834238 -0.389902
vn 0.325124 -0.709800 0.624882
vn 0.378625 0.709800 0.593992
vn -0.593992 -0.709800 0.378625
vn -0.624882 0.709800 0.325124
vn 0.026177 -0.802190 0.596495
vn -0.152309 -0.709799 0.687740
vn -0.325129 -0.709800 0.624880
vn 0.211972 -0.709799 0.671754
vn -0.563930 -0.603296 0.563930
vn -0.624880 -0.709800 0.325129
vn -0.671757 -0.709799 0.211963
vn -0.687740 -0.709799 0.152309
vn -0.596496 -0.802189 0.026175
vn -0.829291 -0.557631 -0.036393
vn -0.671754 -0.709799 -0.211971
vn -0.687742 -0.709799 -0.152302
vn -0.593994 -0.709800 -0.378624
vn -0.624882 -0.709800 -0.325124
vn -0.389901 -0.834239 -0.389901
vn -0.563930 -0.603296 -0.563930
vn -0.378624 -0.709800 -0.593993
vn -0.325124 -0.709800 -0.624882
vn -0.211972 -0.709799 -0.671754
vn 0.378624 -0.709800 0.593993
vn 0.389901 -0.834239 0.389901
vn 0.593994 -0.709800 0.378624
vn 0.791613 -0.557631 0.249793
vn 0.703727 -0.709799 0.030882
vn 0.687740 -0.709799 -0.152309
vn 0.671757 -0.709799 -0.211963
vn 0.624880 -0.709800 -0.325129
vn 0.563930 -0.603296 -0.563930
vn 0.325129 -0.709800 -0.624880
vn 0.378625 -0.709800 -0.593992
vn 0.152309 -0.709799 -0.687740
vn 0.211962 -0.709799 -0.671757
vn -0.026177 -0.802190 -0.596495
vn -0.152302 -0.709799 -0.687742
vn 0.036390 -0.557631 -0.829291
vn -0.703727 0.709799 -0.030880
vn -0.671757 0.709799 -0.211963
vn 0.152302 0.709799 -0.687742
vn -0.041558 0.318405 -0.947043
vn 0.325124 0.709800 -0.624882
vn -0.687742 0.709799 0.152302
vn -0.378625 0.709800 -0.593992
vn -0.389902 0.834238 -0.389902
vn 0.687742 0.709799 -0.152302
vn -0.593992 0.709800 -0.378625
vn -0.249782 0.557631 -0.791616
vn 0.687742 -0.709799 0.152302
vn 0.596496 0.802189 0.026175
vn 0.671757 0.709799 0.211963
vn 0.703727 -0.709799 -0.030880
vn 0.624882 -0.709800 0.325124
vn 0.593992 0.709800 0.378625
vn -0.152302 0.709799 0.687742
vn -0.041558 -0.318405 0.947043
vn 0.036391 0.557631 0.829291
vn -0.249782 -0.557631 0.791616
vn 0.378625 0.709800 0.593992
vn 0.563930 -0.603296 0.563930
vn 0.389902 0.834238 0.389901
vn 0.325124 -0.709800 0.624882
vn -0.593992 -0.709800 0.378625
vn -0.563930 0.603296 0.563930
vn -0.624882 0.709800 0.325124
vn -0.389902 -0.834238 0.389901
vn -0.378625 -0.709800 0.593992
vn -0.325124 0.709800 0.624882
vn 0.249782 -0.557631 -0.791616
vn 0.325124 0.709800 -0.624882
vn 0.378625 -0.709800 -0.593992
vn 0.152302 0.709799 -0.687742
vn 0.152302 -0.709799 0.687742
vn 0.211962 0.709799 0.671757
vn -0.671757 -0.709799 0.211963
vn -0.582946 0.802190 0.129095
vn -0.026181 0.802190 0.596494
vn 0.152318 0.709799 0.687739
vn -0.211973 0.709799 0.671754
vn 0.325123 0.709800 0.624884
vn 0.563929 0.603297 0.563930
vn 0.624884 0.709800 0.325123
vn 0.687739 0.709799 0.152317
vn 0.829290 0.557632 -0.036399
vn 0.671754 0.709799 -0.211973
vn 0.687742 0.709799 -0.152302
vn 0.593998 0.709800 -0.378617
vn 0.624882 0.709800 -0.325124
vn 0.389900 0.834239 -0.389901
vn 0.563930 0.603296 -0.563930
vn 0.378616 0.709800 -0.593999
vn 0.211973 0.709799 -0.671754
vn -0.378616 0.709800 0.593999
vn -0.389900 0.834239 0.389901
vn -0.593998 0.709800 0.378617
vn -0.791613 0.557631 0.249794
vn -0.703726 0.709800 0.030887
vn -0.703727 0.709799 -0.030880
vn -0.687739 0.709799 -0.152317
vn -0.671757 0.709799 -0.211963
vn -0.624884 0.709800 -0.325123
vn -0.593992 0.709800 -0.378625
vn -0.563929 0.603297 -0.563930
vn -0.389902 0.834238 -0.389902
vn -0.325123 0.709800 -0.624884
vn -0.378625 0.709800 -0.593992
vn -0.152318 0.709799 -0.687739
vn -0.211962 0.709799 -0.671757
vn 0.026181 0.802190 -0.596494
vn -0.036390 0.557631 -0.829291
vn -0.703727 -0.709799 0.030880
vn -0.687742 -0.709799 -0.152302
vn 0.671757 -0.709799 -0.211963
vn -0.624882 -0.709800 -0.325124
vn 0.593992 -0.709800 -0.378625
vn -0.563930 -0.603296 -0.563930
vn 0.389902 -0.834238 -0.389902
vn -0.325124 -0.709800 -0.624882
vn -0.152302 -0.709799 -0.687742
vn 0.041558 -0.318405 -0.947043
vn 0.582946 -0.802190 0.129095
vn 0.703727 0.709799 0.030880
vn 0.671757 0.709799 0.211963
vn 0.703727 -0.709799 -0.030880
vn 0.624882 -0.709800 0.325124
vn 0.593992 0.709800 0.378625
vn -0.152302 0.709799 0.687742
vn -0.036391 -0.557631 0.829291
vn 0.041558 0.318405 0.947043
vn -0.211962 -0.709799 0.671757
vn 0.378625 0.709800 0.593992
vn 0.563930 -0.603296 0.563930
vn 0.389902 0.834238 0.389901
vn 0.325124 -0.709800 0.624882
vn -0.593992 -0.709800 0.378625
vn -0.563930 0.603296 0.563930
vn -0.624882 0.709800 0.325124
vn -0.389902 -0.834238 0.389901
vn -0.378625 -0.709800 0.593992
vn -0.325124 0.709800 0.624882
vn 0.211962 -0.709799 -0.671757
vn 0.325124 0.709800 -0.624882
vn 0.378625 -0.709800 -0.593992
vn 0.152302 0.709799 -0.687742
vn 0.152302 -0.709799 0.687742
vn 0.249782 0.557631 0.791616
vn -0.671757 -0.709799 0.211963
vn -0.687742 0.709799 0.152302
vn -0.703727 0.709799 -0.030880
vn 0.687742 0.709799 -0.152302
vn -0.671757 0.709799 -0.211963
vn 0.624882 0.709800 -0.325124
vn -0.593992 0.709800 -0.378625
vn 0.563930 0.603296 -0.563930
vn -0.389902 0.834238 -0.389902
vn -0.378625 0.709800 -0.593992
vn -0.249782 0.557631 -0.791616
vn -0.041558 0.318405 -0.947043
vn 0.026181 -0.802190 0.596494
vn -0.152318 -0.709799 0.687739
vn 0.211973 -0.709799 0.671754
vn -0.325123 -0.709800 0.624884
vn -0.563929 -0.603297 0.563930
vn -0.624884 -0.709800 0.325123
vn -0.687739 -0.709799 0.152317
vn -0.596496 -0.802189 0.026175
vn -0.829290 -0.557632 -0.036399
vn -0.671754 -0.709799 -0.211973
vn -0.687742 -0.709799 -0.152302
vn -0.593998 -0.709800 -0.378617
vn -0.624882 -0.709800 -0.325124
vn -0.389900 -0.834239 -0.389901
vn -0.563930 -0.603296 -0.563930
vn -0.378616 -0.709800 -0.593999
vn -0.325124 -0.709800 -0.624882
vn -0.211973 -0.709799 -0.671754
vn -0.152302 -0.709799 -0.687742
vn 0.378616 -0.709800 0.593999
vn 0.389900 -0.834239 0.389901
vn 0.593998 -0.709800 0.378617
vn 0.791613 -0.557631 0.249794
vn 0.703726 -0.709800 0.030887
vn 0.687739 -0.709799 -0.152317
vn 0.671757 -0.709799 -0.211963
vn 0.624884 -0.709800 -0.325123
vn 0.593992 -0.709800 -0.378625
vn 0.563929 -0.603297 -0.563930
vn 0.389902 -0.834238 -0.389902
vn 0.325123 -0.709800 -0.624884
vn 0.152318 -0.709799 -0.687739
vn -0.026181 -0.802190 -0.596494
vn 0.036390 -0.557631 -0.829291

s 1
f 1//1 2//2 3//3
f 2//2 1//1 4//4
f 2//2 5//5 6//6
f 5//5 2//2 4//4
f 5//5 7//7 6//6
f 7//7 5//5 8//8
f 7//7 2//2 6//6
f 2//2 7//7 3//3
f 1//1 7//7 8//8
f 7//7 1//1 3//3
f 1//1 5//5 4//4
f 5//5 1//1 8//8
f 9//9 10//10 11//11
f 10//10 9//9 12//12
f 10//10 13//13 14//14
f 13//13 10//10 12//12
f 13//13 15//15 14//14
f 15//15 13//13 16//16
f 15//15 10//10 14//14
f 10//10 15//15 11//11
f 9//9 15//15 16//16
f 15//15 9//9 11//11
f 9//9 13//13 12//12
f 13//13 9//9 16//16
f 17//17 18//18 19//19
f 18//18 17//17 20//20
f 18//18 21//21 22//22
f 21//21 18//18 20//20
f 21//21 23//23 22//22
f 23//23 21//21 24//24
f 23//23 18//18 22//22
f 18//18 23//23 19//19
f 17//17 23//23 24//24
f 23//23 17//17 19//19
f 17//17 21//21 20//20
f 21//21 17//17 24//24
f 25//25 26//26 27//27
f 26//26 25//25 28//28
f 29//29 27//27 30//30
f 27//27 29//29 25//25
f 31//31 32//32 33//33
f 32//32 31//31 34//34
f 35//35 36//36 37//37
f 36//36 35//35 38//38
f 39//39 30//30 40//40
f 30//30 39//39 29//29
f 41//41 42//42 43//43
f 42//42 41//41 44//44
f 43//43 45//45 46//46
f 45//45 43//43 42//42
f 47//47 48//48 49//49
f 48//48 47//47 50//50
f 37//37 51//51 52//52
f 51//51 37//37 36//36
f 52//52 39//39 40//40
f 39//39 52//52 51//51
f 53//53 41//41 54//54
f 41//41 53//53 44//44
f 45//45 36//36 38//38
f 42//42 36//36 45//45
f 42//42 51//51 36//36
f 44//44 51//51 42//42
f 44//44 39//39 51//51
f 53//53 39//39 44//44
f 53//53 29//29 39//39
f 34//34 29//29 53//53
f 34//34 25//25 29//29
f 31//31 25//25 34//34
f 31//31 28//28 25//25
f 55//55 28//28 31//31
f 55//55 56//56 28//28
f 57//57 56//56 55//55
f 57//57 47//47 56//56
f 58//58 47//47 57//57
f 58//58 50//50 47//47
f 59//59 50//50 58//58
f 59//59 60//60 50//50
f 61//61 60//60 59//59
f 61//61 62//62 60//60
f 62//62 61//61 63//63
f 46//46 38//38 35//35
f 38//38 46//46 45//45
f 55//55 33//33 64//64
f 33//33 55//55 31//31
f 63//63 65//65 62//62
f 65//65 63//63 66//66
f 60//60 48//48 50//50
f 48//48 60//60 67//67
f 34//34 54//54 32//32
f 54//54 34//34 53//53
f 58//58 68//68 59//59
f 68//68 58//58 69//69
f 70//70 35//35 37//37
f 71//71 37//37 52//52
f 35//35 70//70 46//46
f 72//72 52//52 40//40
f 73//73 46//46 70//70
f 46//46 73//73 43//43
f 37//37 71//71 70//70
f 74//74 40//40 30//30
f 52//52 72//72 71//71
f 40//40 74//74 72//72
f 30//30 75//75 74//74
f 27//27 75//75 30//30
f 27//27 76//76 75//75
f 26//26 76//76 27//27
f 26//26 77//77 76//76
f 26//26 78//78 77//77
f 79//79 78//78 26//26
f 79//79 80//80 78//78
f 49//49 80//80 79//79
f 80//80 49//49 81//81
f 48//48 81//81 49//49
f 81//81 48//48 82//82
f 67//67 82//82 48//48
f 82//82 67//67 83//83
f 84//84 43//43 73//73
f 43//43 84//84 41//41
f 85//85 41//41 84//84
f 41//41 85//85 54//54
f 86//86 54//54 85//85
f 86//86 32//32 54//54
f 87//87 32//32 86//86
f 88//88 32//32 87//87
f 88//88 33//33 32//32
f 89//89 33//33 88//88
f 89//89 64//64 33//33
f 90//90 64//64 89//89
f 91//91 90//90 92//92
f 69//69 92//92 93//93
f 90//90 91//91 64//64
f 68//68 93//93 94//94
f 95//95 94//94 96//96
f 65//65 83//83 67//67
f 92//92 69//69 91//91
f 83//83 65//65 96//96
f 93//93 68//68 69//69
f 66//66 96//96 65//65
f 94//94 95//95 68//68
f 96//96 66//66 95//95
f 62//62 67//67 60//60
f 67//67 62//62 65//65
f 56//56 49//49 79//79
f 49//49 56//56 47//47
f 28//28 79//79 26//26
f 79//79 28//28 56//56
f 59//59 95//95 61//61
f 95//95 59//59 68//68
f 61//61 66//66 63//63
f 66//66 61//61 95//95
f 57//57 64//64 91//91
f 64//64 57//57 55//55
f 58//58 91//91 69//69
f 91//91 58//58 57//57
f 97//97 98//98 99//99
f 98//98 97//97 100//100
f 101//101 99//99 102//102
f 99//99 101//101 97//97
f 103//103 104//104 105//105
f 104//104 103//103 106//106
f 107//107 102//102 108//108
f 102//102 107//107 101//101
f 109//109 110//110 111//111
f 110//110 109//109 112//112
f 111//111 113//113 114//114
f 113//113 111//111 110//110
f 115//115 116//116 117//117
f 116//116 115//115 118//118
f 105//105 119//119 120//120
f 119//119 105//105 104//104
f 120//120 107//107 108//108
f 107//107 120//120 119//119
f 121//121 109//109 122//122
f 109//109 121//121 112//112
f 123//123 106//106 113//113
f 124//124 113//113 110//110
f 106//106 123//123 104//104
f 125//125 110//110 112//112
f 126//126 104//104 123//123
f 104//104 126//126 119//119
f 113//113 124//124 123//123
f 127//127 112//112 121//121
f 110//110 125//125 124//124
f 112//112 127//127 125//125
f 121//121 128//128 127//127
f 129//129 128//128 121//121
f 129//129 130//130 128//128
f 131//131 130//130 129//129
f 131//131 132//132 130//130
f 131//131 133//133 132//132
f 134//134 133//133 131//131
f 134//134 135//135 133//133
f 136//136 135//135 134//134
f 135//135 136//136 137//137
f 138//138 137//137 136//136
f 137//137 138//138 139//139
f 140//140 139//139 138//138
f 139//139 140//140 141//141
f 142//142 119//119 126//126
f 119//119 142//142 107//107
f 143//143 107//107 142//142
f 107//107 143//143 101//101
f 144//144 101//101 143//143
f 144//144 97//97 101//101
f 145//145 97//97 144//144
f 146//146 97//97 145//145
f 146//146 100//100 97//97
f 147//147 100//100 146//146
f 147//147 148//148 100//100
f 149//149 148//148 147//147
f 115//115 149//149 150//150
f 118//118 150//150 151//151
f 149//149 115//115 148//148
f 152//152 151//151 153//153
f 154//154 153//153 155//155
f 156//156 141//141 140//140
f 150//150 118//118 115//115
f 141//141 156//156 155//155
f 151//151 152//152 118//118
f 157//157 155//155 156//156
f 153//153 154//154 152//152
f 155//155 157//157 154//154
f 114//114 106//106 103//103
f 106//106 114//114 113//113
f 134//134 158//158 159//159
f 158//158 134//134 131//131
f 157//157 160//160 154//154
f 160//160 157//157 161//161
f 152//152 116//116 118//118
f 116//116 152//152 162//162
f 129//129 122//122 163//163
f 122//122 129//129 121//121
f 131//131 163//163 158//158
f 163//163 131//131 129//129
f 138//138 164//164 140//140
f 164//164 138//138 165//165
f 105//105 114//114 103//103
f 120//120 114//114 105//105
f 120//120 111//111 114//114
f 108//108 111//111 120//120
f 108//108 109//109 111//111
f 102//102 109//109 108//108
f 102//102 122//122 109//109
f 99//99 122//122 102//102
f 99//99 163//163 122//122
f 98//98 163//163 99//99
f 98//98 158//158 163//163
f 166//166 158//158 98//98
f 166//166 159//159 158//158
f 117//117 159//159 166//166
f 117//117 167//167 159//159
f 116//116 167//167 117//117
f 116//116 165//165 167//167
f 162//162 165//165 116//116
f 162//162 164//164 165//165
f 160//160 164//164 162//162
f 160//160 168//168 164//164
f 168//168 160//160 161//161
f 154//154 162//162 152//152
f 162//162 154//154 160//160
f 148//148 117//117 166//166
f 117//117 148//148 115//115
f 100//100 166//166 98//98
f 166//166 100//100 148//148
f 140//140 168//168 156//156
f 168//168 140//140 164//164
f 156//156 161//161 157//157
f 161//161 156//156 168//168
f 136//136 159//159 167//167
f 159//159 136//136 134//134
f 138//138 167//167 165//165
f 167//167 138//138 136//136
f 76//76 146//146 145//145
f 146//146 76//76 77//77
f 75//75 145//145 144//144
f 145//145 75//75 76//76
f 89//89 132//132 133//133
f 132//132 89//89 88//88
f 123//123 71//71 126//126
f 71//71 123//123 70//70
f 77//77 147//147 146//146
f 147//147 77//77 78//78
f 74//74 144//144 143//143
f 144//144 74//74 75//75
f 83//83 151//151 82//82
f 151//151 83//83 153//153
f 88//88 130//130 132//132
f 130//130 88//88 87//87
f 86//86 127//127 128//128
f 127//127 86//86 85//85
f 127//127 84//84 125//125
f 84//84 127//127 85//85
f 80//80 150//150 149//149
f 150//150 80//80 81//81
f 96//96 153//153 83//83
f 153//153 96//96 155//155
f 142//142 74//74 143//143
f 74//74 142//142 72//72
f 126//126 72//72 142//142
f 72//72 126//126 71//71
f 87//87 128//128 130//130
f 128//128 87//87 86//86
f 124//124 70//70 123//123
f 70//70 124//124 73//73
f 125//125 73//73 124//124
f 73//73 125//125 84//84
f 93//93 141//141 94//94
f 141//141 93//93 139//139
f 94//94 155//155 96//96
f 155//155 94//94 141//141
f 78//78 149//149 147//147
f 149//149 78//78 80//80
f 82//82 150//150 81//81
f 150//150 82//82 151//151
f 90//90 133//133 135//135
f 133//133 90//90 89//89
f 92//92 135//135 137//137
f 135//135 92//92 90//90
f 92//92 139//139 93//93
f 139//139 92//92 137//137
f 169//169 170//170 171//171
f 170//170 169//169 172//172
f 173//173 171//171 174//174
f 171//171 173//173 169//169
f 175//175 176//176 177//177
f 176//176 175//175 178//178
f 179//179 180//180 181//181
f 180//180 179//179 182//182
f 183//183 184//184 185//185
f 184//184 183//183 186//186
f 184//184 187//187 188//188
f 187//187 184//184 186//186
f 189//189 190//190 191//191
f 190//190 189//189 192//192
f 177//177 193//193 194//194
f 193//193 177//177 176//176
f 194//194 182//182 179//179
f 182//182 194//194 193//193
f 195//195 185//185 196//196
f 185//185 195//195 183//183
f 197//197 177//177 194//194
f 198//198 194//194 179//179
f 177//177 197//197 175//175
f 199//199 175//175 197//197
f 200//200 179//179 181//181
f 194//194 198//198 197//197
f 179//179 200//200 198//198
f 181//181 201//201 200//200
f 174//174 201//201 181//181
f 174//174 202//202 201//201
f 171//171 202//202 174//174
f 171//171 203//203 202//202
f 170//170 203//203 171//171
f 170//170 204//204 203//203
f 170//170 205//205 204//204
f 206//206 205//205 170//170
f 206//206 207//207 205//205
f 208//208 207//207 206//206
f 208//208 209//209 207//207
f 210//210 209//209 208//208
f 209//209 210//210 211//211
f 190//190 211//211 210//210
f 211//211 190//190 212//212
f 192//192 212//212 190//190
f 175//175 199//199 188//188
f 213//213 188//188 199//199
f 188//188 213//213 184//184
f 214//214 184//184 213//213
f 214//214 185//185 184//184
f 215//215 185//185 214//214
f 215//215 196//196 185//185
f 216//216 196//196 215//215
f 217//217 196//196 216//216
f 217//217 218//218 196//196
f 219//219 218//218 217//217
f 219//219 220//220 218//218
f 221//221 220//220 219//219
f 221//221 222//222 220//220
f 223//223 222//222 221//221
f 224//224 223//223 225//225
f 226//226 225//225 227//227
f 223//223 224//224 222//222
f 228//228 227//227 229//229
f 212//212 192//192 229//229
f 225//225 226//226 224//224
f 230//230 229//229 192//192
f 227//227 228//228 226//226
f 229//229 230//230 228//228
f 178//178 193//193 176//176
f 187//187 193//193 178//178
f 187//187 182//182 193//193
f 186//186 182//182 187//187
f 186//186 180//180 182//182
f 183//183 180//180 186//186
f 183//183 173//173 180//180
f 195//195 173//173 183//183
f 195//195 169//169 173//173
f 231//231 169//169 195//195
f 231//231 172//172 169//169
f 232//232 172//172 231//231
f 232//232 233//233 172//172
f 234//234 233//233 232//232
f 234//234 235//235 233//233
f 236//236 235//235 234//234
f 236//236 237//237 235//235
f 238//238 237//237 236//236
f 238//238 191//191 237//237
f 239//239 191//191 238//238
f 239//239 189//189 191//191
f 189//189 239//239 240//240
f 188//188 178//178 175//175
f 178//178 188//188 187//187
f 238//238 228//228 239//239
f 228//228 238//238 226//226
f 236//236 226//226 238//238
f 226//226 236//236 224//224
f 234//234 220//220 222//222
f 220//220 234//234 232//232
f 180//180 174//174 181//181
f 174//174 180//180 173//173
f 231//231 196//196 218//218
f 196//196 231//231 195//195
f 232//232 218//218 220//220
f 218//218 232//232 231//231
f 233//233 208//208 206//206
f 208//208 233//233 235//235
f 172//172 206//206 170//170
f 206//206 172//172 233//233
f 191//191 210//210 237//237
f 210//210 191//191 190//190
f 235//235 210//210 208//208
f 210//210 235//235 237//237
f 239//239 230//230 240//240
f 230//230 239//239 228//228
f 240//240 192//192 189//189
f 192//192 240//240 230//230
f 236//236 222//222 224//224
f 222//222 236//236 234//234
f 241//241 242//242 243//243
f 242//242 241//241 244//244
f 245//245 243//243 246//246
f 243//243 245//245 241//241
f 247//247 248//248 249//249
f 248//248 247//247 250//250
f 251//251 252//252 253//253
f 252//252 251//251 254//254
f 255//255 256//256 257//257
f 256//256 255//255 258//258
f 256//256 259//259 260//260
f 259//259 256//256 258//258
f 261//261 262//262 263//263
f 262//262 261//261 264//264
f 249//249 265//265 266//266
f 265//265 249//249 248//248
f 266//266 254//254 251//251
f 254//254 266//266 265//265
f 267//267 257//257 268//268
f 257//257 267//267 255//255
f 266//266 247//247 249//249
f 251//251 247//247 266//266
f 251//251 260//260 247//247
f 253//253 260//260 251//251
f 253//253 256//256 260//260
f 246//246 256//256 253//253
f 246//246 257//257 256//256
f 243//243 257//257 246//246
f 243//243 268//268 257//257
f 242//242 268//268 243//243
f 242//242 269//269 268//268
f 270//270 269//269 242//242
f 270//270 271//271 269//269
f 272//272 271//271 270//270
f 272//272 273//273 271//271
f 274//274 273//273 272//272
f 274//274 275//275 273//273
f 262//262 275//275 274//274
f 262//262 276//276 275//275
f 264//264 276//276 262//262
f 264//264 277//277 276//276
f 277//277 264//264 278//278
f 279//279 248//248 250//250
f 280//280 250//250 259//259
f 248//248 279//279 265//265
f 281//281 265//265 279//279
f 282//282 259//259 258//258
f 250//250 280//280 279//279
f 259//259 282//282 280//280
f 258//258 283//283 282//282
f 255//255 283//283 258//258
f 255//255 284//284 283//283
f 267//267 284//284 255//255
f 267//267 285//285 284//284
f 286//286 285//285 267//267
f 286//286 287//287 285//285
f 286//286 288//288 287//287
f 289//289 288//288 286//286
f 289//289 290//290 288//288
f 291//291 290//290 289//289
f 291//291 292//292 290//290
f 293//293 292//292 291//291
f 292//292 293//293 294//294
f 295//295 294//294 293//293
f 294//294 295//295 296//296
f 297//297 296//296 295//295
f 265//265 281//281 254//254
f 298//298 254//254 281//281
f 254//254 298//298 252//252
f 299//299 252//252 298//298
f 299//299 245//245 252//252
f 300//300 245//245 299//299
f 300//300 241//241 245//245
f 301//301 241//241 300//300
f 302//302 241//241 301//301
f 302//302 244//244 241//241
f 303//303 244//244 302//302
f 303//303 304//304 244//244
f 305//305 304//304 303//303
f 305//305 306//306 304//304
f 307//307 306//306 305//305
f 308//308 307//307 309//309
f 263//263 309//309 310//310
f 307//307 308//308 306//306
f 261//261 310//310 311//311
f 296//296 297//297 311//311
f 309//309 263//263 308//308
f 312//312 311//311 297//297
f 310//310 261//261 263//263
f 311//311 312//312 261//261
f 260//260 250//250 247//247
f 250//250 260//260 259//259
f 295//295 277//277 297//297
f 277//277 295//295 276//276
f 293//293 276//276 295//295
f 276//276 293//293 275//275
f 291//291 271//271 273//273
f 271//271 291//291 289//289
f 252//252 246//246 253//253
f 246//246 252//252 245//245
f 286//286 268//268 269//269
f 268//268 286//286 267//267
f 289//289 269//269 271//271
f 269//269 289//289 286//286
f 304//304 272//272 270//270
f 272//272 304//304 306//306
f 244//244 270//270 242//242
f 270//270 244//244 304//304
f 263//263 274//274 308//308
f 274//274 263//263 262//262
f 306//306 274//274 272//272
f 274//274 306//306 308//308
f 297//297 278//278 312//312
f 278//278 297//297 277//277
f 312//312 264//264 261//261
f 264//264 312//312 278//278
f 293//293 273//273 275//275
f 273//273 293//293 291//291
f 203//203 302//302 301//301
f 302//302 203//203 204//204
f 227//227 311//311 229//229
f 311//311 227//227 296//296
f 298//298 201//201 299//299
f 201//201 298//298 200//200
f 280//280 197//197 279//279
f 197//197 280//280 199//199
f 281//281 200//200 298//298
f 200//200 281//281 198//198
f 204//204 303//303 302//302
f 303//303 204//204 205//205
f 225//225 296//296 227//227
f 296//296 225//225 294//294
f 201//201 300//300 299//299
f 300//300 201//201 202//202
f 279//279 198//198 281//281
f 198//198 279//279 197//197
f 219//219 287//287 288//288
f 287//287 219//219 217//217
f 216//216 284//284 285//285
f 284//284 216//216 215//215
f 215//215 283//283 284//284
f 283//283 215//215 214//214
f 229//229 310//310 212//212
f 310//310 229//229 311//311
f 223//223 294//294 225//225
f 294//294 223//223 292//292
f 202//202 301//301 300//300
f 301//301 202//202 203//203
f 217//217 285//285 287//287
f 285//285 217//217 216//216
f 282//282 199//199 280//280
f 199//199 282//282 213//213
f 283//283 213//213 282//282
f 213//213 283//283 214//214
f 207//207 307//307 305//305
f 307//307 207//207 209//209
f 212//212 309//309 211//211
f 309//309 212//212 310//310
f 211//211 307//307 209//209
f 307//307 211//211 309//309
f 221//221 288//288 290//290
f 288//288 221//221 219//219
f 223//223 290//290 292//292
f 290//290 223//223 221//221
f 205//205 305//305 303//303
f 305//305 205//205 207//207
