solid OpenSCAD_Model
  facet normal -1 0 0
    outer loop
      vertex -31 -31 38.5
      vertex -31 31 49.5
      vertex -31 31 38.5
    endloop
  endfacet
  facet normal -1 -0 0
    outer loop
      vertex -31 31 49.5
      vertex -31 -31 38.5
      vertex -31 -31 49.5
    endloop
  endfacet
  facet normal -0 0 1
    outer loop
      vertex -31 31 49.5
      vertex -25 -31 49.5
      vertex -25 31 49.5
    endloop
  endfacet
  facet normal 0 0 1
    outer loop
      vertex -25 -31 49.5
      vertex -31 31 49.5
      vertex -31 -31 49.5
    endloop
  endfacet
  facet normal 1 -0 0
    outer loop
      vertex -25 -31 49.5
      vertex -25 31 38.5
      vertex -25 31 49.5
    endloop
  endfacet
  facet normal 1 0 0
    outer loop
      vertex -25 31 38.5
      vertex -25 -31 49.5
      vertex -25 -31 38.5
    endloop
  endfacet
  facet normal 0 1 -0
    outer loop
      vertex -25 31 38.5
      vertex -31 31 49.5
      vertex -25 31 49.5
    endloop
  endfacet
  facet normal 0 1 0
    outer loop
      vertex -31 31 49.5
      vertex -25 31 38.5
      vertex -31 31 38.5
    endloop
  endfacet
  facet normal 0 0 -1
    outer loop
      vertex -31 -31 38.5
      vertex -25 31 38.5
      vertex -25 -31 38.5
    endloop
  endfacet
  facet normal -0 0 -1
    outer loop
      vertex -25 31 38.5
      vertex -31 -31 38.5
      vertex -31 31 38.5
    endloop
  endfacet
  facet normal 0 -1 0
    outer loop
      vertex -31 -31 38.5
      vertex -25 -31 49.5
      vertex -31 -31 49.5
    endloop
  endfacet
  facet normal 0 -1 -0
    outer loop
      vertex -25 -31 49.5
      vertex -31 -31 38.5
      vertex -25 -31 38.5
    endloop
  endfacet
  facet normal -1 0 0
    outer loop
      vertex -3 -31 38.5
      vertex -3 31 49.5
      vertex -3 31 38.5
    endloop
  endfacet
  facet normal -1 -0 0
    outer loop
      vertex -3 31 49.5
      vertex -3 -31 38.5
      vertex -3 -31 49.5
    endloop
  endfacet
  facet normal -0 0 1
    outer loop
      vertex -3 31 49.5
      vertex 3 -31 49.5
      vertex 3 31 49.5
    endloop
  endfacet
  facet normal 0 0 1
    outer loop
      vertex 3 -31 49.5
      vertex -3 31 49.5
      vertex -3 -31 49.5
    endloop
  endfacet
  facet normal 1 -0 0
    outer loop
      vertex 3 -31 49.5
      vertex 3 31 38.5
      vertex 3 31 49.5
    endloop
  endfacet
  facet normal 1 0 0
    outer loop
      vertex 3 31 38.5
      vertex 3 -31 49.5
      vertex 3 -31 38.5
    endloop
  endfacet
  facet normal 0 1 -0
    outer loop
      vertex 3 31 38.5
      vertex -3 31 49.5
      vertex 3 31 49.5
    endloop
  endfacet
  facet normal 0 1 0
    outer loop
      vertex -3 31 49.5
      vertex 3 31 38.5
      vertex -3 31 38.5
    endloop
  endfacet
  facet normal 0 0 -1
    outer loop
      vertex -3 -31 38.5
      vertex 3 31 38.5
      vertex 3 -31 38.5
    endloop
  endfacet
  facet normal -0 0 -1
    outer loop
      vertex 3 31 38.5
      vertex -3 -31 38.5
      vertex -3 31 38.5
    endloop
  endfacet
  facet normal 0 -1 0
    outer loop
      vertex -3 -31 38.5
      vertex 3 -31 49.5
      vertex -3 -31 49.5
    endloop
  endfacet
  facet normal 0 -1 -0
    outer loop
      vertex 3 -31 49.5
      vertex -3 -31 38.5
      vertex 3 -31 38.5
    endloop
  endfacet
  facet normal -1 0 0
    outer loop
      vertex 25 -31 38.5
      vertex 25 31 49.5
      vertex 25 31 38.5
    endloop
  endfacet
  facet normal -1 -0 0
    outer loop
      vertex 25 31 49.5
      vertex 25 -31 38.5
      vertex 25 -31 49.5
    endloop
  endfacet
  facet normal -0 0 1
    outer loop
      vertex 25 31 49.5
      vertex 31 -31 49.5
      vertex 31 31 49.5
    endloop
  endfacet
  facet normal 0 0 1
    outer loop
      vertex 31 -31 49.5
      vertex 25 31 49.5
      vertex 25 -31 49.5
    endloop
  endfacet
  facet normal 1 -0 0
    outer loop
      vertex 31 -31 49.5
      vertex 31 31 38.5
      vertex 31 31 49.5
    endloop
  endfacet
  facet normal 1 0 0
    outer loop
      vertex 31 31 38.5
      vertex 31 -31 49.5
      vertex 31 -31 38.5
    endloop
  endfacet
  facet normal 0 1 -0
    outer loop
      vertex 31 31 38.5
      vertex 25 31 49.5
      vertex 31 31 49.5
    endloop
  endfacet
  facet normal 0 1 0
    outer loop
      vertex 25 31 49.5
      vertex 31 31 38.5
      vertex 25 31 38.5
    endloop
  endfacet
  facet normal 0 0 -1
    outer loop
      vertex 25 -31 38.5
      vertex 31 31 38.5
      vertex 31 -31 38.5
    endloop
  endfacet
  facet normal -0 0 -1
    outer loop
      vertex 31 31 38.5
      vertex 25 -31 38.5
      vertex 25 31 38.5
    endloop
  endfacet
  facet normal 0 -1 0
    outer loop
      vertex 25 -31 38.5
      vertex 31 -31 49.5
      vertex 25 -31 49.5
    endloop
  endfacet
  facet normal 0 -1 -0
    outer loop
      vertex 31 -31 49.5
      vertex 25 -31 38.5
      vertex 31 -31 38.5
    endloop
  endfacet
  facet normal 0.991446 -0 0.130518
    outer loop
      vertex -41.2385 -33 23.8117
      vertex -41 -23 22
      vertex -41.2385 -23 23.8117
    endloop
  endfacet
  facet normal 0.991446 0 0.130518
    outer loop
      vertex -41 -23 22
      vertex -41.2385 -33 23.8117
      vertex -41 -33 22
    endloop
  endfacet
  facet normal 0.923883 -0 0.382676
    outer loop
      vertex -41.9378 -33 25.5
      vertex -41.2385 -23 23.8117
      vertex -41.9378 -23 25.5
    endloop
  endfacet
  facet normal 0.923883 0 0.382676
    outer loop
      vertex -41.2385 -23 23.8117
      vertex -41.9378 -33 25.5
      vertex -41.2385 -33 23.8117
    endloop
  endfacet
  facet normal -0.991446 0 0.130518
    outer loop
      vertex -55 -33 22
      vertex -54.7615 -23 23.8117
      vertex -55 -23 22
    endloop
  endfacet
  facet normal -0.991446 0 0.130518
    outer loop
      vertex -54.7615 -23 23.8117
      vertex -55 -33 22
      vertex -54.7615 -33 23.8117
    endloop
  endfacet
  facet normal 0.130518 0 0.991446
    outer loop
      vertex -48 -23 29
      vertex -46.1883 -33 28.7615
      vertex -46.1883 -23 28.7615
    endloop
  endfacet
  facet normal 0.130518 0 0.991446
    outer loop
      vertex -46.1883 -33 28.7615
      vertex -48 -23 29
      vertex -48 -33 29
    endloop
  endfacet
  facet normal 0.793325 -0 0.608798
    outer loop
      vertex -43.0503 -33 26.9497
      vertex -41.9378 -23 25.5
      vertex -43.0503 -23 26.9497
    endloop
  endfacet
  facet normal 0.793325 0 0.608798
    outer loop
      vertex -41.9378 -23 25.5
      vertex -43.0503 -33 26.9497
      vertex -41.9378 -33 25.5
    endloop
  endfacet
  facet normal -0.608798 0 0.793325
    outer loop
      vertex -52.9497 -23 26.9497
      vertex -51.5 -33 28.0622
      vertex -51.5 -23 28.0622
    endloop
  endfacet
  facet normal -0.608798 0 0.793325
    outer loop
      vertex -51.5 -33 28.0622
      vertex -52.9497 -23 26.9497
      vertex -52.9497 -33 26.9497
    endloop
  endfacet
  facet normal -0.382676 0 0.923883
    outer loop
      vertex -51.5 -23 28.0622
      vertex -49.8117 -33 28.7615
      vertex -49.8117 -23 28.7615
    endloop
  endfacet
  facet normal -0.382676 0 0.923883
    outer loop
      vertex -49.8117 -33 28.7615
      vertex -51.5 -23 28.0622
      vertex -51.5 -33 28.0622
    endloop
  endfacet
  facet normal 0.793325 0 -0.608798
    outer loop
      vertex -41.9378 -33 18.5
      vertex -43.0503 -23 17.0503
      vertex -41.9378 -23 18.5
    endloop
  endfacet
  facet normal 0.793325 0 -0.608798
    outer loop
      vertex -43.0503 -23 17.0503
      vertex -41.9378 -33 18.5
      vertex -43.0503 -33 17.0503
    endloop
  endfacet
  facet normal 0.382676 0 0.923883
    outer loop
      vertex -46.1883 -23 28.7615
      vertex -44.5 -33 28.0622
      vertex -44.5 -23 28.0622
    endloop
  endfacet
  facet normal 0.382676 0 0.923883
    outer loop
      vertex -44.5 -33 28.0622
      vertex -46.1883 -23 28.7615
      vertex -46.1883 -33 28.7615
    endloop
  endfacet
  facet normal 0.608798 0 0.793325
    outer loop
      vertex -44.5 -23 28.0622
      vertex -43.0503 -33 26.9497
      vertex -43.0503 -23 26.9497
    endloop
  endfacet
  facet normal 0.608798 0 0.793325
    outer loop
      vertex -43.0503 -33 26.9497
      vertex -44.5 -23 28.0622
      vertex -44.5 -33 28.0622
    endloop
  endfacet
  facet normal -0.793325 0 0.608798
    outer loop
      vertex -54.0622 -33 25.5
      vertex -52.9497 -23 26.9497
      vertex -54.0622 -23 25.5
    endloop
  endfacet
  facet normal -0.793325 0 0.608798
    outer loop
      vertex -52.9497 -23 26.9497
      vertex -54.0622 -33 25.5
      vertex -52.9497 -33 26.9497
    endloop
  endfacet
  facet normal 0 -1 0
    outer loop
      vertex -49.8117 -33 28.7615
      vertex -46.1883 -33 28.7615
      vertex -48 -33 29
    endloop
  endfacet
  facet normal 0 -1 0
    outer loop
      vertex -51.5 -33 28.0622
      vertex -46.1883 -33 28.7615
      vertex -49.8117 -33 28.7615
    endloop
  endfacet
  facet normal 0 -1 0
    outer loop
      vertex -51.5 -33 28.0622
      vertex -44.5 -33 28.0622
      vertex -46.1883 -33 28.7615
    endloop
  endfacet
  facet normal 0 -1 0
    outer loop
      vertex -52.9497 -33 26.9497
      vertex -44.5 -33 28.0622
      vertex -51.5 -33 28.0622
    endloop
  endfacet
  facet normal 0 -1 0
    outer loop
      vertex -52.9497 -33 26.9497
      vertex -43.0503 -33 26.9497
      vertex -44.5 -33 28.0622
    endloop
  endfacet
  facet normal 0 -1 0
    outer loop
      vertex -54.0622 -33 25.5
      vertex -43.0503 -33 26.9497
      vertex -52.9497 -33 26.9497
    endloop
  endfacet
  facet normal 0 -1 0
    outer loop
      vertex -54.0622 -33 25.5
      vertex -41.9378 -33 25.5
      vertex -43.0503 -33 26.9497
    endloop
  endfacet
  facet normal 0 -1 0
    outer loop
      vertex -54.7615 -33 23.8117
      vertex -41.9378 -33 25.5
      vertex -54.0622 -33 25.5
    endloop
  endfacet
  facet normal 0 -1 0
    outer loop
      vertex -54.7615 -33 23.8117
      vertex -41.2385 -33 23.8117
      vertex -41.9378 -33 25.5
    endloop
  endfacet
  facet normal 0 -1 0
    outer loop
      vertex -55 -33 22
      vertex -41.2385 -33 23.8117
      vertex -54.7615 -33 23.8117
    endloop
  endfacet
  facet normal 0 -1 0
    outer loop
      vertex -55 -33 22
      vertex -41 -33 22
      vertex -41.2385 -33 23.8117
    endloop
  endfacet
  facet normal 0 -1 0
    outer loop
      vertex -54.7615 -33 20.1883
      vertex -41 -33 22
      vertex -55 -33 22
    endloop
  endfacet
  facet normal 0 -1 0
    outer loop
      vertex -54.7615 -33 20.1883
      vertex -41.2385 -33 20.1883
      vertex -41 -33 22
    endloop
  endfacet
  facet normal 0 -1 0
    outer loop
      vertex -54.0622 -33 18.5
      vertex -41.2385 -33 20.1883
      vertex -54.7615 -33 20.1883
    endloop
  endfacet
  facet normal 0 -1 0
    outer loop
      vertex -54.0622 -33 18.5
      vertex -41.9378 -33 18.5
      vertex -41.2385 -33 20.1883
    endloop
  endfacet
  facet normal 0 -1 0
    outer loop
      vertex -52.9497 -33 17.0503
      vertex -41.9378 -33 18.5
      vertex -54.0622 -33 18.5
    endloop
  endfacet
  facet normal 0 -1 0
    outer loop
      vertex -52.9497 -33 17.0503
      vertex -43.0503 -33 17.0503
      vertex -41.9378 -33 18.5
    endloop
  endfacet
  facet normal 0 -1 0
    outer loop
      vertex -51.5 -33 15.9378
      vertex -43.0503 -33 17.0503
      vertex -52.9497 -33 17.0503
    endloop
  endfacet
  facet normal 0 -1 0
    outer loop
      vertex -51.5 -33 15.9378
      vertex -44.5 -33 15.9378
      vertex -43.0503 -33 17.0503
    endloop
  endfacet
  facet normal 0 -1 0
    outer loop
      vertex -49.8117 -33 15.2385
      vertex -44.5 -33 15.9378
      vertex -51.5 -33 15.9378
    endloop
  endfacet
  facet normal 0 -1 0
    outer loop
      vertex -49.8117 -33 15.2385
      vertex -46.1883 -33 15.2385
      vertex -44.5 -33 15.9378
    endloop
  endfacet
  facet normal -0 -1 0
    outer loop
      vertex -46.1883 -33 15.2385
      vertex -49.8117 -33 15.2385
      vertex -48 -33 15
    endloop
  endfacet
  facet normal -0.130518 0 0.991446
    outer loop
      vertex -49.8117 -23 28.7615
      vertex -48 -33 29
      vertex -48 -23 29
    endloop
  endfacet
  facet normal -0.130518 0 0.991446
    outer loop
      vertex -48 -33 29
      vertex -49.8117 -23 28.7615
      vertex -49.8117 -33 28.7615
    endloop
  endfacet
  facet normal -0.991446 0 -0.130518
    outer loop
      vertex -54.7615 -33 20.1883
      vertex -55 -23 22
      vertex -54.7615 -23 20.1883
    endloop
  endfacet
  facet normal -0.991446 -0 -0.130518
    outer loop
      vertex -55 -23 22
      vertex -54.7615 -33 20.1883
      vertex -55 -33 22
    endloop
  endfacet
  facet normal 0.130518 0 -0.991446
    outer loop
      vertex -48 -33 15
      vertex -46.1883 -23 15.2385
      vertex -46.1883 -33 15.2385
    endloop
  endfacet
  facet normal 0.130518 0 -0.991446
    outer loop
      vertex -46.1883 -23 15.2385
      vertex -48 -33 15
      vertex -48 -23 15
    endloop
  endfacet
  facet normal 0.608798 0 -0.793325
    outer loop
      vertex -44.5 -33 15.9378
      vertex -43.0503 -23 17.0503
      vertex -43.0503 -33 17.0503
    endloop
  endfacet
  facet normal 0.608798 0 -0.793325
    outer loop
      vertex -43.0503 -23 17.0503
      vertex -44.5 -33 15.9378
      vertex -44.5 -23 15.9378
    endloop
  endfacet
  facet normal -0.923883 0 0.382676
    outer loop
      vertex -54.7615 -33 23.8117
      vertex -54.0622 -23 25.5
      vertex -54.7615 -23 23.8117
    endloop
  endfacet
  facet normal -0.923883 0 0.382676
    outer loop
      vertex -54.0622 -23 25.5
      vertex -54.7615 -33 23.8117
      vertex -54.0622 -33 25.5
    endloop
  endfacet
  facet normal -0.608798 0 -0.793325
    outer loop
      vertex -52.9497 -33 17.0503
      vertex -51.5 -23 15.9378
      vertex -51.5 -33 15.9378
    endloop
  endfacet
  facet normal -0.608798 0 -0.793325
    outer loop
      vertex -51.5 -23 15.9378
      vertex -52.9497 -33 17.0503
      vertex -52.9497 -23 17.0503
    endloop
  endfacet
  facet normal 0 1 0
    outer loop
      vertex -48 -23 26
      vertex -48 -23 29
      vertex -46.1883 -23 28.7615
    endloop
  endfacet
  facet normal 0 1 0
    outer loop
      vertex -46.9647 -23 25.8637
      vertex -46.1883 -23 28.7615
      vertex -44.5 -23 28.0622
    endloop
  endfacet
  facet normal 0 1 0
    outer loop
      vertex -48 -23 29
      vertex -48 -23 26
      vertex -49.8117 -23 28.7615
    endloop
  endfacet
  facet normal 0 1 0
    outer loop
      vertex -46 -23 25.4641
      vertex -44.5 -23 28.0622
      vertex -43.0503 -23 26.9497
    endloop
  endfacet
  facet normal 0 1 -0
    outer loop
      vertex -49.0353 -23 25.8637
      vertex -49.8117 -23 28.7615
      vertex -48 -23 26
    endloop
  endfacet
  facet normal 0 1 0
    outer loop
      vertex -49.8117 -23 28.7615
      vertex -49.0353 -23 25.8637
      vertex -51.5 -23 28.0622
    endloop
  endfacet
  facet normal 0 1 0
    outer loop
      vertex -46.1883 -23 28.7615
      vertex -46.9647 -23 25.8637
      vertex -48 -23 26
    endloop
  endfacet
  facet normal 0 1 0
    outer loop
      vertex -45.1716 -23 24.8284
      vertex -43.0503 -23 26.9497
      vertex -41.9378 -23 25.5
    endloop
  endfacet
  facet normal 0 1 0
    outer loop
      vertex -44.5 -23 28.0622
      vertex -46 -23 25.4641
      vertex -46.9647 -23 25.8637
    endloop
  endfacet
  facet normal 0 1 0
    outer loop
      vertex -43.0503 -23 26.9497
      vertex -45.1716 -23 24.8284
      vertex -46 -23 25.4641
    endloop
  endfacet
  facet normal 0 1 0
    outer loop
      vertex -41.9378 -23 25.5
      vertex -44.5359 -23 24
      vertex -45.1716 -23 24.8284
    endloop
  endfacet
  facet normal 0 1 0
    outer loop
      vertex -41.2385 -23 23.8117
      vertex -44.5359 -23 24
      vertex -41.9378 -23 25.5
    endloop
  endfacet
  facet normal 0 1 0
    outer loop
      vertex -41.2385 -23 23.8117
      vertex -44.1363 -23 23.0353
      vertex -44.5359 -23 24
    endloop
  endfacet
  facet normal 0 1 0
    outer loop
      vertex -41 -23 22
      vertex -44.1363 -23 23.0353
      vertex -41.2385 -23 23.8117
    endloop
  endfacet
  facet normal 0 1 0
    outer loop
      vertex -41 -23 22
      vertex -44 -23 22
      vertex -44.1363 -23 23.0353
    endloop
  endfacet
  facet normal 0 1 0
    outer loop
      vertex -41 -23 22
      vertex -44.1363 -23 20.9647
      vertex -44 -23 22
    endloop
  endfacet
  facet normal 0 1 -0
    outer loop
      vertex -41.2385 -23 20.1883
      vertex -44.1363 -23 20.9647
      vertex -41 -23 22
    endloop
  endfacet
  facet normal 0 1 0
    outer loop
      vertex -41.2385 -23 20.1883
      vertex -44.5359 -23 20
      vertex -44.1363 -23 20.9647
    endloop
  endfacet
  facet normal 0 1 -0
    outer loop
      vertex -41.9378 -23 18.5
      vertex -44.5359 -23 20
      vertex -41.2385 -23 20.1883
    endloop
  endfacet
  facet normal 0 1 0
    outer loop
      vertex -44.5359 -23 20
      vertex -41.9378 -23 18.5
      vertex -45.1716 -23 19.1716
    endloop
  endfacet
  facet normal 0 1 -0
    outer loop
      vertex -43.0503 -23 17.0503
      vertex -45.1716 -23 19.1716
      vertex -41.9378 -23 18.5
    endloop
  endfacet
  facet normal 0 1 0
    outer loop
      vertex -45.1716 -23 19.1716
      vertex -43.0503 -23 17.0503
      vertex -46 -23 18.5359
    endloop
  endfacet
  facet normal 0 1 -0
    outer loop
      vertex -44.5 -23 15.9378
      vertex -46 -23 18.5359
      vertex -43.0503 -23 17.0503
    endloop
  endfacet
  facet normal 0 1 0
    outer loop
      vertex -46 -23 18.5359
      vertex -44.5 -23 15.9378
      vertex -46.9647 -23 18.1363
    endloop
  endfacet
  facet normal 0 1 -0
    outer loop
      vertex -50 -23 25.4641
      vertex -51.5 -23 28.0622
      vertex -49.0353 -23 25.8637
    endloop
  endfacet
  facet normal 0 1 0
    outer loop
      vertex -51.5 -23 28.0622
      vertex -50 -23 25.4641
      vertex -52.9497 -23 26.9497
    endloop
  endfacet
  facet normal 0 1 -0
    outer loop
      vertex -50.8284 -23 24.8284
      vertex -52.9497 -23 26.9497
      vertex -50 -23 25.4641
    endloop
  endfacet
  facet normal 0 1 0
    outer loop
      vertex -52.9497 -23 26.9497
      vertex -50.8284 -23 24.8284
      vertex -54.0622 -23 25.5
    endloop
  endfacet
  facet normal 0 1 -0
    outer loop
      vertex -51.4641 -23 24
      vertex -54.0622 -23 25.5
      vertex -50.8284 -23 24.8284
    endloop
  endfacet
  facet normal 0 1 0
    outer loop
      vertex -51.4641 -23 24
      vertex -54.7615 -23 23.8117
      vertex -54.0622 -23 25.5
    endloop
  endfacet
  facet normal 0 1 -0
    outer loop
      vertex -51.8637 -23 23.0353
      vertex -54.7615 -23 23.8117
      vertex -51.4641 -23 24
    endloop
  endfacet
  facet normal 0 1 -0
    outer loop
      vertex -52 -23 22
      vertex -54.7615 -23 23.8117
      vertex -51.8637 -23 23.0353
    endloop
  endfacet
  facet normal 0 1 0
    outer loop
      vertex -52 -23 22
      vertex -55 -23 22
      vertex -54.7615 -23 23.8117
    endloop
  endfacet
  facet normal 0 1 0
    outer loop
      vertex -51.8637 -23 20.9647
      vertex -55 -23 22
      vertex -52 -23 22
    endloop
  endfacet
  facet normal 0 1 0
    outer loop
      vertex -51.8637 -23 20.9647
      vertex -54.7615 -23 20.1883
      vertex -55 -23 22
    endloop
  endfacet
  facet normal 0 1 0
    outer loop
      vertex -51.4641 -23 20
      vertex -54.7615 -23 20.1883
      vertex -51.8637 -23 20.9647
    endloop
  endfacet
  facet normal 0 1 0
    outer loop
      vertex -54.0622 -23 18.5
      vertex -51.4641 -23 20
      vertex -50.8284 -23 19.1716
    endloop
  endfacet
  facet normal 0 1 0
    outer loop
      vertex -52.9497 -23 17.0503
      vertex -50.8284 -23 19.1716
      vertex -50 -23 18.5359
    endloop
  endfacet
  facet normal 0 1 0
    outer loop
      vertex -51.4641 -23 20
      vertex -54.0622 -23 18.5
      vertex -54.7615 -23 20.1883
    endloop
  endfacet
  facet normal 0 1 0
    outer loop
      vertex -51.5 -23 15.9378
      vertex -50 -23 18.5359
      vertex -49.0353 -23 18.1363
    endloop
  endfacet
  facet normal 0 1 0
    outer loop
      vertex -49.8117 -23 15.2385
      vertex -49.0353 -23 18.1363
      vertex -48 -23 18
    endloop
  endfacet
  facet normal 0 1 -0
    outer loop
      vertex -46.1883 -23 15.2385
      vertex -46.9647 -23 18.1363
      vertex -44.5 -23 15.9378
    endloop
  endfacet
  facet normal 0 1 0
    outer loop
      vertex -50.8284 -23 19.1716
      vertex -52.9497 -23 17.0503
      vertex -54.0622 -23 18.5
    endloop
  endfacet
  facet normal 0 1 0
    outer loop
      vertex -46.9647 -23 18.1363
      vertex -46.1883 -23 15.2385
      vertex -48 -23 18
    endloop
  endfacet
  facet normal 0 1 0
    outer loop
      vertex -50 -23 18.5359
      vertex -51.5 -23 15.9378
      vertex -52.9497 -23 17.0503
    endloop
  endfacet
  facet normal 0 1 0
    outer loop
      vertex -48 -23 15
      vertex -48 -23 18
      vertex -46.1883 -23 15.2385
    endloop
  endfacet
  facet normal 0 1 0
    outer loop
      vertex -49.0353 -23 18.1363
      vertex -49.8117 -23 15.2385
      vertex -51.5 -23 15.9378
    endloop
  endfacet
  facet normal 0 1 0
    outer loop
      vertex -48 -23 18
      vertex -48 -23 15
      vertex -49.8117 -23 15.2385
    endloop
  endfacet
  facet normal 0.382676 0 -0.923883
    outer loop
      vertex -46.1883 -33 15.2385
      vertex -44.5 -23 15.9378
      vertex -44.5 -33 15.9378
    endloop
  endfacet
  facet normal 0.382676 0 -0.923883
    outer loop
      vertex -44.5 -23 15.9378
      vertex -46.1883 -33 15.2385
      vertex -46.1883 -23 15.2385
    endloop
  endfacet
  facet normal 0.923883 0 -0.382676
    outer loop
      vertex -41.2385 -33 20.1883
      vertex -41.9378 -23 18.5
      vertex -41.2385 -23 20.1883
    endloop
  endfacet
  facet normal 0.923883 0 -0.382676
    outer loop
      vertex -41.9378 -23 18.5
      vertex -41.2385 -33 20.1883
      vertex -41.9378 -33 18.5
    endloop
  endfacet
  facet normal 0.991446 0 -0.130518
    outer loop
      vertex -41 -33 22
      vertex -41.2385 -23 20.1883
      vertex -41 -23 22
    endloop
  endfacet
  facet normal 0.991446 0 -0.130518
    outer loop
      vertex -41.2385 -23 20.1883
      vertex -41 -33 22
      vertex -41.2385 -33 20.1883
    endloop
  endfacet
  facet normal -0.382676 0 -0.923883
    outer loop
      vertex -51.5 -33 15.9378
      vertex -49.8117 -23 15.2385
      vertex -49.8117 -33 15.2385
    endloop
  endfacet
  facet normal -0.382676 0 -0.923883
    outer loop
      vertex -49.8117 -23 15.2385
      vertex -51.5 -33 15.9378
      vertex -51.5 -23 15.9378
    endloop
  endfacet
  facet normal -0.130518 0 -0.991446
    outer loop
      vertex -49.8117 -33 15.2385
      vertex -48 -23 15
      vertex -48 -33 15
    endloop
  endfacet
  facet normal -0.130518 0 -0.991446
    outer loop
      vertex -48 -23 15
      vertex -49.8117 -33 15.2385
      vertex -49.8117 -23 15.2385
    endloop
  endfacet
  facet normal -0.923883 0 -0.382676
    outer loop
      vertex -54.0622 -33 18.5
      vertex -54.7615 -23 20.1883
      vertex -54.0622 -23 18.5
    endloop
  endfacet
  facet normal -0.923883 -0 -0.382676
    outer loop
      vertex -54.7615 -23 20.1883
      vertex -54.0622 -33 18.5
      vertex -54.7615 -33 20.1883
    endloop
  endfacet
  facet normal -0.793325 0 -0.608798
    outer loop
      vertex -52.9497 -33 17.0503
      vertex -54.0622 -23 18.5
      vertex -52.9497 -23 17.0503
    endloop
  endfacet
  facet normal -0.793325 -0 -0.608798
    outer loop
      vertex -54.0622 -23 18.5
      vertex -52.9497 -33 17.0503
      vertex -54.0622 -33 18.5
    endloop
  endfacet
  facet normal 0.991446 -0 0.130518
    outer loop
      vertex -41.2385 23 23.8117
      vertex -41 33 22
      vertex -41.2385 33 23.8117
    endloop
  endfacet
  facet normal 0.991446 0 0.130518
    outer loop
      vertex -41 33 22
      vertex -41.2385 23 23.8117
      vertex -41 23 22
    endloop
  endfacet
  facet normal 0.923883 -0 0.382676
    outer loop
      vertex -41.9378 23 25.5
      vertex -41.2385 33 23.8117
      vertex -41.9378 33 25.5
    endloop
  endfacet
  facet normal 0.923883 0 0.382676
    outer loop
      vertex -41.2385 33 23.8117
      vertex -41.9378 23 25.5
      vertex -41.2385 23 23.8117
    endloop
  endfacet
  facet normal 0.130518 0 0.991446
    outer loop
      vertex -48 33 29
      vertex -46.1883 23 28.7615
      vertex -46.1883 33 28.7615
    endloop
  endfacet
  facet normal 0.130518 0 0.991446
    outer loop
      vertex -46.1883 23 28.7615
      vertex -48 33 29
      vertex -48 23 29
    endloop
  endfacet
  facet normal 0.793325 -0 0.608798
    outer loop
      vertex -43.0503 23 26.9497
      vertex -41.9378 33 25.5
      vertex -43.0503 33 26.9497
    endloop
  endfacet
  facet normal 0.793325 0 0.608798
    outer loop
      vertex -41.9378 33 25.5
      vertex -43.0503 23 26.9497
      vertex -41.9378 23 25.5
    endloop
  endfacet
  facet normal -0.608798 0 0.793325
    outer loop
      vertex -52.9497 33 26.9497
      vertex -51.5 23 28.0622
      vertex -51.5 33 28.0622
    endloop
  endfacet
  facet normal -0.608798 0 0.793325
    outer loop
      vertex -51.5 23 28.0622
      vertex -52.9497 33 26.9497
      vertex -52.9497 23 26.9497
    endloop
  endfacet
  facet normal -0.382676 0 0.923883
    outer loop
      vertex -51.5 33 28.0622
      vertex -49.8117 23 28.7615
      vertex -49.8117 33 28.7615
    endloop
  endfacet
  facet normal -0.382676 0 0.923883
    outer loop
      vertex -49.8117 23 28.7615
      vertex -51.5 33 28.0622
      vertex -51.5 23 28.0622
    endloop
  endfacet
  facet normal 0.793325 0 -0.608798
    outer loop
      vertex -41.9378 23 18.5
      vertex -43.0503 33 17.0503
      vertex -41.9378 33 18.5
    endloop
  endfacet
  facet normal 0.793325 0 -0.608798
    outer loop
      vertex -43.0503 33 17.0503
      vertex -41.9378 23 18.5
      vertex -43.0503 23 17.0503
    endloop
  endfacet
  facet normal 0.382676 0 0.923883
    outer loop
      vertex -46.1883 33 28.7615
      vertex -44.5 23 28.0622
      vertex -44.5 33 28.0622
    endloop
  endfacet
  facet normal 0.382676 0 0.923883
    outer loop
      vertex -44.5 23 28.0622
      vertex -46.1883 33 28.7615
      vertex -46.1883 23 28.7615
    endloop
  endfacet
  facet normal 0.608798 0 0.793325
    outer loop
      vertex -44.5 33 28.0622
      vertex -43.0503 23 26.9497
      vertex -43.0503 33 26.9497
    endloop
  endfacet
  facet normal 0.608798 0 0.793325
    outer loop
      vertex -43.0503 23 26.9497
      vertex -44.5 33 28.0622
      vertex -44.5 23 28.0622
    endloop
  endfacet
  facet normal -0.793325 0 0.608798
    outer loop
      vertex -54.0622 23 25.5
      vertex -52.9497 33 26.9497
      vertex -54.0622 33 25.5
    endloop
  endfacet
  facet normal -0.793325 0 0.608798
    outer loop
      vertex -52.9497 33 26.9497
      vertex -54.0622 23 25.5
      vertex -52.9497 23 26.9497
    endloop
  endfacet
  facet normal 0 -1 0
    outer loop
      vertex -48 23 26
      vertex -48 23 29
      vertex -49.8117 23 28.7615
    endloop
  endfacet
  facet normal 0 -1 0
    outer loop
      vertex -49.0353 23 25.8637
      vertex -49.8117 23 28.7615
      vertex -51.5 23 28.0622
    endloop
  endfacet
  facet normal 0 -1 0
    outer loop
      vertex -48 23 29
      vertex -48 23 26
      vertex -46.1883 23 28.7615
    endloop
  endfacet
  facet normal 0 -1 0
    outer loop
      vertex -50 23 25.4641
      vertex -51.5 23 28.0622
      vertex -52.9497 23 26.9497
    endloop
  endfacet
  facet normal 0 -1 0
    outer loop
      vertex -46.9647 23 25.8637
      vertex -46.1883 23 28.7615
      vertex -48 23 26
    endloop
  endfacet
  facet normal 0 -1 -0
    outer loop
      vertex -46.1883 23 28.7615
      vertex -46.9647 23 25.8637
      vertex -44.5 23 28.0622
    endloop
  endfacet
  facet normal 0 -1 0
    outer loop
      vertex -49.8117 23 28.7615
      vertex -49.0353 23 25.8637
      vertex -48 23 26
    endloop
  endfacet
  facet normal 0 -1 0
    outer loop
      vertex -50.8284 23 24.8284
      vertex -52.9497 23 26.9497
      vertex -54.0622 23 25.5
    endloop
  endfacet
  facet normal 0 -1 0
    outer loop
      vertex -51.5 23 28.0622
      vertex -50 23 25.4641
      vertex -49.0353 23 25.8637
    endloop
  endfacet
  facet normal 0 -1 0
    outer loop
      vertex -52.9497 23 26.9497
      vertex -50.8284 23 24.8284
      vertex -50 23 25.4641
    endloop
  endfacet
  facet normal 0 -1 0
    outer loop
      vertex -54.0622 23 25.5
      vertex -51.4641 23 24
      vertex -50.8284 23 24.8284
    endloop
  endfacet
  facet normal 0 -1 0
    outer loop
      vertex -54.7615 23 23.8117
      vertex -51.4641 23 24
      vertex -54.0622 23 25.5
    endloop
  endfacet
  facet normal 0 -1 0
    outer loop
      vertex -54.7615 23 23.8117
      vertex -51.8637 23 23.0353
      vertex -51.4641 23 24
    endloop
  endfacet
  facet normal 0 -1 0
    outer loop
      vertex -55 23 22
      vertex -51.8637 23 23.0353
      vertex -54.7615 23 23.8117
    endloop
  endfacet
  facet normal 0 -1 0
    outer loop
      vertex -55 23 22
      vertex -52 23 22
      vertex -51.8637 23 23.0353
    endloop
  endfacet
  facet normal 0 -1 0
    outer loop
      vertex -55 23 22
      vertex -51.8637 23 20.9647
      vertex -52 23 22
    endloop
  endfacet
  facet normal 0 -1 0
    outer loop
      vertex -54.7615 23 20.1883
      vertex -51.8637 23 20.9647
      vertex -55 23 22
    endloop
  endfacet
  facet normal 0 -1 0
    outer loop
      vertex -54.7615 23 20.1883
      vertex -51.4641 23 20
      vertex -51.8637 23 20.9647
    endloop
  endfacet
  facet normal 0 -1 0
    outer loop
      vertex -54.0622 23 18.5
      vertex -51.4641 23 20
      vertex -54.7615 23 20.1883
    endloop
  endfacet
  facet normal 0 -1 -0
    outer loop
      vertex -51.4641 23 20
      vertex -54.0622 23 18.5
      vertex -50.8284 23 19.1716
    endloop
  endfacet
  facet normal 0 -1 0
    outer loop
      vertex -52.9497 23 17.0503
      vertex -50.8284 23 19.1716
      vertex -54.0622 23 18.5
    endloop
  endfacet
  facet normal 0 -1 -0
    outer loop
      vertex -50.8284 23 19.1716
      vertex -52.9497 23 17.0503
      vertex -50 23 18.5359
    endloop
  endfacet
  facet normal 0 -1 0
    outer loop
      vertex -51.5 23 15.9378
      vertex -50 23 18.5359
      vertex -52.9497 23 17.0503
    endloop
  endfacet
  facet normal 0 -1 -0
    outer loop
      vertex -50 23 18.5359
      vertex -51.5 23 15.9378
      vertex -49.0353 23 18.1363
    endloop
  endfacet
  facet normal 0 -1 0
    outer loop
      vertex -46 23 25.4641
      vertex -44.5 23 28.0622
      vertex -46.9647 23 25.8637
    endloop
  endfacet
  facet normal 0 -1 -0
    outer loop
      vertex -44.5 23 28.0622
      vertex -46 23 25.4641
      vertex -43.0503 23 26.9497
    endloop
  endfacet
  facet normal 0 -1 0
    outer loop
      vertex -45.1716 23 24.8284
      vertex -43.0503 23 26.9497
      vertex -46 23 25.4641
    endloop
  endfacet
  facet normal 0 -1 -0
    outer loop
      vertex -43.0503 23 26.9497
      vertex -45.1716 23 24.8284
      vertex -41.9378 23 25.5
    endloop
  endfacet
  facet normal 0 -1 0
    outer loop
      vertex -44.5359 23 24
      vertex -41.9378 23 25.5
      vertex -45.1716 23 24.8284
    endloop
  endfacet
  facet normal 0 -1 0
    outer loop
      vertex -44.5359 23 24
      vertex -41.2385 23 23.8117
      vertex -41.9378 23 25.5
    endloop
  endfacet
  facet normal 0 -1 0
    outer loop
      vertex -44.1363 23 23.0353
      vertex -41.2385 23 23.8117
      vertex -44.5359 23 24
    endloop
  endfacet
  facet normal 0 -1 0
    outer loop
      vertex -44 23 22
      vertex -41.2385 23 23.8117
      vertex -44.1363 23 23.0353
    endloop
  endfacet
  facet normal 0 -1 0
    outer loop
      vertex -44 23 22
      vertex -41 23 22
      vertex -41.2385 23 23.8117
    endloop
  endfacet
  facet normal 0 -1 0
    outer loop
      vertex -44.1363 23 20.9647
      vertex -41 23 22
      vertex -44 23 22
    endloop
  endfacet
  facet normal 0 -1 0
    outer loop
      vertex -44.1363 23 20.9647
      vertex -41.2385 23 20.1883
      vertex -41 23 22
    endloop
  endfacet
  facet normal 0 -1 0
    outer loop
      vertex -44.5359 23 20
      vertex -41.2385 23 20.1883
      vertex -44.1363 23 20.9647
    endloop
  endfacet
  facet normal 0 -1 0
    outer loop
      vertex -41.9378 23 18.5
      vertex -44.5359 23 20
      vertex -45.1716 23 19.1716
    endloop
  endfacet
  facet normal 0 -1 0
    outer loop
      vertex -43.0503 23 17.0503
      vertex -45.1716 23 19.1716
      vertex -46 23 18.5359
    endloop
  endfacet
  facet normal 0 -1 0
    outer loop
      vertex -44.5359 23 20
      vertex -41.9378 23 18.5
      vertex -41.2385 23 20.1883
    endloop
  endfacet
  facet normal 0 -1 0
    outer loop
      vertex -44.5 23 15.9378
      vertex -46 23 18.5359
      vertex -46.9647 23 18.1363
    endloop
  endfacet
  facet normal 0 -1 0
    outer loop
      vertex -46.1883 23 15.2385
      vertex -46.9647 23 18.1363
      vertex -48 23 18
    endloop
  endfacet
  facet normal 0 -1 0
    outer loop
      vertex -49.8117 23 15.2385
      vertex -49.0353 23 18.1363
      vertex -51.5 23 15.9378
    endloop
  endfacet
  facet normal 0 -1 0
    outer loop
      vertex -45.1716 23 19.1716
      vertex -43.0503 23 17.0503
      vertex -41.9378 23 18.5
    endloop
  endfacet
  facet normal 0 -1 -0
    outer loop
      vertex -49.0353 23 18.1363
      vertex -49.8117 23 15.2385
      vertex -48 23 18
    endloop
  endfacet
  facet normal 0 -1 0
    outer loop
      vertex -46 23 18.5359
      vertex -44.5 23 15.9378
      vertex -43.0503 23 17.0503
    endloop
  endfacet
  facet normal 0 -1 0
    outer loop
      vertex -48 23 15
      vertex -48 23 18
      vertex -49.8117 23 15.2385
    endloop
  endfacet
  facet normal 0 -1 0
    outer loop
      vertex -46.9647 23 18.1363
      vertex -46.1883 23 15.2385
      vertex -44.5 23 15.9378
    endloop
  endfacet
  facet normal 0 -1 0
    outer loop
      vertex -48 23 18
      vertex -48 23 15
      vertex -46.1883 23 15.2385
    endloop
  endfacet
  facet normal -0.130518 0 0.991446
    outer loop
      vertex -49.8117 33 28.7615
      vertex -48 23 29
      vertex -48 33 29
    endloop
  endfacet
  facet normal -0.130518 0 0.991446
    outer loop
      vertex -48 23 29
      vertex -49.8117 33 28.7615
      vertex -49.8117 23 28.7615
    endloop
  endfacet
  facet normal -0.991446 0 -0.130518
    outer loop
      vertex -54.7615 23 20.1883
      vertex -55 33 22
      vertex -54.7615 33 20.1883
    endloop
  endfacet
  facet normal -0.991446 -0 -0.130518
    outer loop
      vertex -55 33 22
      vertex -54.7615 23 20.1883
      vertex -55 23 22
    endloop
  endfacet
  facet normal 0.130518 0 -0.991446
    outer loop
      vertex -48 23 15
      vertex -46.1883 33 15.2385
      vertex -46.1883 23 15.2385
    endloop
  endfacet
  facet normal 0.130518 0 -0.991446
    outer loop
      vertex -46.1883 33 15.2385
      vertex -48 23 15
      vertex -48 33 15
    endloop
  endfacet
  facet normal 0.608798 0 -0.793325
    outer loop
      vertex -44.5 23 15.9378
      vertex -43.0503 33 17.0503
      vertex -43.0503 23 17.0503
    endloop
  endfacet
  facet normal 0.608798 0 -0.793325
    outer loop
      vertex -43.0503 33 17.0503
      vertex -44.5 23 15.9378
      vertex -44.5 33 15.9378
    endloop
  endfacet
  facet normal -0.923883 0 0.382676
    outer loop
      vertex -54.7615 23 23.8117
      vertex -54.0622 33 25.5
      vertex -54.7615 33 23.8117
    endloop
  endfacet
  facet normal -0.923883 0 0.382676
    outer loop
      vertex -54.0622 33 25.5
      vertex -54.7615 23 23.8117
      vertex -54.0622 23 25.5
    endloop
  endfacet
  facet normal -0.991446 0 0.130518
    outer loop
      vertex -55 23 22
      vertex -54.7615 33 23.8117
      vertex -55 33 22
    endloop
  endfacet
  facet normal -0.991446 0 0.130518
    outer loop
      vertex -54.7615 33 23.8117
      vertex -55 23 22
      vertex -54.7615 23 23.8117
    endloop
  endfacet
  facet normal -0.608798 0 -0.793325
    outer loop
      vertex -52.9497 23 17.0503
      vertex -51.5 33 15.9378
      vertex -51.5 23 15.9378
    endloop
  endfacet
  facet normal -0.608798 0 -0.793325
    outer loop
      vertex -51.5 33 15.9378
      vertex -52.9497 23 17.0503
      vertex -52.9497 33 17.0503
    endloop
  endfacet
  facet normal 0 1 0
    outer loop
      vertex -46.1883 33 28.7615
      vertex -49.8117 33 28.7615
      vertex -48 33 29
    endloop
  endfacet
  facet normal 0 1 0
    outer loop
      vertex -44.5 33 28.0622
      vertex -49.8117 33 28.7615
      vertex -46.1883 33 28.7615
    endloop
  endfacet
  facet normal 0 1 0
    outer loop
      vertex -44.5 33 28.0622
      vertex -51.5 33 28.0622
      vertex -49.8117 33 28.7615
    endloop
  endfacet
  facet normal 0 1 0
    outer loop
      vertex -43.0503 33 26.9497
      vertex -51.5 33 28.0622
      vertex -44.5 33 28.0622
    endloop
  endfacet
  facet normal 0 1 0
    outer loop
      vertex -43.0503 33 26.9497
      vertex -52.9497 33 26.9497
      vertex -51.5 33 28.0622
    endloop
  endfacet
  facet normal 0 1 0
    outer loop
      vertex -41.9378 33 25.5
      vertex -52.9497 33 26.9497
      vertex -43.0503 33 26.9497
    endloop
  endfacet
  facet normal 0 1 0
    outer loop
      vertex -41.9378 33 25.5
      vertex -54.0622 33 25.5
      vertex -52.9497 33 26.9497
    endloop
  endfacet
  facet normal 0 1 0
    outer loop
      vertex -41.2385 33 23.8117
      vertex -54.0622 33 25.5
      vertex -41.9378 33 25.5
    endloop
  endfacet
  facet normal 0 1 0
    outer loop
      vertex -41.2385 33 23.8117
      vertex -54.7615 33 23.8117
      vertex -54.0622 33 25.5
    endloop
  endfacet
  facet normal 0 1 0
    outer loop
      vertex -41 33 22
      vertex -54.7615 33 23.8117
      vertex -41.2385 33 23.8117
    endloop
  endfacet
  facet normal 0 1 0
    outer loop
      vertex -41 33 22
      vertex -55 33 22
      vertex -54.7615 33 23.8117
    endloop
  endfacet
  facet normal 0 1 -0
    outer loop
      vertex -41.2385 33 20.1883
      vertex -55 33 22
      vertex -41 33 22
    endloop
  endfacet
  facet normal 0 1 0
    outer loop
      vertex -41.2385 33 20.1883
      vertex -54.7615 33 20.1883
      vertex -55 33 22
    endloop
  endfacet
  facet normal 0 1 -0
    outer loop
      vertex -41.9378 33 18.5
      vertex -54.7615 33 20.1883
      vertex -41.2385 33 20.1883
    endloop
  endfacet
  facet normal 0 1 0
    outer loop
      vertex -41.9378 33 18.5
      vertex -54.0622 33 18.5
      vertex -54.7615 33 20.1883
    endloop
  endfacet
  facet normal 0 1 -0
    outer loop
      vertex -43.0503 33 17.0503
      vertex -54.0622 33 18.5
      vertex -41.9378 33 18.5
    endloop
  endfacet
  facet normal 0 1 0
    outer loop
      vertex -43.0503 33 17.0503
      vertex -52.9497 33 17.0503
      vertex -54.0622 33 18.5
    endloop
  endfacet
  facet normal 0 1 -0
    outer loop
      vertex -44.5 33 15.9378
      vertex -52.9497 33 17.0503
      vertex -43.0503 33 17.0503
    endloop
  endfacet
  facet normal 0 1 0
    outer loop
      vertex -44.5 33 15.9378
      vertex -51.5 33 15.9378
      vertex -52.9497 33 17.0503
    endloop
  endfacet
  facet normal 0 1 -0
    outer loop
      vertex -46.1883 33 15.2385
      vertex -51.5 33 15.9378
      vertex -44.5 33 15.9378
    endloop
  endfacet
  facet normal 0 1 0
    outer loop
      vertex -46.1883 33 15.2385
      vertex -49.8117 33 15.2385
      vertex -51.5 33 15.9378
    endloop
  endfacet
  facet normal -0 1 0
    outer loop
      vertex -49.8117 33 15.2385
      vertex -46.1883 33 15.2385
      vertex -48 33 15
    endloop
  endfacet
  facet normal 0.382676 0 -0.923883
    outer loop
      vertex -46.1883 23 15.2385
      vertex -44.5 33 15.9378
      vertex -44.5 23 15.9378
    endloop
  endfacet
  facet normal 0.382676 0 -0.923883
    outer loop
      vertex -44.5 33 15.9378
      vertex -46.1883 23 15.2385
      vertex -46.1883 33 15.2385
    endloop
  endfacet
  facet normal 0.923883 0 -0.382676
    outer loop
      vertex -41.2385 23 20.1883
      vertex -41.9378 33 18.5
      vertex -41.2385 33 20.1883
    endloop
  endfacet
  facet normal 0.923883 0 -0.382676
    outer loop
      vertex -41.9378 33 18.5
      vertex -41.2385 23 20.1883
      vertex -41.9378 23 18.5
    endloop
  endfacet
  facet normal 0.991446 0 -0.130518
    outer loop
      vertex -41 23 22
      vertex -41.2385 33 20.1883
      vertex -41 33 22
    endloop
  endfacet
  facet normal 0.991446 0 -0.130518
    outer loop
      vertex -41.2385 33 20.1883
      vertex -41 23 22
      vertex -41.2385 23 20.1883
    endloop
  endfacet
  facet normal -0.382676 0 -0.923883
    outer loop
      vertex -51.5 23 15.9378
      vertex -49.8117 33 15.2385
      vertex -49.8117 23 15.2385
    endloop
  endfacet
  facet normal -0.382676 0 -0.923883
    outer loop
      vertex -49.8117 33 15.2385
      vertex -51.5 23 15.9378
      vertex -51.5 33 15.9378
    endloop
  endfacet
  facet normal -0.130518 0 -0.991446
    outer loop
      vertex -49.8117 23 15.2385
      vertex -48 33 15
      vertex -48 23 15
    endloop
  endfacet
  facet normal -0.130518 0 -0.991446
    outer loop
      vertex -48 33 15
      vertex -49.8117 23 15.2385
      vertex -49.8117 33 15.2385
    endloop
  endfacet
  facet normal -0.923883 0 -0.382676
    outer loop
      vertex -54.0622 23 18.5
      vertex -54.7615 33 20.1883
      vertex -54.0622 33 18.5
    endloop
  endfacet
  facet normal -0.923883 -0 -0.382676
    outer loop
      vertex -54.7615 33 20.1883
      vertex -54.0622 23 18.5
      vertex -54.7615 23 20.1883
    endloop
  endfacet
  facet normal -0.793325 0 -0.608798
    outer loop
      vertex -52.9497 23 17.0503
      vertex -54.0622 33 18.5
      vertex -52.9497 33 17.0503
    endloop
  endfacet
  facet normal -0.793325 -0 -0.608798
    outer loop
      vertex -54.0622 33 18.5
      vertex -52.9497 23 17.0503
      vertex -54.0622 23 18.5
    endloop
  endfacet
  facet normal 0.991445 -0 0.130526
    outer loop
      vertex -44.1363 -23 23.0353
      vertex -44 23 22
      vertex -44.1363 23 23.0353
    endloop
  endfacet
  facet normal 0.991445 0 0.130526
    outer loop
      vertex -44 23 22
      vertex -44.1363 -23 23.0353
      vertex -44 -23 22
    endloop
  endfacet
  facet normal 0.923877 -0 0.38269
    outer loop
      vertex -44.5359 -23 24
      vertex -44.1363 23 23.0353
      vertex -44.5359 23 24
    endloop
  endfacet
  facet normal 0.923877 0 0.38269
    outer loop
      vertex -44.1363 23 23.0353
      vertex -44.5359 -23 24
      vertex -44.1363 -23 23.0353
    endloop
  endfacet
  facet normal -0.991445 0 -0.130526
    outer loop
      vertex -51.8637 -23 20.9647
      vertex -52 23 22
      vertex -51.8637 23 20.9647
    endloop
  endfacet
  facet normal -0.991445 -0 -0.130526
    outer loop
      vertex -52 23 22
      vertex -51.8637 -23 20.9647
      vertex -52 -23 22
    endloop
  endfacet
  facet normal 0.130526 0 0.991445
    outer loop
      vertex -48 23 26
      vertex -46.9647 -23 25.8637
      vertex -46.9647 23 25.8637
    endloop
  endfacet
  facet normal 0.130526 0 0.991445
    outer loop
      vertex -46.9647 -23 25.8637
      vertex -48 23 26
      vertex -48 -23 26
    endloop
  endfacet
  facet normal 0.991445 0 -0.130526
    outer loop
      vertex -44 -23 22
      vertex -44.1363 23 20.9647
      vertex -44 23 22
    endloop
  endfacet
  facet normal 0.991445 0 -0.130526
    outer loop
      vertex -44.1363 23 20.9647
      vertex -44 -23 22
      vertex -44.1363 -23 20.9647
    endloop
  endfacet
  facet normal 0.793332 -0 0.608789
    outer loop
      vertex -45.1716 -23 24.8284
      vertex -44.5359 23 24
      vertex -45.1716 23 24.8284
    endloop
  endfacet
  facet normal 0.793332 0 0.608789
    outer loop
      vertex -44.5359 23 24
      vertex -45.1716 -23 24.8284
      vertex -44.5359 -23 24
    endloop
  endfacet
  facet normal 0.38269 0 -0.923877
    outer loop
      vertex -46.9647 -23 18.1363
      vertex -46 23 18.5359
      vertex -46 -23 18.5359
    endloop
  endfacet
  facet normal 0.38269 0 -0.923877
    outer loop
      vertex -46 23 18.5359
      vertex -46.9647 -23 18.1363
      vertex -46.9647 23 18.1363
    endloop
  endfacet
  facet normal -0.991445 0 0.130526
    outer loop
      vertex -52 -23 22
      vertex -51.8637 23 23.0353
      vertex -52 23 22
    endloop
  endfacet
  facet normal -0.991445 0 0.130526
    outer loop
      vertex -51.8637 23 23.0353
      vertex -52 -23 22
      vertex -51.8637 -23 23.0353
    endloop
  endfacet
  facet normal -0.793332 0 0.608789
    outer loop
      vertex -51.4641 -23 24
      vertex -50.8284 23 24.8284
      vertex -51.4641 23 24
    endloop
  endfacet
  facet normal -0.793332 0 0.608789
    outer loop
      vertex -50.8284 23 24.8284
      vertex -51.4641 -23 24
      vertex -50.8284 -23 24.8284
    endloop
  endfacet
  facet normal -0.608789 0 0.793332
    outer loop
      vertex -50.8284 23 24.8284
      vertex -50 -23 25.4641
      vertex -50 23 25.4641
    endloop
  endfacet
  facet normal -0.608789 0 0.793332
    outer loop
      vertex -50 -23 25.4641
      vertex -50.8284 23 24.8284
      vertex -50.8284 -23 24.8284
    endloop
  endfacet
  facet normal 0.793332 0 -0.608789
    outer loop
      vertex -44.5359 -23 20
      vertex -45.1716 23 19.1716
      vertex -44.5359 23 20
    endloop
  endfacet
  facet normal 0.793332 0 -0.608789
    outer loop
      vertex -45.1716 23 19.1716
      vertex -44.5359 -23 20
      vertex -45.1716 -23 19.1716
    endloop
  endfacet
  facet normal 0.130526 0 -0.991445
    outer loop
      vertex -48 -23 18
      vertex -46.9647 23 18.1363
      vertex -46.9647 -23 18.1363
    endloop
  endfacet
  facet normal 0.130526 0 -0.991445
    outer loop
      vertex -46.9647 23 18.1363
      vertex -48 -23 18
      vertex -48 23 18
    endloop
  endfacet
  facet normal 0.608789 0 0.793332
    outer loop
      vertex -46 23 25.4641
      vertex -45.1716 -23 24.8284
      vertex -45.1716 23 24.8284
    endloop
  endfacet
  facet normal 0.608789 0 0.793332
    outer loop
      vertex -45.1716 -23 24.8284
      vertex -46 23 25.4641
      vertex -46 -23 25.4641
    endloop
  endfacet
  facet normal 0.38269 0 0.923877
    outer loop
      vertex -46.9647 23 25.8637
      vertex -46 -23 25.4641
      vertex -46 23 25.4641
    endloop
  endfacet
  facet normal 0.38269 0 0.923877
    outer loop
      vertex -46 -23 25.4641
      vertex -46.9647 23 25.8637
      vertex -46.9647 -23 25.8637
    endloop
  endfacet
  facet normal -0.923877 0 0.38269
    outer loop
      vertex -51.8637 -23 23.0353
      vertex -51.4641 23 24
      vertex -51.8637 23 23.0353
    endloop
  endfacet
  facet normal -0.923877 0 0.38269
    outer loop
      vertex -51.4641 23 24
      vertex -51.8637 -23 23.0353
      vertex -51.4641 -23 24
    endloop
  endfacet
  facet normal -0.130526 0 0.991445
    outer loop
      vertex -49.0353 23 25.8637
      vertex -48 -23 26
      vertex -48 23 26
    endloop
  endfacet
  facet normal -0.130526 0 0.991445
    outer loop
      vertex -48 -23 26
      vertex -49.0353 23 25.8637
      vertex -49.0353 -23 25.8637
    endloop
  endfacet
  facet normal -0.38269 0 0.923877
    outer loop
      vertex -50 23 25.4641
      vertex -49.0353 -23 25.8637
      vertex -49.0353 23 25.8637
    endloop
  endfacet
  facet normal -0.38269 0 0.923877
    outer loop
      vertex -49.0353 -23 25.8637
      vertex -50 23 25.4641
      vertex -50 -23 25.4641
    endloop
  endfacet
  facet normal -0.38269 0 -0.923877
    outer loop
      vertex -50 -23 18.5359
      vertex -49.0353 23 18.1363
      vertex -49.0353 -23 18.1363
    endloop
  endfacet
  facet normal -0.38269 0 -0.923877
    outer loop
      vertex -49.0353 23 18.1363
      vertex -50 -23 18.5359
      vertex -50 23 18.5359
    endloop
  endfacet
  facet normal -0.130526 0 -0.991445
    outer loop
      vertex -49.0353 -23 18.1363
      vertex -48 23 18
      vertex -48 -23 18
    endloop
  endfacet
  facet normal -0.130526 0 -0.991445
    outer loop
      vertex -48 23 18
      vertex -49.0353 -23 18.1363
      vertex -49.0353 23 18.1363
    endloop
  endfacet
  facet normal 0.923877 0 -0.38269
    outer loop
      vertex -44.1363 -23 20.9647
      vertex -44.5359 23 20
      vertex -44.1363 23 20.9647
    endloop
  endfacet
  facet normal 0.923877 0 -0.38269
    outer loop
      vertex -44.5359 23 20
      vertex -44.1363 -23 20.9647
      vertex -44.5359 -23 20
    endloop
  endfacet
  facet normal 0.608789 0 -0.793332
    outer loop
      vertex -46 -23 18.5359
      vertex -45.1716 23 19.1716
      vertex -45.1716 -23 19.1716
    endloop
  endfacet
  facet normal 0.608789 0 -0.793332
    outer loop
      vertex -45.1716 23 19.1716
      vertex -46 -23 18.5359
      vertex -46 23 18.5359
    endloop
  endfacet
  facet normal -0.923877 0 -0.38269
    outer loop
      vertex -51.4641 -23 20
      vertex -51.8637 23 20.9647
      vertex -51.4641 23 20
    endloop
  endfacet
  facet normal -0.923877 -0 -0.38269
    outer loop
      vertex -51.8637 23 20.9647
      vertex -51.4641 -23 20
      vertex -51.8637 -23 20.9647
    endloop
  endfacet
  facet normal -0.793332 0 -0.608789
    outer loop
      vertex -50.8284 -23 19.1716
      vertex -51.4641 23 20
      vertex -50.8284 23 19.1716
    endloop
  endfacet
  facet normal -0.793332 -0 -0.608789
    outer loop
      vertex -51.4641 23 20
      vertex -50.8284 -23 19.1716
      vertex -51.4641 -23 20
    endloop
  endfacet
  facet normal -0.608789 0 -0.793332
    outer loop
      vertex -50.8284 -23 19.1716
      vertex -50 23 18.5359
      vertex -50 -23 18.5359
    endloop
  endfacet
  facet normal -0.608789 0 -0.793332
    outer loop
      vertex -50 23 18.5359
      vertex -50.8284 -23 19.1716
      vertex -50.8284 23 19.1716
    endloop
  endfacet
  facet normal 0.991446 -0 0.130518
    outer loop
      vertex 54.7615 -33 23.8117
      vertex 55 -23 22
      vertex 54.7615 -23 23.8117
    endloop
  endfacet
  facet normal 0.991446 0 0.130518
    outer loop
      vertex 55 -23 22
      vertex 54.7615 -33 23.8117
      vertex 55 -33 22
    endloop
  endfacet
  facet normal 0.923883 -0 0.382676
    outer loop
      vertex 54.0622 -33 25.5
      vertex 54.7615 -23 23.8117
      vertex 54.0622 -23 25.5
    endloop
  endfacet
  facet normal 0.923883 0 0.382676
    outer loop
      vertex 54.7615 -23 23.8117
      vertex 54.0622 -33 25.5
      vertex 54.7615 -33 23.8117
    endloop
  endfacet
  facet normal -0.130518 0 0.991446
    outer loop
      vertex 46.1883 -23 28.7615
      vertex 48 -33 29
      vertex 48 -23 29
    endloop
  endfacet
  facet normal -0.130518 0 0.991446
    outer loop
      vertex 48 -33 29
      vertex 46.1883 -23 28.7615
      vertex 46.1883 -33 28.7615
    endloop
  endfacet
  facet normal 0.608798 0 0.793325
    outer loop
      vertex 51.5 -23 28.0622
      vertex 52.9497 -33 26.9497
      vertex 52.9497 -23 26.9497
    endloop
  endfacet
  facet normal 0.608798 0 0.793325
    outer loop
      vertex 52.9497 -33 26.9497
      vertex 51.5 -23 28.0622
      vertex 51.5 -33 28.0622
    endloop
  endfacet
  facet normal -0.793325 0 0.608798
    outer loop
      vertex 41.9378 -33 25.5
      vertex 43.0503 -23 26.9497
      vertex 41.9378 -23 25.5
    endloop
  endfacet
  facet normal -0.793325 0 0.608798
    outer loop
      vertex 43.0503 -23 26.9497
      vertex 41.9378 -33 25.5
      vertex 43.0503 -33 26.9497
    endloop
  endfacet
  facet normal -0.608798 0 0.793325
    outer loop
      vertex 43.0503 -23 26.9497
      vertex 44.5 -33 28.0622
      vertex 44.5 -23 28.0622
    endloop
  endfacet
  facet normal -0.608798 0 0.793325
    outer loop
      vertex 44.5 -33 28.0622
      vertex 43.0503 -23 26.9497
      vertex 43.0503 -33 26.9497
    endloop
  endfacet
  facet normal 0.382676 0 -0.923883
    outer loop
      vertex 49.8117 -33 15.2385
      vertex 51.5 -23 15.9378
      vertex 51.5 -33 15.9378
    endloop
  endfacet
  facet normal 0.382676 0 -0.923883
    outer loop
      vertex 51.5 -23 15.9378
      vertex 49.8117 -33 15.2385
      vertex 49.8117 -23 15.2385
    endloop
  endfacet
  facet normal 0.130518 0 0.991446
    outer loop
      vertex 48 -23 29
      vertex 49.8117 -33 28.7615
      vertex 49.8117 -23 28.7615
    endloop
  endfacet
  facet normal 0.130518 0 0.991446
    outer loop
      vertex 49.8117 -33 28.7615
      vertex 48 -23 29
      vertex 48 -33 29
    endloop
  endfacet
  facet normal 0.382676 0 0.923883
    outer loop
      vertex 49.8117 -23 28.7615
      vertex 51.5 -33 28.0622
      vertex 51.5 -23 28.0622
    endloop
  endfacet
  facet normal 0.382676 0 0.923883
    outer loop
      vertex 51.5 -33 28.0622
      vertex 49.8117 -23 28.7615
      vertex 49.8117 -33 28.7615
    endloop
  endfacet
  facet normal -0.923883 0 0.382676
    outer loop
      vertex 41.2385 -33 23.8117
      vertex 41.9378 -23 25.5
      vertex 41.2385 -23 23.8117
    endloop
  endfacet
  facet normal -0.923883 0 0.382676
    outer loop
      vertex 41.9378 -23 25.5
      vertex 41.2385 -33 23.8117
      vertex 41.9378 -33 25.5
    endloop
  endfacet
  facet normal 0 1 0
    outer loop
      vertex 48 -23 27
      vertex 48 -23 29
      vertex 49.8117 -23 28.7615
    endloop
  endfacet
  facet normal 0 1 0
    outer loop
      vertex 49.2941 -23 26.8296
      vertex 49.8117 -23 28.7615
      vertex 51.5 -23 28.0622
    endloop
  endfacet
  facet normal 0 1 0
    outer loop
      vertex 48 -23 29
      vertex 48 -23 27
      vertex 46.1883 -23 28.7615
    endloop
  endfacet
  facet normal 0 1 -0
    outer loop
      vertex 46.7059 -23 26.8296
      vertex 46.1883 -23 28.7615
      vertex 48 -23 27
    endloop
  endfacet
  facet normal 0 1 0
    outer loop
      vertex 50.5 -23 26.3301
      vertex 51.5 -23 28.0622
      vertex 52.9497 -23 26.9497
    endloop
  endfacet
  facet normal 0 1 0
    outer loop
      vertex 49.8117 -23 28.7615
      vertex 49.2941 -23 26.8296
      vertex 48 -23 27
    endloop
  endfacet
  facet normal 0 1 0
    outer loop
      vertex 51.5 -23 28.0622
      vertex 50.5 -23 26.3301
      vertex 49.2941 -23 26.8296
    endloop
  endfacet
  facet normal 0 1 0
    outer loop
      vertex 52.9497 -23 26.9497
      vertex 51.5355 -23 25.5355
      vertex 50.5 -23 26.3301
    endloop
  endfacet
  facet normal 0 1 0
    outer loop
      vertex 54.0622 -23 25.5
      vertex 51.5355 -23 25.5355
      vertex 52.9497 -23 26.9497
    endloop
  endfacet
  facet normal 0 1 0
    outer loop
      vertex 54.0622 -23 25.5
      vertex 52.3301 -23 24.5
      vertex 51.5355 -23 25.5355
    endloop
  endfacet
  facet normal 0 1 0
    outer loop
      vertex 54.7615 -23 23.8117
      vertex 52.3301 -23 24.5
      vertex 54.0622 -23 25.5
    endloop
  endfacet
  facet normal 0 1 0
    outer loop
      vertex 54.7615 -23 23.8117
      vertex 52.8296 -23 23.2941
      vertex 52.3301 -23 24.5
    endloop
  endfacet
  facet normal 0 1 0
    outer loop
      vertex 55 -23 22
      vertex 52.8296 -23 23.2941
      vertex 54.7615 -23 23.8117
    endloop
  endfacet
  facet normal 0 1 0
    outer loop
      vertex 55 -23 22
      vertex 53 -23 22
      vertex 52.8296 -23 23.2941
    endloop
  endfacet
  facet normal 0 1 0
    outer loop
      vertex 55 -23 22
      vertex 52.8296 -23 20.7059
      vertex 53 -23 22
    endloop
  endfacet
  facet normal 0 1 -0
    outer loop
      vertex 54.7615 -23 20.1883
      vertex 52.8296 -23 20.7059
      vertex 55 -23 22
    endloop
  endfacet
  facet normal 0 1 0
    outer loop
      vertex 54.7615 -23 20.1883
      vertex 52.3301 -23 19.5
      vertex 52.8296 -23 20.7059
    endloop
  endfacet
  facet normal 0 1 -0
    outer loop
      vertex 54.0622 -23 18.5
      vertex 52.3301 -23 19.5
      vertex 54.7615 -23 20.1883
    endloop
  endfacet
  facet normal 0 1 0
    outer loop
      vertex 54.0622 -23 18.5
      vertex 51.5355 -23 18.4645
      vertex 52.3301 -23 19.5
    endloop
  endfacet
  facet normal 0 1 -0
    outer loop
      vertex 52.9497 -23 17.0503
      vertex 51.5355 -23 18.4645
      vertex 54.0622 -23 18.5
    endloop
  endfacet
  facet normal 0 1 0
    outer loop
      vertex 51.5355 -23 18.4645
      vertex 52.9497 -23 17.0503
      vertex 50.5 -23 17.6699
    endloop
  endfacet
  facet normal 0 1 -0
    outer loop
      vertex 51.5 -23 15.9378
      vertex 50.5 -23 17.6699
      vertex 52.9497 -23 17.0503
    endloop
  endfacet
  facet normal 0 1 0
    outer loop
      vertex 50.5 -23 17.6699
      vertex 51.5 -23 15.9378
      vertex 49.2941 -23 17.1704
    endloop
  endfacet
  facet normal 0 1 -0
    outer loop
      vertex 49.8117 -23 15.2385
      vertex 49.2941 -23 17.1704
      vertex 51.5 -23 15.9378
    endloop
  endfacet
  facet normal 0 1 0
    outer loop
      vertex 46.1883 -23 28.7615
      vertex 46.7059 -23 26.8296
      vertex 44.5 -23 28.0622
    endloop
  endfacet
  facet normal 0 1 -0
    outer loop
      vertex 45.5 -23 26.3301
      vertex 44.5 -23 28.0622
      vertex 46.7059 -23 26.8296
    endloop
  endfacet
  facet normal 0 1 0
    outer loop
      vertex 44.5 -23 28.0622
      vertex 45.5 -23 26.3301
      vertex 43.0503 -23 26.9497
    endloop
  endfacet
  facet normal 0 1 -0
    outer loop
      vertex 44.4645 -23 25.5355
      vertex 43.0503 -23 26.9497
      vertex 45.5 -23 26.3301
    endloop
  endfacet
  facet normal 0 1 0
    outer loop
      vertex 44.4645 -23 25.5355
      vertex 41.9378 -23 25.5
      vertex 43.0503 -23 26.9497
    endloop
  endfacet
  facet normal 0 1 -0
    outer loop
      vertex 43.6699 -23 24.5
      vertex 41.9378 -23 25.5
      vertex 44.4645 -23 25.5355
    endloop
  endfacet
  facet normal 0 1 0
    outer loop
      vertex 43.6699 -23 24.5
      vertex 41.2385 -23 23.8117
      vertex 41.9378 -23 25.5
    endloop
  endfacet
  facet normal 0 1 -0
    outer loop
      vertex 43.1704 -23 23.2941
      vertex 41.2385 -23 23.8117
      vertex 43.6699 -23 24.5
    endloop
  endfacet
  facet normal 0 1 -0
    outer loop
      vertex 43 -23 22
      vertex 41.2385 -23 23.8117
      vertex 43.1704 -23 23.2941
    endloop
  endfacet
  facet normal 0 1 0
    outer loop
      vertex 43 -23 22
      vertex 41 -23 22
      vertex 41.2385 -23 23.8117
    endloop
  endfacet
  facet normal 0 1 0
    outer loop
      vertex 43.1704 -23 20.7059
      vertex 41 -23 22
      vertex 43 -23 22
    endloop
  endfacet
  facet normal 0 1 0
    outer loop
      vertex 43.1704 -23 20.7059
      vertex 41.2385 -23 20.1883
      vertex 41 -23 22
    endloop
  endfacet
  facet normal 0 1 0
    outer loop
      vertex 43.6699 -23 19.5
      vertex 41.2385 -23 20.1883
      vertex 43.1704 -23 20.7059
    endloop
  endfacet
  facet normal 0 1 0
    outer loop
      vertex 43.6699 -23 19.5
      vertex 41.9378 -23 18.5
      vertex 41.2385 -23 20.1883
    endloop
  endfacet
  facet normal 0 1 0
    outer loop
      vertex 44.4645 -23 18.4645
      vertex 41.9378 -23 18.5
      vertex 43.6699 -23 19.5
    endloop
  endfacet
  facet normal 0 1 0
    outer loop
      vertex 43.0503 -23 17.0503
      vertex 44.4645 -23 18.4645
      vertex 45.5 -23 17.6699
    endloop
  endfacet
  facet normal 0 1 0
    outer loop
      vertex 44.5 -23 15.9378
      vertex 45.5 -23 17.6699
      vertex 46.7059 -23 17.1704
    endloop
  endfacet
  facet normal 0 1 0
    outer loop
      vertex 44.4645 -23 18.4645
      vertex 43.0503 -23 17.0503
      vertex 41.9378 -23 18.5
    endloop
  endfacet
  facet normal 0 1 0
    outer loop
      vertex 46.1883 -23 15.2385
      vertex 46.7059 -23 17.1704
      vertex 48 -23 17
    endloop
  endfacet
  facet normal 0 1 0
    outer loop
      vertex 49.2941 -23 17.1704
      vertex 49.8117 -23 15.2385
      vertex 48 -23 17
    endloop
  endfacet
  facet normal 0 1 0
    outer loop
      vertex 45.5 -23 17.6699
      vertex 44.5 -23 15.9378
      vertex 43.0503 -23 17.0503
    endloop
  endfacet
  facet normal 0 1 0
    outer loop
      vertex 48 -23 15
      vertex 48 -23 17
      vertex 49.8117 -23 15.2385
    endloop
  endfacet
  facet normal 0 1 0
    outer loop
      vertex 46.7059 -23 17.1704
      vertex 46.1883 -23 15.2385
      vertex 44.5 -23 15.9378
    endloop
  endfacet
  facet normal 0 1 0
    outer loop
      vertex 48 -23 17
      vertex 48 -23 15
      vertex 46.1883 -23 15.2385
    endloop
  endfacet
  facet normal 0 -1 0
    outer loop
      vertex 46.1883 -33 28.7615
      vertex 49.8117 -33 28.7615
      vertex 48 -33 29
    endloop
  endfacet
  facet normal 0 -1 0
    outer loop
      vertex 44.5 -33 28.0622
      vertex 49.8117 -33 28.7615
      vertex 46.1883 -33 28.7615
    endloop
  endfacet
  facet normal 0 -1 0
    outer loop
      vertex 44.5 -33 28.0622
      vertex 51.5 -33 28.0622
      vertex 49.8117 -33 28.7615
    endloop
  endfacet
  facet normal 0 -1 0
    outer loop
      vertex 43.0503 -33 26.9497
      vertex 51.5 -33 28.0622
      vertex 44.5 -33 28.0622
    endloop
  endfacet
  facet normal 0 -1 0
    outer loop
      vertex 43.0503 -33 26.9497
      vertex 52.9497 -33 26.9497
      vertex 51.5 -33 28.0622
    endloop
  endfacet
  facet normal 0 -1 0
    outer loop
      vertex 41.9378 -33 25.5
      vertex 52.9497 -33 26.9497
      vertex 43.0503 -33 26.9497
    endloop
  endfacet
  facet normal 0 -1 0
    outer loop
      vertex 41.9378 -33 25.5
      vertex 54.0622 -33 25.5
      vertex 52.9497 -33 26.9497
    endloop
  endfacet
  facet normal 0 -1 0
    outer loop
      vertex 41.2385 -33 23.8117
      vertex 54.0622 -33 25.5
      vertex 41.9378 -33 25.5
    endloop
  endfacet
  facet normal 0 -1 0
    outer loop
      vertex 41.2385 -33 23.8117
      vertex 54.7615 -33 23.8117
      vertex 54.0622 -33 25.5
    endloop
  endfacet
  facet normal 0 -1 0
    outer loop
      vertex 41 -33 22
      vertex 54.7615 -33 23.8117
      vertex 41.2385 -33 23.8117
    endloop
  endfacet
  facet normal 0 -1 0
    outer loop
      vertex 41 -33 22
      vertex 55 -33 22
      vertex 54.7615 -33 23.8117
    endloop
  endfacet
  facet normal 0 -1 0
    outer loop
      vertex 41.2385 -33 20.1883
      vertex 55 -33 22
      vertex 41 -33 22
    endloop
  endfacet
  facet normal 0 -1 0
    outer loop
      vertex 41.2385 -33 20.1883
      vertex 54.7615 -33 20.1883
      vertex 55 -33 22
    endloop
  endfacet
  facet normal 0 -1 0
    outer loop
      vertex 41.9378 -33 18.5
      vertex 54.7615 -33 20.1883
      vertex 41.2385 -33 20.1883
    endloop
  endfacet
  facet normal 0 -1 0
    outer loop
      vertex 41.9378 -33 18.5
      vertex 54.0622 -33 18.5
      vertex 54.7615 -33 20.1883
    endloop
  endfacet
  facet normal 0 -1 0
    outer loop
      vertex 43.0503 -33 17.0503
      vertex 54.0622 -33 18.5
      vertex 41.9378 -33 18.5
    endloop
  endfacet
  facet normal 0 -1 0
    outer loop
      vertex 43.0503 -33 17.0503
      vertex 52.9497 -33 17.0503
      vertex 54.0622 -33 18.5
    endloop
  endfacet
  facet normal 0 -1 0
    outer loop
      vertex 44.5 -33 15.9378
      vertex 52.9497 -33 17.0503
      vertex 43.0503 -33 17.0503
    endloop
  endfacet
  facet normal 0 -1 0
    outer loop
      vertex 44.5 -33 15.9378
      vertex 51.5 -33 15.9378
      vertex 52.9497 -33 17.0503
    endloop
  endfacet
  facet normal 0 -1 0
    outer loop
      vertex 46.1883 -33 15.2385
      vertex 51.5 -33 15.9378
      vertex 44.5 -33 15.9378
    endloop
  endfacet
  facet normal 0 -1 0
    outer loop
      vertex 46.1883 -33 15.2385
      vertex 49.8117 -33 15.2385
      vertex 51.5 -33 15.9378
    endloop
  endfacet
  facet normal -0 -1 0
    outer loop
      vertex 49.8117 -33 15.2385
      vertex 46.1883 -33 15.2385
      vertex 48 -33 15
    endloop
  endfacet
  facet normal -0.382676 0 0.923883
    outer loop
      vertex 44.5 -23 28.0622
      vertex 46.1883 -33 28.7615
      vertex 46.1883 -23 28.7615
    endloop
  endfacet
  facet normal -0.382676 0 0.923883
    outer loop
      vertex 46.1883 -33 28.7615
      vertex 44.5 -23 28.0622
      vertex 44.5 -33 28.0622
    endloop
  endfacet
  facet normal -0.382676 0 -0.923883
    outer loop
      vertex 44.5 -33 15.9378
      vertex 46.1883 -23 15.2385
      vertex 46.1883 -33 15.2385
    endloop
  endfacet
  facet normal -0.382676 0 -0.923883
    outer loop
      vertex 46.1883 -23 15.2385
      vertex 44.5 -33 15.9378
      vertex 44.5 -23 15.9378
    endloop
  endfacet
  facet normal -0.608798 0 -0.793325
    outer loop
      vertex 43.0503 -33 17.0503
      vertex 44.5 -23 15.9378
      vertex 44.5 -33 15.9378
    endloop
  endfacet
  facet normal -0.608798 0 -0.793325
    outer loop
      vertex 44.5 -23 15.9378
      vertex 43.0503 -33 17.0503
      vertex 43.0503 -23 17.0503
    endloop
  endfacet
  facet normal -0.923883 0 -0.382676
    outer loop
      vertex 41.9378 -33 18.5
      vertex 41.2385 -23 20.1883
      vertex 41.9378 -23 18.5
    endloop
  endfacet
  facet normal -0.923883 -0 -0.382676
    outer loop
      vertex 41.2385 -23 20.1883
      vertex 41.9378 -33 18.5
      vertex 41.2385 -33 20.1883
    endloop
  endfacet
  facet normal 0.793325 -0 0.608798
    outer loop
      vertex 52.9497 -33 26.9497
      vertex 54.0622 -23 25.5
      vertex 52.9497 -23 26.9497
    endloop
  endfacet
  facet normal 0.793325 0 0.608798
    outer loop
      vertex 54.0622 -23 25.5
      vertex 52.9497 -33 26.9497
      vertex 54.0622 -33 25.5
    endloop
  endfacet
  facet normal -0.991446 0 0.130518
    outer loop
      vertex 41 -33 22
      vertex 41.2385 -23 23.8117
      vertex 41 -23 22
    endloop
  endfacet
  facet normal -0.991446 0 0.130518
    outer loop
      vertex 41.2385 -23 23.8117
      vertex 41 -33 22
      vertex 41.2385 -33 23.8117
    endloop
  endfacet
  facet normal -0.991446 0 -0.130518
    outer loop
      vertex 41.2385 -33 20.1883
      vertex 41 -23 22
      vertex 41.2385 -23 20.1883
    endloop
  endfacet
  facet normal -0.991446 -0 -0.130518
    outer loop
      vertex 41 -23 22
      vertex 41.2385 -33 20.1883
      vertex 41 -33 22
    endloop
  endfacet
  facet normal 0.923883 0 -0.382676
    outer loop
      vertex 54.7615 -33 20.1883
      vertex 54.0622 -23 18.5
      vertex 54.7615 -23 20.1883
    endloop
  endfacet
  facet normal 0.923883 0 -0.382676
    outer loop
      vertex 54.0622 -23 18.5
      vertex 54.7615 -33 20.1883
      vertex 54.0622 -33 18.5
    endloop
  endfacet
  facet normal 0.991446 0 -0.130518
    outer loop
      vertex 55 -33 22
      vertex 54.7615 -23 20.1883
      vertex 55 -23 22
    endloop
  endfacet
  facet normal 0.991446 0 -0.130518
    outer loop
      vertex 54.7615 -23 20.1883
      vertex 55 -33 22
      vertex 54.7615 -33 20.1883
    endloop
  endfacet
  facet normal 0.608798 0 -0.793325
    outer loop
      vertex 51.5 -33 15.9378
      vertex 52.9497 -23 17.0503
      vertex 52.9497 -33 17.0503
    endloop
  endfacet
  facet normal 0.608798 0 -0.793325
    outer loop
      vertex 52.9497 -23 17.0503
      vertex 51.5 -33 15.9378
      vertex 51.5 -23 15.9378
    endloop
  endfacet
  facet normal 0.793325 0 -0.608798
    outer loop
      vertex 54.0622 -33 18.5
      vertex 52.9497 -23 17.0503
      vertex 54.0622 -23 18.5
    endloop
  endfacet
  facet normal 0.793325 0 -0.608798
    outer loop
      vertex 52.9497 -23 17.0503
      vertex 54.0622 -33 18.5
      vertex 52.9497 -33 17.0503
    endloop
  endfacet
  facet normal -0.130518 0 -0.991446
    outer loop
      vertex 46.1883 -33 15.2385
      vertex 48 -23 15
      vertex 48 -33 15
    endloop
  endfacet
  facet normal -0.130518 0 -0.991446
    outer loop
      vertex 48 -23 15
      vertex 46.1883 -33 15.2385
      vertex 46.1883 -23 15.2385
    endloop
  endfacet
  facet normal 0.130518 0 -0.991446
    outer loop
      vertex 48 -33 15
      vertex 49.8117 -23 15.2385
      vertex 49.8117 -33 15.2385
    endloop
  endfacet
  facet normal 0.130518 0 -0.991446
    outer loop
      vertex 49.8117 -23 15.2385
      vertex 48 -33 15
      vertex 48 -23 15
    endloop
  endfacet
  facet normal -0.793325 0 -0.608798
    outer loop
      vertex 43.0503 -33 17.0503
      vertex 41.9378 -23 18.5
      vertex 43.0503 -23 17.0503
    endloop
  endfacet
  facet normal -0.793325 -0 -0.608798
    outer loop
      vertex 41.9378 -23 18.5
      vertex 43.0503 -33 17.0503
      vertex 41.9378 -33 18.5
    endloop
  endfacet
  facet normal 0.991446 -0 0.130518
    outer loop
      vertex 54.7615 23 23.8117
      vertex 55 33 22
      vertex 54.7615 33 23.8117
    endloop
  endfacet
  facet normal 0.991446 0 0.130518
    outer loop
      vertex 55 33 22
      vertex 54.7615 23 23.8117
      vertex 55 23 22
    endloop
  endfacet
  facet normal 0.923883 -0 0.382676
    outer loop
      vertex 54.0622 23 25.5
      vertex 54.7615 33 23.8117
      vertex 54.0622 33 25.5
    endloop
  endfacet
  facet normal 0.923883 0 0.382676
    outer loop
      vertex 54.7615 33 23.8117
      vertex 54.0622 23 25.5
      vertex 54.7615 23 23.8117
    endloop
  endfacet
  facet normal -0.130518 0 0.991446
    outer loop
      vertex 46.1883 33 28.7615
      vertex 48 23 29
      vertex 48 33 29
    endloop
  endfacet
  facet normal -0.130518 0 0.991446
    outer loop
      vertex 48 23 29
      vertex 46.1883 33 28.7615
      vertex 46.1883 23 28.7615
    endloop
  endfacet
  facet normal 0.608798 0 0.793325
    outer loop
      vertex 51.5 33 28.0622
      vertex 52.9497 23 26.9497
      vertex 52.9497 33 26.9497
    endloop
  endfacet
  facet normal 0.608798 0 0.793325
    outer loop
      vertex 52.9497 23 26.9497
      vertex 51.5 33 28.0622
      vertex 51.5 23 28.0622
    endloop
  endfacet
  facet normal -0.793325 0 0.608798
    outer loop
      vertex 41.9378 23 25.5
      vertex 43.0503 33 26.9497
      vertex 41.9378 33 25.5
    endloop
  endfacet
  facet normal -0.793325 0 0.608798
    outer loop
      vertex 43.0503 33 26.9497
      vertex 41.9378 23 25.5
      vertex 43.0503 23 26.9497
    endloop
  endfacet
  facet normal -0.608798 0 0.793325
    outer loop
      vertex 43.0503 33 26.9497
      vertex 44.5 23 28.0622
      vertex 44.5 33 28.0622
    endloop
  endfacet
  facet normal -0.608798 0 0.793325
    outer loop
      vertex 44.5 23 28.0622
      vertex 43.0503 33 26.9497
      vertex 43.0503 23 26.9497
    endloop
  endfacet
  facet normal 0.382676 0 -0.923883
    outer loop
      vertex 49.8117 23 15.2385
      vertex 51.5 33 15.9378
      vertex 51.5 23 15.9378
    endloop
  endfacet
  facet normal 0.382676 0 -0.923883
    outer loop
      vertex 51.5 33 15.9378
      vertex 49.8117 23 15.2385
      vertex 49.8117 33 15.2385
    endloop
  endfacet
  facet normal 0.130518 0 0.991446
    outer loop
      vertex 48 33 29
      vertex 49.8117 23 28.7615
      vertex 49.8117 33 28.7615
    endloop
  endfacet
  facet normal 0.130518 0 0.991446
    outer loop
      vertex 49.8117 23 28.7615
      vertex 48 33 29
      vertex 48 23 29
    endloop
  endfacet
  facet normal 0.382676 0 0.923883
    outer loop
      vertex 49.8117 33 28.7615
      vertex 51.5 23 28.0622
      vertex 51.5 33 28.0622
    endloop
  endfacet
  facet normal 0.382676 0 0.923883
    outer loop
      vertex 51.5 23 28.0622
      vertex 49.8117 33 28.7615
      vertex 49.8117 23 28.7615
    endloop
  endfacet
  facet normal -0.923883 0 0.382676
    outer loop
      vertex 41.2385 23 23.8117
      vertex 41.9378 33 25.5
      vertex 41.2385 33 23.8117
    endloop
  endfacet
  facet normal -0.923883 0 0.382676
    outer loop
      vertex 41.9378 33 25.5
      vertex 41.2385 23 23.8117
      vertex 41.9378 23 25.5
    endloop
  endfacet
  facet normal 0 1 0
    outer loop
      vertex 49.8117 33 28.7615
      vertex 46.1883 33 28.7615
      vertex 48 33 29
    endloop
  endfacet
  facet normal 0 1 0
    outer loop
      vertex 51.5 33 28.0622
      vertex 46.1883 33 28.7615
      vertex 49.8117 33 28.7615
    endloop
  endfacet
  facet normal 0 1 0
    outer loop
      vertex 51.5 33 28.0622
      vertex 44.5 33 28.0622
      vertex 46.1883 33 28.7615
    endloop
  endfacet
  facet normal 0 1 0
    outer loop
      vertex 52.9497 33 26.9497
      vertex 44.5 33 28.0622
      vertex 51.5 33 28.0622
    endloop
  endfacet
  facet normal 0 1 0
    outer loop
      vertex 52.9497 33 26.9497
      vertex 43.0503 33 26.9497
      vertex 44.5 33 28.0622
    endloop
  endfacet
  facet normal 0 1 0
    outer loop
      vertex 54.0622 33 25.5
      vertex 43.0503 33 26.9497
      vertex 52.9497 33 26.9497
    endloop
  endfacet
  facet normal 0 1 0
    outer loop
      vertex 54.0622 33 25.5
      vertex 41.9378 33 25.5
      vertex 43.0503 33 26.9497
    endloop
  endfacet
  facet normal 0 1 0
    outer loop
      vertex 54.7615 33 23.8117
      vertex 41.9378 33 25.5
      vertex 54.0622 33 25.5
    endloop
  endfacet
  facet normal 0 1 0
    outer loop
      vertex 54.7615 33 23.8117
      vertex 41.2385 33 23.8117
      vertex 41.9378 33 25.5
    endloop
  endfacet
  facet normal 0 1 0
    outer loop
      vertex 55 33 22
      vertex 41.2385 33 23.8117
      vertex 54.7615 33 23.8117
    endloop
  endfacet
  facet normal 0 1 0
    outer loop
      vertex 55 33 22
      vertex 41 33 22
      vertex 41.2385 33 23.8117
    endloop
  endfacet
  facet normal 0 1 -0
    outer loop
      vertex 54.7615 33 20.1883
      vertex 41 33 22
      vertex 55 33 22
    endloop
  endfacet
  facet normal 0 1 0
    outer loop
      vertex 54.7615 33 20.1883
      vertex 41.2385 33 20.1883
      vertex 41 33 22
    endloop
  endfacet
  facet normal 0 1 -0
    outer loop
      vertex 54.0622 33 18.5
      vertex 41.2385 33 20.1883
      vertex 54.7615 33 20.1883
    endloop
  endfacet
  facet normal 0 1 0
    outer loop
      vertex 54.0622 33 18.5
      vertex 41.9378 33 18.5
      vertex 41.2385 33 20.1883
    endloop
  endfacet
  facet normal 0 1 -0
    outer loop
      vertex 52.9497 33 17.0503
      vertex 41.9378 33 18.5
      vertex 54.0622 33 18.5
    endloop
  endfacet
  facet normal 0 1 0
    outer loop
      vertex 52.9497 33 17.0503
      vertex 43.0503 33 17.0503
      vertex 41.9378 33 18.5
    endloop
  endfacet
  facet normal 0 1 -0
    outer loop
      vertex 51.5 33 15.9378
      vertex 43.0503 33 17.0503
      vertex 52.9497 33 17.0503
    endloop
  endfacet
  facet normal 0 1 0
    outer loop
      vertex 51.5 33 15.9378
      vertex 44.5 33 15.9378
      vertex 43.0503 33 17.0503
    endloop
  endfacet
  facet normal 0 1 -0
    outer loop
      vertex 49.8117 33 15.2385
      vertex 44.5 33 15.9378
      vertex 51.5 33 15.9378
    endloop
  endfacet
  facet normal 0 1 0
    outer loop
      vertex 49.8117 33 15.2385
      vertex 46.1883 33 15.2385
      vertex 44.5 33 15.9378
    endloop
  endfacet
  facet normal -0 1 0
    outer loop
      vertex 46.1883 33 15.2385
      vertex 49.8117 33 15.2385
      vertex 48 33 15
    endloop
  endfacet
  facet normal 0 -1 0
    outer loop
      vertex 48 23 27
      vertex 48 23 29
      vertex 46.1883 23 28.7615
    endloop
  endfacet
  facet normal 0 -1 0
    outer loop
      vertex 46.7059 23 26.8296
      vertex 46.1883 23 28.7615
      vertex 44.5 23 28.0622
    endloop
  endfacet
  facet normal 0 -1 0
    outer loop
      vertex 48 23 29
      vertex 48 23 27
      vertex 49.8117 23 28.7615
    endloop
  endfacet
  facet normal 0 -1 0
    outer loop
      vertex 49.2941 23 26.8296
      vertex 49.8117 23 28.7615
      vertex 48 23 27
    endloop
  endfacet
  facet normal 0 -1 0
    outer loop
      vertex 45.5 23 26.3301
      vertex 44.5 23 28.0622
      vertex 43.0503 23 26.9497
    endloop
  endfacet
  facet normal 0 -1 0
    outer loop
      vertex 46.1883 23 28.7615
      vertex 46.7059 23 26.8296
      vertex 48 23 27
    endloop
  endfacet
  facet normal 0 -1 0
    outer loop
      vertex 44.5 23 28.0622
      vertex 45.5 23 26.3301
      vertex 46.7059 23 26.8296
    endloop
  endfacet
  facet normal 0 -1 0
    outer loop
      vertex 43.0503 23 26.9497
      vertex 44.4645 23 25.5355
      vertex 45.5 23 26.3301
    endloop
  endfacet
  facet normal 0 -1 0
    outer loop
      vertex 41.9378 23 25.5
      vertex 44.4645 23 25.5355
      vertex 43.0503 23 26.9497
    endloop
  endfacet
  facet normal 0 -1 0
    outer loop
      vertex 41.9378 23 25.5
      vertex 43.6699 23 24.5
      vertex 44.4645 23 25.5355
    endloop
  endfacet
  facet normal 0 -1 0
    outer loop
      vertex 41.2385 23 23.8117
      vertex 43.6699 23 24.5
      vertex 41.9378 23 25.5
    endloop
  endfacet
  facet normal 0 -1 0
    outer loop
      vertex 41.2385 23 23.8117
      vertex 43.1704 23 23.2941
      vertex 43.6699 23 24.5
    endloop
  endfacet
  facet normal 0 -1 0
    outer loop
      vertex 41 23 22
      vertex 43.1704 23 23.2941
      vertex 41.2385 23 23.8117
    endloop
  endfacet
  facet normal 0 -1 0
    outer loop
      vertex 41 23 22
      vertex 43 23 22
      vertex 43.1704 23 23.2941
    endloop
  endfacet
  facet normal 0 -1 0
    outer loop
      vertex 41 23 22
      vertex 43.1704 23 20.7059
      vertex 43 23 22
    endloop
  endfacet
  facet normal 0 -1 0
    outer loop
      vertex 41.2385 23 20.1883
      vertex 43.1704 23 20.7059
      vertex 41 23 22
    endloop
  endfacet
  facet normal 0 -1 0
    outer loop
      vertex 41.2385 23 20.1883
      vertex 43.6699 23 19.5
      vertex 43.1704 23 20.7059
    endloop
  endfacet
  facet normal 0 -1 0
    outer loop
      vertex 41.9378 23 18.5
      vertex 43.6699 23 19.5
      vertex 41.2385 23 20.1883
    endloop
  endfacet
  facet normal 0 -1 0
    outer loop
      vertex 41.9378 23 18.5
      vertex 44.4645 23 18.4645
      vertex 43.6699 23 19.5
    endloop
  endfacet
  facet normal 0 -1 0
    outer loop
      vertex 43.0503 23 17.0503
      vertex 44.4645 23 18.4645
      vertex 41.9378 23 18.5
    endloop
  endfacet
  facet normal 0 -1 -0
    outer loop
      vertex 44.4645 23 18.4645
      vertex 43.0503 23 17.0503
      vertex 45.5 23 17.6699
    endloop
  endfacet
  facet normal 0 -1 0
    outer loop
      vertex 44.5 23 15.9378
      vertex 45.5 23 17.6699
      vertex 43.0503 23 17.0503
    endloop
  endfacet
  facet normal 0 -1 -0
    outer loop
      vertex 45.5 23 17.6699
      vertex 44.5 23 15.9378
      vertex 46.7059 23 17.1704
    endloop
  endfacet
  facet normal 0 -1 0
    outer loop
      vertex 46.1883 23 15.2385
      vertex 46.7059 23 17.1704
      vertex 44.5 23 15.9378
    endloop
  endfacet
  facet normal 0 -1 -0
    outer loop
      vertex 49.8117 23 28.7615
      vertex 49.2941 23 26.8296
      vertex 51.5 23 28.0622
    endloop
  endfacet
  facet normal 0 -1 0
    outer loop
      vertex 50.5 23 26.3301
      vertex 51.5 23 28.0622
      vertex 49.2941 23 26.8296
    endloop
  endfacet
  facet normal 0 -1 -0
    outer loop
      vertex 51.5 23 28.0622
      vertex 50.5 23 26.3301
      vertex 52.9497 23 26.9497
    endloop
  endfacet
  facet normal 0 -1 0
    outer loop
      vertex 51.5355 23 25.5355
      vertex 52.9497 23 26.9497
      vertex 50.5 23 26.3301
    endloop
  endfacet
  facet normal 0 -1 0
    outer loop
      vertex 51.5355 23 25.5355
      vertex 54.0622 23 25.5
      vertex 52.9497 23 26.9497
    endloop
  endfacet
  facet normal 0 -1 0
    outer loop
      vertex 52.3301 23 24.5
      vertex 54.0622 23 25.5
      vertex 51.5355 23 25.5355
    endloop
  endfacet
  facet normal 0 -1 0
    outer loop
      vertex 52.3301 23 24.5
      vertex 54.7615 23 23.8117
      vertex 54.0622 23 25.5
    endloop
  endfacet
  facet normal 0 -1 0
    outer loop
      vertex 52.8296 23 23.2941
      vertex 54.7615 23 23.8117
      vertex 52.3301 23 24.5
    endloop
  endfacet
  facet normal 0 -1 0
    outer loop
      vertex 53 23 22
      vertex 54.7615 23 23.8117
      vertex 52.8296 23 23.2941
    endloop
  endfacet
  facet normal 0 -1 0
    outer loop
      vertex 53 23 22
      vertex 55 23 22
      vertex 54.7615 23 23.8117
    endloop
  endfacet
  facet normal 0 -1 0
    outer loop
      vertex 52.8296 23 20.7059
      vertex 55 23 22
      vertex 53 23 22
    endloop
  endfacet
  facet normal 0 -1 0
    outer loop
      vertex 52.8296 23 20.7059
      vertex 54.7615 23 20.1883
      vertex 55 23 22
    endloop
  endfacet
  facet normal 0 -1 0
    outer loop
      vertex 52.3301 23 19.5
      vertex 54.7615 23 20.1883
      vertex 52.8296 23 20.7059
    endloop
  endfacet
  facet normal 0 -1 0
    outer loop
      vertex 52.3301 23 19.5
      vertex 54.0622 23 18.5
      vertex 54.7615 23 20.1883
    endloop
  endfacet
  facet normal 0 -1 0
    outer loop
      vertex 51.5355 23 18.4645
      vertex 54.0622 23 18.5
      vertex 52.3301 23 19.5
    endloop
  endfacet
  facet normal 0 -1 0
    outer loop
      vertex 52.9497 23 17.0503
      vertex 51.5355 23 18.4645
      vertex 50.5 23 17.6699
    endloop
  endfacet
  facet normal 0 -1 0
    outer loop
      vertex 51.5 23 15.9378
      vertex 50.5 23 17.6699
      vertex 49.2941 23 17.1704
    endloop
  endfacet
  facet normal 0 -1 0
    outer loop
      vertex 51.5355 23 18.4645
      vertex 52.9497 23 17.0503
      vertex 54.0622 23 18.5
    endloop
  endfacet
  facet normal 0 -1 0
    outer loop
      vertex 49.8117 23 15.2385
      vertex 49.2941 23 17.1704
      vertex 48 23 17
    endloop
  endfacet
  facet normal 0 -1 -0
    outer loop
      vertex 46.7059 23 17.1704
      vertex 46.1883 23 15.2385
      vertex 48 23 17
    endloop
  endfacet
  facet normal 0 -1 0
    outer loop
      vertex 50.5 23 17.6699
      vertex 51.5 23 15.9378
      vertex 52.9497 23 17.0503
    endloop
  endfacet
  facet normal 0 -1 0
    outer loop
      vertex 48 23 15
      vertex 48 23 17
      vertex 46.1883 23 15.2385
    endloop
  endfacet
  facet normal 0 -1 0
    outer loop
      vertex 49.2941 23 17.1704
      vertex 49.8117 23 15.2385
      vertex 51.5 23 15.9378
    endloop
  endfacet
  facet normal 0 -1 0
    outer loop
      vertex 48 23 17
      vertex 48 23 15
      vertex 49.8117 23 15.2385
    endloop
  endfacet
  facet normal -0.382676 0 0.923883
    outer loop
      vertex 44.5 33 28.0622
      vertex 46.1883 23 28.7615
      vertex 46.1883 33 28.7615
    endloop
  endfacet
  facet normal -0.382676 0 0.923883
    outer loop
      vertex 46.1883 23 28.7615
      vertex 44.5 33 28.0622
      vertex 44.5 23 28.0622
    endloop
  endfacet
  facet normal -0.382676 0 -0.923883
    outer loop
      vertex 44.5 23 15.9378
      vertex 46.1883 33 15.2385
      vertex 46.1883 23 15.2385
    endloop
  endfacet
  facet normal -0.382676 0 -0.923883
    outer loop
      vertex 46.1883 33 15.2385
      vertex 44.5 23 15.9378
      vertex 44.5 33 15.9378
    endloop
  endfacet
  facet normal -0.608798 0 -0.793325
    outer loop
      vertex 43.0503 23 17.0503
      vertex 44.5 33 15.9378
      vertex 44.5 23 15.9378
    endloop
  endfacet
  facet normal -0.608798 0 -0.793325
    outer loop
      vertex 44.5 33 15.9378
      vertex 43.0503 23 17.0503
      vertex 43.0503 33 17.0503
    endloop
  endfacet
  facet normal -0.923883 0 -0.382676
    outer loop
      vertex 41.9378 23 18.5
      vertex 41.2385 33 20.1883
      vertex 41.9378 33 18.5
    endloop
  endfacet
  facet normal -0.923883 -0 -0.382676
    outer loop
      vertex 41.2385 33 20.1883
      vertex 41.9378 23 18.5
      vertex 41.2385 23 20.1883
    endloop
  endfacet
  facet normal 0.793325 -0 0.608798
    outer loop
      vertex 52.9497 23 26.9497
      vertex 54.0622 33 25.5
      vertex 52.9497 33 26.9497
    endloop
  endfacet
  facet normal 0.793325 0 0.608798
    outer loop
      vertex 54.0622 33 25.5
      vertex 52.9497 23 26.9497
      vertex 54.0622 23 25.5
    endloop
  endfacet
  facet normal -0.991446 0 0.130518
    outer loop
      vertex 41 23 22
      vertex 41.2385 33 23.8117
      vertex 41 33 22
    endloop
  endfacet
  facet normal -0.991446 0 0.130518
    outer loop
      vertex 41.2385 33 23.8117
      vertex 41 23 22
      vertex 41.2385 23 23.8117
    endloop
  endfacet
  facet normal -0.991446 0 -0.130518
    outer loop
      vertex 41.2385 23 20.1883
      vertex 41 33 22
      vertex 41.2385 33 20.1883
    endloop
  endfacet
  facet normal -0.991446 -0 -0.130518
    outer loop
      vertex 41 33 22
      vertex 41.2385 23 20.1883
      vertex 41 23 22
    endloop
  endfacet
  facet normal 0.923883 0 -0.382676
    outer loop
      vertex 54.7615 23 20.1883
      vertex 54.0622 33 18.5
      vertex 54.7615 33 20.1883
    endloop
  endfacet
  facet normal 0.923883 0 -0.382676
    outer loop
      vertex 54.0622 33 18.5
      vertex 54.7615 23 20.1883
      vertex 54.0622 23 18.5
    endloop
  endfacet
  facet normal 0.991446 0 -0.130518
    outer loop
      vertex 55 23 22
      vertex 54.7615 33 20.1883
      vertex 55 33 22
    endloop
  endfacet
  facet normal 0.991446 0 -0.130518
    outer loop
      vertex 54.7615 33 20.1883
      vertex 55 23 22
      vertex 54.7615 23 20.1883
    endloop
  endfacet
  facet normal 0.608798 0 -0.793325
    outer loop
      vertex 51.5 23 15.9378
      vertex 52.9497 33 17.0503
      vertex 52.9497 23 17.0503
    endloop
  endfacet
  facet normal 0.608798 0 -0.793325
    outer loop
      vertex 52.9497 33 17.0503
      vertex 51.5 23 15.9378
      vertex 51.5 33 15.9378
    endloop
  endfacet
  facet normal 0.793325 0 -0.608798
    outer loop
      vertex 54.0622 23 18.5
      vertex 52.9497 33 17.0503
      vertex 54.0622 33 18.5
    endloop
  endfacet
  facet normal 0.793325 0 -0.608798
    outer loop
      vertex 52.9497 33 17.0503
      vertex 54.0622 23 18.5
      vertex 52.9497 23 17.0503
    endloop
  endfacet
  facet normal -0.130518 0 -0.991446
    outer loop
      vertex 46.1883 23 15.2385
      vertex 48 33 15
      vertex 48 23 15
    endloop
  endfacet
  facet normal -0.130518 0 -0.991446
    outer loop
      vertex 48 33 15
      vertex 46.1883 23 15.2385
      vertex 46.1883 33 15.2385
    endloop
  endfacet
  facet normal 0.130518 0 -0.991446
    outer loop
      vertex 48 23 15
      vertex 49.8117 33 15.2385
      vertex 49.8117 23 15.2385
    endloop
  endfacet
  facet normal 0.130518 0 -0.991446
    outer loop
      vertex 49.8117 33 15.2385
      vertex 48 23 15
      vertex 48 33 15
    endloop
  endfacet
  facet normal -0.793325 0 -0.608798
    outer loop
      vertex 43.0503 23 17.0503
      vertex 41.9378 33 18.5
      vertex 43.0503 33 17.0503
    endloop
  endfacet
  facet normal -0.793325 -0 -0.608798
    outer loop
      vertex 41.9378 33 18.5
      vertex 43.0503 23 17.0503
      vertex 41.9378 23 18.5
    endloop
  endfacet
  facet normal 0.991442 -0 0.130548
    outer loop
      vertex 52.8296 -23 23.2941
      vertex 53 23 22
      vertex 52.8296 23 23.2941
    endloop
  endfacet
  facet normal 0.991442 0 0.130548
    outer loop
      vertex 53 23 22
      vertex 52.8296 -23 23.2941
      vertex 53 -23 22
    endloop
  endfacet
  facet normal -0.130548 0 -0.991442
    outer loop
      vertex 46.7059 -23 17.1704
      vertex 48 23 17
      vertex 48 -23 17
    endloop
  endfacet
  facet normal -0.130548 0 -0.991442
    outer loop
      vertex 48 23 17
      vertex 46.7059 -23 17.1704
      vertex 46.7059 23 17.1704
    endloop
  endfacet
  facet normal 0.608777 0 0.793341
    outer loop
      vertex 50.5 23 26.3301
      vertex 51.5355 -23 25.5355
      vertex 51.5355 23 25.5355
    endloop
  endfacet
  facet normal 0.608777 0 0.793341
    outer loop
      vertex 51.5355 -23 25.5355
      vertex 50.5 23 26.3301
      vertex 50.5 -23 26.3301
    endloop
  endfacet
  facet normal -0.130548 0 0.991442
    outer loop
      vertex 46.7059 23 26.8296
      vertex 48 -23 27
      vertex 48 23 27
    endloop
  endfacet
  facet normal -0.130548 0 0.991442
    outer loop
      vertex 48 -23 27
      vertex 46.7059 23 26.8296
      vertex 46.7059 -23 26.8296
    endloop
  endfacet
  facet normal 0.382683 0 0.92388
    outer loop
      vertex 49.2941 23 26.8296
      vertex 50.5 -23 26.3301
      vertex 50.5 23 26.3301
    endloop
  endfacet
  facet normal 0.382683 0 0.92388
    outer loop
      vertex 50.5 -23 26.3301
      vertex 49.2941 23 26.8296
      vertex 49.2941 -23 26.8296
    endloop
  endfacet
  facet normal 0.991442 0 -0.130548
    outer loop
      vertex 53 -23 22
      vertex 52.8296 23 20.7059
      vertex 53 23 22
    endloop
  endfacet
  facet normal 0.991442 0 -0.130548
    outer loop
      vertex 52.8296 23 20.7059
      vertex 53 -23 22
      vertex 52.8296 -23 20.7059
    endloop
  endfacet
  facet normal -0.382683 0 -0.92388
    outer loop
      vertex 45.5 -23 17.6699
      vertex 46.7059 23 17.1704
      vertex 46.7059 -23 17.1704
    endloop
  endfacet
  facet normal -0.382683 0 -0.92388
    outer loop
      vertex 46.7059 23 17.1704
      vertex 45.5 -23 17.6699
      vertex 45.5 23 17.6699
    endloop
  endfacet
  facet normal 0.793341 -0 0.608777
    outer loop
      vertex 51.5355 -23 25.5355
      vertex 52.3301 23 24.5
      vertex 51.5355 23 25.5355
    endloop
  endfacet
  facet normal 0.793341 0 0.608777
    outer loop
      vertex 52.3301 23 24.5
      vertex 51.5355 -23 25.5355
      vertex 52.3301 -23 24.5
    endloop
  endfacet
  facet normal 0.130548 0 0.991442
    outer loop
      vertex 48 23 27
      vertex 49.2941 -23 26.8296
      vertex 49.2941 23 26.8296
    endloop
  endfacet
  facet normal 0.130548 0 0.991442
    outer loop
      vertex 49.2941 -23 26.8296
      vertex 48 23 27
      vertex 48 -23 27
    endloop
  endfacet
  facet normal -0.991442 0 -0.130548
    outer loop
      vertex 43.1704 -23 20.7059
      vertex 43 23 22
      vertex 43.1704 23 20.7059
    endloop
  endfacet
  facet normal -0.991442 -0 -0.130548
    outer loop
      vertex 43 23 22
      vertex 43.1704 -23 20.7059
      vertex 43 -23 22
    endloop
  endfacet
  facet normal -0.92388 0 0.382683
    outer loop
      vertex 43.1704 -23 23.2941
      vertex 43.6699 23 24.5
      vertex 43.1704 23 23.2941
    endloop
  endfacet
  facet normal -0.92388 0 0.382683
    outer loop
      vertex 43.6699 23 24.5
      vertex 43.1704 -23 23.2941
      vertex 43.6699 -23 24.5
    endloop
  endfacet
  facet normal -0.793341 0 0.608777
    outer loop
      vertex 43.6699 -23 24.5
      vertex 44.4645 23 25.5355
      vertex 43.6699 23 24.5
    endloop
  endfacet
  facet normal -0.793341 0 0.608777
    outer loop
      vertex 44.4645 23 25.5355
      vertex 43.6699 -23 24.5
      vertex 44.4645 -23 25.5355
    endloop
  endfacet
  facet normal 0.130548 0 -0.991442
    outer loop
      vertex 48 -23 17
      vertex 49.2941 23 17.1704
      vertex 49.2941 -23 17.1704
    endloop
  endfacet
  facet normal 0.130548 0 -0.991442
    outer loop
      vertex 49.2941 23 17.1704
      vertex 48 -23 17
      vertex 48 23 17
    endloop
  endfacet
  facet normal -0.608777 0 -0.793341
    outer loop
      vertex 44.4645 -23 18.4645
      vertex 45.5 23 17.6699
      vertex 45.5 -23 17.6699
    endloop
  endfacet
  facet normal -0.608777 0 -0.793341
    outer loop
      vertex 45.5 23 17.6699
      vertex 44.4645 -23 18.4645
      vertex 44.4645 23 18.4645
    endloop
  endfacet
  facet normal 0.92388 -0 0.382683
    outer loop
      vertex 52.3301 -23 24.5
      vertex 52.8296 23 23.2941
      vertex 52.3301 23 24.5
    endloop
  endfacet
  facet normal 0.92388 0 0.382683
    outer loop
      vertex 52.8296 23 23.2941
      vertex 52.3301 -23 24.5
      vertex 52.8296 -23 23.2941
    endloop
  endfacet
  facet normal -0.991442 0 0.130548
    outer loop
      vertex 43 -23 22
      vertex 43.1704 23 23.2941
      vertex 43 23 22
    endloop
  endfacet
  facet normal -0.991442 0 0.130548
    outer loop
      vertex 43.1704 23 23.2941
      vertex 43 -23 22
      vertex 43.1704 -23 23.2941
    endloop
  endfacet
  facet normal -0.382683 0 0.92388
    outer loop
      vertex 45.5 23 26.3301
      vertex 46.7059 -23 26.8296
      vertex 46.7059 23 26.8296
    endloop
  endfacet
  facet normal -0.382683 0 0.92388
    outer loop
      vertex 46.7059 -23 26.8296
      vertex 45.5 23 26.3301
      vertex 45.5 -23 26.3301
    endloop
  endfacet
  facet normal -0.608777 0 0.793341
    outer loop
      vertex 44.4645 23 25.5355
      vertex 45.5 -23 26.3301
      vertex 45.5 23 26.3301
    endloop
  endfacet
  facet normal -0.608777 0 0.793341
    outer loop
      vertex 45.5 -23 26.3301
      vertex 44.4645 23 25.5355
      vertex 44.4645 -23 25.5355
    endloop
  endfacet
  facet normal 0.793341 0 -0.608777
    outer loop
      vertex 52.3301 -23 19.5
      vertex 51.5355 23 18.4645
      vertex 52.3301 23 19.5
    endloop
  endfacet
  facet normal 0.793341 0 -0.608777
    outer loop
      vertex 51.5355 23 18.4645
      vertex 52.3301 -23 19.5
      vertex 51.5355 -23 18.4645
    endloop
  endfacet
  facet normal 0.382683 0 -0.92388
    outer loop
      vertex 49.2941 -23 17.1704
      vertex 50.5 23 17.6699
      vertex 50.5 -23 17.6699
    endloop
  endfacet
  facet normal 0.382683 0 -0.92388
    outer loop
      vertex 50.5 23 17.6699
      vertex 49.2941 -23 17.1704
      vertex 49.2941 23 17.1704
    endloop
  endfacet
  facet normal 0.608777 0 -0.793341
    outer loop
      vertex 50.5 -23 17.6699
      vertex 51.5355 23 18.4645
      vertex 51.5355 -23 18.4645
    endloop
  endfacet
  facet normal 0.608777 0 -0.793341
    outer loop
      vertex 51.5355 23 18.4645
      vertex 50.5 -23 17.6699
      vertex 50.5 23 17.6699
    endloop
  endfacet
  facet normal -0.92388 0 -0.382683
    outer loop
      vertex 43.6699 -23 19.5
      vertex 43.1704 23 20.7059
      vertex 43.6699 23 19.5
    endloop
  endfacet
  facet normal -0.92388 -0 -0.382683
    outer loop
      vertex 43.1704 23 20.7059
      vertex 43.6699 -23 19.5
      vertex 43.1704 -23 20.7059
    endloop
  endfacet
  facet normal -0.793341 0 -0.608777
    outer loop
      vertex 44.4645 -23 18.4645
      vertex 43.6699 23 19.5
      vertex 44.4645 23 18.4645
    endloop
  endfacet
  facet normal -0.793341 -0 -0.608777
    outer loop
      vertex 43.6699 23 19.5
      vertex 44.4645 -23 18.4645
      vertex 43.6699 -23 19.5
    endloop
  endfacet
  facet normal 0.92388 0 -0.382683
    outer loop
      vertex 52.8296 -23 20.7059
      vertex 52.3301 23 19.5
      vertex 52.8296 23 20.7059
    endloop
  endfacet
  facet normal 0.92388 0 -0.382683
    outer loop
      vertex 52.3301 23 19.5
      vertex 52.8296 -23 20.7059
      vertex 52.3301 -23 19.5
    endloop
  endfacet
endsolid OpenSCAD_Model
