# Generated from OpenSCAD STL
o Chair
v -43.000000 -12.000000 58.000000
v -37.000000 -16.000000 58.000000
v -37.000000 -12.000000 58.000000
v -43.000000 -16.000000 58.000000
v -54.822201 -16.000000 39.000000
v -54.822201 -12.000000 39.000000
v -37.000000 -12.000000 53.000000
v -37.000000 -16.000000 53.000000
v -46.561001 -12.000000 39.000000
v -46.561001 -16.000000 39.000000
v -49.975601 -16.000000 34.000000
v -51.000000 -12.000000 32.500000
v -49.975601 -12.000000 34.000000
v -51.000000 -16.000000 32.500000
v -57.000000 -16.000000 34.000000
v -57.000000 -16.000000 32.500000
v -57.000000 -12.000000 34.000000
v -57.000000 -12.000000 32.500000
v -54.822201 12.000000 39.000000
v -43.000000 16.000000 58.000000
v -54.822201 16.000000 39.000000
v -43.000000 12.000000 58.000000
v -37.000000 12.000000 58.000000
v -37.000000 16.000000 53.000000
v -37.000000 16.000000 58.000000
v -37.000000 12.000000 53.000000
v -57.000000 12.000000 32.500000
v -51.000000 16.000000 32.500000
v -51.000000 12.000000 32.500000
v -57.000000 16.000000 32.500000
v -46.561001 16.000000 39.000000
v -46.561001 12.000000 39.000000
v -49.975601 12.000000 34.000000
v -49.975601 16.000000 34.000000
v -57.000000 12.000000 34.000000
v -57.000000 16.000000 34.000000
v -68.000000 -19.000000 34.000000
v -68.000000 19.000000 39.000000
v -68.000000 19.000000 34.000000
v -68.000000 -19.000000 39.000000
v -32.000000 19.000000 39.000000
v -33.000000 14.000000 39.000000
v -32.000000 -19.000000 39.000000
v -37.000000 14.000000 39.000000
v -63.000000 14.000000 39.000000
v -63.000000 -14.000000 39.000000
v -67.000000 14.000000 39.000000
v -67.000000 -14.000000 39.000000
v -33.000000 -14.000000 39.000000
v -37.000000 -14.000000 39.000000
v -32.000000 19.000000 34.000000
v -32.000000 -19.000000 34.000000
v -67.000000 14.000000 42.000000
v -67.000000 -14.000000 42.000000
v -63.000000 -14.000000 42.000000
v -63.000000 14.000000 42.000000
v -37.000000 14.000000 43.500000
v -37.000000 -14.000000 43.500000
v -33.000000 -14.000000 43.500000
v -33.000000 14.000000 43.500000
vn -0.368577 0.651153 0.663438
vn 0.666667 -0.333333 0.666667
vn 0.577350 0.577350 0.577350
vn -0.244526 -0.863990 0.440146
vn -0.376526 -0.221732 0.899479
vn -0.180095 0.212112 0.960507
vn 0.805624 0.570192 -0.160783
vn 0.755960 -0.570192 -0.321567
vn 0.426775 0.516801 0.742146
vn 0.203370 -0.492541 0.846194
vn 0.362419 -0.219436 -0.905815
vn 0.406451 0.492191 -0.769770
vn 0.174048 0.210764 -0.961918
vn 0.309309 -0.749115 -0.585794
vn -0.333333 -0.666667 -0.666667
vn -0.666667 -0.333333 -0.666667
vn -0.408248 0.408248 -0.816497
vn -0.577350 0.577350 -0.577350
vn -0.312898 -0.184262 0.931741
vn -0.368577 0.651153 0.663438
vn -0.225556 0.265655 0.937311
vn -0.244526 -0.863990 0.440146
vn 0.666667 -0.333333 0.666667
vn 0.805624 0.570192 -0.160783
vn 0.577350 0.577350 0.577350
vn 0.755960 -0.570192 -0.321567
vn -0.666667 -0.333333 -0.666667
vn 0.406451 0.492191 -0.769770
vn 0.309309 -0.749115 -0.585794
vn -0.577350 0.577350 -0.577350
vn 0.426775 0.516801 0.742146
vn 0.203370 -0.492541 0.846194
vn 0.301421 -0.182503 -0.935862
vn 0.217740 0.263672 -0.939716
vn -0.218218 -0.436436 -0.872872
vn -0.577350 0.577350 -0.577350
vn -0.348155 -0.348155 -0.870388
vn -0.301511 0.301511 0.904534
vn -0.235702 0.235702 -0.942809
vn -0.192450 -0.192450 0.962250
vn 0.235702 0.235702 0.942809
vn 0.485071 0.485071 0.727607
vn 0.348155 -0.348155 0.870388
vn -0.235702 0.235702 0.942809
vn 0.348155 0.348155 0.870388
vn 0.235702 -0.235702 0.942809
vn -0.408248 0.408248 0.816497
vn -0.485071 -0.485071 0.727607
vn 0.408248 -0.408248 0.816497
vn -0.348155 -0.348155 0.870388
vn 0.408248 0.408248 -0.816497
vn 0.301511 -0.301511 -0.904534
vn -0.577350 0.577350 0.577350
vn -0.577350 -0.577350 0.577350
vn 0.577350 -0.577350 0.577350
vn 0.577350 0.577350 0.577350
vn -0.577350 0.577350 0.577350
vn -0.577350 -0.577350 0.577350
vn 0.577350 -0.577350 0.577350
vn 0.577350 0.577350 0.577350

s 1
f 1//1 2//2 3//3
f 2//2 1//1 4//4
f 5//5 1//1 6//6
f 1//1 5//5 4//4
f 2//2 7//7 3//3
f 7//7 2//2 8//8
f 8//8 9//9 7//7
f 9//9 8//8 10//10
f 11//11 12//12 13//13
f 12//12 11//11 14//14
f 4//4 8//8 2//2
f 10//10 4//4 5//5
f 4//4 10//10 8//8
f 14//14 15//15 16//16
f 15//15 14//14 11//11
f 16//16 17//17 18//18
f 17//17 16//16 15//15
f 7//7 1//1 3//3
f 9//9 1//1 7//7
f 1//1 9//9 6//6
f 12//12 17//17 13//13
f 17//17 12//12 18//18
f 16//16 12//12 14//14
f 12//12 16//16 18//18
f 19//19 20//20 21//21
f 20//20 19//19 22//22
f 23//23 24//24 25//25
f 24//24 23//23 26//26
f 27//27 28//28 29//29
f 28//28 27//27 30//30
f 26//26 31//31 24//24
f 31//31 26//26 32//32
f 33//33 28//28 34//34
f 28//28 33//33 29//29
f 20//20 23//23 25//25
f 23//23 20//20 22//22
f 22//22 26//26 23//23
f 32//32 22//22 19//19
f 22//22 32//32 26//26
f 29//29 35//35 27//27
f 35//35 29//29 33//33
f 27//27 36//36 30//30
f 36//36 27//27 35//35
f 24//24 20//20 25//25
f 31//31 20//20 24//24
f 20//20 31//31 21//21
f 28//28 36//36 34//34
f 36//36 28//28 30//30
f 37//37 38//38 39//39
f 38//38 37//37 40//40
f 19//19 9//9 32//32
f 9//9 19//19 6//6
f 41//41 42//42 43//43
f 41//41 44//44 42//42
f 32//32 44//44 31//31
f 41//41 31//31 44//44
f 38//38 31//31 41//41
f 45//45 19//19 21//21
f 19//19 45//45 6//6
f 46//46 6//6 45//45
f 38//38 45//45 21//21
f 47//47 38//38 48//48
f 45//45 38//38 47//47
f 31//31 38//38 21//21
f 49//49 43//43 42//42
f 50//50 43//43 49//49
f 44//44 32//32 50//50
f 9//9 50//50 32//32
f 10//10 50//50 9//9
f 50//50 10//10 43//43
f 40//40 10//10 5//5
f 6//6 46//46 5//5
f 40//40 46//46 48//48
f 10//10 40//40 43//43
f 46//46 40//40 5//5
f 40//40 48//48 38//38
f 43//43 51//51 41//41
f 51//51 43//43 52//52
f 17//17 33//33 13//13
f 33//33 17//17 35//35
f 13//13 52//52 11//11
f 37//37 11//11 52//52
f 37//37 17//17 15//15
f 17//17 37//37 35//35
f 39//39 35//35 37//37
f 11//11 37//37 15//15
f 52//52 13//13 51//51
f 33//33 51//51 13//13
f 34//34 51//51 33//33
f 39//39 34//34 36//36
f 34//34 39//39 51//51
f 35//35 39//39 36//36
f 37//37 43//43 40//40
f 43//43 37//37 52//52
f 51//51 38//38 41//41
f 38//38 51//51 39//39
f 48//48 53//53 47//47
f 53//53 48//48 54//54
f 53//53 55//55 56//56
f 55//55 53//53 54//54
f 55//55 45//45 56//56
f 45//45 55//55 46//46
f 45//45 53//53 56//56
f 53//53 45//45 47//47
f 48//48 55//55 54//54
f 55//55 48//48 46//46
f 50//50 57//57 44//44
f 57//57 50//50 58//58
f 57//57 59//59 60//60
f 59//59 57//57 58//58
f 59//59 42//42 60//60
f 42//42 59//59 49//49
f 50//50 59//59 58//58
f 59//59 50//50 49//49
f 42//42 57//57 60//60
f 57//57 42//42 44//44
