# Generated from OpenSCAD STL
o Chair
v 22.000000 -5.000000 35.000000
v 22.000000 -3.000000 53.000000
v 22.000000 -3.000000 35.000000
v 22.000000 -5.000000 53.000000
v 31.946501 -3.000000 53.000000
v 34.000000 -5.000000 53.000000
v 34.000000 -3.000000 53.000000
v 31.535500 -3.535530 53.000000
v 30.500000 -4.330130 53.000000
v 29.294100 -4.829630 53.000000
v 28.000000 -5.000000 53.000000
v 24.053499 -3.000000 53.000000
v 24.464500 -3.535530 53.000000
v 25.500000 -4.330130 53.000000
v 26.705900 -4.829630 53.000000
v 34.000000 -3.000000 35.000000
v 34.000000 -5.000000 35.000000
v 31.946501 -3.000000 44.000000
v 24.053499 -3.000000 44.000000
v 22.000000 3.000000 35.000000
v 22.000000 5.000000 53.000000
v 22.000000 5.000000 35.000000
v 22.000000 3.000000 53.000000
v 34.000000 5.000000 53.000000
v 31.946501 3.000000 53.000000
v 34.000000 3.000000 53.000000
v 31.535500 3.535530 53.000000
v 30.500000 4.330130 53.000000
v 29.294100 4.829630 53.000000
v 28.000000 5.000000 53.000000
v 26.705900 4.829630 53.000000
v 25.500000 4.330130 53.000000
v 24.464500 3.535530 53.000000
v 24.053499 3.000000 53.000000
v 34.000000 5.000000 35.000000
v 34.000000 3.000000 35.000000
v 24.053499 3.000000 44.000000
v 31.946501 3.000000 44.000000
v 31.863701 -12.000000 3.035280
v 32.000000 -2.000000 2.000000
v 31.863701 -2.000000 3.035280
v 32.000000 -12.000000 2.000000
v 24.000000 -12.000000 2.000000
v 24.136299 -2.000000 3.035280
v 24.000000 -2.000000 2.000000
v 24.136299 -12.000000 3.035280
v 28.956699 -2.309700 5.874050
v 29.035299 -12.000000 5.863700
v 29.035299 -2.257200 5.863700
v 28.000000 -2.500000 6.000000
v 28.000000 -12.000000 6.000000
v 30.000000 -2.000000 5.464100
v 30.828400 -12.000000 4.828430
v 30.828400 -2.000000 4.828430
v 30.000000 -12.000000 5.464100
v 31.464100 -12.000000 4.000000
v 31.464100 -2.000000 4.000000
v 29.420200 -2.000000 5.704260
v 25.171600 -2.000000 4.828430
v 26.000000 -12.000000 5.464100
v 26.000000 -2.000000 5.464100
v 25.171600 -12.000000 4.828430
v 24.535900 -12.000000 4.000000
v 24.535900 -2.000000 4.000000
v 26.964701 -2.257200 5.863700
v 26.579800 -2.000000 5.704260
v 26.964701 -12.000000 5.863700
v 31.464100 -12.000000 0.000000
v 30.828400 -2.000000 -0.828426
v 31.464100 -2.000000 0.000000
v 30.828400 -12.000000 -0.828426
v 31.863701 -12.000000 0.964725
v 31.863701 -2.000000 0.964725
v 25.171600 -12.000000 -0.828426
v 26.000000 -2.000000 -1.464100
v 26.000000 -12.000000 -1.464100
v 25.171600 -2.000000 -0.828426
v 29.420200 -2.000000 4.034460
v 29.767799 -2.000000 3.767770
v 30.165100 -2.000000 3.250000
v 30.414801 -2.000000 2.647050
v 30.500000 -2.000000 2.000000
v 30.414801 -2.000000 1.352950
v 30.165100 -2.000000 0.750000
v 29.767799 -2.000000 0.232233
v 29.250000 -2.000000 -0.165063
v 30.000000 -2.000000 -1.464100
v 28.646999 -2.000000 -0.414814
v 26.579800 -2.000000 4.034460
v 26.232201 -2.000000 3.767770
v 25.834900 -2.000000 3.250000
v 25.585199 -2.000000 2.647050
v 25.500000 -2.000000 2.000000
v 25.585199 -2.000000 1.352950
v 24.136299 -2.000000 0.964725
v 25.834900 -2.000000 0.750000
v 24.535900 -2.000000 0.000000
v 26.232201 -2.000000 0.232233
v 26.750000 -2.000000 -0.165063
v 27.353001 -2.000000 -0.414814
v 26.964701 -2.000000 -1.863700
v 28.000000 -2.000000 -0.500000
v 29.035299 -2.000000 -1.863700
v 28.000000 -2.000000 -2.000000
v 28.000000 -12.000000 4.500000
v 27.353001 -12.000000 4.414810
v 26.750000 -12.000000 4.165060
v 28.646999 -12.000000 4.414810
v 26.232201 -12.000000 3.767770
v 25.834900 -12.000000 3.250000
v 25.585199 -12.000000 2.647050
v 25.500000 -12.000000 2.000000
v 25.585199 -12.000000 1.352950
v 24.136299 -12.000000 0.964725
v 25.834900 -12.000000 0.750000
v 24.535900 -12.000000 0.000000
v 26.232201 -12.000000 0.232233
v 26.750000 -12.000000 -0.165063
v 27.353001 -12.000000 -0.414814
v 29.250000 -12.000000 4.165060
v 29.767799 -12.000000 3.767770
v 30.165100 -12.000000 3.250000
v 30.414801 -12.000000 2.647050
v 30.500000 -12.000000 2.000000
v 30.414801 -12.000000 1.352950
v 30.165100 -12.000000 0.750000
v 29.767799 -12.000000 0.232233
v 29.250000 -12.000000 -0.165063
v 30.000000 -12.000000 -1.464100
v 28.646999 -12.000000 -0.414814
v 29.035299 -12.000000 -1.863700
v 28.000000 -12.000000 -0.500000
v 26.964701 -12.000000 -1.863700
v 28.000000 -12.000000 -2.000000
v 27.043301 -2.309700 5.874050
v 29.250000 -2.113730 4.165060
v 27.353001 -2.371290 4.414810
v 27.043301 -2.309700 4.286550
v 26.750000 -2.113730 4.165060
v 28.000000 -2.500000 4.500000
v 28.646999 -2.371290 4.414810
v 28.956699 -2.309700 4.286550
v 31.863701 2.000000 3.035280
v 32.000000 12.000000 2.000000
v 31.863701 12.000000 3.035280
v 32.000000 2.000000 2.000000
v 24.000000 2.000000 2.000000
v 24.136299 12.000000 3.035280
v 24.000000 12.000000 2.000000
v 24.136299 2.000000 3.035280
v 29.035299 12.000000 5.863700
v 28.956699 2.309700 5.874050
v 29.035299 2.257200 5.863700
v 28.000000 2.500000 6.000000
v 28.000000 12.000000 6.000000
v 30.000000 12.000000 5.464100
v 30.828400 2.000000 4.828430
v 30.828400 12.000000 4.828430
v 30.000000 2.000000 5.464100
v 31.464100 2.000000 4.000000
v 31.464100 12.000000 4.000000
v 29.420200 2.000000 5.704260
v 25.171600 12.000000 4.828430
v 26.000000 2.000000 5.464100
v 26.000000 12.000000 5.464100
v 25.171600 2.000000 4.828430
v 24.535900 2.000000 4.000000
v 24.535900 12.000000 4.000000
v 26.964701 2.257200 5.863700
v 26.964701 12.000000 5.863700
v 26.579800 2.000000 5.704260
v 31.464100 2.000000 0.000000
v 30.828400 12.000000 -0.828426
v 31.464100 12.000000 0.000000
v 30.828400 2.000000 -0.828426
v 31.863701 2.000000 0.964725
v 31.863701 12.000000 0.964725
v 25.171600 2.000000 -0.828426
v 26.000000 12.000000 -1.464100
v 26.000000 2.000000 -1.464100
v 25.171600 12.000000 -0.828426
v 28.000000 12.000000 4.500000
v 28.646999 12.000000 4.414810
v 29.250000 12.000000 4.165060
v 27.353001 12.000000 4.414810
v 29.767799 12.000000 3.767770
v 30.165100 12.000000 3.250000
v 30.414801 12.000000 2.647050
v 30.500000 12.000000 2.000000
v 30.414801 12.000000 1.352950
v 30.165100 12.000000 0.750000
v 29.767799 12.000000 0.232233
v 29.250000 12.000000 -0.165063
v 30.000000 12.000000 -1.464100
v 28.646999 12.000000 -0.414814
v 26.750000 12.000000 4.165060
v 26.232201 12.000000 3.767770
v 25.834900 12.000000 3.250000
v 25.585199 12.000000 2.647050
v 25.500000 12.000000 2.000000
v 25.585199 12.000000 1.352950
v 24.136299 12.000000 0.964725
v 25.834900 12.000000 0.750000
v 24.535900 12.000000 0.000000
v 26.232201 12.000000 0.232233
v 26.750000 12.000000 -0.165063
v 27.353001 12.000000 -0.414814
v 26.964701 12.000000 -1.863700
v 28.000000 12.000000 -0.500000
v 29.035299 12.000000 -1.863700
v 28.000000 12.000000 -2.000000
v 26.579800 2.000000 4.034460
v 26.232201 2.000000 3.767770
v 25.834900 2.000000 3.250000
v 25.585199 2.000000 2.647050
v 25.500000 2.000000 2.000000
v 25.585199 2.000000 1.352950
v 24.136299 2.000000 0.964725
v 25.834900 2.000000 0.750000
v 24.535900 2.000000 0.000000
v 26.232201 2.000000 0.232233
v 26.750000 2.000000 -0.165063
v 27.353001 2.000000 -0.414814
v 29.420200 2.000000 4.034460
v 29.767799 2.000000 3.767770
v 30.165100 2.000000 3.250000
v 30.414801 2.000000 2.647050
v 30.500000 2.000000 2.000000
v 30.414801 2.000000 1.352950
v 30.165100 2.000000 0.750000
v 29.767799 2.000000 0.232233
v 29.250000 2.000000 -0.165063
v 30.000000 2.000000 -1.464100
v 28.646999 2.000000 -0.414814
v 29.035299 2.000000 -1.863700
v 28.000000 2.000000 -0.500000
v 26.964701 2.000000 -1.863700
v 28.000000 2.000000 -2.000000
v 27.043301 2.309700 5.874050
v 29.250000 2.113730 4.165060
v 27.353001 2.371290 4.414810
v 27.043301 2.309700 4.286550
v 26.750000 2.113730 4.165060
v 28.000000 2.500000 4.500000
v 28.646999 2.371290 4.414810
v 28.956699 2.309700 4.286550
v 33.000000 0.000000 58.000000
v 32.829601 1.294100 44.000000
v 32.829601 1.294100 58.000000
v 33.000000 0.000000 44.000000
v 23.170401 -1.294100 44.000000
v 23.000000 0.000000 58.000000
v 23.000000 0.000000 44.000000
v 23.170401 -1.294100 58.000000
v 26.705900 4.829630 58.000000
v 28.000000 5.000000 58.000000
v 29.294100 -4.829630 58.000000
v 28.000000 -5.000000 58.000000
v 32.330101 -2.500000 58.000000
v 32.330101 -2.500000 44.000000
v 31.535500 -3.535530 58.000000
v 30.500000 4.330130 58.000000
v 31.535500 3.535530 58.000000
v 23.669901 2.500000 44.000000
v 24.464500 3.535530 58.000000
v 23.669901 2.500000 58.000000
v 23.170401 1.294100 44.000000
v 23.170401 1.294100 58.000000
v 25.500000 4.330130 58.000000
v 25.500000 -4.330130 58.000000
v 24.464500 -3.535530 58.000000
v 32.330101 2.500000 58.000000
v 32.330101 2.500000 44.000000
v 29.294100 4.829630 58.000000
v 30.500000 0.000000 44.000000
v 32.829601 -1.294100 44.000000
v 30.309700 -0.956708 44.000000
v 30.309700 0.956708 44.000000
v 29.767799 -1.767770 44.000000
v 28.956699 -2.309700 44.000000
v 28.000000 -2.500000 44.000000
v 23.669901 -2.500000 44.000000
v 25.690300 -0.956708 44.000000
v 26.232201 -1.767770 44.000000
v 27.043301 -2.309700 44.000000
v 29.767799 1.767770 44.000000
v 28.956699 2.309700 44.000000
v 28.000000 2.500000 44.000000
v 27.043301 2.309700 44.000000
v 26.232201 1.767770 44.000000
v 25.690300 0.956708 44.000000
v 25.500000 0.000000 44.000000
v 32.829601 -1.294100 58.000000
v 30.500000 -4.330130 58.000000
v 26.705900 -4.829630 58.000000
v 23.669901 -2.500000 58.000000
v 30.309700 0.956708 2.000000
v 30.500000 0.000000 2.000000
v 25.690300 -0.956708 2.000000
v 25.500000 0.000000 2.000000
v 28.000000 2.500000 3.500000
v 27.250000 2.350820 3.299040
v 27.043301 2.309700 3.092330
v 28.000000 -2.500000 3.500000
v 28.750000 -2.350820 3.299040
v 28.956699 -2.309700 3.092330
v 29.767799 -1.767770 2.000000
v 29.299000 -2.080960 2.750000
v 29.500000 -1.946680 2.000000
v 29.767799 1.767770 2.000000
v 29.299000 2.080960 2.750000
v 28.956699 2.309700 3.092330
v 29.500000 1.946680 2.000000
v 28.750000 2.350820 3.299040
v 25.690300 0.956708 2.000000
v 26.232201 1.767770 2.000000
v 30.309700 -0.956708 2.000000
v 26.500000 -1.946680 2.000000
v 26.232201 -1.767770 2.000000
v 26.500000 1.946680 2.000000
v 26.701000 2.080960 2.750000
v 27.250000 -2.350820 3.299040
v 27.043301 -2.309700 3.092330
v 26.701000 -2.080960 2.750000
v 29.500000 10.000000 2.000000
v 29.299000 10.000000 2.750000
v 29.500000 -10.000000 2.000000
v 29.299000 -10.000000 2.750000
v 28.750000 10.000000 3.299040
v 28.750000 -10.000000 3.299040
v 27.250000 -10.000000 3.299040
v 28.000000 -10.000000 3.500000
v 27.250000 10.000000 3.299040
v 28.000000 10.000000 3.500000
v 27.250000 -10.000000 0.700961
v 26.701000 10.000000 1.250000
v 27.250000 10.000000 0.700961
v 26.701000 -10.000000 1.250000
v 26.701000 -10.000000 2.750000
v 26.701000 10.000000 2.750000
v 26.500000 10.000000 2.000000
v 29.299000 10.000000 1.250000
v 28.750000 10.000000 0.700961
v 28.000000 10.000000 0.500000
v 26.500000 -10.000000 2.000000
v 29.299000 -10.000000 1.250000
v 28.750000 -10.000000 0.700961
v 28.000000 -10.000000 0.500000
vn -0.577350 -0.577350 -0.577350
vn -0.666667 0.666667 0.333333
vn -0.408248 0.816497 -0.408248
vn -0.192450 -0.192450 0.962250
vn 0.790158 -0.357299 0.497983
vn 0.365148 -0.182574 0.912871
vn 0.408248 0.816497 0.408248
vn 0.497832 -0.497866 0.710135
vn 0.446172 -0.699984 0.557632
vn 0.249788 -0.791614 0.557631
vn 0.020713 -0.948072 0.317382
vn -0.790159 -0.357298 0.497983
vn -0.560655 -0.612141 0.557629
vn -0.383133 -0.736380 0.557632
vn -0.179483 -0.810453 0.557631
vn 0.485071 0.727607 -0.485071
vn 0.408248 -0.816497 -0.408248
vn 0.141706 0.427101 -0.893031
vn -0.130205 0.556547 -0.820550
vn -0.485071 -0.727607 -0.485071
vn -0.365148 0.182574 0.912871
vn -0.408248 0.816497 -0.408248
vn -0.408248 -0.816497 0.408248
vn 0.192450 0.192450 0.962250
vn 0.790158 0.357299 0.497983
vn 0.666667 -0.666667 0.333333
vn 0.560655 0.612141 0.557629
vn 0.383133 0.736380 0.557632
vn 0.179483 0.810453 0.557631
vn -0.020713 0.948072 0.317382
vn -0.249788 0.791614 0.557631
vn -0.446172 0.699984 0.557632
vn -0.497832 0.497866 0.710135
vn -0.790159 0.357298 0.497983
vn 0.577350 0.577350 -0.577350
vn 0.408248 -0.816497 -0.408248
vn -0.141707 -0.427101 -0.893031
vn 0.130205 -0.556547 -0.820550
vn 0.582945 -0.802190 0.129100
vn 0.596495 0.802190 0.026177
vn 0.671755 0.709799 0.211969
vn 0.703727 -0.709799 -0.030883
vn -0.596495 -0.802190 0.026177
vn -0.582945 0.802190 0.129100
vn -0.703727 0.709799 -0.030883
vn -0.671755 -0.709799 0.211969
vn 0.428471 -0.722842 0.542136
vn 0.155496 -0.602468 0.782849
vn 0.502259 -0.349527 0.790928
vn 0.000000 -0.703275 0.710918
vn 0.000000 -0.710138 0.704063
vn 0.446445 0.450299 0.773251
vn 0.563928 -0.603297 0.563931
vn 0.389899 0.834239 0.389902
vn 0.325124 -0.709799 0.624884
vn 0.624884 -0.709800 0.325122
vn 0.593999 0.709800 0.378615
vn 0.759187 -0.553619 0.342258
vn -0.563928 0.603297 0.563931
vn -0.398765 -0.603298 0.690665
vn -0.383131 0.557638 0.736377
vn -0.389899 -0.834239 0.389902
vn -0.593999 -0.709800 0.378615
vn -0.624884 0.709800 0.325122
vn -0.502259 -0.349527 0.790928
vn -0.759187 -0.553619 0.342258
vn -0.155496 -0.602468 0.782849
vn 0.593999 -0.709800 -0.378616
vn 0.563928 0.603297 -0.563931
vn 0.624884 0.709800 -0.325122
vn 0.389900 -0.834239 -0.389902
vn 0.671755 -0.709799 -0.211968
vn 0.687741 0.709799 -0.152309
vn -0.563928 -0.603297 -0.563931
vn -0.378616 0.709799 -0.593999
vn -0.325124 -0.709799 -0.624883
vn -0.389900 0.834239 -0.389902
vn 0.882971 -0.178426 -0.434197
vn -0.563922 0.603285 -0.563950
vn -0.624900 0.709801 -0.325089
vn -0.687744 0.709797 -0.152302
vn -0.829290 0.557632 0.036399
vn -0.671765 0.709797 0.211942
vn -0.594010 0.709801 0.378596
vn -0.389892 0.834240 0.389906
vn -0.378591 0.709799 0.594015
vn 0.325124 0.709799 -0.624883
vn -0.211958 0.709798 0.671759
vn -0.882971 -0.178426 -0.434196
vn 0.475764 0.709787 -0.519472
vn 0.594011 0.709801 -0.378595
vn 0.791625 0.557629 -0.249758
vn 0.703726 0.709800 -0.030887
vn 0.687744 0.709797 0.152302
vn -0.671755 0.709799 -0.211968
vn 0.624900 0.709801 0.325089
vn -0.593999 0.709800 -0.378616
vn 0.563918 0.603299 0.563939
vn 0.325100 0.709799 0.624896
vn 0.152306 0.709798 0.687742
vn -0.211971 0.709799 -0.671754
vn -0.026179 0.802190 0.596495
vn 0.152309 0.709799 -0.687740
vn -0.036393 0.557631 -0.829291
vn 0.000000 -0.895955 -0.444144
vn 0.152309 -0.709798 -0.687742
vn 0.352786 -0.602468 -0.715943
vn -0.152309 -0.709798 -0.687742
vn 0.563917 -0.603299 -0.563940
vn 0.624900 -0.709801 -0.325089
vn 0.687744 -0.709797 -0.152302
vn 0.829290 -0.557632 0.036399
vn 0.671765 -0.709797 0.211942
vn -0.687741 -0.709799 -0.152309
vn 0.594010 -0.709801 0.378596
vn -0.624884 -0.709800 -0.325122
vn 0.389892 -0.834240 0.389906
vn 0.378591 -0.709799 0.594015
vn 0.211958 -0.709798 0.671759
vn -0.352786 -0.602468 -0.715943
vn -0.475759 -0.709800 -0.519459
vn -0.594011 -0.709801 -0.378595
vn -0.791625 -0.557629 -0.249758
vn -0.703726 -0.709800 -0.030887
vn -0.687744 -0.709797 0.152302
vn -0.624900 -0.709801 0.325089
vn -0.563918 -0.603299 0.563939
vn -0.325100 -0.709799 0.624896
vn 0.378616 -0.709799 -0.593999
vn -0.152306 -0.709798 0.687742
vn 0.211971 -0.709799 -0.671754
vn 0.026179 -0.802190 0.596495
vn -0.152309 -0.709799 -0.687740
vn 0.036393 -0.557631 -0.829291
vn -0.428471 -0.722842 0.542136
vn -0.284501 -0.431020 -0.856318
vn 0.075738 -0.717541 -0.692386
vn -0.053793 -0.832803 -0.550949
vn 0.284501 -0.431020 -0.856318
vn 0.000000 -0.443354 -0.896347
vn -0.075738 -0.717541 -0.692386
vn 0.053793 -0.832803 -0.550949
vn 0.582945 -0.802190 0.129100
vn 0.596495 0.802190 0.026177
vn 0.671755 0.709799 0.211969
vn 0.703727 -0.709799 -0.030883
vn -0.596495 -0.802190 0.026177
vn -0.582945 0.802190 0.129100
vn -0.703727 0.709799 -0.030883
vn -0.671755 -0.709799 0.211969
vn 0.155496 0.602468 0.782849
vn 0.428471 0.722842 0.542136
vn 0.502259 0.349527 0.790928
vn 0.000000 0.703275 0.710918
vn 0.000000 0.710138 0.704063
vn 0.398765 0.603298 0.690665
vn 0.563928 -0.603297 0.563931
vn 0.389899 0.834239 0.389902
vn 0.383131 -0.557638 0.736377
vn 0.624884 -0.709800 0.325122
vn 0.593999 0.709800 0.378615
vn 0.759187 0.553619 0.342258
vn -0.563928 0.603297 0.563931
vn -0.446445 -0.450299 0.773251
vn -0.325124 0.709799 0.624884
vn -0.389899 -0.834239 0.389902
vn -0.593999 -0.709800 0.378615
vn -0.624884 0.709800 0.325122
vn -0.502259 0.349527 0.790928
vn -0.155496 0.602468 0.782849
vn -0.759187 0.553619 0.342258
vn 0.593999 -0.709800 -0.378616
vn 0.563928 0.603297 -0.563931
vn 0.624884 0.709800 -0.325122
vn 0.389900 -0.834239 -0.389902
vn 0.671755 -0.709799 -0.211968
vn 0.687741 0.709799 -0.152309
vn -0.563928 -0.603297 -0.563931
vn -0.378616 0.709799 -0.593999
vn -0.325124 -0.709799 -0.624883
vn -0.389900 0.834239 -0.389902
vn 0.000000 0.895955 -0.444144
vn -0.152309 0.709798 -0.687742
vn -0.352786 0.602468 -0.715943
vn 0.152309 0.709798 -0.687742
vn -0.563917 0.603299 -0.563940
vn -0.624900 0.709801 -0.325089
vn -0.687744 0.709797 -0.152302
vn -0.829290 0.557632 0.036399
vn -0.671765 0.709797 0.211942
vn -0.594010 0.709801 0.378596
vn -0.389892 0.834240 0.389906
vn -0.378591 0.709799 0.594015
vn 0.325124 0.709799 -0.624883
vn -0.211958 0.709798 0.671759
vn 0.352786 0.602468 -0.715943
vn 0.475759 0.709800 -0.519459
vn 0.594011 0.709801 -0.378595
vn 0.791625 0.557629 -0.249758
vn 0.703726 0.709800 -0.030887
vn 0.687744 0.709797 0.152302
vn -0.671755 0.709799 -0.211968
vn 0.624900 0.709801 0.325089
vn -0.593999 0.709800 -0.378616
vn 0.563918 0.603299 0.563939
vn 0.325100 0.709799 0.624896
vn 0.152306 0.709798 0.687742
vn -0.211971 0.709799 -0.671754
vn -0.026179 0.802190 0.596495
vn 0.152309 0.709799 -0.687740
vn -0.036393 0.557631 -0.829291
vn -0.882971 0.178426 -0.434197
vn 0.563922 -0.603285 -0.563950
vn 0.624900 -0.709801 -0.325089
vn 0.687744 -0.709797 -0.152302
vn 0.829290 -0.557632 0.036399
vn 0.671765 -0.709797 0.211942
vn -0.687741 -0.709799 -0.152309
vn 0.594010 -0.709801 0.378596
vn -0.624884 -0.709800 -0.325122
vn 0.389892 -0.834240 0.389906
vn 0.378591 -0.709799 0.594015
vn 0.211958 -0.709798 0.671759
vn 0.882971 0.178426 -0.434196
vn -0.475764 -0.709787 -0.519472
vn -0.594011 -0.709801 -0.378595
vn -0.791625 -0.557629 -0.249758
vn -0.703726 -0.709800 -0.030887
vn -0.687744 -0.709797 0.152302
vn -0.624900 -0.709801 0.325089
vn -0.563918 -0.603299 0.563939
vn -0.325100 -0.709799 0.624896
vn 0.378616 -0.709799 -0.593999
vn -0.152306 -0.709798 0.687742
vn 0.211971 -0.709799 -0.671754
vn 0.026179 -0.802190 0.596495
vn -0.152309 -0.709799 -0.687740
vn 0.036393 -0.557631 -0.829291
vn -0.428471 0.722842 0.542136
vn -0.284501 0.431020 -0.856318
vn 0.075738 0.717541 -0.692386
vn -0.053793 0.832803 -0.550949
vn 0.284501 0.431020 -0.856318
vn -0.000000 0.443354 -0.896347
vn -0.075738 0.717541 -0.692386
vn 0.053793 0.832803 -0.550949
vn 0.947043 0.041567 0.318406
vn 0.687739 0.152317 -0.709799
vn 0.791613 0.249794 0.557631
vn 0.829290 -0.036399 -0.557632
vn -0.687739 -0.152318 -0.709799
vn -0.947043 -0.041567 0.318406
vn -0.829290 0.036399 -0.557632
vn -0.791613 -0.249795 0.557631
vn -0.152307 0.687741 0.709799
vn 0.030882 0.703727 0.709799
vn 0.152307 -0.687741 0.709799
vn -0.030882 -0.703727 0.709799
vn 0.690676 -0.398745 0.603299
vn 0.700015 -0.446126 -0.557629
vn 0.563921 -0.563937 0.603298
vn 0.378616 0.593999 0.709800
vn 0.519435 0.475786 0.709799
vn -0.700016 0.446125 -0.557629
vn -0.563922 0.563936 0.603298
vn -0.690676 0.398745 0.603299
vn -0.671754 0.211973 -0.709799
vn -0.687739 0.152318 0.709799
vn -0.325122 0.624884 0.709800
vn -0.378616 -0.593999 0.709800
vn -0.519436 -0.475786 0.709799
vn 0.594013 0.378594 0.709800
vn 0.773276 0.446410 -0.450291
vn 0.211968 0.671755 0.709799
vn 0.592088 0.039258 -0.804917
vn 0.671754 -0.211973 -0.709799
vn 0.562044 -0.190307 -0.804916
vn 0.532001 0.262842 -0.804916
vn 0.623859 -0.712501 -0.321157
vn 0.265425 -0.783887 -0.561312
vn 0.000000 -0.547256 -0.836966
vn -0.773277 -0.446409 -0.450291
vn -0.532001 -0.262842 -0.804916
vn -0.573089 -0.728477 -0.375354
vn -0.265425 -0.783887 -0.561312
vn 0.573089 0.728477 -0.375354
vn 0.265425 0.783887 -0.561312
vn 0.000000 0.547256 -0.836966
vn -0.265425 0.783887 -0.561312
vn -0.623859 0.712501 -0.321157
vn -0.562044 0.190307 -0.804916
vn -0.592088 -0.039258 -0.804917
vn 0.687739 -0.152317 0.709799
vn 0.325122 -0.624884 0.709800
vn -0.211968 -0.671755 0.709799
vn -0.594013 -0.378593 0.709800
vn 0.783888 0.265423 -0.561312
vn 0.699461 -0.046377 -0.713164
vn -0.783888 -0.265423 -0.561312
vn -0.699461 0.046377 -0.713164
vn 0.000000 0.712480 0.701693
vn -0.512430 0.667641 0.540066
vn -0.657733 0.697698 0.283911
vn 0.000000 -0.712480 0.701693
vn 0.512430 -0.667641 0.540066
vn 0.657733 -0.697698 0.283911
vn 0.605991 -0.770318 -0.198456
vn 0.840194 -0.486776 0.239006
vn 0.774044 -0.145644 -0.616152
vn 0.649479 0.741775 -0.167175
vn 0.840194 0.486776 0.239006
vn 0.657733 0.697698 0.283911
vn 0.716378 0.172497 -0.676052
vn 0.512430 0.667641 0.540066
vn -0.741986 0.366588 -0.561312
vn -0.605991 0.770318 -0.198456
vn 0.741986 -0.366588 -0.561312
vn -0.774044 -0.145644 -0.616152
vn -0.649479 -0.741775 -0.167175
vn -0.716378 0.172497 -0.676052
vn -0.840194 0.486776 0.239006
vn -0.512430 -0.667641 0.540066
vn -0.657733 -0.697698 0.283911
vn -0.840194 -0.486776 0.239006
vn 0.693408 0.717878 0.061944
vn 0.627631 0.609882 0.483862
vn 0.693408 -0.717878 0.061944
vn 0.627631 -0.609882 0.483862
vn 0.346916 0.566501 0.747480
vn 0.293077 -0.717875 0.631475
vn -0.346916 -0.566501 0.747480
vn 0.000000 -0.459701 0.888074
vn -0.293076 0.717875 0.631475
vn 0.000000 0.459701 0.888074
vn -0.394940 -0.613292 -0.684029
vn -0.757626 0.527105 -0.384920
vn -0.347383 0.719256 -0.601661
vn -0.631477 -0.717870 -0.293085
vn -0.627631 -0.609882 0.483862
vn -0.627631 0.609882 0.483862
vn -0.693408 0.717878 0.061944
vn 0.732849 0.609882 -0.301623
vn 0.394940 0.613292 -0.684029
vn -0.084131 0.325057 -0.941945
vn -0.693408 -0.717878 0.061944
vn 0.684037 -0.613286 -0.394935
vn 0.347383 -0.719256 -0.601661
vn 0.084131 -0.325057 -0.941945

s 1
f 1//1 2//2 3//3
f 2//2 1//1 4//4
f 5//5 6//6 7//7
f 8//8 6//6 5//5
f 9//9 6//6 8//8
f 10//10 6//6 9//9
f 6//6 10//10 11//11
f 4//4 12//12 2//2
f 12//12 4//4 13//13
f 13//13 4//4 14//14
f 15//15 4//4 11//11
f 14//14 4//4 15//15
f 6//6 16//16 7//7
f 16//16 6//6 17//17
f 1//1 16//16 17//17
f 16//16 1//1 3//3
f 1//1 11//11 4//4
f 17//17 11//11 1//1
f 11//11 17//17 6//6
f 7//7 18//18 5//5
f 18//18 16//16 19//19
f 16//16 18//18 7//7
f 19//19 2//2 12//12
f 19//19 3//3 2//2
f 3//3 19//19 16//16
f 20//20 21//21 22//22
f 21//21 20//20 23//23
f 24//24 25//25 26//26
f 24//24 27//27 25//25
f 24//24 28//28 27//27
f 24//24 29//29 28//28
f 29//29 24//24 30//30
f 21//21 31//31 30//30
f 21//21 32//32 31//31
f 21//21 33//33 32//32
f 21//21 34//34 33//33
f 34//34 21//21 23//23
f 26//26 35//35 24//24
f 35//35 26//26 36//36
f 35//35 30//30 24//24
f 22//22 30//30 35//35
f 30//30 22//22 21//21
f 20//20 35//35 36//36
f 35//35 20//20 22//22
f 23//23 37//37 34//34
f 37//37 20//20 38//38
f 20//20 37//37 23//23
f 38//38 26//26 25//25
f 38//38 36//36 26//26
f 36//36 38//38 20//20
f 39//39 40//40 41//41
f 40//40 39//39 42//42
f 43//43 44//44 45//45
f 44//44 43//43 46//46
f 47//47 48//48 49//49
f 50//50 48//48 47//47
f 48//48 50//50 51//51
f 52//52 53//53 54//54
f 53//53 52//52 55//55
f 56//56 41//41 57//57
f 41//41 56//56 39//39
f 49//49 52//52 58//58
f 52//52 49//49 55//55
f 55//55 49//49 48//48
f 59//59 60//60 61//61
f 60//60 59//59 62//62
f 63//63 59//59 64//64
f 59//59 63//63 62//62
f 61//61 65//65 66//66
f 65//65 61//61 60//60
f 65//65 60//60 67//67
f 68//68 69//69 70//70
f 69//69 68//68 71//71
f 72//72 70//70 73//73
f 70//70 72//72 68//68
f 74//74 75//75 76//76
f 75//75 74//74 77//77
f 78//78 52//52 54//54
f 52//52 78//78 58//58
f 79//79 54//54 57//57
f 54//54 79//79 78//78
f 57//57 80//80 79//79
f 41//41 80//80 57//57
f 41//41 81//81 80//80
f 40//40 81//81 41//41
f 40//40 82//82 81//81
f 40//40 83//83 82//82
f 73//73 83//83 40//40
f 73//73 84//84 83//83
f 70//70 84//84 73//73
f 84//84 70//70 85//85
f 69//69 85//85 70//70
f 85//85 69//69 86//86
f 86//86 87//87 88//88
f 87//87 86//86 69//69
f 89//89 61//61 66//66
f 61//61 89//89 59//59
f 90//90 59//59 89//89
f 59//59 90//90 64//64
f 91//91 64//64 90//90
f 91//91 44//44 64//64
f 92//92 44//44 91//91
f 93//93 44//44 92//92
f 93//93 45//45 44//44
f 94//94 45//45 93//93
f 94//94 95//95 45//45
f 96//96 95//95 94//94
f 97//97 96//96 98//98
f 96//96 97//97 95//95
f 77//77 98//98 99//99
f 75//75 99//99 100//100
f 98//98 77//77 97//97
f 101//101 100//100 102//102
f 103//103 88//88 87//87
f 88//88 103//103 102//102
f 99//99 75//75 77//77
f 104//104 102//102 103//103
f 100//100 101//101 75//75
f 102//102 104//104 101//101
f 53//53 57//57 54//54
f 57//57 53//53 56//56
f 46//46 64//64 44//44
f 64//64 46//46 63//63
f 105//105 51//51 67//67
f 106//106 67//67 60//60
f 51//51 105//105 48//48
f 107//107 60//60 62//62
f 108//108 48//48 105//105
f 48//48 108//108 55//55
f 67//67 106//106 105//105
f 60//60 107//107 106//106
f 109//109 62//62 63//63
f 62//62 109//109 107//107
f 63//63 110//110 109//109
f 46//46 110//110 63//63
f 46//46 111//111 110//110
f 43//43 111//111 46//46
f 43//43 112//112 111//111
f 43//43 113//113 112//112
f 114//114 113//113 43//43
f 114//114 115//115 113//113
f 116//116 115//115 114//114
f 115//115 116//116 117//117
f 74//74 117//117 116//116
f 117//117 74//74 118//118
f 118//118 76//76 119//119
f 76//76 118//118 74//74
f 120//120 55//55 108//108
f 55//55 120//120 53//53
f 121//121 53//53 120//120
f 53//53 121//121 56//56
f 122//122 56//56 121//121
f 122//122 39//39 56//56
f 123//123 39//39 122//122
f 124//124 39//39 123//123
f 124//124 42//42 39//39
f 125//125 42//42 124//124
f 125//125 72//72 42//42
f 126//126 72//72 125//125
f 68//68 126//126 127//127
f 126//126 68//68 72//72
f 71//71 127//127 128//128
f 129//129 128//128 130//130
f 127//127 71//71 68//68
f 131//131 130//130 132//132
f 133//133 119//119 76//76
f 119//119 133//133 132//132
f 128//128 129//129 71//71
f 134//134 132//132 133//133
f 130//130 131//131 129//129
f 132//132 134//134 131//131
f 67//67 50//50 135//135
f 67//67 135//135 65//65
f 50//50 67//67 51//51
f 42//42 73//73 40//40
f 73//73 42//42 72//72
f 134//134 103//103 131//131
f 103//103 134//134 104//104
f 129//129 69//69 71//71
f 69//69 129//129 87//87
f 76//76 101//101 133//133
f 101//101 76//76 75//75
f 74//74 97//97 77//77
f 97//97 74//74 116//116
f 114//114 45//45 95//95
f 45//45 114//114 43//43
f 131//131 87//87 129//129
f 87//87 131//131 103//103
f 133//133 104//104 134//134
f 104//104 133//133 101//101
f 116//116 95//95 97//97
f 95//95 116//116 114//114
f 136//136 79//79 121//121
f 136//136 121//121 120//120
f 79//79 136//136 78//78
f 125//125 82//82 83//83
f 82//82 125//125 124//124
f 99//99 119//119 100//100
f 119//119 99//99 118//118
f 122//122 79//79 80//80
f 79//79 122//122 121//121
f 123//123 80//80 81//81
f 80//80 123//123 122//122
f 107//107 137//137 106//106
f 137//137 107//107 138//138
f 138//138 107//107 139//139
f 109//109 139//139 107//107
f 90//90 139//139 109//109
f 139//139 90//90 89//89
f 86//86 127//127 85//85
f 127//127 86//86 128//128
f 98//98 118//118 99//99
f 118//118 98//98 117//117
f 115//115 98//98 96//96
f 98//98 115//115 117//117
f 140//140 108//108 105//105
f 108//108 140//140 141//141
f 120//120 142//142 136//136
f 141//141 120//120 108//108
f 120//120 141//141 142//142
f 111//111 93//93 92//92
f 93//93 111//111 112//112
f 109//109 91//91 90//90
f 91//91 109//109 110//110
f 106//106 140//140 105//105
f 140//140 106//106 137//137
f 124//124 81//81 82//82
f 81//81 124//124 123//123
f 102//102 130//130 88//88
f 130//130 102//102 132//132
f 127//127 84//84 85//85
f 84//84 127//127 126//126
f 126//126 83//83 84//84
f 83//83 126//126 125//125
f 88//88 128//128 86//86
f 128//128 88//88 130//130
f 100//100 132//132 102//102
f 132//132 100//100 119//119
f 112//112 94//94 93//93
f 94//94 112//112 113//113
f 110//110 92//92 91//91
f 92//92 110//110 111//111
f 113//113 96//96 94//94
f 96//96 113//113 115//115
f 143//143 144//144 145//145
f 144//144 143//143 146//146
f 147//147 148//148 149//149
f 148//148 147//147 150//150
f 151//151 152//152 153//153
f 154//154 151//151 155//155
f 151//151 154//154 152//152
f 156//156 157//157 158//158
f 157//157 156//156 159//159
f 160//160 145//145 161//161
f 145//145 160//160 143//143
f 153//153 159//159 156//156
f 153//153 156//156 151//151
f 159//159 153//153 162//162
f 163//163 164//164 165//165
f 164//164 163//163 166//166
f 167//167 163//163 168//168
f 163//163 167//167 166//166
f 165//165 169//169 170//170
f 164//164 169//169 165//165
f 169//169 164//164 171//171
f 172//172 173//173 174//174
f 173//173 172//172 175//175
f 176//176 174//174 177//177
f 174//174 176//176 172//172
f 178//178 179//179 180//180
f 179//179 178//178 181//181
f 182//182 155//155 151//151
f 183//183 151//151 156//156
f 155//155 182//182 170//170
f 184//184 156//156 158//158
f 185//185 170//170 182//182
f 170//170 185//185 165//165
f 151//151 183//183 182//182
f 156//156 184//184 183//183
f 186//186 158//158 161//161
f 158//158 186//186 184//184
f 161//161 187//187 186//186
f 145//145 187//187 161//161
f 145//145 188//188 187//187
f 144//144 188//188 145//145
f 144//144 189//189 188//188
f 144//144 190//190 189//189
f 177//177 190//190 144//144
f 177//177 191//191 190//190
f 174//174 191//191 177//177
f 191//191 174//174 192//192
f 173//173 192//192 174//174
f 192//192 173//173 193//193
f 193//193 194//194 195//195
f 194//194 193//193 173//173
f 196//196 165//165 185//185
f 165//165 196//196 163//163
f 197//197 163//163 196//196
f 163//163 197//197 168//168
f 198//198 168//168 197//197
f 198//198 148//148 168//168
f 199//199 148//148 198//198
f 200//200 148//148 199//199
f 200//200 149//149 148//148
f 201//201 149//149 200//200
f 201//201 202//202 149//149
f 203//203 202//202 201//201
f 204//204 203//203 205//205
f 203//203 204//204 202//202
f 181//181 205//205 206//206
f 179//179 206//206 207//207
f 205//205 181//181 204//204
f 208//208 207//207 209//209
f 210//210 195//195 194//194
f 195//195 210//210 209//209
f 206//206 179//179 181//181
f 211//211 209//209 210//210
f 207//207 208//208 179//179
f 209//209 211//211 208//208
f 157//157 161//161 158//158
f 161//161 157//157 160//160
f 150//150 168//168 148//148
f 168//168 150//150 167//167
f 212//212 164//164 166//166
f 164//164 212//212 171//171
f 213//213 166//166 167//167
f 166//166 213//213 212//212
f 167//167 214//214 213//213
f 150//150 214//214 167//167
f 150//150 215//215 214//214
f 147//147 215//215 150//150
f 147//147 216//216 215//215
f 147//147 217//217 216//216
f 218//218 217//217 147//147
f 218//218 219//219 217//217
f 220//220 219//219 218//218
f 219//219 220//220 221//221
f 178//178 221//221 220//220
f 221//221 178//178 222//222
f 222//222 180//180 223//223
f 180//180 222//222 178//178
f 224//224 159//159 162//162
f 159//159 224//224 157//157
f 225//225 157//157 224//224
f 157//157 225//225 160//160
f 226//226 160//160 225//225
f 226//226 143//143 160//160
f 227//227 143//143 226//226
f 228//228 143//143 227//227
f 228//228 146//146 143//143
f 229//229 146//146 228//228
f 229//229 176//176 146//146
f 230//230 176//176 229//229
f 172//172 230//230 231//231
f 230//230 172//172 176//176
f 175//175 231//231 232//232
f 233//233 232//232 234//234
f 231//231 175//175 172//172
f 235//235 234//234 236//236
f 237//237 223//223 180//180
f 223//223 237//237 236//236
f 232//232 233//233 175//175
f 238//238 236//236 237//237
f 234//234 235//235 233//233
f 236//236 238//238 235//235
f 170//170 154//154 155//155
f 154//154 170//170 239//239
f 239//239 170//170 169//169
f 146//146 177//177 144//144
f 177//177 146//146 176//176
f 238//238 210//210 235//235
f 210//210 238//238 211//211
f 233//233 173//173 175//175
f 173//173 233//233 194//194
f 180//180 208//208 237//237
f 208//208 180//180 179//179
f 178//178 204//204 181//181
f 204//204 178//178 220//220
f 218//218 149//149 202//202
f 149//149 218//218 147//147
f 235//235 194//194 233//233
f 194//194 235//235 210//210
f 237//237 211//211 238//238
f 211//211 237//237 208//208
f 220//220 202//202 204//204
f 202//202 220//220 218//218
f 240//240 225//225 224//224
f 225//225 240//240 186//186
f 186//186 240//240 184//184
f 229//229 189//189 190//190
f 189//189 229//229 228//228
f 206//206 223//223 207//207
f 223//223 206//206 222//222
f 226//226 186//186 187//187
f 186//186 226//226 225//225
f 227//227 187//187 188//188
f 187//187 227//227 226//226
f 196//196 241//241 242//242
f 196//196 242//242 243//243
f 241//241 196//196 185//185
f 213//213 243//243 212//212
f 243//243 213//213 197//197
f 243//243 197//197 196//196
f 193//193 231//231 192//192
f 231//231 193//193 232//232
f 205//205 222//222 206//206
f 222//222 205//205 221//221
f 219//219 205//205 203//203
f 205//205 219//219 221//221
f 244//244 183//183 245//245
f 183//183 244//244 182//182
f 246//246 184//184 240//240
f 245//245 184//184 246//246
f 184//184 245//245 183//183
f 215//215 200//200 199//199
f 200//200 215//215 216//216
f 213//213 198//198 197//197
f 198//198 213//213 214//214
f 185//185 244//244 241//241
f 244//244 185//185 182//182
f 228//228 188//188 189//189
f 188//188 228//228 227//227
f 209//209 234//234 195//195
f 234//234 209//209 236//236
f 231//231 191//191 192//192
f 191//191 231//231 230//230
f 230//230 190//190 191//191
f 190//190 230//230 229//229
f 195//195 232//232 193//193
f 232//232 195//195 234//234
f 207//207 236//236 209//209
f 236//236 207//207 223//223
f 216//216 201//201 200//200
f 201//201 216//216 217//217
f 214//214 199//199 198//198
f 199//199 214//214 215//215
f 217//217 203//203 201//201
f 203//203 217//217 219//219
f 247//247 248//248 249//249
f 248//248 247//247 250//250
f 251//251 252//252 253//253
f 252//252 251//251 254//254
f 30//30 255//255 256//256
f 255//255 30//30 31//31
f 11//11 257//257 258//258
f 257//257 11//11 10//10
f 259//259 5//5 260//260
f 261//261 5//5 259//259
f 5//5 261//261 8//8
f 260//260 5//5 18//18
f 27//27 262//262 263//263
f 262//262 27//27 28//28
f 37//37 264//264 34//34
f 34//34 265//265 33//33
f 34//34 266//266 265//265
f 266//266 34//34 264//264
f 267//267 266//266 264//264
f 266//266 267//267 268//268
f 32//32 265//265 269//269
f 265//265 32//32 33//33
f 13//13 270//270 271//271
f 270//270 13//13 14//14
f 263//263 25//25 27//27
f 272//272 25//25 263//263
f 273//273 25//25 272//272
f 25//25 273//273 38//38
f 249//249 273//273 272//272
f 273//273 249//249 248//248
f 29//29 256//256 274//274
f 256//256 29//29 30//30
f 28//28 274//274 262//262
f 274//274 28//28 29//29
f 275//275 250//250 276//276
f 277//277 276//276 260//260
f 250//250 275//275 248//248
f 277//277 260//260 18//18
f 278//278 248//248 275//275
f 248//248 278//278 273//273
f 276//276 277//277 275//275
f 18//18 279//279 277//277
f 18//18 280//280 279//279
f 18//18 281//281 280//280
f 282//282 283//283 19//19
f 284//284 19//19 283//283
f 285//285 19//19 284//284
f 281//281 19//19 285//285
f 19//19 281//281 18//18
f 273//273 278//278 38//38
f 286//286 38//38 278//278
f 287//287 38//38 286//286
f 288//288 38//38 287//287
f 251//251 283//283 282//282
f 288//288 37//37 38//38
f 289//289 37//37 288//288
f 290//290 37//37 289//289
f 291//291 37//37 290//290
f 283//283 251//251 292//292
f 253//253 292//292 251//251
f 267//267 292//292 253//253
f 292//292 267//267 291//291
f 291//291 264//264 37//37
f 264//264 291//291 267//267
f 253//253 268//268 267//267
f 268//268 253//253 252//252
f 249//249 293//293 247//247
f 272//272 293//293 249//249
f 272//272 259//259 293//293
f 263//263 259//259 272//272
f 263//263 261//261 259//259
f 262//262 261//261 263//263
f 262//262 294//294 261//261
f 274//274 294//294 262//262
f 274//274 257//257 294//294
f 256//256 257//257 274//274
f 256//256 258//258 257//257
f 255//255 258//258 256//256
f 255//255 295//295 258//258
f 269//269 295//295 255//255
f 269//269 270//270 295//295
f 265//265 270//270 269//269
f 265//265 271//271 270//270
f 266//266 271//271 265//265
f 266//266 296//296 271//271
f 268//268 296//296 266//266
f 268//268 254//254 296//296
f 254//254 268//268 252//252
f 31//31 269//269 255//255
f 269//269 31//31 32//32
f 293//293 250//250 247//247
f 250//250 293//293 276//276
f 259//259 276//276 293//293
f 276//276 259//259 260//260
f 9//9 261//261 294//294
f 261//261 9//9 8//8
f 10//10 294//294 257//257
f 294//294 10//10 9//9
f 14//14 295//295 270//270
f 295//295 14//14 15//15
f 15//15 258//258 295//295
f 258//258 15//15 11//11
f 12//12 282//282 19//19
f 282//282 12//12 296//296
f 271//271 12//12 13//13
f 12//12 271//271 296//296
f 282//282 254//254 251//251
f 254//254 282//282 296//296
f 275//275 297//297 278//278
f 297//297 275//275 298//298
f 299//299 292//292 300//300
f 292//292 299//299 283//283
f 301//301 241//241 244//244
f 302//302 241//241 301//301
f 241//241 302//302 242//242
f 242//242 302//302 303//303
f 154//154 289//289 288//288
f 289//289 154//154 239//239
f 304//304 141//141 140//140
f 305//305 141//141 304//304
f 141//141 305//305 142//142
f 142//142 305//305 306//306
f 50//50 280//280 281//281
f 280//280 50//50 47//47
f 306//306 136//136 142//142
f 136//136 306//306 78//78
f 47//47 279//279 280//280
f 49//49 279//279 47//47
f 58//58 279//279 49//49
f 307//307 58//58 78//78
f 308//308 78//78 306//306
f 307//307 308//308 309//309
f 308//308 307//307 78//78
f 58//58 307//307 279//279
f 286//286 152//152 287//287
f 286//286 153//153 152//152
f 286//286 162//162 153//153
f 310//310 162//162 286//286
f 224//224 311//311 312//312
f 162//162 310//310 224//224
f 310//310 311//311 224//224
f 311//311 310//310 313//313
f 312//312 240//240 224//224
f 240//240 312//312 246//246
f 278//278 310//310 286//286
f 310//310 278//278 297//297
f 314//314 245//245 246//246
f 245//245 301//301 244//244
f 245//245 314//314 301//301
f 314//314 246//246 312//312
f 287//287 154//154 288//288
f 154//154 287//287 152//152
f 315//315 290//290 316//316
f 290//290 315//315 291//291
f 309//309 298//298 317//317
f 309//309 317//317 307//307
f 313//313 298//298 309//309
f 298//298 313//313 297//297
f 297//297 313//313 310//310
f 299//299 318//318 319//319
f 300//300 318//318 299//299
f 318//318 300//300 320//320
f 320//320 315//315 316//316
f 320//320 300//300 315//315
f 300//300 291//291 315//315
f 291//291 300//300 292//292
f 303//303 243//243 242//242
f 243//243 303//303 212//212
f 239//239 290//290 289//289
f 169//169 290//290 239//239
f 171//171 290//290 169//169
f 316//316 171//171 212//212
f 321//321 212//212 303//303
f 316//316 321//321 320//320
f 321//321 316//316 212//212
f 171//171 316//316 290//290
f 279//279 317//317 277//277
f 317//317 279//279 307//307
f 277//277 298//298 275//275
f 298//298 277//277 317//317
f 322//322 137//137 138//138
f 137//137 304//304 140//140
f 137//137 322//322 304//304
f 322//322 138//138 323//323
f 285//285 50//50 281//281
f 50//50 285//285 135//135
f 284//284 135//135 285//285
f 284//284 65//65 135//135
f 284//284 66//66 65//65
f 319//319 66//66 284//284
f 89//89 324//324 323//323
f 66//66 319//319 89//89
f 319//319 324//324 89//89
f 324//324 319//319 318//318
f 323//323 139//139 89//89
f 139//139 323//323 138//138
f 319//319 283//283 299//299
f 283//283 319//319 284//284
f 311//311 325//325 326//326
f 325//325 311//311 313//313
f 327//327 308//308 328//328
f 308//308 327//327 309//309
f 314//314 326//326 329//329
f 312//312 326//326 314//314
f 326//326 312//312 311//311
f 328//328 305//305 330//330
f 305//305 328//328 306//306
f 306//306 328//328 308//308
f 331//331 304//304 322//322
f 304//304 331//331 332//332
f 333//333 301//301 334//334
f 301//301 333//333 302//302
f 335//335 336//336 337//337
f 336//336 335//335 338//338
f 301//301 329//329 334//334
f 329//329 301//301 314//314
f 304//304 330//330 305//305
f 330//330 304//304 332//332
f 339//339 323//323 324//324
f 339//339 322//322 323//323
f 322//322 339//339 331//331
f 340//340 302//302 333//333
f 340//340 303//303 302//302
f 303//303 340//340 321//321
f 329//329 333//333 334//334
f 326//326 333//333 329//329
f 326//326 340//340 333//333
f 325//325 340//340 326//326
f 325//325 341//341 340//340
f 342//342 341//341 325//325
f 342//342 336//336 341//341
f 343//343 336//336 342//342
f 343//343 337//337 336//336
f 337//337 343//343 344//344
f 331//331 330//330 332//332
f 339//339 330//330 331//331
f 339//339 328//328 330//330
f 345//345 328//328 339//339
f 345//345 327//327 328//328
f 338//338 327//327 345//345
f 338//338 346//346 327//327
f 335//335 346//346 338//338
f 335//335 347//347 346//346
f 347//347 335//335 348//348
f 341//341 321//321 340//340
f 321//321 341//341 320//320
f 345//345 324//324 318//318
f 324//324 345//345 339//339
f 336//336 320//320 341//341
f 336//336 318//318 320//320
f 338//338 318//318 336//336
f 318//318 338//338 345//345
f 346//346 343//343 342//342
f 343//343 346//346 347//347
f 313//313 342//342 325//325
f 309//309 342//342 313//313
f 346//346 309//309 327//327
f 309//309 346//346 342//342
f 335//335 344//344 348//348
f 344//344 335//335 337//337
f 348//348 343//343 347//347
f 343//343 348//348 344//344
