# Generated from OpenSCAD STL
o Chair
v 56.693298 -5.500000 24.329399
v 57.000000 -0.500000 22.000000
v 56.693298 -0.500000 24.329399
v 57.000000 -5.500000 22.000000
v 39.000000 -5.500000 22.000000
v 39.306702 -0.500000 24.329399
v 39.000000 -0.500000 22.000000
v 39.306702 -5.500000 24.329399
v 50.329399 -5.473940 30.693300
v 50.266399 -5.500000 30.701599
v 50.329399 -5.500000 30.693300
v 53.795601 -1.552910 28.800100
v 54.363998 -0.500000 28.364000
v 53.934200 -0.500000 28.693701
v 54.363998 -5.500000 28.364000
v 53.196201 -3.000000 29.260099
v 52.500000 -3.907240 29.794201
v 52.500000 -5.500000 29.794201
v 55.794201 -5.500000 26.500000
v 55.794201 -0.500000 26.500000
v 52.242599 -4.242640 29.900801
v 51.000000 -5.196150 30.415501
v 41.636002 -5.500000 28.364000
v 43.500000 -3.907240 29.794201
v 42.803799 -3.000000 29.260099
v 42.204399 -1.552910 28.800100
v 41.636002 -0.500000 28.364000
v 42.065800 -0.500000 28.693701
v 43.500000 -5.500000 29.794201
v 40.205799 -5.500000 26.500000
v 40.205799 -0.500000 26.500000
v 45.000000 -5.196150 30.415501
v 45.670601 -5.500000 30.693300
v 45.670601 -5.473940 30.693300
v 43.757401 -4.242640 29.900801
v 56.693298 -5.500000 19.670601
v 55.794201 -0.500000 17.500000
v 56.693298 -0.500000 19.670601
v 55.794201 -5.500000 17.500000
v 41.636002 -5.500000 15.636000
v 43.500000 -0.500000 14.205800
v 43.500000 -5.500000 14.205800
v 41.636002 -0.500000 15.636000
v 53.934200 -0.500000 22.000000
v 52.829601 -0.500000 20.705900
v 53.000000 -0.500000 22.000000
v 52.330101 -0.500000 19.500000
v 51.535500 -0.500000 18.464500
v 54.363998 -0.500000 15.636000
v 50.500000 -0.500000 17.669901
v 52.500000 -0.500000 14.205800
v 49.294102 -0.500000 17.170401
v 43.170399 -0.500000 20.705900
v 42.065800 -0.500000 22.000000
v 43.000000 -0.500000 22.000000
v 39.306702 -0.500000 19.670601
v 43.669899 -0.500000 19.500000
v 40.205799 -0.500000 17.500000
v 44.464500 -0.500000 18.464500
v 45.500000 -0.500000 17.669901
v 46.705898 -0.500000 17.170401
v 45.670601 -0.500000 13.306700
v 48.000000 -0.500000 17.000000
v 50.329399 -0.500000 13.306700
v 48.000000 -0.500000 13.000000
v 45.733601 -5.500000 30.701599
v 48.000000 -5.500000 13.000000
v 50.329399 -5.500000 13.306700
v 52.500000 -5.500000 14.205800
v 54.363998 -5.500000 15.636000
v 45.670601 -5.500000 13.306700
v 40.205799 -5.500000 17.500000
v 39.306702 -5.500000 19.670601
v 45.733601 -5.500000 26.426901
v 45.500000 -5.500000 26.330099
v 44.464500 -5.500000 25.535500
v 43.669899 -5.500000 24.500000
v 43.170399 -5.500000 23.294100
v 43.000000 -5.500000 22.000000
v 43.170399 -5.500000 20.705900
v 43.669899 -5.500000 19.500000
v 44.464500 -5.500000 18.464500
v 45.500000 -5.500000 17.669901
v 46.705898 -5.500000 17.170401
v 50.266399 -5.500000 26.426901
v 50.500000 -5.500000 26.330099
v 51.535500 -5.500000 25.535500
v 52.330101 -5.500000 24.500000
v 52.829601 -5.500000 23.294100
v 53.000000 -5.500000 22.000000
v 52.829601 -5.500000 20.705900
v 52.330101 -5.500000 19.500000
v 51.535500 -5.500000 18.464500
v 50.500000 -5.500000 17.669901
v 49.294102 -5.500000 17.170401
v 48.000000 -5.500000 17.000000
v 52.829601 -3.477660 23.294100
v 53.000000 -3.255630 22.000000
v 43.170399 -3.477660 23.294100
v 43.000000 -3.255630 22.000000
v 52.242599 -4.242640 24.614000
v 52.330101 -4.128630 24.500000
v 51.535500 -4.785220 25.535500
v 51.000000 -5.196150 25.946501
v 50.500000 -5.403260 26.330099
v 45.000000 -5.196150 25.946501
v 45.500000 -5.403260 26.330099
v 44.464500 -4.785220 25.535500
v 43.757401 -4.242640 24.614000
v 43.669899 -4.128630 24.500000
v 56.693298 0.500000 24.329399
v 57.000000 5.500000 22.000000
v 56.693298 5.500000 24.329399
v 57.000000 0.500000 22.000000
v 39.000000 0.500000 22.000000
v 39.306702 5.500000 24.329399
v 39.000000 5.500000 22.000000
v 39.306702 0.500000 24.329399
v 50.329399 5.500000 30.693300
v 50.266399 5.500000 30.701599
v 50.329399 5.473940 30.693300
v 53.795601 1.552910 28.800100
v 54.363998 0.500000 28.364000
v 54.363998 5.500000 28.364000
v 53.934200 0.500000 28.693701
v 53.196201 3.000000 29.260099
v 52.500000 3.907240 29.794201
v 52.500000 5.500000 29.794201
v 55.794201 0.500000 26.500000
v 55.794201 5.500000 26.500000
v 52.242599 4.242640 29.900801
v 51.000000 5.196150 30.415501
v 41.636002 5.500000 28.364000
v 43.500000 3.907240 29.794201
v 43.500000 5.500000 29.794201
v 42.803799 3.000000 29.260099
v 42.204399 1.552910 28.800100
v 41.636002 0.500000 28.364000
v 42.065800 0.500000 28.693701
v 40.205799 0.500000 26.500000
v 40.205799 5.500000 26.500000
v 45.670601 5.500000 30.693300
v 45.000000 5.196150 30.415501
v 45.670601 5.473940 30.693300
v 43.757401 4.242640 29.900801
v 56.693298 0.500000 19.670601
v 55.794201 5.500000 17.500000
v 56.693298 5.500000 19.670601
v 55.794201 0.500000 17.500000
v 41.636002 0.500000 15.636000
v 43.500000 5.500000 14.205800
v 43.500000 0.500000 14.205800
v 41.636002 5.500000 15.636000
v 50.266399 5.500000 26.426901
v 50.500000 5.500000 26.330099
v 51.535500 5.500000 25.535500
v 52.330101 5.500000 24.500000
v 52.829601 5.500000 23.294100
v 53.000000 5.500000 22.000000
v 52.829601 5.500000 20.705900
v 52.330101 5.500000 19.500000
v 51.535500 5.500000 18.464500
v 54.363998 5.500000 15.636000
v 50.500000 5.500000 17.669901
v 52.500000 5.500000 14.205800
v 49.294102 5.500000 17.170401
v 45.733601 5.500000 26.426901
v 45.733601 5.500000 30.701599
v 45.500000 5.500000 26.330099
v 44.464500 5.500000 25.535500
v 43.669899 5.500000 24.500000
v 43.170399 5.500000 23.294100
v 43.000000 5.500000 22.000000
v 43.170399 5.500000 20.705900
v 39.306702 5.500000 19.670601
v 43.669899 5.500000 19.500000
v 40.205799 5.500000 17.500000
v 44.464500 5.500000 18.464500
v 45.500000 5.500000 17.669901
v 46.705898 5.500000 17.170401
v 45.670601 5.500000 13.306700
v 48.000000 5.500000 17.000000
v 50.329399 5.500000 13.306700
v 48.000000 5.500000 13.000000
v 48.000000 0.500000 13.000000
v 50.329399 0.500000 13.306700
v 52.500000 0.500000 14.205800
v 54.363998 0.500000 15.636000
v 45.670601 0.500000 13.306700
v 40.205799 0.500000 17.500000
v 39.306702 0.500000 19.670601
v 42.065800 0.500000 22.000000
v 43.170399 0.500000 20.705900
v 43.000000 0.500000 22.000000
v 43.669899 0.500000 19.500000
v 44.464500 0.500000 18.464500
v 45.500000 0.500000 17.669901
v 46.705898 0.500000 17.170401
v 52.829601 0.500000 20.705900
v 53.934200 0.500000 22.000000
v 53.000000 0.500000 22.000000
v 52.330101 0.500000 19.500000
v 51.535500 0.500000 18.464500
v 50.500000 0.500000 17.669901
v 49.294102 0.500000 17.170401
v 48.000000 0.500000 17.000000
v 52.829601 3.477660 23.294100
v 53.000000 3.255630 22.000000
v 43.170399 3.477660 23.294100
v 43.000000 3.255630 22.000000
v 51.535500 4.785220 25.535500
v 52.242599 4.242640 24.614000
v 52.330101 4.128630 24.500000
v 51.000000 5.196150 25.946501
v 50.500000 5.403260 26.330099
v 45.000000 5.196150 25.946501
v 45.500000 5.403260 26.330099
v 44.464500 4.785220 25.535500
v 43.757401 4.242640 24.614000
v 43.669899 4.128630 24.500000
v 49.500000 -7.000000 32.000000
v 49.299000 -5.828980 32.750000
v 49.299000 -7.000000 32.750000
v 49.500000 -5.802520 32.000000
v 49.299000 5.828980 32.750000
v 49.500000 7.000000 32.000000
v 49.299000 7.000000 32.750000
v 49.500000 5.802520 32.000000
v 47.250000 -7.000000 33.299000
v 48.000000 -6.000000 33.500000
v 47.250000 -5.901260 33.299000
v 48.000000 -7.000000 33.500000
v 47.250000 7.000000 33.299000
v 48.000000 6.000000 33.500000
v 48.000000 7.000000 33.500000
v 47.250000 5.901260 33.299000
v 46.500000 -7.000000 32.000000
v 46.701000 -5.828980 31.250000
v 46.701000 -7.000000 31.250000
v 46.500000 -5.802520 32.000000
v 46.701000 5.828980 31.250000
v 46.500000 7.000000 32.000000
v 46.701000 7.000000 31.250000
v 46.500000 5.802520 32.000000
v 49.299000 -5.828980 31.250000
v 49.299000 -7.000000 31.250000
v 49.299000 5.828980 31.250000
v 49.299000 7.000000 31.250000
v 48.750000 -5.901260 30.701000
v 48.750000 -7.000000 30.701000
v 48.750000 5.901260 30.701000
v 48.750000 7.000000 30.701000
v 48.000000 -6.000000 30.500000
v 48.000000 -7.000000 30.500000
v 48.000000 6.000000 30.500000
v 48.000000 7.000000 30.500000
v 46.701000 -7.000000 32.750000
v 46.701000 -5.828980 32.750000
v 46.701000 7.000000 32.750000
v 46.701000 5.828980 32.750000
v 47.250000 -5.901260 30.701000
v 47.250000 -7.000000 30.701000
v 47.250000 5.901260 30.701000
v 47.250000 7.000000 30.701000
v 48.750000 -5.901260 33.299000
v 48.750000 -7.000000 33.299000
v 48.750000 5.901260 33.299000
v 48.750000 7.000000 33.299000
v 54.000000 0.000000 46.000000
v 53.795601 1.552910 46.000000
v 54.000000 0.000000 22.000000
v 46.447102 5.795550 46.000000
v 48.000000 6.000000 46.000000
v 46.447102 5.795550 22.000000
v 48.000000 6.000000 22.000000
v 49.552898 -5.795550 46.000000
v 48.000000 -6.000000 46.000000
v 49.552898 -5.795550 22.000000
v 48.000000 -6.000000 22.000000
v 53.196201 -3.000000 46.000000
v 52.242599 -4.242640 46.000000
v 52.242599 -4.242640 22.000000
v 51.000000 5.196150 22.000000
v 52.242599 4.242640 22.000000
v 52.242599 4.242640 46.000000
v 51.000000 5.196150 46.000000
v 42.803799 3.000000 46.000000
v 43.757401 4.242640 46.000000
v 43.757401 4.242640 22.000000
v 42.204399 1.552910 46.000000
v 45.000000 5.196150 22.000000
v 45.000000 5.196150 46.000000
v 43.757401 -4.242640 46.000000
v 45.000000 -5.196150 46.000000
v 45.000000 -5.196150 22.000000
v 43.757401 -4.242640 22.000000
v 53.196201 3.000000 46.000000
v 49.552898 5.795550 46.000000
v 49.552898 5.795550 22.000000
v 42.000000 0.000000 22.000000
v 51.000000 -5.196150 22.000000
v 46.447102 -5.795550 22.000000
v 42.000000 0.000000 46.000000
v 27.000000 -21.000000 46.000000
v 31.000000 21.000000 46.000000
v 31.000000 -21.000000 46.000000
v 27.000000 21.000000 46.000000
v 69.000000 -21.000000 46.000000
v 63.500000 0.000000 46.000000
v 69.000000 21.000000 46.000000
v 63.299000 -0.750000 46.000000
v 62.750000 -1.299040 46.000000
v 62.000000 -1.500000 46.000000
v 61.250000 -1.299040 46.000000
v 53.795601 -1.552910 46.000000
v 60.500000 0.000000 46.000000
v 60.701000 -0.750000 46.000000
v 51.000000 -5.196150 46.000000
v 33.000000 -21.000000 46.000000
v 46.447102 -5.795550 46.000000
v 42.204399 -1.552910 46.000000
v 35.500000 0.000000 46.000000
v 35.299000 -0.750000 46.000000
v 42.803799 -3.000000 46.000000
v 34.750000 -1.299040 46.000000
v 34.000000 -1.500000 46.000000
v 33.250000 -1.299040 46.000000
v 33.000000 -1.049040 46.000000
v 63.299000 0.750000 46.000000
v 62.750000 1.299040 46.000000
v 62.000000 1.500000 46.000000
v 61.250000 1.299040 46.000000
v 60.701000 0.750000 46.000000
v 33.000000 21.000000 46.000000
v 35.299000 0.750000 46.000000
v 34.750000 1.299040 46.000000
v 34.000000 1.500000 46.000000
v 33.250000 1.299040 46.000000
v 33.000000 1.049040 46.000000
v 27.000000 21.000000 47.500000
v 27.000000 -21.000000 47.500000
v 69.000000 21.000000 51.000000
v 63.500000 0.000000 51.000000
v 69.000000 -21.000000 51.000000
v 63.299000 0.750000 51.000000
v 62.750000 1.299040 51.000000
v 62.000000 1.500000 51.000000
v 61.250000 1.299040 51.000000
v 34.000000 21.000000 51.000000
v 60.701000 0.750000 51.000000
v 35.500000 0.000000 51.000000
v 60.500000 0.000000 51.000000
v 35.299000 0.750000 51.000000
v 34.750000 1.299040 51.000000
v 34.000000 1.500000 51.000000
v 63.299000 -0.750000 51.000000
v 62.750000 -1.299040 51.000000
v 62.000000 -1.500000 51.000000
v 61.250000 -1.299040 51.000000
v 34.000000 -21.000000 51.000000
v 60.701000 -0.750000 51.000000
v 35.299000 -0.750000 51.000000
v 34.750000 -1.299040 51.000000
v 34.000000 -1.500000 51.000000
v 34.000000 21.000000 47.500000
v 33.000000 21.000000 47.500000
v 31.000000 21.000000 47.500000
v 33.000000 -21.000000 47.500000
v 34.000000 -21.000000 47.500000
v 31.000000 -21.000000 47.500000
v -38.000000 -36.000000 47.500000
v -38.000000 36.000000 54.500000
v -38.000000 36.000000 47.500000
v -38.000000 -36.000000 54.500000
v 31.000000 36.000000 54.500000
v 29.000000 31.000000 54.500000
v 31.000000 -36.000000 54.500000
v -33.000000 31.000000 54.500000
v -33.000000 -31.000000 54.500000
v 29.000000 -31.000000 54.500000
v 33.000000 31.000000 54.500000
v 34.000000 -31.000000 54.500000
v 34.000000 31.000000 54.500000
v 33.000000 -31.000000 54.500000
v 34.000000 31.000000 47.500000
v 34.000000 1.500000 51.500000
v 34.000000 -1.500000 51.500000
v 34.000000 -31.000000 47.500000
v 31.000000 -36.000000 47.500000
v 31.000000 36.000000 47.500000
v 33.000000 31.000000 47.500000
v 33.000000 -31.000000 47.500000
v 37.000000 -36.000000 92.500000
v 31.000000 -36.000000 92.500000
v 37.000000 -36.000000 16.500000
v 31.000000 -36.000000 16.500000
v 37.000000 36.000000 92.500000
v 31.000000 36.000000 92.500000
v 37.000000 36.000000 16.500000
v 31.000000 36.000000 16.500000
v -33.000000 31.000000 52.500000
v -33.000000 -31.000000 52.500000
v 29.000000 -31.000000 52.500000
v 29.000000 31.000000 52.500000
v 31.000000 31.000000 92.500000
v 31.000000 -31.000000 92.500000
v 33.000000 -31.000000 92.500000
v 37.000000 -31.000000 92.500000
v 33.000000 31.000000 92.500000
v 37.000000 31.000000 92.500000
v 37.000000 -28.000000 92.500000
v 33.000000 -28.000000 92.500000
v 33.000000 28.000000 92.500000
v 37.000000 28.000000 92.500000
v 29.000000 -31.000000 92.500000
v 29.000000 31.000000 92.500000
v 37.000000 -31.000000 20.500000
v 37.000000 31.000000 20.500000
v 33.000000 -1.049040 45.500000
v 33.000000 31.000000 20.500000
v 33.000000 1.049040 45.500000
v 33.000000 -31.000000 20.500000
v 33.000000 28.000000 110.500000
v 33.000000 -28.000000 110.500000
v 37.000000 -31.000000 110.500000
v 37.000000 -28.000000 110.500000
v 37.000000 28.000000 110.500000
v 37.000000 31.000000 110.500000
v 26.000000 -29.000000 96.500000
v 26.000000 29.000000 110.500000
v 26.000000 29.000000 96.500000
v 26.000000 -29.000000 110.500000
v 29.000000 31.000000 110.500000
v 29.000000 -31.000000 110.500000
v 35.299000 0.750000 45.500000
v 35.500000 0.000000 45.500000
v 35.500000 0.000000 51.500000
v 35.299000 0.750000 51.500000
v 34.750000 -1.299040 51.500000
v 34.000000 -1.500000 45.500000
v 34.750000 -1.299040 45.500000
v 34.000000 1.500000 45.500000
v 33.250000 1.299040 45.500000
v 34.750000 1.299040 45.500000
v 34.750000 1.299040 51.500000
v 35.299000 -0.750000 45.500000
v 33.250000 -1.299040 45.500000
v 35.299000 -0.750000 51.500000
v 63.500000 0.000000 51.500000
v 63.299000 0.750000 51.500000
v 63.299000 0.750000 45.500000
v 63.500000 0.000000 45.500000
v 62.750000 -1.299040 51.500000
v 62.000000 -1.500000 51.500000
v 62.000000 -1.500000 45.500000
v 62.750000 -1.299040 45.500000
v 62.000000 1.500000 45.500000
v 61.250000 1.299040 45.500000
v 61.250000 1.299040 51.500000
v 62.000000 1.500000 51.500000
v 60.701000 0.750000 45.500000
v 60.701000 0.750000 51.500000
v 62.750000 1.299040 51.500000
v 62.750000 1.299040 45.500000
v 63.299000 -0.750000 45.500000
v 61.250000 -1.299040 45.500000
v 60.701000 -0.750000 45.500000
v 60.500000 0.000000 45.500000
v 60.500000 0.000000 51.500000
v 63.299000 -0.750000 51.500000
v 61.250000 -1.299040 51.500000
v 60.701000 -0.750000 51.500000
vn 0.582944 -0.802190 0.129105
vn 0.829290 0.557632 0.036396
vn 0.791613 0.557631 0.249793
vn 0.703726 -0.709800 -0.030886
vn -0.596494 -0.802190 0.026179
vn -0.810451 0.557631 0.179491
vn -0.829290 0.557632 -0.036396
vn -0.671754 -0.709799 0.211972
vn 0.432943 -0.625886 0.648712
vn 0.327047 -0.924622 0.195227
vn 0.249822 -0.557615 0.791615
vn 0.886871 -0.120602 0.446000
vn 0.560624 0.557645 0.612153
vn 0.963192 0.163606 0.213294
vn 0.603186 -0.449952 0.658567
vn 0.878434 -0.312840 0.361227
vn 0.752344 -0.287472 0.592738
vn 0.352794 -0.602457 0.715949
vn 0.624890 -0.709799 0.325113
vn 0.700000 0.557630 0.446148
vn 0.735049 -0.499254 0.458747
vn 0.592201 -0.540948 0.597221
vn -0.555887 -0.516575 0.651260
vn -0.752344 -0.287472 0.592738
vn -0.878434 -0.312840 0.361227
vn -0.886871 -0.120602 0.446000
vn -0.631337 0.450307 0.631377
vn -0.963192 0.163606 0.213294
vn -0.352794 -0.602457 0.715949
vn -0.594013 -0.709799 0.378596
vn -0.736387 0.557630 0.383122
vn -0.592201 -0.540948 0.597221
vn -0.249822 -0.557615 0.791615
vn -0.432943 -0.625886 0.648712
vn -0.735049 -0.499254 0.458747
vn 0.671754 -0.709799 -0.211972
vn 0.624890 0.709799 -0.325113
vn 0.582944 0.802190 -0.129105
vn 0.594013 -0.709799 -0.378596
vn -0.563928 -0.603300 -0.563928
vn -0.378596 0.709798 -0.594013
vn -0.325113 -0.709798 -0.624890
vn -0.389899 0.834241 -0.389899
vn 0.141386 0.979629 -0.142605
vn -0.770339 0.603298 0.206420
vn -0.124016 0.125087 -0.984364
vn -0.593998 0.709800 0.378617
vn -0.389900 0.834239 0.389901
vn 0.563928 0.603300 -0.563928
vn -0.378616 0.709800 0.593999
vn 0.325113 0.709798 -0.624890
vn -0.211973 0.709799 0.671754
vn 0.687739 0.709799 0.152317
vn -0.141386 0.979629 -0.142605
vn 0.110399 0.111352 -0.987630
vn -0.569394 0.802190 -0.179672
vn 0.624884 0.709800 0.325123
vn -0.594013 0.709799 -0.378596
vn 0.563929 0.603297 0.563930
vn 0.325123 0.709800 0.624884
vn 0.152318 0.709799 0.687739
vn -0.211972 0.709799 -0.671754
vn -0.026181 0.802190 0.596494
vn 0.152314 0.709799 -0.687740
vn -0.036396 0.557632 -0.829290
vn -0.327047 -0.924623 0.195227
vn 0.036396 -0.557632 -0.829290
vn 0.211972 -0.709799 -0.671754
vn 0.378596 -0.709798 -0.594013
vn 0.389899 -0.834241 -0.389899
vn -0.152314 -0.709799 -0.687740
vn -0.624890 -0.709799 -0.325113
vn -0.687740 -0.709799 -0.152314
vn -0.129780 -0.979074 -0.156753
vn 0.378641 -0.709771 -0.594017
vn 0.475811 -0.709773 -0.519449
vn 0.663485 -0.602471 -0.443639
vn 0.671754 -0.709799 -0.211973
vn 0.829290 -0.557632 -0.036399
vn 0.770339 -0.603298 0.206420
vn 0.593998 -0.709800 0.378617
vn 0.389900 -0.834239 0.389901
vn 0.378616 -0.709800 0.593999
vn 0.211973 -0.709799 0.671754
vn 0.129780 -0.979074 -0.156753
vn -0.378641 -0.709771 -0.594017
vn -0.475811 -0.709773 -0.519449
vn -0.663485 -0.602471 -0.443639
vn -0.791613 -0.557631 -0.249794
vn -0.703726 -0.709800 -0.030887
vn -0.687739 -0.709799 0.152317
vn -0.624884 -0.709800 0.325123
vn -0.563929 -0.603297 0.563930
vn -0.325123 -0.709800 0.624884
vn -0.152318 -0.709799 0.687739
vn 0.026181 -0.802190 0.596494
vn -0.691959 -0.638215 -0.337453
vn -0.957356 -0.183714 -0.222979
vn 0.691959 -0.638215 -0.337453
vn 0.957356 -0.183714 -0.222979
vn 0.166610 -0.862290 -0.478222
vn -0.497991 -0.575082 -0.649065
vn -0.356694 -0.578706 -0.733396
vn -0.016251 -0.831540 -0.555227
vn -0.298073 -0.452226 -0.840621
vn 0.016251 -0.831540 -0.555227
vn 0.298073 -0.452226 -0.840621
vn 0.356694 -0.578706 -0.733396
vn -0.166610 -0.862290 -0.478222
vn 0.497991 -0.575082 -0.649065
vn 0.810451 -0.557631 0.179491
vn 0.596494 0.802190 0.026179
vn 0.671754 0.709799 0.211972
vn 0.829290 -0.557632 -0.036396
vn -0.829290 -0.557632 0.036396
vn -0.582944 0.802190 0.129105
vn -0.703726 0.709800 -0.030886
vn -0.791613 -0.557631 0.249793
vn 0.249822 0.557615 0.791615
vn 0.327047 0.924623 0.195227
vn 0.432943 0.625886 0.648712
vn 0.886871 0.120602 0.446000
vn 0.631337 -0.450307 0.631377
vn 0.555887 0.516575 0.651260
vn 0.963192 -0.163606 0.213294
vn 0.878434 0.312840 0.361227
vn 0.752344 0.287472 0.592738
vn 0.352794 0.602457 0.715949
vn 0.736387 -0.557630 0.383122
vn 0.594013 0.709799 0.378596
vn 0.735049 0.499254 0.458747
vn 0.592201 0.540948 0.597221
vn -0.603186 0.449952 0.658566
vn -0.752344 0.287472 0.592738
vn -0.352794 0.602457 0.715949
vn -0.878434 0.312840 0.361227
vn -0.886871 0.120602 0.446000
vn -0.560624 -0.557645 0.612153
vn -0.963192 -0.163606 0.213294
vn -0.700000 -0.557630 0.446148
vn -0.624890 0.709799 0.325113
vn -0.249822 0.557615 0.791615
vn -0.592201 0.540948 0.597221
vn -0.432943 0.625886 0.648712
vn -0.735049 0.499254 0.458747
vn 0.569394 -0.802190 -0.179672
vn 0.624890 0.709799 -0.325113
vn 0.687740 0.709799 -0.152314
vn 0.594013 -0.709799 -0.378596
vn -0.563928 -0.603300 -0.563928
vn -0.378596 0.709798 -0.594013
vn -0.325113 -0.709798 -0.624890
vn -0.389899 0.834241 -0.389899
vn 0.129780 0.979074 -0.156753
vn -0.378641 0.709771 -0.594017
vn -0.475811 0.709773 -0.519449
vn -0.663485 0.602471 -0.443639
vn -0.671754 0.709799 -0.211973
vn -0.829290 0.557632 -0.036399
vn -0.770339 0.603298 0.206420
vn -0.593998 0.709800 0.378617
vn -0.389900 0.834239 0.389901
vn 0.563928 0.603300 -0.563928
vn -0.378616 0.709800 0.593999
vn 0.325113 0.709798 -0.624890
vn -0.211973 0.709799 0.671754
vn -0.129780 0.979074 -0.156753
vn -0.327047 0.924622 0.195227
vn 0.378641 0.709771 -0.594017
vn 0.475811 0.709773 -0.519449
vn 0.663485 0.602471 -0.443639
vn 0.791613 0.557631 -0.249794
vn 0.703726 0.709800 -0.030887
vn 0.687739 0.709799 0.152317
vn -0.671754 0.709799 -0.211972
vn 0.624884 0.709800 0.325123
vn -0.594013 0.709799 -0.378596
vn 0.563929 0.603297 0.563930
vn 0.325123 0.709800 0.624884
vn 0.152318 0.709799 0.687739
vn -0.211972 0.709799 -0.671754
vn -0.026181 0.802190 0.596494
vn 0.152314 0.709799 -0.687740
vn -0.036396 0.557632 -0.829290
vn 0.036396 -0.557632 -0.829290
vn 0.211972 -0.709799 -0.671754
vn 0.378596 -0.709798 -0.594013
vn 0.389899 -0.834241 -0.389899
vn -0.152314 -0.709799 -0.687740
vn -0.624890 -0.709799 -0.325113
vn -0.582944 -0.802190 -0.129105
vn -0.141386 -0.979629 -0.142605
vn 0.770339 -0.603298 0.206420
vn 0.124016 -0.125087 -0.984364
vn 0.593998 -0.709800 0.378617
vn 0.389900 -0.834239 0.389901
vn 0.378616 -0.709800 0.593999
vn 0.211973 -0.709799 0.671754
vn -0.687739 -0.709799 0.152317
vn 0.141386 -0.979629 -0.142605
vn -0.110399 -0.111352 -0.987630
vn -0.624884 -0.709800 0.325123
vn -0.563929 -0.603297 0.563930
vn -0.325123 -0.709800 0.624884
vn -0.152318 -0.709799 0.687739
vn 0.026181 -0.802190 0.596494
vn -0.691959 0.638215 -0.337453
vn -0.957356 0.183714 -0.222979
vn 0.691959 0.638215 -0.337453
vn 0.957356 0.183714 -0.222979
vn -0.356694 0.578706 -0.733396
vn 0.166610 0.862290 -0.478222
vn -0.497991 0.575082 -0.649065
vn -0.016251 0.831540 -0.555227
vn -0.298073 0.452226 -0.840621
vn 0.016251 0.831540 -0.555227
vn 0.298073 0.452226 -0.840621
vn 0.356694 0.578706 -0.733396
vn -0.166610 0.862290 -0.478222
vn 0.497991 0.575082 -0.649065
vn 0.789854 -0.613295 0.000000
vn 0.779464 -0.532966 0.329215
vn 0.569542 -0.717872 0.400352
vn 0.615612 -0.788049 -0.000000
vn 0.779464 0.532966 0.329215
vn 0.789854 0.613295 0.000000
vn 0.569542 0.717872 0.400352
vn 0.615612 0.788049 -0.000000
vn -0.346933 -0.566497 0.747474
vn 0.000000 -0.716269 0.697824
vn -0.529598 -0.542947 0.651717
vn 0.000000 -0.459705 0.888071
vn -0.293092 0.717872 0.631472
vn -0.000000 0.716269 0.697824
vn 0.000000 0.459705 0.888071
vn -0.529598 0.542947 0.651717
vn -0.789854 -0.613295 0.000000
vn -0.779465 -0.532966 -0.329215
vn -0.569542 -0.717872 -0.400352
vn -0.615612 -0.788049 -0.000000
vn -0.779465 0.532966 -0.329215
vn -0.789854 0.613295 0.000000
vn -0.569542 0.717872 -0.400352
vn -0.615612 0.788049 -0.000000
vn 0.779465 -0.532966 -0.329215
vn 0.569542 -0.717872 -0.400352
vn 0.779465 0.532966 -0.329215
vn 0.569542 0.717872 -0.400352
vn 0.529598 -0.542947 -0.651717
vn 0.346933 -0.566497 -0.747474
vn 0.529598 0.542947 -0.651717
vn 0.293092 0.717872 -0.631472
vn 0.000000 -0.716269 -0.697824
vn 0.000000 -0.459705 -0.888071
vn 0.000000 0.716269 -0.697824
vn 0.000000 0.459705 -0.888071
vn -0.569542 -0.717872 0.400352
vn -0.779464 -0.532966 0.329215
vn -0.569542 0.717872 0.400352
vn -0.779464 0.532966 0.329215
vn -0.529598 -0.542947 -0.651717
vn -0.293092 -0.717872 -0.631472
vn -0.529598 0.542947 -0.651717
vn -0.346933 0.566497 -0.747474
vn 0.529598 -0.542947 0.651717
vn 0.293092 -0.717872 0.631472
vn 0.529598 0.542947 0.651717
vn 0.346933 0.566497 0.747474
vn 0.947863 -0.000000 -0.318679
vn 0.671757 0.211960 -0.709800
vn 0.797518 0.000000 -0.603295
vn -0.196057 0.940801 -0.276504
vn 0.000000 0.551402 -0.834240
vn -0.238752 0.946135 -0.218690
vn 0.000000 0.551402 -0.834240
vn 0.196057 -0.940801 -0.276504
vn 0.000000 -0.551402 -0.834240
vn 0.238752 -0.946135 -0.218690
vn 0.000000 -0.551402 -0.834240
vn 0.663489 -0.443636 -0.602469
vn 0.403275 -0.440299 -0.802189
vn 0.671747 -0.588806 -0.449515
vn 0.496493 0.742583 -0.449517
vn 0.671747 0.588806 -0.449515
vn 0.403275 0.440299 -0.802189
vn 0.394770 0.801307 -0.449516
vn -0.663489 0.443636 -0.602469
vn -0.403275 0.440299 -0.802189
vn -0.671747 0.588806 -0.449515
vn -0.671757 0.211960 -0.709800
vn -0.496493 0.742583 -0.449517
vn -0.394770 0.801307 -0.449516
vn -0.403275 -0.440299 -0.802189
vn -0.394770 -0.801307 -0.449516
vn -0.496493 -0.742583 -0.449517
vn -0.671747 -0.588806 -0.449515
vn 0.663489 0.443636 -0.602469
vn 0.196057 0.940801 -0.276504
vn 0.238752 0.946135 -0.218690
vn -0.797518 0.000000 -0.603295
vn 0.496493 -0.742583 -0.449517
vn -0.238752 -0.946135 -0.218690
vn -0.947863 0.000000 -0.318679
vn -0.577350 -0.577350 -0.577350
vn -0.727607 0.485071 -0.485071
vn -0.942809 -0.235702 -0.235702
vn -0.577350 0.577350 -0.577350
vn 0.107833 -0.215666 -0.970495
vn 0.693408 0.061944 -0.717878
vn 0.212000 0.212000 -0.953998
vn 0.747480 -0.346925 -0.566496
vn 0.444050 -0.769086 -0.459703
vn -0.061933 -0.693413 -0.717874
vn -0.270711 -0.468867 -0.840761
vn 0.671757 -0.211960 -0.709800
vn -0.585864 -0.052337 -0.808718
vn -0.569553 -0.400339 -0.717870
vn 0.394770 -0.801307 -0.449516
vn 0.481543 -0.240772 -0.842701
vn -0.196057 -0.940801 -0.276504
vn -0.671757 -0.211960 -0.709800
vn 0.585864 0.052337 -0.808718
vn 0.631477 -0.293085 -0.717870
vn -0.663489 -0.443636 -0.602469
vn 0.394940 -0.684029 -0.613292
vn -0.061933 -0.693413 -0.717874
vn -0.473886 -0.674174 -0.566500
vn 0.232588 -0.561517 -0.794105
vn 0.674180 0.473881 -0.566496
vn 0.347383 0.601661 -0.719256
vn 0.061933 0.693413 -0.717874
vn -0.394940 0.684029 -0.613292
vn -0.631477 0.293085 -0.717870
vn 0.481543 0.240772 -0.842701
vn 0.569553 0.400339 -0.717870
vn 0.270711 0.468867 -0.840761
vn 0.061933 0.693413 -0.717874
vn -0.346907 0.747485 -0.566500
vn -0.232588 0.794105 -0.561517
vn -0.408248 0.408248 -0.816497
vn -0.301511 -0.301511 -0.904534
vn 0.156174 0.312348 0.937043
vn 0.693408 -0.061944 0.717878
vn 0.301511 -0.301511 0.904534
vn 0.747480 0.346925 0.566496
vn 0.444050 0.769086 0.459703
vn -0.073310 0.820795 0.566499
vn -0.270711 0.468867 0.840761
vn 0.617213 0.154303 0.771517
vn -0.481220 0.338249 0.808712
vn 0.585864 -0.052337 0.808718
vn -0.820791 0.073324 0.566504
vn 0.631477 0.293085 0.717870
vn 0.444050 0.769086 0.459703
vn 0.671177 0.515014 0.533181
vn 0.674180 -0.473881 0.566496
vn 0.347383 -0.601661 0.719256
vn 0.073310 -0.820795 0.566499
vn -0.394940 -0.684029 0.613292
vn 0.617213 -0.154303 0.771517
vn -0.533540 -0.247630 0.808712
vn 0.569553 -0.400339 0.717870
vn 0.347383 -0.601661 0.719256
vn 0.572172 -0.728339 0.377016
vn 0.235702 0.942809 -0.235702
vn 0.408248 0.408248 -0.816497
vn -0.577350 0.577350 -0.577350
vn 0.577350 -0.577350 -0.577350
vn 0.218218 -0.872872 -0.436436
vn -0.408248 -0.816497 -0.408248
vn -0.485071 -0.485071 -0.727607
vn -0.485071 0.485071 0.727607
vn -0.408248 0.408248 -0.816497
vn -0.408248 -0.408248 0.816497
vn -0.514496 0.685994 0.514496
vn -0.485071 -0.485071 0.727607
vn -0.298142 -0.745356 0.596285
vn 0.301511 -0.301511 0.904534
vn 0.408248 0.408248 0.816497
vn -0.408248 0.408248 0.816497
vn 0.801784 -0.267261 0.534522
vn 0.557086 0.742781 0.371391
vn 0.696311 -0.696311 0.174078
vn 0.816497 0.408248 0.408248
vn 0.485071 -0.727607 -0.485071
vn 0.784495 0.430837 0.446035
vn 0.950626 -0.215608 0.223214
vn 0.534522 0.801784 -0.267261
vn -0.485071 -0.727607 -0.485071
vn -0.408248 0.816497 -0.408248
vn 0.816497 -0.408248 -0.408248
vn 0.666667 0.333333 -0.666667
vn 0.577350 -0.577350 0.577350
vn -0.408248 -0.408248 0.816497
vn 0.534522 -0.801784 -0.267261
vn -0.666667 -0.333333 -0.666667
vn 0.577350 0.577350 0.577350
vn -0.408248 0.408248 0.816497
vn 0.639602 0.639602 -0.426401
vn -0.904534 0.301511 -0.301511
vn 0.577350 -0.577350 0.577350
vn 0.577350 0.577350 0.577350
vn -0.577350 0.577350 0.577350
vn -0.577350 -0.577350 0.577350
vn -0.666667 0.666667 -0.333333
vn -0.832050 -0.554700 0.000000
vn 0.577350 -0.577350 0.577350
vn 0.894427 0.447214 0.000000
vn 0.408248 0.408248 0.816497
vn 0.904534 -0.301511 -0.301511
vn 0.577350 0.577350 -0.577350
vn 0.942809 0.235702 -0.235702
vn 0.816497 -0.408248 -0.408248
vn 0.577350 -0.577350 -0.577350
vn -0.391859 -0.529937 -0.752073
vn -0.601338 0.511292 -0.613981
vn 0.742781 0.557086 0.371391
vn 0.688247 -0.688247 0.229416
vn 0.386817 -0.211557 -0.897561
vn 0.816497 -0.408248 0.408248
vn 0.491565 0.151594 -0.857545
vn 0.801784 0.534522 0.267261
vn 0.235702 -0.235702 0.942809
vn 0.348155 0.348155 0.870388
vn 0.577350 -0.577350 0.577350
vn 0.577350 0.577350 0.577350
vn 0.666667 -0.666667 0.333333
vn 0.333333 0.666667 0.666667
vn -0.916780 -0.323951 -0.233604
vn -0.634352 0.206605 0.744924
vn -0.854456 0.488726 -0.176213
vn -0.583083 -0.312056 0.750090
vn -0.213565 0.897863 0.385010
vn -0.213565 -0.897863 0.385010
vn 0.631477 0.293085 -0.717870
vn 0.820791 -0.073324 -0.566504
vn 0.941942 0.084147 0.325061
vn 0.674180 0.473881 0.566496
vn 0.394940 -0.684029 0.613292
vn 0.073310 -0.820795 -0.566499
vn 0.347383 -0.601661 -0.719256
vn -0.073310 0.820795 -0.566499
vn -0.543831 0.773683 -0.325058
vn 0.444050 0.769086 -0.459703
vn 0.270711 0.468867 0.840761
vn 0.674180 -0.473881 -0.566496
vn -0.398111 -0.857814 -0.325058
vn 0.631477 -0.293085 0.717870
vn 0.941942 0.084147 0.325061
vn 0.674180 0.473881 0.566496
vn 0.631477 0.293085 -0.717870
vn 0.941942 -0.084147 -0.325061
vn 0.394940 -0.684029 0.613292
vn -0.061933 -0.693413 0.717874
vn 0.061933 -0.693413 -0.717874
vn 0.270711 -0.468867 -0.840761
vn -0.061933 0.693413 -0.717874
vn -0.270711 0.468867 -0.840761
vn -0.394940 0.684029 0.613292
vn 0.061933 0.693413 0.717874
vn -0.674180 0.473881 -0.566496
vn -0.631477 0.293085 0.717870
vn 0.270711 0.468867 0.840761
vn 0.394940 0.684029 -0.613292
vn 0.674180 -0.473881 -0.566496
vn -0.394940 -0.684029 -0.613292
vn -0.631477 -0.293085 -0.717870
vn -0.941942 0.084147 -0.325061
vn -0.941942 -0.084147 0.325061
vn 0.631477 -0.293085 0.717870
vn -0.270711 -0.468867 0.840761
vn -0.674180 -0.473881 0.566496

s 1
f 1//1 2//2 3//3
f 2//2 1//1 4//4
f 5//5 6//6 7//7
f 6//6 5//5 8//8
f 9//9 10//10 11//11
f 12//12 13//13 14//14
f 13//13 12//12 15//15
f 16//16 15//15 12//12
f 17//17 15//15 16//16
f 15//15 17//17 18//18
f 19//19 3//3 20//20
f 3//3 19//19 1//1
f 21//21 18//18 17//17
f 22//22 18//18 21//21
f 11//11 22//22 9//9
f 22//22 11//11 18//18
f 23//23 24//24 25//25
f 23//23 25//25 26//26
f 27//27 26//26 28//28
f 23//23 26//26 27//27
f 24//24 23//23 29//29
f 30//30 27//27 31//31
f 27//27 30//30 23//23
f 32//32 33//33 34//34
f 32//32 29//29 33//33
f 35//35 29//29 32//32
f 29//29 35//35 24//24
f 36//36 37//37 38//38
f 37//37 36//36 39//39
f 40//40 41//41 42//42
f 41//41 40//40 43//43
f 44//44 13//13 20//20
f 44//44 20//20 3//3
f 44//44 3//3 2//2
f 13//13 44//44 14//14
f 38//38 44//44 2//2
f 44//44 45//45 46//46
f 44//44 38//38 45//45
f 38//38 47//47 45//45
f 37//37 47//47 38//38
f 47//47 37//37 48//48
f 49//49 48//48 37//37
f 48//48 49//49 50//50
f 51//51 50//50 49//49
f 50//50 51//51 52//52
f 53//53 54//54 55//55
f 56//56 54//54 53//53
f 54//54 56//56 7//7
f 57//57 56//56 53//53
f 58//58 57//57 59//59
f 43//43 59//59 60//60
f 57//57 58//58 56//56
f 41//41 60//60 61//61
f 62//62 61//61 63//63
f 64//64 52//52 51//51
f 59//59 43//43 58//58
f 52//52 64//64 63//63
f 60//60 41//41 43//43
f 65//65 63//63 64//64
f 61//61 62//62 41//41
f 63//63 65//65 62//62
f 54//54 27//27 28//28
f 27//27 54//54 31//31
f 31//31 54//54 6//6
f 6//6 54//54 7//7
f 15//15 20//20 13//13
f 20//20 15//15 19//19
f 8//8 31//31 6//6
f 31//31 8//8 30//30
f 34//34 33//33 66//66
f 4//4 38//38 2//2
f 38//38 4//4 36//36
f 67//67 64//64 68//68
f 64//64 67//67 65//65
f 69//69 49//49 70//70
f 49//49 69//69 51//51
f 42//42 62//62 71//71
f 62//62 42//42 41//41
f 40//40 58//58 43//43
f 58//58 40//40 72//72
f 73//73 7//7 56//56
f 7//7 73//73 5//5
f 68//68 51//51 69//69
f 51//51 68//68 64//64
f 39//39 49//49 37//37
f 49//49 39//39 70//70
f 71//71 65//65 67//67
f 65//65 71//71 62//62
f 72//72 56//56 58//58
f 56//56 72//72 73//73
f 74//74 33//33 29//29
f 75//75 29//29 23//23
f 76//76 23//23 30//30
f 74//74 29//29 75//75
f 33//33 74//74 66//66
f 23//23 76//76 75//75
f 30//30 77//77 76//76
f 8//8 77//77 30//30
f 8//8 78//78 77//77
f 5//5 78//78 8//8
f 5//5 79//79 78//78
f 5//5 80//80 79//79
f 73//73 80//80 5//5
f 73//73 81//81 80//80
f 72//72 81//81 73//73
f 81//81 72//72 82//82
f 40//40 82//82 72//72
f 82//82 40//40 83//83
f 42//42 83//83 40//40
f 83//83 42//42 84//84
f 85//85 11//11 10//10
f 11//11 85//85 18//18
f 18//18 86//86 15//15
f 18//18 85//85 86//86
f 87//87 15//15 86//86
f 15//15 87//87 19//19
f 88//88 19//19 87//87
f 88//88 1//1 19//19
f 89//89 1//1 88//88
f 90//90 1//1 89//89
f 90//90 4//4 1//1
f 91//91 4//4 90//90
f 91//91 36//36 4//4
f 92//92 36//36 91//91
f 39//39 92//92 93//93
f 70//70 93//93 94//94
f 92//92 39//39 36//36
f 69//69 94//94 95//95
f 68//68 95//95 96//96
f 71//71 84//84 42//42
f 93//93 70//70 39//39
f 84//84 71//71 96//96
f 94//94 69//69 70//70
f 67//67 96//96 71//71
f 95//95 68//68 69//69
f 96//96 67//67 68//68
f 90//90 97//97 98//98
f 97//97 90//90 89//89
f 79//79 99//99 78//78
f 99//99 79//79 100//100
f 61//61 96//96 63//63
f 96//96 61//61 84//84
f 88//88 101//101 102//102
f 88//88 103//103 101//101
f 103//103 88//88 87//87
f 89//89 102//102 97//97
f 102//102 89//89 88//88
f 87//87 104//104 103//103
f 86//86 104//104 87//87
f 104//104 86//86 105//105
f 75//75 106//106 107//107
f 76//76 106//106 75//75
f 106//106 76//76 108//108
f 77//77 108//108 76//76
f 108//108 77//77 109//109
f 109//109 77//77 110//110
f 107//107 74//74 75//75
f 93//93 47//47 48//48
f 47//47 93//93 92//92
f 59//59 83//83 60//60
f 83//83 59//59 82//82
f 105//105 86//86 85//85
f 78//78 110//110 77//77
f 110//110 78//78 99//99
f 63//63 95//95 52//52
f 95//95 63//63 96//96
f 50//50 93//93 48//48
f 93//93 50//50 94//94
f 60//60 84//84 61//61
f 84//84 60//60 83//83
f 81//81 59//59 57//57
f 59//59 81//81 82//82
f 100//100 53//53 55//55
f 80//80 100//100 79//79
f 100//100 80//80 53//53
f 52//52 94//94 50//50
f 94//94 52//52 95//95
f 92//92 45//45 47//47
f 45//45 92//92 91//91
f 45//45 98//98 46//46
f 91//91 98//98 45//45
f 98//98 91//91 90//90
f 80//80 57//57 53//53
f 57//57 80//80 81//81
f 111//111 112//112 113//113
f 112//112 111//111 114//114
f 115//115 116//116 117//117
f 116//116 115//115 118//118
f 119//119 120//120 121//121
f 122//122 123//123 124//124
f 123//123 122//122 125//125
f 124//124 126//126 122//122
f 127//127 124//124 128//128
f 124//124 127//127 126//126
f 129//129 113//113 130//130
f 113//113 129//129 111//111
f 128//128 131//131 127//127
f 128//128 132//132 131//131
f 119//119 132//132 128//128
f 132//132 119//119 121//121
f 133//133 134//134 135//135
f 134//134 133//133 136//136
f 136//136 133//133 137//137
f 138//138 137//137 133//133
f 137//137 138//138 139//139
f 140//140 133//133 141//141
f 133//133 140//140 138//138
f 142//142 143//143 144//144
f 135//135 143//143 142//142
f 135//135 145//145 143//143
f 145//145 135//135 134//134
f 146//146 147//147 148//148
f 147//147 146//146 149//149
f 150//150 151//151 152//152
f 151//151 150//150 153//153
f 154//154 119//119 128//128
f 155//155 128//128 124//124
f 156//156 124//124 130//130
f 154//154 128//128 155//155
f 119//119 154//154 120//120
f 124//124 156//156 155//155
f 130//130 157//157 156//156
f 113//113 157//157 130//130
f 113//113 158//158 157//157
f 112//112 158//158 113//113
f 112//112 159//159 158//158
f 112//112 160//160 159//159
f 148//148 160//160 112//112
f 148//148 161//161 160//160
f 147//147 161//161 148//148
f 161//161 147//147 162//162
f 163//163 162//162 147//147
f 162//162 163//163 164//164
f 165//165 164//164 163//163
f 164//164 165//165 166//166
f 167//167 142//142 168//168
f 142//142 167//167 135//135
f 135//135 169//169 133//133
f 135//135 167//167 169//169
f 170//170 133//133 169//169
f 133//133 170//170 141//141
f 171//171 141//141 170//170
f 171//171 116//116 141//141
f 172//172 116//116 171//171
f 173//173 116//116 172//172
f 173//173 117//117 116//116
f 174//174 117//117 173//173
f 174//174 175//175 117//117
f 176//176 175//175 174//174
f 177//177 176//176 178//178
f 153//153 178//178 179//179
f 176//176 177//177 175//175
f 151//151 179//179 180//180
f 181//181 180//180 182//182
f 183//183 166//166 165//165
f 178//178 153//153 177//177
f 166//166 183//183 182//182
f 179//179 151//151 153//153
f 184//184 182//182 183//183
f 180//180 181//181 151//151
f 182//182 184//184 181//181
f 123//123 130//130 124//124
f 130//130 123//123 129//129
f 118//118 141//141 116//116
f 141//141 118//118 140//140
f 142//142 144//144 168//168
f 114//114 148//148 112//112
f 148//148 114//114 146//146
f 185//185 183//183 186//186
f 183//183 185//185 184//184
f 187//187 163//163 188//188
f 163//163 187//187 165//165
f 152//152 181//181 189//189
f 181//181 152//152 151//151
f 150//150 177//177 153//153
f 177//177 150//150 190//190
f 191//191 117//117 175//175
f 117//117 191//191 115//115
f 186//186 165//165 187//187
f 165//165 186//186 183//183
f 149//149 163//163 147//147
f 163//163 149//149 188//188
f 189//189 184//184 185//185
f 184//184 189//189 181//181
f 190//190 175//175 177//177
f 175//175 190//190 191//191
f 192//192 138//138 140//140
f 192//192 140//140 118//118
f 192//192 118//118 115//115
f 138//138 192//192 139//139
f 191//191 192//192 115//115
f 192//192 193//193 194//194
f 192//192 191//191 193//193
f 191//191 195//195 193//193
f 190//190 195//195 191//191
f 195//195 190//190 196//196
f 150//150 196//196 190//190
f 196//196 150//150 197//197
f 152//152 197//197 150//150
f 197//197 152//152 198//198
f 199//199 200//200 201//201
f 146//146 200//200 199//199
f 200//200 146//146 114//114
f 202//202 146//146 199//199
f 149//149 202//202 203//203
f 188//188 203//203 204//204
f 202//202 149//149 146//146
f 187//187 204//204 205//205
f 186//186 205//205 206//206
f 189//189 198//198 152//152
f 203//203 188//188 149//149
f 198//198 189//189 206//206
f 204//204 187//187 188//188
f 185//185 206//206 189//189
f 205//205 186//186 187//187
f 206//206 185//185 186//186
f 200//200 123//123 125//125
f 123//123 200//200 129//129
f 129//129 200//200 111//111
f 111//111 200//200 114//114
f 159//159 207//207 158//158
f 207//207 159//159 208//208
f 209//209 173//173 172//172
f 173//173 209//209 210//210
f 180//180 206//206 182//182
f 206//206 180//180 198//198
f 157//157 211//211 156//156
f 157//157 212//212 211//211
f 212//212 157//157 213//213
f 158//158 213//213 157//157
f 213//213 158//158 207//207
f 214//214 156//156 211//211
f 155//155 214//214 215//215
f 214//214 155//155 156//156
f 216//216 169//169 217//217
f 216//216 170//170 169//169
f 170//170 216//216 218//218
f 218//218 171//171 170//170
f 219//219 171//171 218//218
f 171//171 219//219 220//220
f 169//169 167//167 217//217
f 203//203 161//161 162//162
f 161//161 203//203 202//202
f 178//178 197//197 179//179
f 197//197 178//178 196//196
f 155//155 215//215 154//154
f 220//220 172//172 171//171
f 172//172 220//220 209//209
f 182//182 205//205 166//166
f 205//205 182//182 206//206
f 164//164 203//203 162//162
f 203//203 164//164 204//204
f 179//179 198//198 180//180
f 198//198 179//179 197//197
f 195//195 178//178 176//176
f 178//178 195//195 196//196
f 210//210 174//174 173//173
f 193//193 210//210 194//194
f 210//210 193//193 174//174
f 166//166 204//204 164//164
f 204//204 166//166 205//205
f 202//202 160//160 161//161
f 160//160 202//202 199//199
f 160//160 208//208 159//159
f 199//199 208//208 160//160
f 208//208 199//199 201//201
f 193//193 176//176 174//174
f 176//176 193//193 195//195
f 221//221 222//222 223//223
f 222//222 221//221 224//224
f 225//225 226//226 227//227
f 226//226 225//225 228//228
f 229//229 230//230 231//231
f 230//230 229//229 232//232
f 233//233 234//234 235//235
f 234//234 233//233 236//236
f 237//237 238//238 239//239
f 238//238 237//237 240//240
f 241//241 242//242 243//243
f 242//242 241//241 244//244
f 221//221 245//245 224//224
f 245//245 221//221 246//246
f 226//226 247//247 248//248
f 247//247 226//226 228//228
f 246//246 249//249 245//245
f 249//249 246//246 250//250
f 248//248 251//251 252//252
f 251//251 248//248 247//247
f 253//253 250//250 254//254
f 250//250 253//253 249//249
f 255//255 252//252 251//251
f 252//252 255//255 256//256
f 257//257 231//231 258//258
f 231//231 257//257 229//229
f 259//259 236//236 233//233
f 236//236 259//259 260//260
f 239//239 261//261 262//262
f 261//261 239//239 238//238
f 263//263 243//243 264//264
f 243//243 263//263 241//241
f 262//262 253//253 254//254
f 253//253 262//262 261//261
f 264//264 255//255 263//263
f 255//255 264//264 256//256
f 223//223 265//265 266//266
f 265//265 223//223 222//222
f 267//267 227//227 268//268
f 227//227 267//267 225//225
f 230//230 266//266 265//265
f 266//266 230//230 232//232
f 234//234 268//268 235//235
f 268//268 234//234 267//267
f 229//229 266//266 232//232
f 257//257 266//266 229//229
f 257//257 223//223 266//266
f 237//237 223//223 257//257
f 237//237 221//221 223//223
f 239//239 221//221 237//237
f 239//239 246//246 221//221
f 262//262 246//246 239//239
f 262//262 250//250 246//246
f 250//250 262//262 254//254
f 237//237 258//258 240//240
f 258//258 237//237 257//257
f 242//242 260//260 259//259
f 260//260 242//242 244//244
f 268//268 233//233 235//235
f 227//227 233//233 268//268
f 227//227 259//259 233//233
f 226//226 259//259 227//227
f 226//226 242//242 259//259
f 248//248 242//242 226//226
f 248//248 243//243 242//242
f 252//252 243//243 248//248
f 252//252 264//264 243//243
f 264//264 252//252 256//256
f 269//269 122//122 270//270
f 122//122 269//269 125//125
f 271//271 125//125 269//269
f 125//125 271//271 200//200
f 234//234 272//272 273//273
f 236//236 272//272 234//234
f 260//260 272//272 236//236
f 244//244 272//272 260//260
f 274//274 255//255 275//275
f 255//255 274//274 263//263
f 263//263 274//274 241//241
f 244//244 274//274 272//272
f 241//241 274//274 244//244
f 230//230 276//276 277//277
f 265//265 276//276 230//230
f 222//222 276//276 265//265
f 224//224 276//276 222//222
f 278//278 253//253 279//279
f 253//253 278//278 249//249
f 249//249 278//278 245//245
f 224//224 278//278 276//276
f 245//245 278//278 224//224
f 280//280 17//17 16//16
f 21//21 280//280 281//281
f 280//280 21//21 17//17
f 282//282 97//97 102//102
f 282//282 102//102 101//101
f 97//97 282//282 98//98
f 283//283 211//211 212//212
f 283//283 212//212 284//284
f 211//211 283//283 214//214
f 285//285 132//132 286//286
f 132//132 285//285 131//131
f 287//287 145//145 134//134
f 287//287 134//134 136//136
f 145//145 287//287 288//288
f 289//289 220//220 219//219
f 289//289 209//209 220//220
f 209//209 289//289 210//210
f 290//290 136//136 137//137
f 136//136 290//290 287//287
f 291//291 218//218 216//216
f 218//218 291//291 219//219
f 219//219 291//291 289//289
f 143//143 288//288 292//292
f 288//288 143//143 145//145
f 293//293 32//32 294//294
f 32//32 293//293 35//35
f 295//295 108//108 109//109
f 295//295 109//109 296//296
f 108//108 295//295 106//106
f 297//297 131//131 285//285
f 131//131 297//297 127//127
f 127//127 297//297 126//126
f 213//213 284//284 212//212
f 207//207 284//284 213//213
f 284//284 207//207 208//208
f 270//270 126//126 297//297
f 126//126 270//270 122//122
f 298//298 234//234 273//273
f 298//298 267//267 234//234
f 298//298 225//225 267//267
f 298//298 228//228 225//225
f 299//299 228//228 298//298
f 299//299 247//247 228//228
f 299//299 251//251 247//247
f 299//299 255//255 251//251
f 255//255 299//299 275//275
f 286//286 120//120 298//298
f 286//286 121//121 120//120
f 121//121 286//286 132//132
f 299//299 120//120 154//154
f 214//214 154//154 215//215
f 299//299 214//214 283//283
f 120//120 299//299 298//298
f 214//214 299//299 154//154
f 300//300 55//55 54//54
f 55//55 300//300 194//194
f 194//194 300//300 192//192
f 282//282 46//46 98//98
f 301//301 46//46 282//282
f 278//278 46//46 301//301
f 194//194 201//201 55//55
f 279//279 46//46 278//278
f 275//275 201//201 194//194
f 46//46 55//55 201//201
f 201//201 284//284 208//208
f 46//46 279//279 55//55
f 201//201 283//283 284//284
f 55//55 279//279 302//302
f 201//201 299//299 283//283
f 55//55 302//302 295//295
f 201//201 275//275 299//299
f 55//55 295//295 296//296
f 275//275 194//194 274//274
f 55//55 296//296 100//100
f 274//274 194//194 291//291
f 291//291 194//194 289//289
f 289//289 194//194 210//210
f 46//46 271//271 44//44
f 201//201 271//271 46//46
f 271//271 201//201 200//200
f 192//192 300//300 139//139
f 303//303 137//137 139//139
f 303//303 139//139 300//300
f 137//137 303//303 290//290
f 304//304 305//305 306//306
f 305//305 304//304 307//307
f 308//308 309//309 310//310
f 308//308 311//311 309//309
f 308//308 312//312 311//311
f 308//308 313//313 312//312
f 281//281 313//313 308//308
f 313//313 281//281 314//314
f 315//315 316//316 317//317
f 280//280 314//314 281//281
f 316//316 315//315 269//269
f 317//317 280//280 315//315
f 314//314 280//280 317//317
f 308//308 318//318 281//281
f 308//308 276//276 318//318
f 308//308 277//277 276//276
f 319//319 277//277 308//308
f 277//277 319//319 320//320
f 321//321 322//322 303//303
f 323//323 321//321 324//324
f 325//325 324//324 293//293
f 319//319 293//293 294//294
f 320//320 319//319 294//294
f 321//321 323//323 322//322
f 293//293 319//319 326//326
f 324//324 325//325 323//323
f 293//293 326//326 325//325
f 326//326 319//319 327//327
f 327//327 319//319 328//328
f 329//329 310//310 309//309
f 330//330 310//310 329//329
f 331//331 310//310 330//330
f 285//285 331//331 332//332
f 297//297 332//332 333//333
f 270//270 316//316 269//269
f 316//316 270//270 333//333
f 297//297 333//333 270//270
f 332//332 297//297 285//285
f 331//331 285//285 310//310
f 286//286 310//310 285//285
f 298//298 310//310 286//286
f 273//273 310//310 298//298
f 334//334 273//273 272//272
f 334//334 272//272 292//292
f 322//322 290//290 303//303
f 335//335 290//290 322//322
f 290//290 335//335 287//287
f 336//336 287//287 335//335
f 287//287 336//336 288//288
f 337//337 288//288 336//336
f 334//334 288//288 337//337
f 288//288 334//334 292//292
f 334//334 337//337 338//338
f 273//273 334//334 310//310
f 334//334 338//338 339//339
f 272//272 168//168 292//292
f 274//274 168//168 272//272
f 167//167 216//216 217//217
f 168//168 274//274 167//167
f 274//274 216//216 167//167
f 216//216 274//274 291//291
f 144//144 292//292 168//168
f 292//292 144//144 143//143
f 269//269 14//14 271//271
f 12//12 269//269 315//315
f 269//269 12//12 14//14
f 271//271 14//14 44//44
f 25//25 321//321 26//26
f 321//321 25//25 324//324
f 16//16 315//315 280//280
f 315//315 16//16 12//12
f 28//28 300//300 54//54
f 300//300 28//28 303//303
f 26//26 303//303 28//28
f 303//303 26//26 321//321
f 22//22 281//281 318//318
f 281//281 22//22 21//21
f 301//301 103//103 104//104
f 103//103 301//301 101//101
f 101//101 301//301 282//282
f 276//276 10//10 318//318
f 278//278 10//10 276//276
f 85//85 104//104 105//105
f 10//10 278//278 85//85
f 278//278 104//104 85//85
f 104//104 278//278 301//301
f 9//9 318//318 10//10
f 318//318 9//9 22//22
f 294//294 66//66 320//320
f 294//294 34//34 66//66
f 34//34 294//294 32//32
f 302//302 66//66 74//74
f 106//106 74//74 107//107
f 302//302 106//106 295//295
f 66//66 302//302 320//320
f 106//106 302//302 74//74
f 320//320 230//230 277//277
f 320//320 231//231 230//230
f 320//320 258//258 231//231
f 320//320 240//240 258//258
f 302//302 240//240 320//320
f 302//302 238//238 240//240
f 302//302 261//261 238//238
f 302//302 253//253 261//261
f 253//253 302//302 279//279
f 24//24 324//324 25//25
f 35//35 324//324 24//24
f 324//324 35//35 293//293
f 296//296 99//99 100//100
f 99//99 296//296 110//110
f 110//110 296//296 109//109
f 304//304 340//340 307//307
f 340//340 304//304 341//341
f 342//342 343//343 344//344
f 342//342 345//345 343//343
f 342//342 346//346 345//345
f 342//342 347//347 346//346
f 342//342 348//348 347//347
f 349//349 348//348 342//342
f 350//350 351//351 352//352
f 348//348 349//349 350//350
f 350//350 353//353 351//351
f 350//350 349//349 353//353
f 353//353 349//349 354//354
f 354//354 349//349 355//355
f 356//356 344//344 343//343
f 357//357 344//344 356//356
f 358//358 344//344 357//357
f 359//359 344//344 358//358
f 360//360 359//359 361//361
f 351//351 361//361 352//352
f 362//362 361//361 351//351
f 360//360 361//361 362//362
f 360//360 362//362 363//363
f 360//360 363//363 364//364
f 359//359 360//360 344//344
f 344//344 310//310 342//342
f 310//310 344//344 308//308
f 342//342 365//365 349//349
f 310//310 365//365 342//342
f 334//334 365//365 310//310
f 365//365 334//334 366//366
f 305//305 340//340 367//367
f 340//340 305//305 307//307
f 368//368 319//319 369//369
f 369//369 344//344 360//360
f 308//308 369//369 319//319
f 369//369 308//308 344//344
f 304//304 370//370 341//341
f 370//370 304//304 306//306
f 371//371 372//372 373//373
f 372//372 371//371 374//374
f 375//375 376//376 377//377
f 375//375 378//378 376//376
f 378//378 372//372 379//379
f 372//372 378//378 375//375
f 380//380 377//377 376//376
f 379//379 377//377 380//380
f 379//379 374//374 377//377
f 374//374 379//379 372//372
f 381//381 382//382 383//383
f 382//382 381//381 384//384
f 383//383 349//349 385//385
f 383//383 386//386 349//349
f 383//383 387//387 386//386
f 387//387 360//360 364//364
f 382//382 387//387 383//383
f 387//387 382//382 360//360
f 388//388 360//360 382//382
f 360//360 388//388 369//369
f 385//385 349//349 365//365
f 349//349 386//386 355//355
f 389//389 341//341 370//370
f 341//341 371//371 340//340
f 371//371 341//341 389//389
f 340//340 390//390 367//367
f 373//373 340//340 371//371
f 340//340 373//373 390//390
f 366//366 385//385 365//365
f 385//385 366//366 391//391
f 392//392 369//369 388//388
f 369//369 392//392 368//368
f 374//374 371//371 377//377
f 377//377 393//393 394//394
f 389//389 377//377 371//371
f 395//395 377//377 389//389
f 395//395 389//389 396//396
f 377//377 395//395 393//393
f 397//397 375//375 398//398
f 375//375 390//390 372//372
f 399//399 375//375 397//397
f 375//375 399//399 390//390
f 390//390 399//399 400//400
f 372//372 390//390 373//373
f 379//379 401//401 378//378
f 401//401 379//379 402//402
f 403//403 376//376 404//404
f 376//376 403//403 380//380
f 401//401 403//403 404//404
f 403//403 401//401 402//402
f 403//403 379//379 380//380
f 379//379 403//403 402//402
f 401//401 376//376 378//378
f 376//376 401//401 404//404
f 400//400 305//305 390//390
f 400//400 306//306 305//305
f 396//396 306//306 400//400
f 389//389 306//306 396//396
f 306//306 389//389 370//370
f 390//390 305//305 367//367
f 375//375 405//405 398//398
f 375//375 406//406 405//405
f 377//377 406//406 375//375
f 406//406 377//377 394//394
f 407//407 393//393 408//408
f 394//394 407//407 406//406
f 407//407 394//394 393//393
f 397//397 409//409 410//410
f 398//398 409//409 397//397
f 409//409 398//398 405//405
f 407//407 411//411 408//408
f 411//411 407//407 412//412
f 413//413 410//410 414//414
f 410//410 413//413 409//409
f 415//415 405//405 406//406
f 405//405 415//415 416//416
f 408//408 393//393 417//417
f 418//418 397//397 410//410
f 397//397 418//418 399//399
f 417//417 399//399 418//418
f 417//417 395//395 399//399
f 395//395 417//417 393//393
f 396//396 399//399 395//395
f 399//399 396//396 400//400
f 368//368 392//392 319//319
f 328//328 319//319 419//419
f 334//334 391//391 366//366
f 391//391 334//334 420//420
f 421//421 334//334 339//339
f 334//334 421//421 420//420
f 419//419 420//420 421//421
f 422//422 419//419 319//319
f 422//422 319//319 392//392
f 419//419 422//422 420//420
f 423//423 424//424 413//413
f 413//413 381//381 409//409
f 412//412 413//413 424//424
f 413//413 412//412 381//381
f 384//384 412//412 407//407
f 412//412 384//384 381//381
f 391//391 420//420 385//385
f 383//383 409//409 381//381
f 409//409 383//383 410//410
f 418//418 383//383 385//385
f 418//418 385//385 420//420
f 383//383 418//418 410//410
f 420//420 417//417 418//418
f 417//417 420//420 422//422
f 408//408 382//382 407//407
f 417//417 382//382 408//408
f 382//382 417//417 388//388
f 422//422 388//388 417//417
f 388//388 422//422 392//392
f 407//407 382//382 384//384
f 425//425 411//411 426//426
f 411//411 425//425 408//408
f 427//427 410//410 428//428
f 410//410 427//427 414//414
f 429//429 430//430 431//431
f 430//430 429//429 432//432
f 409//409 428//428 410//410
f 428//428 409//409 433//433
f 405//405 433//433 409//409
f 433//433 405//405 416//416
f 416//416 429//429 431//431
f 429//429 416//416 415//415
f 428//428 423//423 427//427
f 430//430 423//423 433//433
f 433//433 423//423 428//428
f 424//424 425//425 426//426
f 424//424 434//434 425//425
f 423//423 430//430 424//424
f 432//432 424//424 430//430
f 424//424 432//432 434//434
f 433//433 431//431 430//430
f 431//431 433//433 416//416
f 429//429 434//434 432//432
f 434//434 429//429 415//415
f 406//406 434//434 415//415
f 407//407 434//434 406//406
f 434//434 407//407 425//425
f 425//425 407//407 408//408
f 411//411 424//424 426//426
f 424//424 411//411 412//412
f 413//413 427//427 423//423
f 427//427 413//413 414//414
f 322//322 435//435 335//335
f 435//435 322//322 436//436
f 437//437 353//353 438//438
f 353//353 437//437 351//351
f 364//364 439//439 387//387
f 439//439 364//364 363//363
f 440//440 325//325 326//326
f 325//325 440//440 441//441
f 442//442 338//338 337//337
f 338//338 442//442 443//443
f 443//443 339//339 338//338
f 339//339 443//443 421//421
f 444//444 337//337 336//336
f 337//337 444//444 442//442
f 354//354 386//386 445//445
f 386//386 354//354 355//355
f 335//335 444//444 336//336
f 444//444 335//335 435//435
f 438//438 354//354 445//445
f 354//354 438//438 353//353
f 419//419 436//436 446//446
f 419//419 446//446 441//441
f 436//436 419//419 435//435
f 419//419 441//441 440//440
f 421//421 435//435 419//419
f 419//419 440//440 447//447
f 435//435 421//421 444//444
f 444//444 421//421 442//442
f 442//442 421//421 443//443
f 438//438 448//448 437//437
f 445//445 448//448 438//438
f 445//445 439//439 448//448
f 386//386 439//439 445//445
f 439//439 386//386 387//387
f 448//448 351//351 437//437
f 351//351 448//448 362//362
f 323//323 436//436 322//322
f 436//436 323//323 446//446
f 325//325 446//446 323//323
f 446//446 325//325 441//441
f 439//439 362//362 448//448
f 362//362 439//439 363//363
f 447//447 326//326 327//327
f 326//326 447//447 440//440
f 419//419 327//327 328//328
f 327//327 419//419 447//447
f 449//449 345//345 450//450
f 345//345 449//449 343//343
f 309//309 451//451 329//329
f 451//451 309//309 452//452
f 358//358 453//453 454//454
f 453//453 358//358 357//357
f 455//455 312//312 313//313
f 312//312 455//455 456//456
f 457//457 332//332 331//331
f 332//332 457//457 458//458
f 347//347 459//459 460//460
f 459//459 347//347 348//348
f 461//461 332//332 458//458
f 332//332 461//461 333//333
f 350//350 459//459 348//348
f 459//459 350//350 462//462
f 346//346 460//460 463//463
f 460//460 346//346 347//347
f 464//464 331//331 330//330
f 331//331 464//464 457//457
f 450//450 346//346 463//463
f 346//346 450//450 345//345
f 329//329 464//464 330//330
f 464//464 329//329 451//451
f 465//465 451//451 452//452
f 456//456 451//451 465//465
f 456//456 464//464 451//451
f 455//455 464//464 456//456
f 455//455 457//457 464//464
f 466//466 457//457 455//455
f 466//466 458//458 457//457
f 467//467 458//458 466//466
f 467//467 461//461 458//458
f 461//461 467//467 468//468
f 468//468 333//333 461//461
f 333//333 468//468 316//316
f 352//352 462//462 350//350
f 462//462 352//352 469//469
f 450//450 470//470 449//449
f 463//463 470//470 450//450
f 463//463 453//453 470//470
f 460//460 453//453 463//463
f 460//460 454//454 453//453
f 459//459 454//454 460//460
f 459//459 471//471 454//454
f 462//462 471//471 459//459
f 462//462 472//472 471//471
f 472//472 462//462 469//469
f 311//311 452//452 309//309
f 452//452 311//311 465//465
f 470//470 343//343 449//449
f 343//343 470//470 356//356
f 312//312 465//465 311//311
f 465//465 312//312 456//456
f 453//453 356//356 470//470
f 356//356 453//453 357//357
f 467//467 316//316 468//468
f 316//316 467//467 317//317
f 361//361 469//469 352//352
f 469//469 361//361 472//472
f 359//359 454//454 471//471
f 454//454 359//359 358//358
f 466//466 313//313 314//314
f 313//313 466//466 455//455
f 359//359 472//472 361//361
f 472//472 359//359 471//471
f 466//466 317//317 467//467
f 317//317 466//466 314//314
