solid OpenSCAD_Model
  facet normal -1 0 0
    outer loop
      vertex -32 -5 40
      vertex -32 -1 45
      vertex -32 -1 40
    endloop
  endfacet
  facet normal -1 -0 0
    outer loop
      vertex -32 -1 45
      vertex -32 -5 40
      vertex -32 -5 45
    endloop
  endfacet
  facet normal -0 0 1
    outer loop
      vertex -32 -1 45
      vertex -28 -5 45
      vertex -28 -1 45
    endloop
  endfacet
  facet normal 0 0 1
    outer loop
      vertex -28 -5 45
      vertex -32 -1 45
      vertex -32 -5 45
    endloop
  endfacet
  facet normal 1 -0 0
    outer loop
      vertex -28 -5 45
      vertex -28 -1 40
      vertex -28 -1 45
    endloop
  endfacet
  facet normal 1 0 0
    outer loop
      vertex -28 -1 40
      vertex -28 -5 45
      vertex -28 -5 40
    endloop
  endfacet
  facet normal 0 1 0
    outer loop
      vertex -28 -1 45
      vertex -30 -1 44
      vertex -32 -1 45
    endloop
  endfacet
  facet normal 0 1 0
    outer loop
      vertex -28 -1 45
      vertex -29.25 -1 43.799
      vertex -30 -1 44
    endloop
  endfacet
  facet normal 0 1 0
    outer loop
      vertex -28 -1 45
      vertex -28.701 -1 43.25
      vertex -29.25 -1 43.799
    endloop
  endfacet
  facet normal 0 1 0
    outer loop
      vertex -28 -1 45
      vertex -28.5 -1 42.5
      vertex -28.701 -1 43.25
    endloop
  endfacet
  facet normal 0 1 0
    outer loop
      vertex -29.25 -1 41.201
      vertex -28 -1 40
      vertex -30 -1 41
    endloop
  endfacet
  facet normal 0 1 0
    outer loop
      vertex -28.701 -1 41.75
      vertex -28 -1 40
      vertex -29.25 -1 41.201
    endloop
  endfacet
  facet normal 0 1 0
    outer loop
      vertex -28.5 -1 42.5
      vertex -28 -1 40
      vertex -28.701 -1 41.75
    endloop
  endfacet
  facet normal 0 1 -0
    outer loop
      vertex -28 -1 40
      vertex -28.5 -1 42.5
      vertex -28 -1 45
    endloop
  endfacet
  facet normal 0 1 -0
    outer loop
      vertex -30.75 -1 43.799
      vertex -32 -1 45
      vertex -30 -1 44
    endloop
  endfacet
  facet normal 0 1 -0
    outer loop
      vertex -31.299 -1 43.25
      vertex -32 -1 45
      vertex -30.75 -1 43.799
    endloop
  endfacet
  facet normal 0 1 -0
    outer loop
      vertex -31.5 -1 42.5
      vertex -32 -1 45
      vertex -31.299 -1 43.25
    endloop
  endfacet
  facet normal 0 1 0
    outer loop
      vertex -32 -1 40
      vertex -30 -1 41
      vertex -28 -1 40
    endloop
  endfacet
  facet normal 0 1 0
    outer loop
      vertex -31.5 -1 42.5
      vertex -32 -1 40
      vertex -32 -1 45
    endloop
  endfacet
  facet normal 0 1 0
    outer loop
      vertex -31.299 -1 41.75
      vertex -32 -1 40
      vertex -31.5 -1 42.5
    endloop
  endfacet
  facet normal 0 1 0
    outer loop
      vertex -30.75 -1 41.201
      vertex -32 -1 40
      vertex -31.299 -1 41.75
    endloop
  endfacet
  facet normal 0 1 0
    outer loop
      vertex -30 -1 41
      vertex -32 -1 40
      vertex -30.75 -1 41.201
    endloop
  endfacet
  facet normal 0 0 -1
    outer loop
      vertex -28 -5 40
      vertex -28.5 -4.5 40
      vertex -28 -1 40
    endloop
  endfacet
  facet normal 0 0 -1
    outer loop
      vertex -28 -5 40
      vertex -31.5 -4.5 40
      vertex -28.5 -4.5 40
    endloop
  endfacet
  facet normal -0 0 -1
    outer loop
      vertex -31.5 -4.5 40
      vertex -32 -5 40
      vertex -31.5 -1.5 40
    endloop
  endfacet
  facet normal 0 0 -1
    outer loop
      vertex -32 -5 40
      vertex -31.5 -4.5 40
      vertex -28 -5 40
    endloop
  endfacet
  facet normal 0 0 -1
    outer loop
      vertex -28.5 -1.5 40
      vertex -28 -1 40
      vertex -28.5 -4.5 40
    endloop
  endfacet
  facet normal 0 0 -1
    outer loop
      vertex -31.5 -1.5 40
      vertex -28 -1 40
      vertex -28.5 -1.5 40
    endloop
  endfacet
  facet normal 0 0 -1
    outer loop
      vertex -31.5 -1.5 40
      vertex -32 -1 40
      vertex -28 -1 40
    endloop
  endfacet
  facet normal 0 0 -1
    outer loop
      vertex -32 -1 40
      vertex -31.5 -1.5 40
      vertex -32 -5 40
    endloop
  endfacet
  facet normal 0 -1 0
    outer loop
      vertex -32 -5 45
      vertex -30 -5 44
      vertex -28 -5 45
    endloop
  endfacet
  facet normal 0 -1 0
    outer loop
      vertex -32 -5 45
      vertex -30.75 -5 43.799
      vertex -30 -5 44
    endloop
  endfacet
  facet normal 0 -1 0
    outer loop
      vertex -32 -5 45
      vertex -31.299 -5 43.25
      vertex -30.75 -5 43.799
    endloop
  endfacet
  facet normal 0 -1 0
    outer loop
      vertex -32 -5 45
      vertex -31.5 -5 42.5
      vertex -31.299 -5 43.25
    endloop
  endfacet
  facet normal 0 -1 -0
    outer loop
      vertex -30.75 -5 41.201
      vertex -32 -5 40
      vertex -30 -5 41
    endloop
  endfacet
  facet normal 0 -1 -0
    outer loop
      vertex -31.299 -5 41.75
      vertex -32 -5 40
      vertex -30.75 -5 41.201
    endloop
  endfacet
  facet normal 0 -1 -0
    outer loop
      vertex -31.5 -5 42.5
      vertex -32 -5 40
      vertex -31.299 -5 41.75
    endloop
  endfacet
  facet normal 0 -1 0
    outer loop
      vertex -32 -5 40
      vertex -31.5 -5 42.5
      vertex -32 -5 45
    endloop
  endfacet
  facet normal 0 -1 0
    outer loop
      vertex -29.25 -5 43.799
      vertex -28 -5 45
      vertex -30 -5 44
    endloop
  endfacet
  facet normal 0 -1 0
    outer loop
      vertex -28.701 -5 43.25
      vertex -28 -5 45
      vertex -29.25 -5 43.799
    endloop
  endfacet
  facet normal 0 -1 0
    outer loop
      vertex -28.5 -5 42.5
      vertex -28 -5 45
      vertex -28.701 -5 43.25
    endloop
  endfacet
  facet normal 0 -1 0
    outer loop
      vertex -28 -5 40
      vertex -30 -5 41
      vertex -32 -5 40
    endloop
  endfacet
  facet normal 0 -1 0
    outer loop
      vertex -28.5 -5 42.5
      vertex -28 -5 40
      vertex -28 -5 45
    endloop
  endfacet
  facet normal 0 -1 0
    outer loop
      vertex -28.701 -5 41.75
      vertex -28 -5 40
      vertex -28.5 -5 42.5
    endloop
  endfacet
  facet normal 0 -1 0
    outer loop
      vertex -29.25 -5 41.201
      vertex -28 -5 40
      vertex -28.701 -5 41.75
    endloop
  endfacet
  facet normal 0 -1 0
    outer loop
      vertex -30 -5 41
      vertex -28 -5 40
      vertex -29.25 -5 41.201
    endloop
  endfacet
  facet normal -1 0 0
    outer loop
      vertex -32 1 40
      vertex -32 5 45
      vertex -32 5 40
    endloop
  endfacet
  facet normal -1 -0 0
    outer loop
      vertex -32 5 45
      vertex -32 1 40
      vertex -32 1 45
    endloop
  endfacet
  facet normal -0 0 1
    outer loop
      vertex -32 5 45
      vertex -28 1 45
      vertex -28 5 45
    endloop
  endfacet
  facet normal 0 0 1
    outer loop
      vertex -28 1 45
      vertex -32 5 45
      vertex -32 1 45
    endloop
  endfacet
  facet normal 1 -0 0
    outer loop
      vertex -28 1 45
      vertex -28 5 40
      vertex -28 5 45
    endloop
  endfacet
  facet normal 1 0 0
    outer loop
      vertex -28 5 40
      vertex -28 1 45
      vertex -28 1 40
    endloop
  endfacet
  facet normal 0 1 0
    outer loop
      vertex -28 5 45
      vertex -30 5 44
      vertex -32 5 45
    endloop
  endfacet
  facet normal 0 1 0
    outer loop
      vertex -28 5 45
      vertex -29.25 5 43.799
      vertex -30 5 44
    endloop
  endfacet
  facet normal 0 1 0
    outer loop
      vertex -28 5 45
      vertex -28.701 5 43.25
      vertex -29.25 5 43.799
    endloop
  endfacet
  facet normal 0 1 0
    outer loop
      vertex -28 5 45
      vertex -28.5 5 42.5
      vertex -28.701 5 43.25
    endloop
  endfacet
  facet normal 0 1 0
    outer loop
      vertex -29.25 5 41.201
      vertex -28 5 40
      vertex -30 5 41
    endloop
  endfacet
  facet normal 0 1 0
    outer loop
      vertex -28.701 5 41.75
      vertex -28 5 40
      vertex -29.25 5 41.201
    endloop
  endfacet
  facet normal 0 1 0
    outer loop
      vertex -28.5 5 42.5
      vertex -28 5 40
      vertex -28.701 5 41.75
    endloop
  endfacet
  facet normal 0 1 -0
    outer loop
      vertex -28 5 40
      vertex -28.5 5 42.5
      vertex -28 5 45
    endloop
  endfacet
  facet normal 0 1 -0
    outer loop
      vertex -30.75 5 43.799
      vertex -32 5 45
      vertex -30 5 44
    endloop
  endfacet
  facet normal 0 1 -0
    outer loop
      vertex -31.299 5 43.25
      vertex -32 5 45
      vertex -30.75 5 43.799
    endloop
  endfacet
  facet normal 0 1 -0
    outer loop
      vertex -31.5 5 42.5
      vertex -32 5 45
      vertex -31.299 5 43.25
    endloop
  endfacet
  facet normal 0 1 0
    outer loop
      vertex -32 5 40
      vertex -30 5 41
      vertex -28 5 40
    endloop
  endfacet
  facet normal 0 1 0
    outer loop
      vertex -31.5 5 42.5
      vertex -32 5 40
      vertex -32 5 45
    endloop
  endfacet
  facet normal 0 1 0
    outer loop
      vertex -31.299 5 41.75
      vertex -32 5 40
      vertex -31.5 5 42.5
    endloop
  endfacet
  facet normal 0 1 0
    outer loop
      vertex -30.75 5 41.201
      vertex -32 5 40
      vertex -31.299 5 41.75
    endloop
  endfacet
  facet normal 0 1 0
    outer loop
      vertex -30 5 41
      vertex -32 5 40
      vertex -30.75 5 41.201
    endloop
  endfacet
  facet normal 0 0 -1
    outer loop
      vertex -28 1 40
      vertex -28.5 1.5 40
      vertex -28 5 40
    endloop
  endfacet
  facet normal 0 0 -1
    outer loop
      vertex -28 1 40
      vertex -31.5 1.5 40
      vertex -28.5 1.5 40
    endloop
  endfacet
  facet normal -0 0 -1
    outer loop
      vertex -31.5 1.5 40
      vertex -32 1 40
      vertex -31.5 4.5 40
    endloop
  endfacet
  facet normal 0 0 -1
    outer loop
      vertex -32 1 40
      vertex -31.5 1.5 40
      vertex -28 1 40
    endloop
  endfacet
  facet normal 0 0 -1
    outer loop
      vertex -28.5 4.5 40
      vertex -28 5 40
      vertex -28.5 1.5 40
    endloop
  endfacet
  facet normal 0 0 -1
    outer loop
      vertex -31.5 4.5 40
      vertex -28 5 40
      vertex -28.5 4.5 40
    endloop
  endfacet
  facet normal 0 0 -1
    outer loop
      vertex -31.5 4.5 40
      vertex -32 5 40
      vertex -28 5 40
    endloop
  endfacet
  facet normal 0 0 -1
    outer loop
      vertex -32 5 40
      vertex -31.5 4.5 40
      vertex -32 1 40
    endloop
  endfacet
  facet normal 0 -1 0
    outer loop
      vertex -32 1 45
      vertex -30 1 44
      vertex -28 1 45
    endloop
  endfacet
  facet normal 0 -1 0
    outer loop
      vertex -32 1 45
      vertex -30.75 1 43.799
      vertex -30 1 44
    endloop
  endfacet
  facet normal 0 -1 0
    outer loop
      vertex -32 1 45
      vertex -31.299 1 43.25
      vertex -30.75 1 43.799
    endloop
  endfacet
  facet normal 0 -1 0
    outer loop
      vertex -32 1 45
      vertex -31.5 1 42.5
      vertex -31.299 1 43.25
    endloop
  endfacet
  facet normal 0 -1 -0
    outer loop
      vertex -30.75 1 41.201
      vertex -32 1 40
      vertex -30 1 41
    endloop
  endfacet
  facet normal 0 -1 -0
    outer loop
      vertex -31.299 1 41.75
      vertex -32 1 40
      vertex -30.75 1 41.201
    endloop
  endfacet
  facet normal 0 -1 -0
    outer loop
      vertex -31.5 1 42.5
      vertex -32 1 40
      vertex -31.299 1 41.75
    endloop
  endfacet
  facet normal 0 -1 0
    outer loop
      vertex -32 1 40
      vertex -31.5 1 42.5
      vertex -32 1 45
    endloop
  endfacet
  facet normal 0 -1 0
    outer loop
      vertex -29.25 1 43.799
      vertex -28 1 45
      vertex -30 1 44
    endloop
  endfacet
  facet normal 0 -1 0
    outer loop
      vertex -28.701 1 43.25
      vertex -28 1 45
      vertex -29.25 1 43.799
    endloop
  endfacet
  facet normal 0 -1 0
    outer loop
      vertex -28.5 1 42.5
      vertex -28 1 45
      vertex -28.701 1 43.25
    endloop
  endfacet
  facet normal 0 -1 0
    outer loop
      vertex -28 1 40
      vertex -30 1 41
      vertex -32 1 40
    endloop
  endfacet
  facet normal 0 -1 0
    outer loop
      vertex -28.5 1 42.5
      vertex -28 1 40
      vertex -28 1 45
    endloop
  endfacet
  facet normal 0 -1 0
    outer loop
      vertex -28.701 1 41.75
      vertex -28 1 40
      vertex -28.5 1 42.5
    endloop
  endfacet
  facet normal 0 -1 0
    outer loop
      vertex -29.25 1 41.201
      vertex -28 1 40
      vertex -28.701 1 41.75
    endloop
  endfacet
  facet normal 0 -1 0
    outer loop
      vertex -30 1 41
      vertex -28 1 40
      vertex -29.25 1 41.201
    endloop
  endfacet
  facet normal -1 0 0
    outer loop
      vertex -31.5 -4.5 32.5
      vertex -31.5 -1.5 40
      vertex -31.5 -1.5 32.5
    endloop
  endfacet
  facet normal -1 -0 0
    outer loop
      vertex -31.5 -1.5 40
      vertex -31.5 -4.5 32.5
      vertex -31.5 -4.5 40
    endloop
  endfacet
  facet normal 1 -0 0
    outer loop
      vertex -28.5 -4.5 40
      vertex -28.5 -1.5 26.5
      vertex -28.5 -1.5 40
    endloop
  endfacet
  facet normal 1 0 0
    outer loop
      vertex -28.5 -1.5 26.5
      vertex -28.5 -4.5 40
      vertex -28.5 -4.5 26.5
    endloop
  endfacet
  facet normal 0 0 -1
    outer loop
      vertex -28.5 -4.5 26.5
      vertex -29 -2 26.5
      vertex -28.5 -1.5 26.5
    endloop
  endfacet
  facet normal 0 0 -1
    outer loop
      vertex -29.5 -4.5 26.5
      vertex -29 -2 26.5
      vertex -28.5 -4.5 26.5
    endloop
  endfacet
  facet normal -0 0 -1
    outer loop
      vertex -29 -2 26.5
      vertex -29.5 -4.5 26.5
      vertex -29.5 -2 26.5
    endloop
  endfacet
  facet normal -0 0 -1
    outer loop
      vertex -28.5 -1.5 26.5
      vertex -29 -2 26.5
      vertex -29 -1.5 26.5
    endloop
  endfacet
  facet normal 0 -1 0
    outer loop
      vertex -29.5 -4.5 32.5
      vertex -31.5 -4.5 40
      vertex -31.5 -4.5 32.5
    endloop
  endfacet
  facet normal 0 -1 0
    outer loop
      vertex -31.5 -4.5 40
      vertex -29.5 -4.5 32.5
      vertex -28.5 -4.5 40
    endloop
  endfacet
  facet normal 0 -1 0
    outer loop
      vertex -28.5 -4.5 26.5
      vertex -29.5 -4.5 32.5
      vertex -29.5 -4.5 26.5
    endloop
  endfacet
  facet normal 0 -1 0
    outer loop
      vertex -29.5 -4.5 32.5
      vertex -28.5 -4.5 26.5
      vertex -28.5 -4.5 40
    endloop
  endfacet
  facet normal 0 1 0
    outer loop
      vertex -28.5 -1.5 40
      vertex -29.5 -1.5 32.5
      vertex -31.5 -1.5 40
    endloop
  endfacet
  facet normal 0 1 -0
    outer loop
      vertex -28.5 -1.5 26.5
      vertex -29.5 -1.5 32.5
      vertex -28.5 -1.5 40
    endloop
  endfacet
  facet normal 0 1 0
    outer loop
      vertex -29.5 -1.5 32.5
      vertex -28.5 -1.5 26.5
      vertex -29 -1.5 28
    endloop
  endfacet
  facet normal 0 1 0
    outer loop
      vertex -29 -1.5 28
      vertex -28.5 -1.5 26.5
      vertex -29 -1.5 26.5
    endloop
  endfacet
  facet normal 0 1 0
    outer loop
      vertex -31.5 -1.5 40
      vertex -29.5 -1.5 32.5
      vertex -31.5 -1.5 32.5
    endloop
  endfacet
  facet normal 0 1 0
    outer loop
      vertex -29.5 -1.5 32.5
      vertex -29 -1.5 28
      vertex -29.5 -1.5 28
    endloop
  endfacet
  facet normal -1 0 0
    outer loop
      vertex -31.5 1.5 32.5
      vertex -31.5 4.5 40
      vertex -31.5 4.5 32.5
    endloop
  endfacet
  facet normal -1 -0 0
    outer loop
      vertex -31.5 4.5 40
      vertex -31.5 1.5 32.5
      vertex -31.5 1.5 40
    endloop
  endfacet
  facet normal 1 -0 0
    outer loop
      vertex -28.5 1.5 40
      vertex -28.5 4.5 26.5
      vertex -28.5 4.5 40
    endloop
  endfacet
  facet normal 1 0 0
    outer loop
      vertex -28.5 4.5 26.5
      vertex -28.5 1.5 40
      vertex -28.5 1.5 26.5
    endloop
  endfacet
  facet normal 0 0 -1
    outer loop
      vertex -29 2 26.5
      vertex -28.5 1.5 26.5
      vertex -29 1.5 26.5
    endloop
  endfacet
  facet normal 0 0 -1
    outer loop
      vertex -28.5 1.5 26.5
      vertex -29 2 26.5
      vertex -28.5 4.5 26.5
    endloop
  endfacet
  facet normal 0 0 -1
    outer loop
      vertex -29.5 4.5 26.5
      vertex -29 2 26.5
      vertex -29.5 2 26.5
    endloop
  endfacet
  facet normal 0 0 -1
    outer loop
      vertex -29 2 26.5
      vertex -29.5 4.5 26.5
      vertex -28.5 4.5 26.5
    endloop
  endfacet
  facet normal 0 -1 0
    outer loop
      vertex -29.5 1.5 32.5
      vertex -31.5 1.5 40
      vertex -31.5 1.5 32.5
    endloop
  endfacet
  facet normal 0 -1 0
    outer loop
      vertex -31.5 1.5 40
      vertex -29.5 1.5 32.5
      vertex -28.5 1.5 40
    endloop
  endfacet
  facet normal 0 -1 0
    outer loop
      vertex -29 1.5 28
      vertex -29.5 1.5 32.5
      vertex -29.5 1.5 28
    endloop
  endfacet
  facet normal 0 -1 0
    outer loop
      vertex -28.5 1.5 26.5
      vertex -29.5 1.5 32.5
      vertex -29 1.5 28
    endloop
  endfacet
  facet normal 0 -1 0
    outer loop
      vertex -28.5 1.5 26.5
      vertex -29 1.5 28
      vertex -29 1.5 26.5
    endloop
  endfacet
  facet normal 0 -1 0
    outer loop
      vertex -29.5 1.5 32.5
      vertex -28.5 1.5 26.5
      vertex -28.5 1.5 40
    endloop
  endfacet
  facet normal 0 1 0
    outer loop
      vertex -28.5 4.5 40
      vertex -29.5 4.5 32.5
      vertex -31.5 4.5 40
    endloop
  endfacet
  facet normal 0 1 -0
    outer loop
      vertex -28.5 4.5 26.5
      vertex -29.5 4.5 32.5
      vertex -28.5 4.5 40
    endloop
  endfacet
  facet normal 0 1 0
    outer loop
      vertex -29.5 4.5 32.5
      vertex -28.5 4.5 26.5
      vertex -29.5 4.5 26.5
    endloop
  endfacet
  facet normal 0 1 0
    outer loop
      vertex -31.5 4.5 40
      vertex -29.5 4.5 32.5
      vertex -31.5 4.5 32.5
    endloop
  endfacet
  facet normal -0 0 1
    outer loop
      vertex -29.5 1.5 28
      vertex -29 -1.5 28
      vertex -29 1.5 28
    endloop
  endfacet
  facet normal 0 0 1
    outer loop
      vertex -29 -1.5 28
      vertex -29.5 1.5 28
      vertex -29.5 -1.5 28
    endloop
  endfacet
  facet normal 0 0 1
    outer loop
      vertex -30 17 28
      vertex -33.5 14 28
      vertex -30 14 28
    endloop
  endfacet
  facet normal 0 0 1
    outer loop
      vertex -33.5 14 28
      vertex -58 17 28
      vertex -33.5 -14 28
    endloop
  endfacet
  facet normal -0 0 1
    outer loop
      vertex -58 17 28
      vertex -33.5 14 28
      vertex -30 17 28
    endloop
  endfacet
  facet normal -0 0 1
    outer loop
      vertex -33.5 -14 28
      vertex -30 -17 28
      vertex -30 -14 28
    endloop
  endfacet
  facet normal 0 0 1
    outer loop
      vertex -33.5 -14 28
      vertex -58 -17 28
      vertex -30 -17 28
    endloop
  endfacet
  facet normal 0 0 1
    outer loop
      vertex -58 -17 28
      vertex -33.5 -14 28
      vertex -58 17 28
    endloop
  endfacet
  facet normal 1 0 0
    outer loop
      vertex -29 1.5 28
      vertex -29 -1.5 28
      vertex -29 1.5 26.5
    endloop
  endfacet
  facet normal 1 -0 0
    outer loop
      vertex -29 1.5 26.5
      vertex -29 2 25
      vertex -29 2 26.5
    endloop
  endfacet
  facet normal 1 0 0
    outer loop
      vertex -29 -1.5 26.5
      vertex -29 1.5 26.5
      vertex -29 -1.5 28
    endloop
  endfacet
  facet normal 1 0 0
    outer loop
      vertex -29 1.5 26.5
      vertex -29 -1.5 26.5
      vertex -29 2 25
    endloop
  endfacet
  facet normal 1 0 0
    outer loop
      vertex -29 -2 25
      vertex -29 -1.5 26.5
      vertex -29 -2 26.5
    endloop
  endfacet
  facet normal 1 0 0
    outer loop
      vertex -29 -1.5 26.5
      vertex -29 -2 25
      vertex -29 2 25
    endloop
  endfacet
  facet normal 0 1 0
    outer loop
      vertex -29 2 26.5
      vertex -29.5 2 25.5
      vertex -29.5 2 26.5
    endloop
  endfacet
  facet normal 0 1 -0
    outer loop
      vertex -29 2 25
      vertex -29.5 2 25.5
      vertex -29 2 26.5
    endloop
  endfacet
  facet normal 0 1 0
    outer loop
      vertex -30 2 25
      vertex -29.5 2 25.5
      vertex -29 2 25
    endloop
  endfacet
  facet normal 0 1 0
    outer loop
      vertex -29.5 2 25.5
      vertex -30 2 25
      vertex -30 2 25.5
    endloop
  endfacet
  facet normal 0 0 -1
    outer loop
      vertex -58 -17 25
      vertex -30 -2 25
      vertex -30 -17 25
    endloop
  endfacet
  facet normal -0 0 -1
    outer loop
      vertex -30 -2 25
      vertex -58 -17 25
      vertex -30 2 25
    endloop
  endfacet
  facet normal 0 0 -1
    outer loop
      vertex -58 17 25
      vertex -30 2 25
      vertex -58 -17 25
    endloop
  endfacet
  facet normal 0 0 -1
    outer loop
      vertex -30 2 25
      vertex -58 17 25
      vertex -30 17 25
    endloop
  endfacet
  facet normal 0 0 -1
    outer loop
      vertex -30 -2 25
      vertex -29 2 25
      vertex -29 -2 25
    endloop
  endfacet
  facet normal -0 0 -1
    outer loop
      vertex -29 2 25
      vertex -30 -2 25
      vertex -30 2 25
    endloop
  endfacet
  facet normal 0 -1 0
    outer loop
      vertex -30 -2 25.5
      vertex -30 -2 25
      vertex -29.5 -2 25.5
    endloop
  endfacet
  facet normal 0 -1 0
    outer loop
      vertex -29.5 -2 25.5
      vertex -29 -2 26.5
      vertex -29.5 -2 26.5
    endloop
  endfacet
  facet normal 0 -1 0
    outer loop
      vertex -29.5 -2 25.5
      vertex -29 -2 25
      vertex -29 -2 26.5
    endloop
  endfacet
  facet normal 0 -1 0
    outer loop
      vertex -29 -2 25
      vertex -29.5 -2 25.5
      vertex -30 -2 25
    endloop
  endfacet
  facet normal 0.965914 -0 0.258865
    outer loop
      vertex -28.701 5 43.25
      vertex -28.5 6 42.5
      vertex -28.701 6 43.25
    endloop
  endfacet
  facet normal 0.965914 0 0.258865
    outer loop
      vertex -28.5 6 42.5
      vertex -28.701 5 43.25
      vertex -28.5 5 42.5
    endloop
  endfacet
  facet normal 0.965914 -0 0.258865
    outer loop
      vertex -28.701 -6 43.25
      vertex -28.5 -5 42.5
      vertex -28.701 -5 43.25
    endloop
  endfacet
  facet normal 0.965914 0 0.258865
    outer loop
      vertex -28.5 -5 42.5
      vertex -28.701 -6 43.25
      vertex -28.5 -6 42.5
    endloop
  endfacet
  facet normal 0.965914 -0 0.258865
    outer loop
      vertex -28.701 -1 43.25
      vertex -28.5 1 42.5
      vertex -28.701 1 43.25
    endloop
  endfacet
  facet normal 0.965914 0 0.258865
    outer loop
      vertex -28.5 1 42.5
      vertex -28.701 -1 43.25
      vertex -28.5 -1 42.5
    endloop
  endfacet
  facet normal 0.707107 -0 0.707107
    outer loop
      vertex -29.25 5 43.799
      vertex -28.701 6 43.25
      vertex -29.25 6 43.799
    endloop
  endfacet
  facet normal 0.707107 0 0.707107
    outer loop
      vertex -28.701 6 43.25
      vertex -29.25 5 43.799
      vertex -28.701 5 43.25
    endloop
  endfacet
  facet normal 0.707107 -0 0.707107
    outer loop
      vertex -29.25 -6 43.799
      vertex -28.701 -5 43.25
      vertex -29.25 -5 43.799
    endloop
  endfacet
  facet normal 0.707107 0 0.707107
    outer loop
      vertex -28.701 -5 43.25
      vertex -29.25 -6 43.799
      vertex -28.701 -6 43.25
    endloop
  endfacet
  facet normal 0.707107 -0 0.707107
    outer loop
      vertex -29.25 -1 43.799
      vertex -28.701 1 43.25
      vertex -29.25 1 43.799
    endloop
  endfacet
  facet normal 0.707107 0 0.707107
    outer loop
      vertex -28.701 1 43.25
      vertex -29.25 -1 43.799
      vertex -28.701 -1 43.25
    endloop
  endfacet
  facet normal -0.965914 0 0.258865
    outer loop
      vertex -31.5 5 42.5
      vertex -31.299 6 43.25
      vertex -31.5 6 42.5
    endloop
  endfacet
  facet normal -0.965914 0 0.258865
    outer loop
      vertex -31.299 6 43.25
      vertex -31.5 5 42.5
      vertex -31.299 5 43.25
    endloop
  endfacet
  facet normal -0.965914 0 0.258865
    outer loop
      vertex -31.5 -6 42.5
      vertex -31.299 -5 43.25
      vertex -31.5 -5 42.5
    endloop
  endfacet
  facet normal -0.965914 0 0.258865
    outer loop
      vertex -31.299 -5 43.25
      vertex -31.5 -6 42.5
      vertex -31.299 -6 43.25
    endloop
  endfacet
  facet normal -0.965914 0 0.258865
    outer loop
      vertex -31.5 -1 42.5
      vertex -31.299 1 43.25
      vertex -31.5 1 42.5
    endloop
  endfacet
  facet normal -0.965914 0 0.258865
    outer loop
      vertex -31.299 1 43.25
      vertex -31.5 -1 42.5
      vertex -31.299 -1 43.25
    endloop
  endfacet
  facet normal 0.258865 0 0.965914
    outer loop
      vertex -30 6 44
      vertex -29.25 5 43.799
      vertex -29.25 6 43.799
    endloop
  endfacet
  facet normal 0.258865 0 0.965914
    outer loop
      vertex -29.25 5 43.799
      vertex -30 6 44
      vertex -30 5 44
    endloop
  endfacet
  facet normal 0.258865 0 0.965914
    outer loop
      vertex -30 -5 44
      vertex -29.25 -6 43.799
      vertex -29.25 -5 43.799
    endloop
  endfacet
  facet normal 0.258865 0 0.965914
    outer loop
      vertex -29.25 -6 43.799
      vertex -30 -5 44
      vertex -30 -6 44
    endloop
  endfacet
  facet normal 0.258865 0 0.965914
    outer loop
      vertex -30 1 44
      vertex -29.25 -1 43.799
      vertex -29.25 1 43.799
    endloop
  endfacet
  facet normal 0.258865 0 0.965914
    outer loop
      vertex -29.25 -1 43.799
      vertex -30 1 44
      vertex -30 -1 44
    endloop
  endfacet
  facet normal 0.707107 0 -0.707107
    outer loop
      vertex -28.701 -6 41.75
      vertex -29.25 -5 41.201
      vertex -28.701 -5 41.75
    endloop
  endfacet
  facet normal 0.707107 0 -0.707107
    outer loop
      vertex -29.25 -5 41.201
      vertex -28.701 -6 41.75
      vertex -29.25 -6 41.201
    endloop
  endfacet
  facet normal 0.707107 0 -0.707107
    outer loop
      vertex -28.701 5 41.75
      vertex -29.25 6 41.201
      vertex -28.701 6 41.75
    endloop
  endfacet
  facet normal 0.707107 0 -0.707107
    outer loop
      vertex -29.25 6 41.201
      vertex -28.701 5 41.75
      vertex -29.25 5 41.201
    endloop
  endfacet
  facet normal 0.707107 0 -0.707107
    outer loop
      vertex -28.701 -1 41.75
      vertex -29.25 1 41.201
      vertex -28.701 1 41.75
    endloop
  endfacet
  facet normal 0.707107 0 -0.707107
    outer loop
      vertex -29.25 1 41.201
      vertex -28.701 -1 41.75
      vertex -29.25 -1 41.201
    endloop
  endfacet
  facet normal -0.258865 0 0.965914
    outer loop
      vertex -30.75 6 43.799
      vertex -30 5 44
      vertex -30 6 44
    endloop
  endfacet
  facet normal -0.258865 0 0.965914
    outer loop
      vertex -30 5 44
      vertex -30.75 6 43.799
      vertex -30.75 5 43.799
    endloop
  endfacet
  facet normal -0.258865 0 0.965914
    outer loop
      vertex -30.75 -5 43.799
      vertex -30 -6 44
      vertex -30 -5 44
    endloop
  endfacet
  facet normal -0.258865 0 0.965914
    outer loop
      vertex -30 -6 44
      vertex -30.75 -5 43.799
      vertex -30.75 -6 43.799
    endloop
  endfacet
  facet normal -0.258865 0 0.965914
    outer loop
      vertex -30.75 1 43.799
      vertex -30 -1 44
      vertex -30 1 44
    endloop
  endfacet
  facet normal -0.258865 0 0.965914
    outer loop
      vertex -30 -1 44
      vertex -30.75 1 43.799
      vertex -30.75 -1 43.799
    endloop
  endfacet
  facet normal 0 -1 0
    outer loop
      vertex -30.75 -6 43.799
      vertex -29.25 -6 43.799
      vertex -30 -6 44
    endloop
  endfacet
  facet normal 0 -1 0
    outer loop
      vertex -31.299 -6 43.25
      vertex -29.25 -6 43.799
      vertex -30.75 -6 43.799
    endloop
  endfacet
  facet normal 0 -1 0
    outer loop
      vertex -31.299 -6 43.25
      vertex -28.701 -6 43.25
      vertex -29.25 -6 43.799
    endloop
  endfacet
  facet normal 0 -1 0
    outer loop
      vertex -31.5 -6 42.5
      vertex -28.701 -6 43.25
      vertex -31.299 -6 43.25
    endloop
  endfacet
  facet normal 0 -1 0
    outer loop
      vertex -31.5 -6 42.5
      vertex -28.5 -6 42.5
      vertex -28.701 -6 43.25
    endloop
  endfacet
  facet normal 0 -1 0
    outer loop
      vertex -31.299 -6 41.75
      vertex -28.5 -6 42.5
      vertex -31.5 -6 42.5
    endloop
  endfacet
  facet normal 0 -1 0
    outer loop
      vertex -31.299 -6 41.75
      vertex -28.701 -6 41.75
      vertex -28.5 -6 42.5
    endloop
  endfacet
  facet normal 0 -1 0
    outer loop
      vertex -30.75 -6 41.201
      vertex -28.701 -6 41.75
      vertex -31.299 -6 41.75
    endloop
  endfacet
  facet normal 0 -1 0
    outer loop
      vertex -30.75 -6 41.201
      vertex -29.25 -6 41.201
      vertex -28.701 -6 41.75
    endloop
  endfacet
  facet normal -0 -1 0
    outer loop
      vertex -29.25 -6 41.201
      vertex -30.75 -6 41.201
      vertex -30 -6 41
    endloop
  endfacet
  facet normal 0.965914 0 -0.258865
    outer loop
      vertex -28.5 5 42.5
      vertex -28.701 6 41.75
      vertex -28.5 6 42.5
    endloop
  endfacet
  facet normal 0.965914 0 -0.258865
    outer loop
      vertex -28.701 6 41.75
      vertex -28.5 5 42.5
      vertex -28.701 5 41.75
    endloop
  endfacet
  facet normal 0.965914 0 -0.258865
    outer loop
      vertex -28.5 -6 42.5
      vertex -28.701 -5 41.75
      vertex -28.5 -5 42.5
    endloop
  endfacet
  facet normal 0.965914 0 -0.258865
    outer loop
      vertex -28.701 -5 41.75
      vertex -28.5 -6 42.5
      vertex -28.701 -6 41.75
    endloop
  endfacet
  facet normal 0.965914 0 -0.258865
    outer loop
      vertex -28.5 -1 42.5
      vertex -28.701 1 41.75
      vertex -28.5 1 42.5
    endloop
  endfacet
  facet normal 0.965914 0 -0.258865
    outer loop
      vertex -28.701 1 41.75
      vertex -28.5 -1 42.5
      vertex -28.701 -1 41.75
    endloop
  endfacet
  facet normal 0 1 0
    outer loop
      vertex -29.25 6 43.799
      vertex -30.75 6 43.799
      vertex -30 6 44
    endloop
  endfacet
  facet normal 0 1 0
    outer loop
      vertex -28.701 6 43.25
      vertex -30.75 6 43.799
      vertex -29.25 6 43.799
    endloop
  endfacet
  facet normal 0 1 0
    outer loop
      vertex -28.701 6 43.25
      vertex -31.299 6 43.25
      vertex -30.75 6 43.799
    endloop
  endfacet
  facet normal 0 1 0
    outer loop
      vertex -28.5 6 42.5
      vertex -31.299 6 43.25
      vertex -28.701 6 43.25
    endloop
  endfacet
  facet normal 0 1 0
    outer loop
      vertex -28.5 6 42.5
      vertex -31.5 6 42.5
      vertex -31.299 6 43.25
    endloop
  endfacet
  facet normal 0 1 -0
    outer loop
      vertex -28.701 6 41.75
      vertex -31.5 6 42.5
      vertex -28.5 6 42.5
    endloop
  endfacet
  facet normal 0 1 0
    outer loop
      vertex -28.701 6 41.75
      vertex -31.299 6 41.75
      vertex -31.5 6 42.5
    endloop
  endfacet
  facet normal 0 1 -0
    outer loop
      vertex -29.25 6 41.201
      vertex -31.299 6 41.75
      vertex -28.701 6 41.75
    endloop
  endfacet
  facet normal 0 1 0
    outer loop
      vertex -29.25 6 41.201
      vertex -30.75 6 41.201
      vertex -31.299 6 41.75
    endloop
  endfacet
  facet normal -0 1 0
    outer loop
      vertex -30.75 6 41.201
      vertex -29.25 6 41.201
      vertex -30 6 41
    endloop
  endfacet
  facet normal -0.707107 0 0.707107
    outer loop
      vertex -31.299 5 43.25
      vertex -30.75 6 43.799
      vertex -31.299 6 43.25
    endloop
  endfacet
  facet normal -0.707107 0 0.707107
    outer loop
      vertex -30.75 6 43.799
      vertex -31.299 5 43.25
      vertex -30.75 5 43.799
    endloop
  endfacet
  facet normal -0.707107 0 0.707107
    outer loop
      vertex -31.299 -6 43.25
      vertex -30.75 -5 43.799
      vertex -31.299 -5 43.25
    endloop
  endfacet
  facet normal -0.707107 0 0.707107
    outer loop
      vertex -30.75 -5 43.799
      vertex -31.299 -6 43.25
      vertex -30.75 -6 43.799
    endloop
  endfacet
  facet normal -0.707107 0 0.707107
    outer loop
      vertex -31.299 -1 43.25
      vertex -30.75 1 43.799
      vertex -31.299 1 43.25
    endloop
  endfacet
  facet normal -0.707107 0 0.707107
    outer loop
      vertex -30.75 1 43.799
      vertex -31.299 -1 43.25
      vertex -30.75 -1 43.799
    endloop
  endfacet
  facet normal 0.258865 0 -0.965914
    outer loop
      vertex -30 5 41
      vertex -29.25 6 41.201
      vertex -29.25 5 41.201
    endloop
  endfacet
  facet normal 0.258865 0 -0.965914
    outer loop
      vertex -29.25 6 41.201
      vertex -30 5 41
      vertex -30 6 41
    endloop
  endfacet
  facet normal 0.258865 0 -0.965914
    outer loop
      vertex -30 -6 41
      vertex -29.25 -5 41.201
      vertex -29.25 -6 41.201
    endloop
  endfacet
  facet normal 0.258865 0 -0.965914
    outer loop
      vertex -29.25 -5 41.201
      vertex -30 -6 41
      vertex -30 -5 41
    endloop
  endfacet
  facet normal 0.258865 0 -0.965914
    outer loop
      vertex -30 -1 41
      vertex -29.25 1 41.201
      vertex -29.25 -1 41.201
    endloop
  endfacet
  facet normal 0.258865 0 -0.965914
    outer loop
      vertex -29.25 1 41.201
      vertex -30 -1 41
      vertex -30 1 41
    endloop
  endfacet
  facet normal -0.258865 0 -0.965914
    outer loop
      vertex -30.75 5 41.201
      vertex -30 6 41
      vertex -30 5 41
    endloop
  endfacet
  facet normal -0.258865 0 -0.965914
    outer loop
      vertex -30 6 41
      vertex -30.75 5 41.201
      vertex -30.75 6 41.201
    endloop
  endfacet
  facet normal -0.258865 0 -0.965914
    outer loop
      vertex -30.75 -6 41.201
      vertex -30 -5 41
      vertex -30 -6 41
    endloop
  endfacet
  facet normal -0.258865 0 -0.965914
    outer loop
      vertex -30 -5 41
      vertex -30.75 -6 41.201
      vertex -30.75 -5 41.201
    endloop
  endfacet
  facet normal -0.258865 0 -0.965914
    outer loop
      vertex -30.75 -1 41.201
      vertex -30 1 41
      vertex -30 -1 41
    endloop
  endfacet
  facet normal -0.258865 0 -0.965914
    outer loop
      vertex -30 1 41
      vertex -30.75 -1 41.201
      vertex -30.75 1 41.201
    endloop
  endfacet
  facet normal -0.707107 0 -0.707107
    outer loop
      vertex -30.75 -6 41.201
      vertex -31.299 -5 41.75
      vertex -30.75 -5 41.201
    endloop
  endfacet
  facet normal -0.707107 -0 -0.707107
    outer loop
      vertex -31.299 -5 41.75
      vertex -30.75 -6 41.201
      vertex -31.299 -6 41.75
    endloop
  endfacet
  facet normal -0.707107 0 -0.707107
    outer loop
      vertex -30.75 5 41.201
      vertex -31.299 6 41.75
      vertex -30.75 6 41.201
    endloop
  endfacet
  facet normal -0.707107 -0 -0.707107
    outer loop
      vertex -31.299 6 41.75
      vertex -30.75 5 41.201
      vertex -31.299 5 41.75
    endloop
  endfacet
  facet normal -0.707107 0 -0.707107
    outer loop
      vertex -30.75 -1 41.201
      vertex -31.299 1 41.75
      vertex -30.75 1 41.201
    endloop
  endfacet
  facet normal -0.707107 -0 -0.707107
    outer loop
      vertex -31.299 1 41.75
      vertex -30.75 -1 41.201
      vertex -31.299 -1 41.75
    endloop
  endfacet
  facet normal -0.965914 0 -0.258865
    outer loop
      vertex -31.299 -6 41.75
      vertex -31.5 -5 42.5
      vertex -31.299 -5 41.75
    endloop
  endfacet
  facet normal -0.965914 -0 -0.258865
    outer loop
      vertex -31.5 -5 42.5
      vertex -31.299 -6 41.75
      vertex -31.5 -6 42.5
    endloop
  endfacet
  facet normal -0.965914 0 -0.258865
    outer loop
      vertex -31.299 5 41.75
      vertex -31.5 6 42.5
      vertex -31.299 6 41.75
    endloop
  endfacet
  facet normal -0.965914 -0 -0.258865
    outer loop
      vertex -31.5 6 42.5
      vertex -31.299 5 41.75
      vertex -31.5 5 42.5
    endloop
  endfacet
  facet normal -0.965914 0 -0.258865
    outer loop
      vertex -31.299 -1 41.75
      vertex -31.5 1 42.5
      vertex -31.299 1 41.75
    endloop
  endfacet
  facet normal -0.965914 -0 -0.258865
    outer loop
      vertex -31.5 1 42.5
      vertex -31.299 -1 41.75
      vertex -31.5 -1 42.5
    endloop
  endfacet
  facet normal -1 0 0
    outer loop
      vertex -58 -17 25
      vertex -58 17 28
      vertex -58 17 25
    endloop
  endfacet
  facet normal -1 -0 0
    outer loop
      vertex -58 17 28
      vertex -58 -17 25
      vertex -58 -17 28
    endloop
  endfacet
  facet normal 1 0 0
    outer loop
      vertex -30 -14 28
      vertex -30 -17 28
      vertex -30 -14 25.5
    endloop
  endfacet
  facet normal 1 -0 0
    outer loop
      vertex -30 -14 25.5
      vertex -30 -2 25
      vertex -30 -2 25.5
    endloop
  endfacet
  facet normal 1 0 0
    outer loop
      vertex -30 -14 25.5
      vertex -30 -17 25
      vertex -30 -2 25
    endloop
  endfacet
  facet normal 1 0 0
    outer loop
      vertex -30 -17 25
      vertex -30 -14 25.5
      vertex -30 -17 28
    endloop
  endfacet
  facet normal 1 0 0
    outer loop
      vertex -30 14 25.5
      vertex -30 17 28
      vertex -30 14 28
    endloop
  endfacet
  facet normal 1 0 0
    outer loop
      vertex -30 17 28
      vertex -30 14 25.5
      vertex -30 17 25
    endloop
  endfacet
  facet normal 1 0 0
    outer loop
      vertex -30 2 25
      vertex -30 14 25.5
      vertex -30 2 25.5
    endloop
  endfacet
  facet normal 1 0 0
    outer loop
      vertex -30 14 25.5
      vertex -30 2 25
      vertex -30 17 25
    endloop
  endfacet
  facet normal 0 1 -0
    outer loop
      vertex -30 17 25
      vertex -58 17 28
      vertex -30 17 28
    endloop
  endfacet
  facet normal 0 1 0
    outer loop
      vertex -58 17 28
      vertex -30 17 25
      vertex -58 17 25
    endloop
  endfacet
  facet normal 0 -1 0
    outer loop
      vertex -58 -17 25
      vertex -30 -17 28
      vertex -58 -17 28
    endloop
  endfacet
  facet normal 0 -1 -0
    outer loop
      vertex -30 -17 28
      vertex -58 -17 25
      vertex -30 -17 25
    endloop
  endfacet
  facet normal -1 0 0
    outer loop
      vertex -33.5 -14 28
      vertex -33.5 14 32.5
      vertex -33.5 14 28
    endloop
  endfacet
  facet normal -1 -0 0
    outer loop
      vertex -33.5 14 32.5
      vertex -33.5 -14 28
      vertex -33.5 -14 32.5
    endloop
  endfacet
  facet normal 0 0 1
    outer loop
      vertex -29.5 14 32.5
      vertex -31.5 4.5 32.5
      vertex -29.5 4.5 32.5
    endloop
  endfacet
  facet normal 0 0 1
    outer loop
      vertex -33.5 14 32.5
      vertex -31.5 1.5 32.5
      vertex -31.5 4.5 32.5
    endloop
  endfacet
  facet normal 0 0 1
    outer loop
      vertex -31.5 1.5 32.5
      vertex -33.5 14 32.5
      vertex -31.5 -1.5 32.5
    endloop
  endfacet
  facet normal 0 0 1
    outer loop
      vertex -33.5 -14 32.5
      vertex -31.5 -1.5 32.5
      vertex -33.5 14 32.5
    endloop
  endfacet
  facet normal -0 0 1
    outer loop
      vertex -33.5 14 32.5
      vertex -31.5 4.5 32.5
      vertex -29.5 14 32.5
    endloop
  endfacet
  facet normal -0 0 1
    outer loop
      vertex -31.5 1.5 32.5
      vertex -29.5 -1.5 32.5
      vertex -29.5 1.5 32.5
    endloop
  endfacet
  facet normal 0 0 1
    outer loop
      vertex -29.5 -1.5 32.5
      vertex -31.5 1.5 32.5
      vertex -31.5 -1.5 32.5
    endloop
  endfacet
  facet normal -0 0 1
    outer loop
      vertex -31.5 -4.5 32.5
      vertex -29.5 -14 32.5
      vertex -29.5 -4.5 32.5
    endloop
  endfacet
  facet normal 0 0 1
    outer loop
      vertex -31.5 -4.5 32.5
      vertex -33.5 -14 32.5
      vertex -29.5 -14 32.5
    endloop
  endfacet
  facet normal 0 0 1
    outer loop
      vertex -31.5 -1.5 32.5
      vertex -33.5 -14 32.5
      vertex -31.5 -4.5 32.5
    endloop
  endfacet
  facet normal 1 0 0
    outer loop
      vertex -29.5 -4.5 32.5
      vertex -29.5 -14 32.5
      vertex -29.5 -4.5 26.5
    endloop
  endfacet
  facet normal 1 -0 0
    outer loop
      vertex -29.5 -4.5 26.5
      vertex -29.5 -2 25.5
      vertex -29.5 -2 26.5
    endloop
  endfacet
  facet normal 1 0 0
    outer loop
      vertex -29.5 -4.5 26.5
      vertex -29.5 -14 25.5
      vertex -29.5 -2 25.5
    endloop
  endfacet
  facet normal 1 0 0
    outer loop
      vertex -29.5 -14 25.5
      vertex -29.5 -4.5 26.5
      vertex -29.5 -14 32.5
    endloop
  endfacet
  facet normal 1 0 0
    outer loop
      vertex -29.5 4.5 26.5
      vertex -29.5 14 32.5
      vertex -29.5 4.5 32.5
    endloop
  endfacet
  facet normal 1 0 0
    outer loop
      vertex -29.5 14 32.5
      vertex -29.5 4.5 26.5
      vertex -29.5 14 25.5
    endloop
  endfacet
  facet normal 1 0 0
    outer loop
      vertex -29.5 2 25.5
      vertex -29.5 4.5 26.5
      vertex -29.5 2 26.5
    endloop
  endfacet
  facet normal 1 0 0
    outer loop
      vertex -29.5 4.5 26.5
      vertex -29.5 2 25.5
      vertex -29.5 14 25.5
    endloop
  endfacet
  facet normal 1 -0 0
    outer loop
      vertex -29.5 -1.5 32.5
      vertex -29.5 1.5 28
      vertex -29.5 1.5 32.5
    endloop
  endfacet
  facet normal 1 0 0
    outer loop
      vertex -29.5 1.5 28
      vertex -29.5 -1.5 32.5
      vertex -29.5 -1.5 28
    endloop
  endfacet
  facet normal 0 0 -1
    outer loop
      vertex -30 2 25.5
      vertex -29.5 14 25.5
      vertex -29.5 2 25.5
    endloop
  endfacet
  facet normal -0 0 -1
    outer loop
      vertex -29.5 14 25.5
      vertex -30 2 25.5
      vertex -30 14 25.5
    endloop
  endfacet
  facet normal 0 0 -1
    outer loop
      vertex -30 -14 25.5
      vertex -29.5 -2 25.5
      vertex -29.5 -14 25.5
    endloop
  endfacet
  facet normal -0 0 -1
    outer loop
      vertex -29.5 -2 25.5
      vertex -30 -14 25.5
      vertex -30 -2 25.5
    endloop
  endfacet
  facet normal 0 -1 0
    outer loop
      vertex -30 -14 28
      vertex -33.5 -14 32.5
      vertex -33.5 -14 28
    endloop
  endfacet
  facet normal 0 -1 0
    outer loop
      vertex -33.5 -14 32.5
      vertex -30 -14 28
      vertex -29.5 -14 32.5
    endloop
  endfacet
  facet normal 0 -1 0
    outer loop
      vertex -29.5 -14 25.5
      vertex -30 -14 28
      vertex -30 -14 25.5
    endloop
  endfacet
  facet normal 0 -1 0
    outer loop
      vertex -30 -14 28
      vertex -29.5 -14 25.5
      vertex -29.5 -14 32.5
    endloop
  endfacet
  facet normal 0 1 0
    outer loop
      vertex -29.5 14 32.5
      vertex -30 14 28
      vertex -33.5 14 32.5
    endloop
  endfacet
  facet normal 0 1 -0
    outer loop
      vertex -29.5 14 25.5
      vertex -30 14 28
      vertex -29.5 14 32.5
    endloop
  endfacet
  facet normal 0 1 0
    outer loop
      vertex -30 14 28
      vertex -29.5 14 25.5
      vertex -30 14 25.5
    endloop
  endfacet
  facet normal 0 1 0
    outer loop
      vertex -33.5 14 32.5
      vertex -30 14 28
      vertex -33.5 14 28
    endloop
  endfacet
endsolid OpenSCAD_Model
