solid OpenSCAD_Model
  facet normal 1 -0 0
    outer loop
      vertex 29 20 35.5
      vertex 29 22 31.5
      vertex 29 22 35.5
    endloop
  endfacet
  facet normal 1 0 0
    outer loop
      vertex 29 22 31.5
      vertex 29 20 35.5
      vertex 29 20 31.5
    endloop
  endfacet
  facet normal 1 0 0
    outer loop
      vertex 29 22 35.5
      vertex 29 34 35.5
      vertex 29 34 43.5
    endloop
  endfacet
  facet normal 1 0 0
    outer loop
      vertex 29 34 35.5
      vertex 29 22 35.5
      vertex 29 34 31.5
    endloop
  endfacet
  facet normal 1 0 0
    outer loop
      vertex 29 22 35.5
      vertex 29 34 43.5
      vertex 29 22 43.5
    endloop
  endfacet
  facet normal 1 0 0
    outer loop
      vertex 29 22 31.5
      vertex 29 34 31.5
      vertex 29 22 35.5
    endloop
  endfacet
  facet normal 1 0 0
    outer loop
      vertex 29 34 31.5
      vertex 29 22 31.5
      vertex 29 34 23.5
    endloop
  endfacet
  facet normal 1 0 0
    outer loop
      vertex 29 34 23.5
      vertex 29 22 31.5
      vertex 29 22 23.5
    endloop
  endfacet
  facet normal 1 -0 0
    outer loop
      vertex 29 34 35.5
      vertex 29 36 31.5
      vertex 29 36 35.5
    endloop
  endfacet
  facet normal 1 0 0
    outer loop
      vertex 29 36 31.5
      vertex 29 34 35.5
      vertex 29 34 31.5
    endloop
  endfacet
  facet normal -0 0 1
    outer loop
      vertex -33 34 43.5
      vertex 29 22 43.5
      vertex 29 34 43.5
    endloop
  endfacet
  facet normal 0 0 1
    outer loop
      vertex 29 22 43.5
      vertex -33 34 43.5
      vertex -33 22 43.5
    endloop
  endfacet
  facet normal 0 0 -1
    outer loop
      vertex -33 22 23.5
      vertex 29 34 23.5
      vertex 29 22 23.5
    endloop
  endfacet
  facet normal -0 0 -1
    outer loop
      vertex 29 34 23.5
      vertex -33 22 23.5
      vertex -33 34 23.5
    endloop
  endfacet
  facet normal 1 0 0
    outer loop
      vertex -33 38 47.5
      vertex -33 34 43.5
      vertex -33 38 19.5
    endloop
  endfacet
  facet normal 1 0 0
    outer loop
      vertex -33 38 47.5
      vertex -33 22 43.5
      vertex -33 34 43.5
    endloop
  endfacet
  facet normal 1 0 0
    outer loop
      vertex -33 22 43.5
      vertex -33 18 47.5
      vertex -33 22 23.5
    endloop
  endfacet
  facet normal 1 -0 0
    outer loop
      vertex -33 18 47.5
      vertex -33 22 43.5
      vertex -33 38 47.5
    endloop
  endfacet
  facet normal 1 -0 0
    outer loop
      vertex -33 34 23.5
      vertex -33 38 19.5
      vertex -33 34 43.5
    endloop
  endfacet
  facet normal 1 -0 0
    outer loop
      vertex -33 22 23.5
      vertex -33 38 19.5
      vertex -33 34 23.5
    endloop
  endfacet
  facet normal 1 0 0
    outer loop
      vertex -33 22 23.5
      vertex -33 18 19.5
      vertex -33 38 19.5
    endloop
  endfacet
  facet normal 1 0 0
    outer loop
      vertex -33 18 19.5
      vertex -33 22 23.5
      vertex -33 18 47.5
    endloop
  endfacet
  facet normal 0 1 0
    outer loop
      vertex 29 34 31.5
      vertex 29 34 23.5
      vertex 4 34 31.5
    endloop
  endfacet
  facet normal 0 1 0
    outer loop
      vertex 4 34 35.5
      vertex 29 34 43.5
      vertex 29 34 35.5
    endloop
  endfacet
  facet normal 0 1 0
    outer loop
      vertex 29 34 43.5
      vertex 4 34 35.5
      vertex -33 34 43.5
    endloop
  endfacet
  facet normal 0 1 -0
    outer loop
      vertex 4 34 31.5
      vertex -33 34 43.5
      vertex 4 34 35.5
    endloop
  endfacet
  facet normal 0 1 0
    outer loop
      vertex 4 34 31.5
      vertex -33 34 23.5
      vertex -33 34 43.5
    endloop
  endfacet
  facet normal 0 1 0
    outer loop
      vertex -33 34 23.5
      vertex 4 34 31.5
      vertex 29 34 23.5
    endloop
  endfacet
  facet normal 0 -1 0
    outer loop
      vertex -33 22 43.5
      vertex 4 22 35.5
      vertex 29 22 43.5
    endloop
  endfacet
  facet normal 0 -1 0
    outer loop
      vertex -33 22 43.5
      vertex 4 22 31.5
      vertex 4 22 35.5
    endloop
  endfacet
  facet normal 0 -1 0
    outer loop
      vertex -33 22 23.5
      vertex 4 22 31.5
      vertex -33 22 43.5
    endloop
  endfacet
  facet normal 0 -1 0
    outer loop
      vertex 29 22 23.5
      vertex 4 22 31.5
      vertex -33 22 23.5
    endloop
  endfacet
  facet normal 0 -1 0
    outer loop
      vertex 4 22 31.5
      vertex 29 22 23.5
      vertex 29 22 31.5
    endloop
  endfacet
  facet normal 0 -1 -0
    outer loop
      vertex 29 22 43.5
      vertex 4 22 35.5
      vertex 29 22 35.5
    endloop
  endfacet
  facet normal -1 0 0
    outer loop
      vertex 26 29.5 35.5
      vertex 26 31 40.5
      vertex 26 31 35.5
    endloop
  endfacet
  facet normal -1 -0 0
    outer loop
      vertex 26 31 40.5
      vertex 26 29.5 35.5
      vertex 26 29.5 40.5
    endloop
  endfacet
  facet normal -1 0 0
    outer loop
      vertex 26 25 26.5
      vertex 26 31 31.5
      vertex 26 31 26.5
    endloop
  endfacet
  facet normal -1 -0 0
    outer loop
      vertex 26 31 31.5
      vertex 26 25 26.5
      vertex 26 25 31.5
    endloop
  endfacet
  facet normal -1 0 0
    outer loop
      vertex 26 25 35.5
      vertex 26 26.5 40.5
      vertex 26 26.5 35.5
    endloop
  endfacet
  facet normal -1 -0 0
    outer loop
      vertex 26 26.5 40.5
      vertex 26 25 35.5
      vertex 26 25 40.5
    endloop
  endfacet
  facet normal 0 0 -1
    outer loop
      vertex 26 25 40.5
      vertex 4 26.5 40.5
      vertex 26 26.5 40.5
    endloop
  endfacet
  facet normal -0 0 -1
    outer loop
      vertex 4 26.5 40.5
      vertex -30 25 40.5
      vertex 4 29.5 40.5
    endloop
  endfacet
  facet normal 0 0 -1
    outer loop
      vertex -30 25 40.5
      vertex 4 26.5 40.5
      vertex 26 25 40.5
    endloop
  endfacet
  facet normal 0 0 -1
    outer loop
      vertex 4 29.5 40.5
      vertex 26 31 40.5
      vertex 26 29.5 40.5
    endloop
  endfacet
  facet normal 0 0 -1
    outer loop
      vertex 4 29.5 40.5
      vertex -30 31 40.5
      vertex 26 31 40.5
    endloop
  endfacet
  facet normal 0 0 -1
    outer loop
      vertex -30 31 40.5
      vertex 4 29.5 40.5
      vertex -30 25 40.5
    endloop
  endfacet
  facet normal -0 0 1
    outer loop
      vertex -30 31 26.5
      vertex 26 25 26.5
      vertex 26 31 26.5
    endloop
  endfacet
  facet normal 0 0 1
    outer loop
      vertex 26 25 26.5
      vertex -30 31 26.5
      vertex -30 25 26.5
    endloop
  endfacet
  facet normal 1 -0 0
    outer loop
      vertex -30 25 40.5
      vertex -30 31 26.5
      vertex -30 31 40.5
    endloop
  endfacet
  facet normal 1 0 0
    outer loop
      vertex -30 31 26.5
      vertex -30 25 40.5
      vertex -30 25 26.5
    endloop
  endfacet
  facet normal 0 -1 0
    outer loop
      vertex -30 31 40.5
      vertex 4 31 35.5
      vertex 26 31 40.5
    endloop
  endfacet
  facet normal 0 -1 0
    outer loop
      vertex -30 31 40.5
      vertex 4 31 31.5
      vertex 4 31 35.5
    endloop
  endfacet
  facet normal 0 -1 0
    outer loop
      vertex -30 31 26.5
      vertex 4 31 31.5
      vertex -30 31 40.5
    endloop
  endfacet
  facet normal 0 -1 0
    outer loop
      vertex 26 31 26.5
      vertex 4 31 31.5
      vertex -30 31 26.5
    endloop
  endfacet
  facet normal 0 -1 0
    outer loop
      vertex 4 31 31.5
      vertex 26 31 26.5
      vertex 26 31 31.5
    endloop
  endfacet
  facet normal 0 -1 -0
    outer loop
      vertex 26 31 40.5
      vertex 4 31 35.5
      vertex 26 31 35.5
    endloop
  endfacet
  facet normal 0 1 0
    outer loop
      vertex 26 25 31.5
      vertex 26 25 26.5
      vertex 4 25 31.5
    endloop
  endfacet
  facet normal 0 1 0
    outer loop
      vertex 4 25 35.5
      vertex 26 25 40.5
      vertex 26 25 35.5
    endloop
  endfacet
  facet normal 0 1 0
    outer loop
      vertex 26 25 40.5
      vertex 4 25 35.5
      vertex -30 25 40.5
    endloop
  endfacet
  facet normal 0 1 -0
    outer loop
      vertex 4 25 31.5
      vertex -30 25 40.5
      vertex 4 25 35.5
    endloop
  endfacet
  facet normal 0 1 0
    outer loop
      vertex 4 25 31.5
      vertex -30 25 26.5
      vertex -30 25 40.5
    endloop
  endfacet
  facet normal 0 1 0
    outer loop
      vertex -30 25 26.5
      vertex 4 25 31.5
      vertex 26 25 26.5
    endloop
  endfacet
  facet normal -0 0 1
    outer loop
      vertex -45 38 47.5
      vertex -33 18 47.5
      vertex -33 38 47.5
    endloop
  endfacet
  facet normal 0 0 1
    outer loop
      vertex -33 18 47.5
      vertex -45 38 47.5
      vertex -45 18 47.5
    endloop
  endfacet
  facet normal 0 0 -1
    outer loop
      vertex -45 18 19.5
      vertex -33 38 19.5
      vertex -33 18 19.5
    endloop
  endfacet
  facet normal -0 0 -1
    outer loop
      vertex -33 38 19.5
      vertex -45 18 19.5
      vertex -45 38 19.5
    endloop
  endfacet
  facet normal 0 1 -0
    outer loop
      vertex -33 38 19.5
      vertex -45 38 47.5
      vertex -33 38 47.5
    endloop
  endfacet
  facet normal 0 1 0
    outer loop
      vertex -45 38 47.5
      vertex -33 38 19.5
      vertex -45 38 19.5
    endloop
  endfacet
  facet normal 0 -1 0
    outer loop
      vertex -45 18 19.5
      vertex -33 18 47.5
      vertex -45 18 47.5
    endloop
  endfacet
  facet normal 0 -1 -0
    outer loop
      vertex -33 18 47.5
      vertex -45 18 19.5
      vertex -33 18 19.5
    endloop
  endfacet
  facet normal -0 0 1
    outer loop
      vertex 4 36 35.5
      vertex 29 34 35.5
      vertex 29 36 35.5
    endloop
  endfacet
  facet normal 0 0 1
    outer loop
      vertex 29 34 35.5
      vertex 4 36 35.5
      vertex 4 34 35.5
    endloop
  endfacet
  facet normal -0 0 1
    outer loop
      vertex 4 22 35.5
      vertex 29 20 35.5
      vertex 29 22 35.5
    endloop
  endfacet
  facet normal 0 0 1
    outer loop
      vertex 29 20 35.5
      vertex 4 22 35.5
      vertex 4 20 35.5
    endloop
  endfacet
  facet normal -0 0 1
    outer loop
      vertex 4 26.5 35.5
      vertex 26 25 35.5
      vertex 26 26.5 35.5
    endloop
  endfacet
  facet normal 0 0 1
    outer loop
      vertex 26 25 35.5
      vertex 4 26.5 35.5
      vertex 4 25 35.5
    endloop
  endfacet
  facet normal -0 0 1
    outer loop
      vertex 4 31 35.5
      vertex 26 29.5 35.5
      vertex 26 31 35.5
    endloop
  endfacet
  facet normal 0 0 1
    outer loop
      vertex 26 29.5 35.5
      vertex 4 31 35.5
      vertex 4 29.5 35.5
    endloop
  endfacet
  facet normal 0 0 -1
    outer loop
      vertex 4 34 31.5
      vertex 29 36 31.5
      vertex 29 34 31.5
    endloop
  endfacet
  facet normal -0 0 -1
    outer loop
      vertex 29 36 31.5
      vertex 4 34 31.5
      vertex 4 36 31.5
    endloop
  endfacet
  facet normal 0 0 -1
    outer loop
      vertex 4 20 31.5
      vertex 29 22 31.5
      vertex 29 20 31.5
    endloop
  endfacet
  facet normal -0 0 -1
    outer loop
      vertex 29 22 31.5
      vertex 4 20 31.5
      vertex 4 22 31.5
    endloop
  endfacet
  facet normal 0 0 -1
    outer loop
      vertex 4 25 31.5
      vertex 26 31 31.5
      vertex 26 25 31.5
    endloop
  endfacet
  facet normal -0 0 -1
    outer loop
      vertex 26 31 31.5
      vertex 4 25 31.5
      vertex 4 31 31.5
    endloop
  endfacet
  facet normal -1 0 0
    outer loop
      vertex 4 34 31.5
      vertex 4 36 35.5
      vertex 4 36 31.5
    endloop
  endfacet
  facet normal -1 -0 0
    outer loop
      vertex 4 36 35.5
      vertex 4 34 31.5
      vertex 4 34 35.5
    endloop
  endfacet
  facet normal -1 0 0
    outer loop
      vertex 4 20 31.5
      vertex 4 22 35.5
      vertex 4 22 31.5
    endloop
  endfacet
  facet normal -1 -0 0
    outer loop
      vertex 4 22 35.5
      vertex 4 20 31.5
      vertex 4 20 35.5
    endloop
  endfacet
  facet normal -1 0 0
    outer loop
      vertex 4 31 31.5
      vertex 4 29.5 35.5
      vertex 4 31 35.5
    endloop
  endfacet
  facet normal -1 0 0
    outer loop
      vertex 4 29.5 35.5
      vertex 4 26.5 35.5
      vertex 4 29.5 40.5
    endloop
  endfacet
  facet normal -1 0 0
    outer loop
      vertex 4 31 31.5
      vertex 4 26.5 35.5
      vertex 4 29.5 35.5
    endloop
  endfacet
  facet normal -1 0 0
    outer loop
      vertex 4 25 31.5
      vertex 4 26.5 35.5
      vertex 4 31 31.5
    endloop
  endfacet
  facet normal -1 -0 0
    outer loop
      vertex 4 26.5 35.5
      vertex 4 25 31.5
      vertex 4 25 35.5
    endloop
  endfacet
  facet normal -1 -0 0
    outer loop
      vertex 4 29.5 40.5
      vertex 4 26.5 35.5
      vertex 4 26.5 40.5
    endloop
  endfacet
  facet normal 0 1 -0
    outer loop
      vertex 29 36 31.5
      vertex 4 36 35.5
      vertex 29 36 35.5
    endloop
  endfacet
  facet normal 0 1 0
    outer loop
      vertex 4 36 35.5
      vertex 29 36 31.5
      vertex 4 36 31.5
    endloop
  endfacet
  facet normal 0 -1 0
    outer loop
      vertex 4 20 31.5
      vertex 29 20 35.5
      vertex 4 20 35.5
    endloop
  endfacet
  facet normal 0 -1 -0
    outer loop
      vertex 29 20 35.5
      vertex 4 20 31.5
      vertex 29 20 31.5
    endloop
  endfacet
  facet normal 0 1 -0
    outer loop
      vertex 26 29.5 35.5
      vertex 4 29.5 40.5
      vertex 26 29.5 40.5
    endloop
  endfacet
  facet normal 0 1 0
    outer loop
      vertex 4 29.5 40.5
      vertex 26 29.5 35.5
      vertex 4 29.5 35.5
    endloop
  endfacet
  facet normal 0 -1 0
    outer loop
      vertex 4 26.5 35.5
      vertex 26 26.5 40.5
      vertex 4 26.5 40.5
    endloop
  endfacet
  facet normal 0 -1 -0
    outer loop
      vertex 26 26.5 40.5
      vertex 4 26.5 35.5
      vertex 26 26.5 35.5
    endloop
  endfacet
  facet normal -1 0 0
    outer loop
      vertex -45 18 19.5
      vertex -45 38 47.5
      vertex -45 38 19.5
    endloop
  endfacet
  facet normal -1 -0 0
    outer loop
      vertex -45 38 47.5
      vertex -45 18 19.5
      vertex -45 18 47.5
    endloop
  endfacet
endsolid OpenSCAD_Model
