solid OpenSCAD_Model
  facet normal 0.991445 0.130529 0
    outer loop
      vertex 4 0 29.5
      vertex 3.8637 1.03528 18
      vertex 3.8637 1.03528 29.5
    endloop
  endfacet
  facet normal 0.991445 0.130529 0
    outer loop
      vertex 3.8637 1.03528 18
      vertex 4 0 29.5
      vertex 4 0 18
    endloop
  endfacet
  facet normal -0.991445 0.130529 0
    outer loop
      vertex -4 0 18
      vertex -3.8637 1.03528 29.5
      vertex -3.8637 1.03528 18
    endloop
  endfacet
  facet normal -0.991445 0.130529 0
    outer loop
      vertex -3.8637 1.03528 29.5
      vertex -4 0 18
      vertex -4 0 29.5
    endloop
  endfacet
  facet normal 0.130529 0.991445 -0
    outer loop
      vertex 1.03528 3.8637 18
      vertex 0 4 29.5
      vertex 1.03528 3.8637 29.5
    endloop
  endfacet
  facet normal 0.130529 0.991445 0
    outer loop
      vertex 0 4 29.5
      vertex 1.03528 3.8637 18
      vertex 0 4 18
    endloop
  endfacet
  facet normal -0.130529 -0.991445 0
    outer loop
      vertex -1.03528 -3.8637 18
      vertex 0 -4 29.5
      vertex -1.03528 -3.8637 29.5
    endloop
  endfacet
  facet normal -0.130529 -0.991445 -0
    outer loop
      vertex 0 -4 29.5
      vertex -1.03528 -3.8637 18
      vertex 0 -4 18
    endloop
  endfacet
  facet normal 0.608757 0.793356 -0
    outer loop
      vertex 2.82843 2.82843 18
      vertex 2 3.4641 29.5
      vertex 2.82843 2.82843 29.5
    endloop
  endfacet
  facet normal 0.608757 0.793356 0
    outer loop
      vertex 2 3.4641 29.5
      vertex 2.82843 2.82843 18
      vertex 2 3.4641 18
    endloop
  endfacet
  facet normal 0.92388 0.382683 0
    outer loop
      vertex 3.8637 1.03528 29.5
      vertex 3.4641 2 18
      vertex 3.4641 2 29.5
    endloop
  endfacet
  facet normal 0.92388 0.382683 0
    outer loop
      vertex 3.4641 2 18
      vertex 3.8637 1.03528 29.5
      vertex 3.8637 1.03528 18
    endloop
  endfacet
  facet normal 0.382683 0.92388 -0
    outer loop
      vertex 2 3.4641 18
      vertex 1.03528 3.8637 29.5
      vertex 2 3.4641 29.5
    endloop
  endfacet
  facet normal 0.382683 0.92388 0
    outer loop
      vertex 1.03528 3.8637 29.5
      vertex 2 3.4641 18
      vertex 1.03528 3.8637 18
    endloop
  endfacet
  facet normal -0.608757 0.793356 0
    outer loop
      vertex -2 3.4641 18
      vertex -2.82843 2.82843 29.5
      vertex -2 3.4641 29.5
    endloop
  endfacet
  facet normal -0.608757 0.793356 0
    outer loop
      vertex -2.82843 2.82843 29.5
      vertex -2 3.4641 18
      vertex -2.82843 2.82843 18
    endloop
  endfacet
  facet normal -0.793356 0.608757 0
    outer loop
      vertex -3.4641 2 18
      vertex -2.82843 2.82843 29.5
      vertex -2.82843 2.82843 18
    endloop
  endfacet
  facet normal -0.793356 0.608757 0
    outer loop
      vertex -2.82843 2.82843 29.5
      vertex -3.4641 2 18
      vertex -3.4641 2 29.5
    endloop
  endfacet
  facet normal -0.382683 0.92388 0
    outer loop
      vertex -1.03528 3.8637 18
      vertex -2 3.4641 29.5
      vertex -1.03528 3.8637 29.5
    endloop
  endfacet
  facet normal -0.382683 0.92388 0
    outer loop
      vertex -2 3.4641 29.5
      vertex -1.03528 3.8637 18
      vertex -2 3.4641 18
    endloop
  endfacet
  facet normal 0.793356 -0.608757 0
    outer loop
      vertex 2.82843 -2.82843 29.5
      vertex 3.4641 -2 18
      vertex 3.4641 -2 29.5
    endloop
  endfacet
  facet normal 0.793356 -0.608757 0
    outer loop
      vertex 3.4641 -2 18
      vertex 2.82843 -2.82843 29.5
      vertex 2.82843 -2.82843 18
    endloop
  endfacet
  facet normal 0.92388 -0.382683 0
    outer loop
      vertex 3.4641 -2 29.5
      vertex 3.8637 -1.03528 18
      vertex 3.8637 -1.03528 29.5
    endloop
  endfacet
  facet normal 0.92388 -0.382683 0
    outer loop
      vertex 3.8637 -1.03528 18
      vertex 3.4641 -2 29.5
      vertex 3.4641 -2 18
    endloop
  endfacet
  facet normal -0.608757 -0.793356 0
    outer loop
      vertex -2.82843 -2.82843 18
      vertex -2 -3.4641 29.5
      vertex -2.82843 -2.82843 29.5
    endloop
  endfacet
  facet normal -0.608757 -0.793356 -0
    outer loop
      vertex -2 -3.4641 29.5
      vertex -2.82843 -2.82843 18
      vertex -2 -3.4641 18
    endloop
  endfacet
  facet normal 0.793356 0.608757 0
    outer loop
      vertex 3.4641 2 29.5
      vertex 2.82843 2.82843 18
      vertex 2.82843 2.82843 29.5
    endloop
  endfacet
  facet normal 0.793356 0.608757 0
    outer loop
      vertex 2.82843 2.82843 18
      vertex 3.4641 2 29.5
      vertex 3.4641 2 18
    endloop
  endfacet
  facet normal -0.92388 0.382683 0
    outer loop
      vertex -3.8637 1.03528 18
      vertex -3.4641 2 29.5
      vertex -3.4641 2 18
    endloop
  endfacet
  facet normal -0.92388 0.382683 0
    outer loop
      vertex -3.4641 2 29.5
      vertex -3.8637 1.03528 18
      vertex -3.8637 1.03528 29.5
    endloop
  endfacet
  facet normal 0 0 1
    outer loop
      vertex 1.5 0 29.5
      vertex 4 0 29.5
      vertex 3.8637 1.03528 29.5
    endloop
  endfacet
  facet normal 0 0 1
    outer loop
      vertex 1.38582 0.574024 29.5
      vertex 3.8637 1.03528 29.5
      vertex 3.4641 2 29.5
    endloop
  endfacet
  facet normal 0 0 1
    outer loop
      vertex 4 0 29.5
      vertex 1.5 0 29.5
      vertex 3.8637 -1.03528 29.5
    endloop
  endfacet
  facet normal 0 0 1
    outer loop
      vertex 1.06066 1.06066 29.5
      vertex 3.4641 2 29.5
      vertex 2.82843 2.82843 29.5
    endloop
  endfacet
  facet normal -0 0 1
    outer loop
      vertex 1.38582 -0.574024 29.5
      vertex 3.8637 -1.03528 29.5
      vertex 1.5 0 29.5
    endloop
  endfacet
  facet normal 0 0 1
    outer loop
      vertex 1.06066 1.06066 29.5
      vertex 2.82843 2.82843 29.5
      vertex 2 3.4641 29.5
    endloop
  endfacet
  facet normal 0 0 1
    outer loop
      vertex 3.8637 -1.03528 29.5
      vertex 1.38582 -0.574024 29.5
      vertex 3.4641 -2 29.5
    endloop
  endfacet
  facet normal -0 0 1
    outer loop
      vertex 1.06066 -1.06066 29.5
      vertex 3.4641 -2 29.5
      vertex 1.38582 -0.574024 29.5
    endloop
  endfacet
  facet normal 0 0 1
    outer loop
      vertex 3.8637 1.03528 29.5
      vertex 1.38582 0.574024 29.5
      vertex 1.5 0 29.5
    endloop
  endfacet
  facet normal 0 0 1
    outer loop
      vertex 3.4641 2 29.5
      vertex 1.06066 1.06066 29.5
      vertex 1.38582 0.574024 29.5
    endloop
  endfacet
  facet normal 0 0 1
    outer loop
      vertex 0.574024 1.38582 29.5
      vertex 2 3.4641 29.5
      vertex 1.03528 3.8637 29.5
    endloop
  endfacet
  facet normal 0 0 1
    outer loop
      vertex 2 3.4641 29.5
      vertex 0.574024 1.38582 29.5
      vertex 1.06066 1.06066 29.5
    endloop
  endfacet
  facet normal 0 0 1
    outer loop
      vertex 0 1.5 29.5
      vertex 1.03528 3.8637 29.5
      vertex 0 4 29.5
    endloop
  endfacet
  facet normal 0 0 1
    outer loop
      vertex 1.03528 3.8637 29.5
      vertex 0 1.5 29.5
      vertex 0.574024 1.38582 29.5
    endloop
  endfacet
  facet normal -0 0 1
    outer loop
      vertex -1.03528 3.8637 29.5
      vertex 0 1.5 29.5
      vertex 0 4 29.5
    endloop
  endfacet
  facet normal 0 0 1
    outer loop
      vertex 0 1.5 29.5
      vertex -1.03528 3.8637 29.5
      vertex -0.574024 1.38582 29.5
    endloop
  endfacet
  facet normal -0 0 1
    outer loop
      vertex -2 3.4641 29.5
      vertex -0.574024 1.38582 29.5
      vertex -1.03528 3.8637 29.5
    endloop
  endfacet
  facet normal 0 0 1
    outer loop
      vertex -0.574024 1.38582 29.5
      vertex -2 3.4641 29.5
      vertex -1.06066 1.06066 29.5
    endloop
  endfacet
  facet normal -0 0 1
    outer loop
      vertex -2.82843 2.82843 29.5
      vertex -1.06066 1.06066 29.5
      vertex -2 3.4641 29.5
    endloop
  endfacet
  facet normal -0 0 1
    outer loop
      vertex -3.4641 2 29.5
      vertex -1.06066 1.06066 29.5
      vertex -2.82843 2.82843 29.5
    endloop
  endfacet
  facet normal 0 0 1
    outer loop
      vertex 3.4641 -2 29.5
      vertex 1.06066 -1.06066 29.5
      vertex 2.82843 -2.82843 29.5
    endloop
  endfacet
  facet normal 0 0 1
    outer loop
      vertex 2.82843 -2.82843 29.5
      vertex 1.06066 -1.06066 29.5
      vertex 2 -3.4641 29.5
    endloop
  endfacet
  facet normal -0 0 1
    outer loop
      vertex 0.574024 -1.38582 29.5
      vertex 2 -3.4641 29.5
      vertex 1.06066 -1.06066 29.5
    endloop
  endfacet
  facet normal 0 0 1
    outer loop
      vertex 2 -3.4641 29.5
      vertex 0.574024 -1.38582 29.5
      vertex 1.03528 -3.8637 29.5
    endloop
  endfacet
  facet normal -0 0 1
    outer loop
      vertex 0 -1.5 29.5
      vertex 1.03528 -3.8637 29.5
      vertex 0.574024 -1.38582 29.5
    endloop
  endfacet
  facet normal 0 0 1
    outer loop
      vertex 0 -1.5 29.5
      vertex 0 -4 29.5
      vertex 1.03528 -3.8637 29.5
    endloop
  endfacet
  facet normal 0 0 1
    outer loop
      vertex -1.03528 -3.8637 29.5
      vertex 0 -1.5 29.5
      vertex -0.574024 -1.38582 29.5
    endloop
  endfacet
  facet normal 0 0 1
    outer loop
      vertex 0 -1.5 29.5
      vertex -1.03528 -3.8637 29.5
      vertex 0 -4 29.5
    endloop
  endfacet
  facet normal 0 0 1
    outer loop
      vertex -2 -3.4641 29.5
      vertex -0.574024 -1.38582 29.5
      vertex -1.06066 -1.06066 29.5
    endloop
  endfacet
  facet normal 0 0 1
    outer loop
      vertex -3.4641 -2 29.5
      vertex -1.06066 -1.06066 29.5
      vertex -1.38582 -0.574024 29.5
    endloop
  endfacet
  facet normal 0 0 1
    outer loop
      vertex -3.8637 -1.03528 29.5
      vertex -1.38582 -0.574024 29.5
      vertex -1.5 0 29.5
    endloop
  endfacet
  facet normal 0 0 1
    outer loop
      vertex -1.06066 1.06066 29.5
      vertex -3.4641 2 29.5
      vertex -1.38582 0.574024 29.5
    endloop
  endfacet
  facet normal 0 0 1
    outer loop
      vertex -0.574024 -1.38582 29.5
      vertex -2 -3.4641 29.5
      vertex -1.03528 -3.8637 29.5
    endloop
  endfacet
  facet normal -0 0 1
    outer loop
      vertex -3.8637 1.03528 29.5
      vertex -1.38582 0.574024 29.5
      vertex -3.4641 2 29.5
    endloop
  endfacet
  facet normal 0 0 1
    outer loop
      vertex -1.06066 -1.06066 29.5
      vertex -2.82843 -2.82843 29.5
      vertex -2 -3.4641 29.5
    endloop
  endfacet
  facet normal 0 0 1
    outer loop
      vertex -1.38582 0.574024 29.5
      vertex -3.8637 1.03528 29.5
      vertex -1.5 0 29.5
    endloop
  endfacet
  facet normal 0 0 1
    outer loop
      vertex -1.06066 -1.06066 29.5
      vertex -3.4641 -2 29.5
      vertex -2.82843 -2.82843 29.5
    endloop
  endfacet
  facet normal 0 0 1
    outer loop
      vertex -4 0 29.5
      vertex -1.5 0 29.5
      vertex -3.8637 1.03528 29.5
    endloop
  endfacet
  facet normal 0 0 1
    outer loop
      vertex -1.38582 -0.574024 29.5
      vertex -3.8637 -1.03528 29.5
      vertex -3.4641 -2 29.5
    endloop
  endfacet
  facet normal 0 0 1
    outer loop
      vertex -1.5 0 29.5
      vertex -4 0 29.5
      vertex -3.8637 -1.03528 29.5
    endloop
  endfacet
  facet normal -0.130529 0.991445 0
    outer loop
      vertex 0 4 18
      vertex -1.03528 3.8637 29.5
      vertex 0 4 29.5
    endloop
  endfacet
  facet normal -0.130529 0.991445 0
    outer loop
      vertex -1.03528 3.8637 29.5
      vertex 0 4 18
      vertex -1.03528 3.8637 18
    endloop
  endfacet
  facet normal 0.991445 -0.130529 0
    outer loop
      vertex 3.8637 -1.03528 29.5
      vertex 4 0 18
      vertex 4 0 29.5
    endloop
  endfacet
  facet normal 0.991445 -0.130529 0
    outer loop
      vertex 4 0 18
      vertex 3.8637 -1.03528 29.5
      vertex 3.8637 -1.03528 18
    endloop
  endfacet
  facet normal 0.130529 -0.991445 0
    outer loop
      vertex 0 -4 18
      vertex 1.03528 -3.8637 29.5
      vertex 0 -4 29.5
    endloop
  endfacet
  facet normal 0.130529 -0.991445 0
    outer loop
      vertex 1.03528 -3.8637 29.5
      vertex 0 -4 18
      vertex 1.03528 -3.8637 18
    endloop
  endfacet
  facet normal 0.608757 -0.793356 0
    outer loop
      vertex 2 -3.4641 18
      vertex 2.82843 -2.82843 29.5
      vertex 2 -3.4641 29.5
    endloop
  endfacet
  facet normal 0.608757 -0.793356 0
    outer loop
      vertex 2.82843 -2.82843 29.5
      vertex 2 -3.4641 18
      vertex 2.82843 -2.82843 18
    endloop
  endfacet
  facet normal -0.382683 -0.92388 0
    outer loop
      vertex -2 -3.4641 18
      vertex -1.03528 -3.8637 29.5
      vertex -2 -3.4641 29.5
    endloop
  endfacet
  facet normal -0.382683 -0.92388 -0
    outer loop
      vertex -1.03528 -3.8637 29.5
      vertex -2 -3.4641 18
      vertex -1.03528 -3.8637 18
    endloop
  endfacet
  facet normal -0.793356 -0.608757 0
    outer loop
      vertex -2.82843 -2.82843 18
      vertex -3.4641 -2 29.5
      vertex -3.4641 -2 18
    endloop
  endfacet
  facet normal -0.793356 -0.608757 0
    outer loop
      vertex -3.4641 -2 29.5
      vertex -2.82843 -2.82843 18
      vertex -2.82843 -2.82843 29.5
    endloop
  endfacet
  facet normal -0.991445 -0.130529 0
    outer loop
      vertex -3.8637 -1.03528 18
      vertex -4 0 29.5
      vertex -4 0 18
    endloop
  endfacet
  facet normal -0.991445 -0.130529 0
    outer loop
      vertex -4 0 29.5
      vertex -3.8637 -1.03528 18
      vertex -3.8637 -1.03528 29.5
    endloop
  endfacet
  facet normal 0.382683 -0.92388 0
    outer loop
      vertex 1.03528 -3.8637 18
      vertex 2 -3.4641 29.5
      vertex 1.03528 -3.8637 29.5
    endloop
  endfacet
  facet normal 0.382683 -0.92388 0
    outer loop
      vertex 2 -3.4641 29.5
      vertex 1.03528 -3.8637 18
      vertex 2 -3.4641 18
    endloop
  endfacet
  facet normal -0.92388 -0.382683 0
    outer loop
      vertex -3.4641 -2 18
      vertex -3.8637 -1.03528 29.5
      vertex -3.8637 -1.03528 18
    endloop
  endfacet
  facet normal -0.92388 -0.382683 0
    outer loop
      vertex -3.8637 -1.03528 29.5
      vertex -3.4641 -2 18
      vertex -3.4641 -2 29.5
    endloop
  endfacet
  facet normal -0.980785 -0.19509 0
    outer loop
      vertex 1.5 0 18
      vertex 1.38582 0.574024 29.5
      vertex 1.38582 0.574024 18
    endloop
  endfacet
  facet normal -0.980785 -0.19509 0
    outer loop
      vertex 1.38582 0.574024 29.5
      vertex 1.5 0 18
      vertex 1.5 0 29.5
    endloop
  endfacet
  facet normal 0.980785 -0.19509 0
    outer loop
      vertex -1.5 0 29.5
      vertex -1.38582 0.574024 18
      vertex -1.38582 0.574024 29.5
    endloop
  endfacet
  facet normal 0.980785 -0.19509 0
    outer loop
      vertex -1.38582 0.574024 18
      vertex -1.5 0 29.5
      vertex -1.5 0 18
    endloop
  endfacet
  facet normal -0.19509 -0.980785 0
    outer loop
      vertex 0 1.5 18
      vertex 0.574024 1.38582 29.5
      vertex 0 1.5 29.5
    endloop
  endfacet
  facet normal -0.19509 -0.980785 -0
    outer loop
      vertex 0.574024 1.38582 29.5
      vertex 0 1.5 18
      vertex 0.574024 1.38582 18
    endloop
  endfacet
  facet normal -0.831469 -0.55557 0
    outer loop
      vertex 1.38582 0.574024 18
      vertex 1.06066 1.06066 29.5
      vertex 1.06066 1.06066 18
    endloop
  endfacet
  facet normal -0.831469 -0.55557 0
    outer loop
      vertex 1.06066 1.06066 29.5
      vertex 1.38582 0.574024 18
      vertex 1.38582 0.574024 29.5
    endloop
  endfacet
  facet normal -0.19509 0.980785 0
    outer loop
      vertex 0.574024 -1.38582 18
      vertex 0 -1.5 29.5
      vertex 0.574024 -1.38582 29.5
    endloop
  endfacet
  facet normal -0.19509 0.980785 0
    outer loop
      vertex 0 -1.5 29.5
      vertex 0.574024 -1.38582 18
      vertex 0 -1.5 18
    endloop
  endfacet
  facet normal 0.19509 0.980785 -0
    outer loop
      vertex 0 -1.5 18
      vertex -0.574024 -1.38582 29.5
      vertex 0 -1.5 29.5
    endloop
  endfacet
  facet normal 0.19509 0.980785 0
    outer loop
      vertex -0.574024 -1.38582 29.5
      vertex 0 -1.5 18
      vertex -0.574024 -1.38582 18
    endloop
  endfacet
  facet normal -0.55557 -0.831469 0
    outer loop
      vertex 0.574024 1.38582 18
      vertex 1.06066 1.06066 29.5
      vertex 0.574024 1.38582 29.5
    endloop
  endfacet
  facet normal -0.55557 -0.831469 -0
    outer loop
      vertex 1.06066 1.06066 29.5
      vertex 0.574024 1.38582 18
      vertex 1.06066 1.06066 18
    endloop
  endfacet
  facet normal 0.19509 -0.980785 0
    outer loop
      vertex -0.574024 1.38582 18
      vertex 0 1.5 29.5
      vertex -0.574024 1.38582 29.5
    endloop
  endfacet
  facet normal 0.19509 -0.980785 0
    outer loop
      vertex 0 1.5 29.5
      vertex -0.574024 1.38582 18
      vertex 0 1.5 18
    endloop
  endfacet
  facet normal 0.55557 -0.831469 0
    outer loop
      vertex -1.06066 1.06066 18
      vertex -0.574024 1.38582 29.5
      vertex -1.06066 1.06066 29.5
    endloop
  endfacet
  facet normal 0.55557 -0.831469 0
    outer loop
      vertex -0.574024 1.38582 29.5
      vertex -1.06066 1.06066 18
      vertex -0.574024 1.38582 18
    endloop
  endfacet
  facet normal 0.980785 0.19509 0
    outer loop
      vertex -1.38582 -0.574024 29.5
      vertex -1.5 0 18
      vertex -1.5 0 29.5
    endloop
  endfacet
  facet normal 0.980785 0.19509 0
    outer loop
      vertex -1.5 0 18
      vertex -1.38582 -0.574024 29.5
      vertex -1.38582 -0.574024 18
    endloop
  endfacet
  facet normal 0.55557 0.831469 -0
    outer loop
      vertex -0.574024 -1.38582 18
      vertex -1.06066 -1.06066 29.5
      vertex -0.574024 -1.38582 29.5
    endloop
  endfacet
  facet normal 0.55557 0.831469 0
    outer loop
      vertex -1.06066 -1.06066 29.5
      vertex -0.574024 -1.38582 18
      vertex -1.06066 -1.06066 18
    endloop
  endfacet
  facet normal 0.831469 0.55557 0
    outer loop
      vertex -1.06066 -1.06066 29.5
      vertex -1.38582 -0.574024 18
      vertex -1.38582 -0.574024 29.5
    endloop
  endfacet
  facet normal 0.831469 0.55557 0
    outer loop
      vertex -1.38582 -0.574024 18
      vertex -1.06066 -1.06066 29.5
      vertex -1.06066 -1.06066 18
    endloop
  endfacet
  facet normal 0.831469 -0.55557 0
    outer loop
      vertex -1.38582 0.574024 29.5
      vertex -1.06066 1.06066 18
      vertex -1.06066 1.06066 29.5
    endloop
  endfacet
  facet normal 0.831469 -0.55557 0
    outer loop
      vertex -1.06066 1.06066 18
      vertex -1.38582 0.574024 29.5
      vertex -1.38582 0.574024 18
    endloop
  endfacet
  facet normal -0.831469 0.55557 0
    outer loop
      vertex 1.06066 -1.06066 18
      vertex 1.38582 -0.574024 29.5
      vertex 1.38582 -0.574024 18
    endloop
  endfacet
  facet normal -0.831469 0.55557 0
    outer loop
      vertex 1.38582 -0.574024 29.5
      vertex 1.06066 -1.06066 18
      vertex 1.06066 -1.06066 29.5
    endloop
  endfacet
  facet normal -0.55557 0.831469 0
    outer loop
      vertex 1.06066 -1.06066 18
      vertex 0.574024 -1.38582 29.5
      vertex 1.06066 -1.06066 29.5
    endloop
  endfacet
  facet normal -0.55557 0.831469 0
    outer loop
      vertex 0.574024 -1.38582 29.5
      vertex 1.06066 -1.06066 18
      vertex 0.574024 -1.38582 18
    endloop
  endfacet
  facet normal -0.980785 0.19509 0
    outer loop
      vertex 1.38582 -0.574024 18
      vertex 1.5 0 29.5
      vertex 1.5 0 18
    endloop
  endfacet
  facet normal -0.980785 0.19509 0
    outer loop
      vertex 1.5 0 29.5
      vertex 1.38582 -0.574024 18
      vertex 1.38582 -0.574024 29.5
    endloop
  endfacet
  facet normal 0.987688 0.156434 0
    outer loop
      vertex 6 0 33.5
      vertex 5.70634 1.8541 31.5
      vertex 5.70634 1.8541 33.5
    endloop
  endfacet
  facet normal 0.987688 0.156434 0
    outer loop
      vertex 5.70634 1.8541 31.5
      vertex 6 0 33.5
      vertex 6 0 31.5
    endloop
  endfacet
  facet normal -0.987688 0.156434 0
    outer loop
      vertex -6 0 31.5
      vertex -5.70634 1.8541 33.5
      vertex -5.70634 1.8541 31.5
    endloop
  endfacet
  facet normal -0.987688 0.156434 0
    outer loop
      vertex -5.70634 1.8541 33.5
      vertex -6 0 31.5
      vertex -6 0 33.5
    endloop
  endfacet
  facet normal 0.453992 0.891006 -0
    outer loop
      vertex 3.52671 4.8541 31.5
      vertex 1.8541 5.70634 33.5
      vertex 3.52671 4.8541 33.5
    endloop
  endfacet
  facet normal 0.453992 0.891006 0
    outer loop
      vertex 1.8541 5.70634 33.5
      vertex 3.52671 4.8541 31.5
      vertex 1.8541 5.70634 31.5
    endloop
  endfacet
  facet normal 0.156434 -0.987688 0
    outer loop
      vertex 0 -6 31.5
      vertex 1.8541 -5.70634 33.5
      vertex 0 -6 33.5
    endloop
  endfacet
  facet normal 0.156434 -0.987688 0
    outer loop
      vertex 1.8541 -5.70634 33.5
      vertex 0 -6 31.5
      vertex 1.8541 -5.70634 31.5
    endloop
  endfacet
  facet normal -0.156434 -0.987688 0
    outer loop
      vertex -1.8541 -5.70634 31.5
      vertex 0 -6 33.5
      vertex -1.8541 -5.70634 33.5
    endloop
  endfacet
  facet normal -0.156434 -0.987688 -0
    outer loop
      vertex 0 -6 33.5
      vertex -1.8541 -5.70634 31.5
      vertex 0 -6 31.5
    endloop
  endfacet
  facet normal 0.707107 0.707107 0
    outer loop
      vertex 4.8541 3.52671 33.5
      vertex 3.52671 4.8541 31.5
      vertex 3.52671 4.8541 33.5
    endloop
  endfacet
  facet normal 0.707107 0.707107 0
    outer loop
      vertex 3.52671 4.8541 31.5
      vertex 4.8541 3.52671 33.5
      vertex 4.8541 3.52671 31.5
    endloop
  endfacet
  facet normal 0.891006 0.453992 0
    outer loop
      vertex 5.70634 1.8541 33.5
      vertex 4.8541 3.52671 31.5
      vertex 4.8541 3.52671 33.5
    endloop
  endfacet
  facet normal 0.891006 0.453992 0
    outer loop
      vertex 4.8541 3.52671 31.5
      vertex 5.70634 1.8541 33.5
      vertex 5.70634 1.8541 31.5
    endloop
  endfacet
  facet normal 0.156434 0.987688 -0
    outer loop
      vertex 1.8541 5.70634 31.5
      vertex 0 6 33.5
      vertex 1.8541 5.70634 33.5
    endloop
  endfacet
  facet normal 0.156434 0.987688 0
    outer loop
      vertex 0 6 33.5
      vertex 1.8541 5.70634 31.5
      vertex 0 6 31.5
    endloop
  endfacet
  facet normal -0.156434 0.987688 0
    outer loop
      vertex 0 6 31.5
      vertex -1.8541 5.70634 33.5
      vertex 0 6 33.5
    endloop
  endfacet
  facet normal -0.156434 0.987688 0
    outer loop
      vertex -1.8541 5.70634 33.5
      vertex 0 6 31.5
      vertex -1.8541 5.70634 31.5
    endloop
  endfacet
  facet normal -0.891006 0.453992 0
    outer loop
      vertex -5.70634 1.8541 31.5
      vertex -4.8541 3.52671 33.5
      vertex -4.8541 3.52671 31.5
    endloop
  endfacet
  facet normal -0.891006 0.453992 0
    outer loop
      vertex -4.8541 3.52671 33.5
      vertex -5.70634 1.8541 31.5
      vertex -5.70634 1.8541 33.5
    endloop
  endfacet
  facet normal -0.453992 0.891006 0
    outer loop
      vertex -1.8541 5.70634 31.5
      vertex -3.52671 4.8541 33.5
      vertex -1.8541 5.70634 33.5
    endloop
  endfacet
  facet normal -0.453992 0.891006 0
    outer loop
      vertex -3.52671 4.8541 33.5
      vertex -1.8541 5.70634 31.5
      vertex -3.52671 4.8541 31.5
    endloop
  endfacet
  facet normal -0.987688 -0.156434 0
    outer loop
      vertex -5.70634 -1.8541 31.5
      vertex -6 0 33.5
      vertex -6 0 31.5
    endloop
  endfacet
  facet normal -0.987688 -0.156434 0
    outer loop
      vertex -6 0 33.5
      vertex -5.70634 -1.8541 31.5
      vertex -5.70634 -1.8541 33.5
    endloop
  endfacet
  facet normal 0 0 -1
    outer loop
      vertex 5.70634 -1.8541 31.5
      vertex 5.70634 1.8541 31.5
      vertex 6 0 31.5
    endloop
  endfacet
  facet normal 0 0 -1
    outer loop
      vertex 4.8541 -3.52671 31.5
      vertex 5.70634 1.8541 31.5
      vertex 5.70634 -1.8541 31.5
    endloop
  endfacet
  facet normal 0 0 -1
    outer loop
      vertex 4.8541 -3.52671 31.5
      vertex 4.8541 3.52671 31.5
      vertex 5.70634 1.8541 31.5
    endloop
  endfacet
  facet normal 0 0 -1
    outer loop
      vertex 3.52671 -4.8541 31.5
      vertex 4.8541 3.52671 31.5
      vertex 4.8541 -3.52671 31.5
    endloop
  endfacet
  facet normal 0 0 -1
    outer loop
      vertex 3.52671 -4.8541 31.5
      vertex 3.52671 4.8541 31.5
      vertex 4.8541 3.52671 31.5
    endloop
  endfacet
  facet normal 0 0 -1
    outer loop
      vertex 1.8541 -5.70634 31.5
      vertex 3.52671 4.8541 31.5
      vertex 3.52671 -4.8541 31.5
    endloop
  endfacet
  facet normal 0 0 -1
    outer loop
      vertex 1.8541 -5.70634 31.5
      vertex 1.8541 5.70634 31.5
      vertex 3.52671 4.8541 31.5
    endloop
  endfacet
  facet normal 0 0 -1
    outer loop
      vertex 0 -6 31.5
      vertex 1.8541 5.70634 31.5
      vertex 1.8541 -5.70634 31.5
    endloop
  endfacet
  facet normal 0 0 -1
    outer loop
      vertex 0 -6 31.5
      vertex 0 6 31.5
      vertex 1.8541 5.70634 31.5
    endloop
  endfacet
  facet normal 0 0 -1
    outer loop
      vertex -1.8541 -5.70634 31.5
      vertex 0 6 31.5
      vertex 0 -6 31.5
    endloop
  endfacet
  facet normal 0 0 -1
    outer loop
      vertex -1.8541 -5.70634 31.5
      vertex -1.8541 5.70634 31.5
      vertex 0 6 31.5
    endloop
  endfacet
  facet normal 0 0 -1
    outer loop
      vertex -3.52671 -4.8541 31.5
      vertex -1.8541 5.70634 31.5
      vertex -1.8541 -5.70634 31.5
    endloop
  endfacet
  facet normal 0 0 -1
    outer loop
      vertex -3.52671 -4.8541 31.5
      vertex -3.52671 4.8541 31.5
      vertex -1.8541 5.70634 31.5
    endloop
  endfacet
  facet normal 0 0 -1
    outer loop
      vertex -4.8541 -3.52671 31.5
      vertex -3.52671 4.8541 31.5
      vertex -3.52671 -4.8541 31.5
    endloop
  endfacet
  facet normal 0 0 -1
    outer loop
      vertex -4.8541 -3.52671 31.5
      vertex -4.8541 3.52671 31.5
      vertex -3.52671 4.8541 31.5
    endloop
  endfacet
  facet normal 0 0 -1
    outer loop
      vertex -5.70634 -1.8541 31.5
      vertex -4.8541 3.52671 31.5
      vertex -4.8541 -3.52671 31.5
    endloop
  endfacet
  facet normal 0 0 -1
    outer loop
      vertex -5.70634 -1.8541 31.5
      vertex -5.70634 1.8541 31.5
      vertex -4.8541 3.52671 31.5
    endloop
  endfacet
  facet normal 0 -0 -1
    outer loop
      vertex -5.70634 1.8541 31.5
      vertex -5.70634 -1.8541 31.5
      vertex -6 0 31.5
    endloop
  endfacet
  facet normal 0 0 1
    outer loop
      vertex 5.70634 1.8541 33.5
      vertex 5.70634 -1.8541 33.5
      vertex 6 0 33.5
    endloop
  endfacet
  facet normal 0 0 1
    outer loop
      vertex 4.8541 3.52671 33.5
      vertex 5.70634 -1.8541 33.5
      vertex 5.70634 1.8541 33.5
    endloop
  endfacet
  facet normal 0 0 1
    outer loop
      vertex 4.8541 3.52671 33.5
      vertex 4.8541 -3.52671 33.5
      vertex 5.70634 -1.8541 33.5
    endloop
  endfacet
  facet normal 0 0 1
    outer loop
      vertex 3.52671 4.8541 33.5
      vertex 4.8541 -3.52671 33.5
      vertex 4.8541 3.52671 33.5
    endloop
  endfacet
  facet normal 0 0 1
    outer loop
      vertex 3.52671 4.8541 33.5
      vertex 3.52671 -4.8541 33.5
      vertex 4.8541 -3.52671 33.5
    endloop
  endfacet
  facet normal 0 0 1
    outer loop
      vertex 1.8541 5.70634 33.5
      vertex 3.52671 -4.8541 33.5
      vertex 3.52671 4.8541 33.5
    endloop
  endfacet
  facet normal 0 0 1
    outer loop
      vertex 1.8541 5.70634 33.5
      vertex 1.8541 -5.70634 33.5
      vertex 3.52671 -4.8541 33.5
    endloop
  endfacet
  facet normal 0 0 1
    outer loop
      vertex 0 6 33.5
      vertex 1.8541 -5.70634 33.5
      vertex 1.8541 5.70634 33.5
    endloop
  endfacet
  facet normal 0 0 1
    outer loop
      vertex 0 6 33.5
      vertex 0 -6 33.5
      vertex 1.8541 -5.70634 33.5
    endloop
  endfacet
  facet normal -0 0 1
    outer loop
      vertex -1.8541 5.70634 33.5
      vertex 0 -6 33.5
      vertex 0 6 33.5
    endloop
  endfacet
  facet normal 0 0 1
    outer loop
      vertex -1.8541 5.70634 33.5
      vertex -1.8541 -5.70634 33.5
      vertex 0 -6 33.5
    endloop
  endfacet
  facet normal -0 0 1
    outer loop
      vertex -3.52671 4.8541 33.5
      vertex -1.8541 -5.70634 33.5
      vertex -1.8541 5.70634 33.5
    endloop
  endfacet
  facet normal 0 0 1
    outer loop
      vertex -3.52671 4.8541 33.5
      vertex -3.52671 -4.8541 33.5
      vertex -1.8541 -5.70634 33.5
    endloop
  endfacet
  facet normal -0 0 1
    outer loop
      vertex -4.8541 3.52671 33.5
      vertex -3.52671 -4.8541 33.5
      vertex -3.52671 4.8541 33.5
    endloop
  endfacet
  facet normal 0 0 1
    outer loop
      vertex -4.8541 3.52671 33.5
      vertex -4.8541 -3.52671 33.5
      vertex -3.52671 -4.8541 33.5
    endloop
  endfacet
  facet normal -0 0 1
    outer loop
      vertex -5.70634 1.8541 33.5
      vertex -4.8541 -3.52671 33.5
      vertex -4.8541 3.52671 33.5
    endloop
  endfacet
  facet normal 0 0 1
    outer loop
      vertex -5.70634 1.8541 33.5
      vertex -5.70634 -1.8541 33.5
      vertex -4.8541 -3.52671 33.5
    endloop
  endfacet
  facet normal 0 -0 1
    outer loop
      vertex -5.70634 -1.8541 33.5
      vertex -5.70634 1.8541 33.5
      vertex -6 0 33.5
    endloop
  endfacet
  facet normal -0.707107 0.707107 0
    outer loop
      vertex -4.8541 3.52671 31.5
      vertex -3.52671 4.8541 33.5
      vertex -3.52671 4.8541 31.5
    endloop
  endfacet
  facet normal -0.707107 0.707107 0
    outer loop
      vertex -3.52671 4.8541 33.5
      vertex -4.8541 3.52671 31.5
      vertex -4.8541 3.52671 33.5
    endloop
  endfacet
  facet normal 0.891006 -0.453992 0
    outer loop
      vertex 4.8541 -3.52671 33.5
      vertex 5.70634 -1.8541 31.5
      vertex 5.70634 -1.8541 33.5
    endloop
  endfacet
  facet normal 0.891006 -0.453992 0
    outer loop
      vertex 5.70634 -1.8541 31.5
      vertex 4.8541 -3.52671 33.5
      vertex 4.8541 -3.52671 31.5
    endloop
  endfacet
  facet normal 0.453992 -0.891006 0
    outer loop
      vertex 1.8541 -5.70634 31.5
      vertex 3.52671 -4.8541 33.5
      vertex 1.8541 -5.70634 33.5
    endloop
  endfacet
  facet normal 0.453992 -0.891006 0
    outer loop
      vertex 3.52671 -4.8541 33.5
      vertex 1.8541 -5.70634 31.5
      vertex 3.52671 -4.8541 31.5
    endloop
  endfacet
  facet normal 0.987688 -0.156434 0
    outer loop
      vertex 5.70634 -1.8541 33.5
      vertex 6 0 31.5
      vertex 6 0 33.5
    endloop
  endfacet
  facet normal 0.987688 -0.156434 0
    outer loop
      vertex 6 0 31.5
      vertex 5.70634 -1.8541 33.5
      vertex 5.70634 -1.8541 31.5
    endloop
  endfacet
  facet normal -0.707107 -0.707107 0
    outer loop
      vertex -3.52671 -4.8541 31.5
      vertex -4.8541 -3.52671 33.5
      vertex -4.8541 -3.52671 31.5
    endloop
  endfacet
  facet normal -0.707107 -0.707107 0
    outer loop
      vertex -4.8541 -3.52671 33.5
      vertex -3.52671 -4.8541 31.5
      vertex -3.52671 -4.8541 33.5
    endloop
  endfacet
  facet normal -0.891006 -0.453992 0
    outer loop
      vertex -4.8541 -3.52671 31.5
      vertex -5.70634 -1.8541 33.5
      vertex -5.70634 -1.8541 31.5
    endloop
  endfacet
  facet normal -0.891006 -0.453992 0
    outer loop
      vertex -5.70634 -1.8541 33.5
      vertex -4.8541 -3.52671 31.5
      vertex -4.8541 -3.52671 33.5
    endloop
  endfacet
  facet normal -0.453992 -0.891006 0
    outer loop
      vertex -3.52671 -4.8541 31.5
      vertex -1.8541 -5.70634 33.5
      vertex -3.52671 -4.8541 33.5
    endloop
  endfacet
  facet normal -0.453992 -0.891006 -0
    outer loop
      vertex -1.8541 -5.70634 33.5
      vertex -3.52671 -4.8541 31.5
      vertex -1.8541 -5.70634 31.5
    endloop
  endfacet
  facet normal 0.707107 -0.707107 0
    outer loop
      vertex 3.52671 -4.8541 33.5
      vertex 4.8541 -3.52671 31.5
      vertex 4.8541 -3.52671 33.5
    endloop
  endfacet
  facet normal 0.707107 -0.707107 0
    outer loop
      vertex 4.8541 -3.52671 31.5
      vertex 3.52671 -4.8541 33.5
      vertex 3.52671 -4.8541 31.5
    endloop
  endfacet
  facet normal 0.987688 0.156434 0
    outer loop
      vertex 6 0 18
      vertex 5.70634 1.8541 16
      vertex 5.70634 1.8541 18
    endloop
  endfacet
  facet normal 0.987688 0.156434 0
    outer loop
      vertex 5.70634 1.8541 16
      vertex 6 0 18
      vertex 6 0 16
    endloop
  endfacet
  facet normal -0.987688 0.156434 0
    outer loop
      vertex -6 0 16
      vertex -5.70634 1.8541 18
      vertex -5.70634 1.8541 16
    endloop
  endfacet
  facet normal -0.987688 0.156434 0
    outer loop
      vertex -5.70634 1.8541 18
      vertex -6 0 16
      vertex -6 0 18
    endloop
  endfacet
  facet normal 0.453992 0.891006 -3.95392e-09
    outer loop
      vertex 2 5.632 16.4641
      vertex 1.8541 5.70634 18
      vertex 3.52671 4.8541 18
    endloop
  endfacet
  facet normal 0.453992 0.891006 0
    outer loop
      vertex 1.8541 5.70634 18
      vertex 2 5.632 16.4641
      vertex 1.8541 5.70634 16.5245
    endloop
  endfacet
  facet normal 0.453989 0.891007 0
    outer loop
      vertex 2.60483 5.32382 16
      vertex 3.52671 4.8541 18
      vertex 3.52671 4.8541 16
    endloop
  endfacet
  facet normal 0.453993 0.891005 -2.30208e-06
    outer loop
      vertex 3.52671 4.8541 18
      vertex 2.60483 5.32382 16
      vertex 2 5.632 16.4641
    endloop
  endfacet
  facet normal 0.156432 -0.987689 0
    outer loop
      vertex 1.03528 -5.83603 16.8637
      vertex 0 -6 18
      vertex 0 -6 17
    endloop
  endfacet
  facet normal 0.156434 -0.987688 1.66323e-06
    outer loop
      vertex 0 -6 18
      vertex 1.03528 -5.83603 16.8637
      vertex 1.8541 -5.70634 18
    endloop
  endfacet
  facet normal 0.156436 -0.987688 0
    outer loop
      vertex 1.8541 -5.70634 18
      vertex 1.03528 -5.83603 16.8637
      vertex 1.8541 -5.70634 16.5245
    endloop
  endfacet
  facet normal -0.156434 -0.987688 1.66323e-06
    outer loop
      vertex -1.03528 -5.83603 16.8637
      vertex 0 -6 18
      vertex -1.8541 -5.70634 18
    endloop
  endfacet
  facet normal -0.156432 -0.987689 -0
    outer loop
      vertex 0 -6 18
      vertex -1.03528 -5.83603 16.8637
      vertex 0 -6 17
    endloop
  endfacet
  facet normal -0.156436 -0.987688 0
    outer loop
      vertex -1.03528 -5.83603 16.8637
      vertex -1.8541 -5.70634 18
      vertex -1.8541 -5.70634 16.5245
    endloop
  endfacet
  facet normal 0.707107 0.707107 0
    outer loop
      vertex 4.8541 3.52671 18
      vertex 3.52671 4.8541 16
      vertex 3.52671 4.8541 18
    endloop
  endfacet
  facet normal 0.707107 0.707107 0
    outer loop
      vertex 3.52671 4.8541 16
      vertex 4.8541 3.52671 18
      vertex 4.8541 3.52671 16
    endloop
  endfacet
  facet normal 0.891006 0.453992 0
    outer loop
      vertex 5.70634 1.8541 18
      vertex 4.8541 3.52671 16
      vertex 4.8541 3.52671 18
    endloop
  endfacet
  facet normal 0.891006 0.453992 0
    outer loop
      vertex 4.8541 3.52671 16
      vertex 5.70634 1.8541 18
      vertex 5.70634 1.8541 16
    endloop
  endfacet
  facet normal 0.156434 0.987688 1.66323e-06
    outer loop
      vertex 1.03528 5.83603 16.8637
      vertex 0 6 18
      vertex 1.8541 5.70634 18
    endloop
  endfacet
  facet normal 0.156432 0.987689 0
    outer loop
      vertex 0 6 18
      vertex 1.03528 5.83603 16.8637
      vertex 0 6 17
    endloop
  endfacet
  facet normal 0.156436 0.987688 0
    outer loop
      vertex 1.03528 5.83603 16.8637
      vertex 1.8541 5.70634 18
      vertex 1.8541 5.70634 16.5245
    endloop
  endfacet
  facet normal -0.156432 0.987689 0
    outer loop
      vertex -1.03528 5.83603 16.8637
      vertex 0 6 18
      vertex 0 6 17
    endloop
  endfacet
  facet normal -0.156434 0.987688 1.66323e-06
    outer loop
      vertex 0 6 18
      vertex -1.03528 5.83603 16.8637
      vertex -1.8541 5.70634 18
    endloop
  endfacet
  facet normal -0.156436 0.987688 0
    outer loop
      vertex -1.8541 5.70634 18
      vertex -1.03528 5.83603 16.8637
      vertex -1.8541 5.70634 16.5245
    endloop
  endfacet
  facet normal -0.891006 0.453992 0
    outer loop
      vertex -5.70634 1.8541 16
      vertex -4.8541 3.52671 18
      vertex -4.8541 3.52671 16
    endloop
  endfacet
  facet normal -0.891006 0.453992 0
    outer loop
      vertex -4.8541 3.52671 18
      vertex -5.70634 1.8541 16
      vertex -5.70634 1.8541 18
    endloop
  endfacet
  facet normal -0.453992 0.891006 0
    outer loop
      vertex -2 5.632 16.4641
      vertex -1.8541 5.70634 18
      vertex -1.8541 5.70634 16.5245
    endloop
  endfacet
  facet normal -0.453992 0.891006 -3.95392e-09
    outer loop
      vertex -1.8541 5.70634 18
      vertex -2 5.632 16.4641
      vertex -3.52671 4.8541 18
    endloop
  endfacet
  facet normal -0.453993 0.891005 -2.30208e-06
    outer loop
      vertex -2.60483 5.32382 16
      vertex -3.52671 4.8541 18
      vertex -2 5.632 16.4641
    endloop
  endfacet
  facet normal -0.453989 0.891007 0
    outer loop
      vertex -3.52671 4.8541 18
      vertex -2.60483 5.32382 16
      vertex -3.52671 4.8541 16
    endloop
  endfacet
  facet normal -0.987688 -0.156434 0
    outer loop
      vertex -5.70634 -1.8541 16
      vertex -6 0 18
      vertex -6 0 16
    endloop
  endfacet
  facet normal -0.987688 -0.156434 0
    outer loop
      vertex -6 0 18
      vertex -5.70634 -1.8541 16
      vertex -5.70634 -1.8541 18
    endloop
  endfacet
  facet normal 0 0 -1
    outer loop
      vertex 5.70634 -1.8541 16
      vertex 5.70634 1.8541 16
      vertex 6 0 16
    endloop
  endfacet
  facet normal 0 0 -1
    outer loop
      vertex 2.60483 -5.32382 16
      vertex 5.70634 -1.8541 16
      vertex 4.8541 -3.52671 16
    endloop
  endfacet
  facet normal -0 0 -1
    outer loop
      vertex 5.70634 -1.8541 16
      vertex 2.60483 -5.32382 16
      vertex 5.70634 1.8541 16
    endloop
  endfacet
  facet normal 0 0 -1
    outer loop
      vertex 2.60483 -5.32382 16
      vertex 4.8541 -3.52671 16
      vertex 3.52671 -4.8541 16
    endloop
  endfacet
  facet normal 0 0 -1
    outer loop
      vertex 2.60483 5.32382 16
      vertex 5.70634 1.8541 16
      vertex 2.60483 -5.32382 16
    endloop
  endfacet
  facet normal 0 0 -1
    outer loop
      vertex 5.70634 1.8541 16
      vertex 2.60483 5.32382 16
      vertex 4.8541 3.52671 16
    endloop
  endfacet
  facet normal 0 0 -1
    outer loop
      vertex 4.8541 3.52671 16
      vertex 2.60483 5.32382 16
      vertex 3.52671 4.8541 16
    endloop
  endfacet
  facet normal 0 0 -1
    outer loop
      vertex -4.8541 -3.52671 16
      vertex -2.60483 -5.32382 16
      vertex -3.52671 -4.8541 16
    endloop
  endfacet
  facet normal 0 0 -1
    outer loop
      vertex -5.70634 -1.8541 16
      vertex -2.60483 -5.32382 16
      vertex -4.8541 -3.52671 16
    endloop
  endfacet
  facet normal 0 0 -1
    outer loop
      vertex -2.60483 -5.32382 16
      vertex -5.70634 -1.8541 16
      vertex -2.60483 5.32382 16
    endloop
  endfacet
  facet normal 0 0 -1
    outer loop
      vertex -2.60483 5.32382 16
      vertex -4.8541 3.52671 16
      vertex -3.52671 4.8541 16
    endloop
  endfacet
  facet normal 0 0 -1
    outer loop
      vertex -5.70634 1.8541 16
      vertex -2.60483 5.32382 16
      vertex -5.70634 -1.8541 16
    endloop
  endfacet
  facet normal 0 0 -1
    outer loop
      vertex -2.60483 5.32382 16
      vertex -5.70634 1.8541 16
      vertex -4.8541 3.52671 16
    endloop
  endfacet
  facet normal 0 -0 -1
    outer loop
      vertex -5.70634 1.8541 16
      vertex -5.70634 -1.8541 16
      vertex -6 0 16
    endloop
  endfacet
  facet normal -0 0 1
    outer loop
      vertex 3.8637 1.03528 18
      vertex 6 0 18
      vertex 5.70634 1.8541 18
    endloop
  endfacet
  facet normal -0 0 1
    outer loop
      vertex 3.4641 2 18
      vertex 5.70634 1.8541 18
      vertex 4.8541 3.52671 18
    endloop
  endfacet
  facet normal 0 0 1
    outer loop
      vertex 6 0 18
      vertex 3.8637 1.03528 18
      vertex 4 0 18
    endloop
  endfacet
  facet normal 0 0 1
    outer loop
      vertex 6 0 18
      vertex 3.8637 -1.03528 18
      vertex 5.70634 -1.8541 18
    endloop
  endfacet
  facet normal 0 0 1
    outer loop
      vertex 3.8637 -1.03528 18
      vertex 6 0 18
      vertex 4 0 18
    endloop
  endfacet
  facet normal 0 0 1
    outer loop
      vertex 2.82843 2.82843 18
      vertex 4.8541 3.52671 18
      vertex 3.52671 4.8541 18
    endloop
  endfacet
  facet normal 0 0 1
    outer loop
      vertex 5.70634 1.8541 18
      vertex 3.4641 2 18
      vertex 3.8637 1.03528 18
    endloop
  endfacet
  facet normal 0 0 1
    outer loop
      vertex 4.8541 3.52671 18
      vertex 2.82843 2.82843 18
      vertex 3.4641 2 18
    endloop
  endfacet
  facet normal 0 0 1
    outer loop
      vertex 3.52671 4.8541 18
      vertex 2 3.4641 18
      vertex 2.82843 2.82843 18
    endloop
  endfacet
  facet normal 0 0 1
    outer loop
      vertex 1.8541 5.70634 18
      vertex 2 3.4641 18
      vertex 3.52671 4.8541 18
    endloop
  endfacet
  facet normal 0 0 1
    outer loop
      vertex 1.8541 5.70634 18
      vertex 1.03528 3.8637 18
      vertex 2 3.4641 18
    endloop
  endfacet
  facet normal 0 0 1
    outer loop
      vertex 0 6 18
      vertex 1.03528 3.8637 18
      vertex 1.8541 5.70634 18
    endloop
  endfacet
  facet normal 0 0 1
    outer loop
      vertex 0 6 18
      vertex 0 4 18
      vertex 1.03528 3.8637 18
    endloop
  endfacet
  facet normal 0 0 1
    outer loop
      vertex 0 6 18
      vertex -1.03528 3.8637 18
      vertex 0 4 18
    endloop
  endfacet
  facet normal -0 0 1
    outer loop
      vertex -1.8541 5.70634 18
      vertex -1.03528 3.8637 18
      vertex 0 6 18
    endloop
  endfacet
  facet normal 0 0 1
    outer loop
      vertex -1.8541 5.70634 18
      vertex -2 3.4641 18
      vertex -1.03528 3.8637 18
    endloop
  endfacet
  facet normal -0 0 1
    outer loop
      vertex -3.52671 4.8541 18
      vertex -2 3.4641 18
      vertex -1.8541 5.70634 18
    endloop
  endfacet
  facet normal 0 0 1
    outer loop
      vertex -2 3.4641 18
      vertex -3.52671 4.8541 18
      vertex -2.82843 2.82843 18
    endloop
  endfacet
  facet normal -0 0 1
    outer loop
      vertex -4.8541 3.52671 18
      vertex -2.82843 2.82843 18
      vertex -3.52671 4.8541 18
    endloop
  endfacet
  facet normal 0 0 1
    outer loop
      vertex -2.82843 2.82843 18
      vertex -4.8541 3.52671 18
      vertex -3.4641 2 18
    endloop
  endfacet
  facet normal 0 0 1
    outer loop
      vertex -5.70634 1.8541 18
      vertex -3.4641 2 18
      vertex -4.8541 3.52671 18
    endloop
  endfacet
  facet normal 0 0 1
    outer loop
      vertex -3.4641 2 18
      vertex -5.70634 1.8541 18
      vertex -3.8637 1.03528 18
    endloop
  endfacet
  facet normal 0 0 1
    outer loop
      vertex 3.4641 -2 18
      vertex 5.70634 -1.8541 18
      vertex 3.8637 -1.03528 18
    endloop
  endfacet
  facet normal 0 0 1
    outer loop
      vertex 5.70634 -1.8541 18
      vertex 3.4641 -2 18
      vertex 4.8541 -3.52671 18
    endloop
  endfacet
  facet normal -0 0 1
    outer loop
      vertex 2.82843 -2.82843 18
      vertex 4.8541 -3.52671 18
      vertex 3.4641 -2 18
    endloop
  endfacet
  facet normal 0 0 1
    outer loop
      vertex 4.8541 -3.52671 18
      vertex 2.82843 -2.82843 18
      vertex 3.52671 -4.8541 18
    endloop
  endfacet
  facet normal -0 0 1
    outer loop
      vertex 2 -3.4641 18
      vertex 3.52671 -4.8541 18
      vertex 2.82843 -2.82843 18
    endloop
  endfacet
  facet normal 0 0 1
    outer loop
      vertex 2 -3.4641 18
      vertex 1.8541 -5.70634 18
      vertex 3.52671 -4.8541 18
    endloop
  endfacet
  facet normal -0 0 1
    outer loop
      vertex 1.03528 -3.8637 18
      vertex 1.8541 -5.70634 18
      vertex 2 -3.4641 18
    endloop
  endfacet
  facet normal 0 0 1
    outer loop
      vertex 0 -6 18
      vertex 1.03528 -3.8637 18
      vertex 0 -4 18
    endloop
  endfacet
  facet normal 0 0 1
    outer loop
      vertex 1.03528 -3.8637 18
      vertex 0 -6 18
      vertex 1.8541 -5.70634 18
    endloop
  endfacet
  facet normal 0 0 1
    outer loop
      vertex -1.03528 -3.8637 18
      vertex 0 -6 18
      vertex 0 -4 18
    endloop
  endfacet
  facet normal 0 0 1
    outer loop
      vertex -1.03528 -3.8637 18
      vertex -1.8541 -5.70634 18
      vertex 0 -6 18
    endloop
  endfacet
  facet normal 0 0 1
    outer loop
      vertex -2 -3.4641 18
      vertex -1.8541 -5.70634 18
      vertex -1.03528 -3.8637 18
    endloop
  endfacet
  facet normal 0 0 1
    outer loop
      vertex -3.52671 -4.8541 18
      vertex -2 -3.4641 18
      vertex -2.82843 -2.82843 18
    endloop
  endfacet
  facet normal 0 0 1
    outer loop
      vertex -4.8541 -3.52671 18
      vertex -2.82843 -2.82843 18
      vertex -3.4641 -2 18
    endloop
  endfacet
  facet normal 0 0 1
    outer loop
      vertex -2 -3.4641 18
      vertex -3.52671 -4.8541 18
      vertex -1.8541 -5.70634 18
    endloop
  endfacet
  facet normal -0 0 1
    outer loop
      vertex -5.70634 -1.8541 18
      vertex -3.4641 -2 18
      vertex -3.8637 -1.03528 18
    endloop
  endfacet
  facet normal -0 0 1
    outer loop
      vertex -6 0 18
      vertex -3.8637 -1.03528 18
      vertex -4 0 18
    endloop
  endfacet
  facet normal 0 0 1
    outer loop
      vertex -6 0 18
      vertex -3.8637 1.03528 18
      vertex -5.70634 1.8541 18
    endloop
  endfacet
  facet normal 0 0 1
    outer loop
      vertex -2.82843 -2.82843 18
      vertex -4.8541 -3.52671 18
      vertex -3.52671 -4.8541 18
    endloop
  endfacet
  facet normal 0 0 1
    outer loop
      vertex -3.8637 1.03528 18
      vertex -6 0 18
      vertex -4 0 18
    endloop
  endfacet
  facet normal 0 0 1
    outer loop
      vertex -3.4641 -2 18
      vertex -5.70634 -1.8541 18
      vertex -4.8541 -3.52671 18
    endloop
  endfacet
  facet normal 0 0 1
    outer loop
      vertex -3.8637 -1.03528 18
      vertex -6 0 18
      vertex -5.70634 -1.8541 18
    endloop
  endfacet
  facet normal 0 0 1
    outer loop
      vertex 1.38582 0.574024 18
      vertex 1.38582 -0.574024 18
      vertex 1.5 0 18
    endloop
  endfacet
  facet normal 0 0 1
    outer loop
      vertex 1.06066 1.06066 18
      vertex 1.38582 -0.574024 18
      vertex 1.38582 0.574024 18
    endloop
  endfacet
  facet normal 0 0 1
    outer loop
      vertex 1.06066 1.06066 18
      vertex 1.06066 -1.06066 18
      vertex 1.38582 -0.574024 18
    endloop
  endfacet
  facet normal 0 0 1
    outer loop
      vertex 0.574024 1.38582 18
      vertex 1.06066 -1.06066 18
      vertex 1.06066 1.06066 18
    endloop
  endfacet
  facet normal 0 0 1
    outer loop
      vertex 0.574024 1.38582 18
      vertex 0.574024 -1.38582 18
      vertex 1.06066 -1.06066 18
    endloop
  endfacet
  facet normal 0 0 1
    outer loop
      vertex 0 1.5 18
      vertex 0.574024 -1.38582 18
      vertex 0.574024 1.38582 18
    endloop
  endfacet
  facet normal 0 0 1
    outer loop
      vertex 0 1.5 18
      vertex 0 -1.5 18
      vertex 0.574024 -1.38582 18
    endloop
  endfacet
  facet normal -0 0 1
    outer loop
      vertex -0.574024 1.38582 18
      vertex 0 -1.5 18
      vertex 0 1.5 18
    endloop
  endfacet
  facet normal 0 0 1
    outer loop
      vertex -0.574024 1.38582 18
      vertex -0.574024 -1.38582 18
      vertex 0 -1.5 18
    endloop
  endfacet
  facet normal -0 0 1
    outer loop
      vertex -1.06066 1.06066 18
      vertex -0.574024 -1.38582 18
      vertex -0.574024 1.38582 18
    endloop
  endfacet
  facet normal 0 0 1
    outer loop
      vertex -1.06066 1.06066 18
      vertex -1.06066 -1.06066 18
      vertex -0.574024 -1.38582 18
    endloop
  endfacet
  facet normal -0 0 1
    outer loop
      vertex -1.38582 0.574024 18
      vertex -1.06066 -1.06066 18
      vertex -1.06066 1.06066 18
    endloop
  endfacet
  facet normal 0 0 1
    outer loop
      vertex -1.38582 0.574024 18
      vertex -1.38582 -0.574024 18
      vertex -1.06066 -1.06066 18
    endloop
  endfacet
  facet normal 0 -0 1
    outer loop
      vertex -1.38582 -0.574024 18
      vertex -1.38582 0.574024 18
      vertex -1.5 0 18
    endloop
  endfacet
  facet normal -0.707107 0.707107 0
    outer loop
      vertex -4.8541 3.52671 16
      vertex -3.52671 4.8541 18
      vertex -3.52671 4.8541 16
    endloop
  endfacet
  facet normal -0.707107 0.707107 0
    outer loop
      vertex -3.52671 4.8541 18
      vertex -4.8541 3.52671 16
      vertex -4.8541 3.52671 18
    endloop
  endfacet
  facet normal 0.891006 -0.453992 0
    outer loop
      vertex 4.8541 -3.52671 18
      vertex 5.70634 -1.8541 16
      vertex 5.70634 -1.8541 18
    endloop
  endfacet
  facet normal 0.891006 -0.453992 0
    outer loop
      vertex 5.70634 -1.8541 16
      vertex 4.8541 -3.52671 18
      vertex 4.8541 -3.52671 16
    endloop
  endfacet
  facet normal 0.453992 -0.891006 0
    outer loop
      vertex 2 -5.632 16.4641
      vertex 1.8541 -5.70634 18
      vertex 1.8541 -5.70634 16.5245
    endloop
  endfacet
  facet normal 0.453992 -0.891006 -3.95392e-09
    outer loop
      vertex 1.8541 -5.70634 18
      vertex 2 -5.632 16.4641
      vertex 3.52671 -4.8541 18
    endloop
  endfacet
  facet normal 0.453993 -0.891005 -2.30208e-06
    outer loop
      vertex 2.60483 -5.32382 16
      vertex 3.52671 -4.8541 18
      vertex 2 -5.632 16.4641
    endloop
  endfacet
  facet normal 0.453989 -0.891007 0
    outer loop
      vertex 3.52671 -4.8541 18
      vertex 2.60483 -5.32382 16
      vertex 3.52671 -4.8541 16
    endloop
  endfacet
  facet normal 0.987688 -0.156434 0
    outer loop
      vertex 5.70634 -1.8541 18
      vertex 6 0 16
      vertex 6 0 18
    endloop
  endfacet
  facet normal 0.987688 -0.156434 0
    outer loop
      vertex 6 0 16
      vertex 5.70634 -1.8541 18
      vertex 5.70634 -1.8541 16
    endloop
  endfacet
  facet normal -0.707107 -0.707107 0
    outer loop
      vertex -3.52671 -4.8541 16
      vertex -4.8541 -3.52671 18
      vertex -4.8541 -3.52671 16
    endloop
  endfacet
  facet normal -0.707107 -0.707107 0
    outer loop
      vertex -4.8541 -3.52671 18
      vertex -3.52671 -4.8541 16
      vertex -3.52671 -4.8541 18
    endloop
  endfacet
  facet normal -0.891006 -0.453992 0
    outer loop
      vertex -4.8541 -3.52671 16
      vertex -5.70634 -1.8541 18
      vertex -5.70634 -1.8541 16
    endloop
  endfacet
  facet normal -0.891006 -0.453992 0
    outer loop
      vertex -5.70634 -1.8541 18
      vertex -4.8541 -3.52671 16
      vertex -4.8541 -3.52671 18
    endloop
  endfacet
  facet normal -0.453992 -0.891006 -3.95392e-09
    outer loop
      vertex -2 -5.632 16.4641
      vertex -1.8541 -5.70634 18
      vertex -3.52671 -4.8541 18
    endloop
  endfacet
  facet normal -0.453992 -0.891006 -0
    outer loop
      vertex -1.8541 -5.70634 18
      vertex -2 -5.632 16.4641
      vertex -1.8541 -5.70634 16.5245
    endloop
  endfacet
  facet normal -0.453989 -0.891007 0
    outer loop
      vertex -2.60483 -5.32382 16
      vertex -3.52671 -4.8541 18
      vertex -3.52671 -4.8541 16
    endloop
  endfacet
  facet normal -0.453993 -0.891005 -2.30208e-06
    outer loop
      vertex -3.52671 -4.8541 18
      vertex -2.60483 -5.32382 16
      vertex -2 -5.632 16.4641
    endloop
  endfacet
  facet normal 0.707107 -0.707107 0
    outer loop
      vertex 3.52671 -4.8541 18
      vertex 4.8541 -3.52671 16
      vertex 4.8541 -3.52671 18
    endloop
  endfacet
  facet normal 0.707107 -0.707107 0
    outer loop
      vertex 4.8541 -3.52671 16
      vertex 3.52671 -4.8541 18
      vertex 3.52671 -4.8541 16
    endloop
  endfacet
  facet normal 0.991445 -0 0.130526
    outer loop
      vertex 3.8637 -9 14.0353
      vertex 4 9 13
      vertex 3.8637 9 14.0353
    endloop
  endfacet
  facet normal 0.991445 0 0.130526
    outer loop
      vertex 4 9 13
      vertex 3.8637 -9 14.0353
      vertex 4 -9 13
    endloop
  endfacet
  facet normal 0.923877 -0 0.38269
    outer loop
      vertex 3.4641 -9 15
      vertex 3.8637 9 14.0353
      vertex 3.4641 9 15
    endloop
  endfacet
  facet normal 0.923877 0 0.38269
    outer loop
      vertex 3.8637 9 14.0353
      vertex 3.4641 -9 15
      vertex 3.8637 -9 14.0353
    endloop
  endfacet
  facet normal -0.130529 0 0.991445
    outer loop
      vertex -1.03528 9 16.8637
      vertex 0 6 17
      vertex 0 9 17
    endloop
  endfacet
  facet normal -0.130529 0 0.991445
    outer loop
      vertex 0 6 17
      vertex -1.03528 9 16.8637
      vertex -1.03528 5.83603 16.8637
    endloop
  endfacet
  facet normal -0.130529 0 0.991445
    outer loop
      vertex -1.03528 -9 16.8637
      vertex 0 -6 17
      vertex -1.03528 -5.83603 16.8637
    endloop
  endfacet
  facet normal -0.130529 0 0.991445
    outer loop
      vertex 0 -6 17
      vertex -1.03528 -9 16.8637
      vertex 0 -9 17
    endloop
  endfacet
  facet normal 0.608819 0 0.793309
    outer loop
      vertex 2.82843 9 15.8284
      vertex 2.60483 5.32382 16
      vertex 2.82843 -9 15.8284
    endloop
  endfacet
  facet normal 0.608775 -0 0.793343
    outer loop
      vertex 2 5.632 16.4641
      vertex 2.82843 9 15.8284
      vertex 2 9 16.4641
    endloop
  endfacet
  facet normal 0.608761 5.56088e-06 0.793353
    outer loop
      vertex 2.82843 9 15.8284
      vertex 2 5.632 16.4641
      vertex 2.60483 5.32382 16
    endloop
  endfacet
  facet normal 0.608819 -0 0.793309
    outer loop
      vertex 2.60483 -5.32382 16
      vertex 2.82843 -9 15.8284
      vertex 2.60483 5.32382 16
    endloop
  endfacet
  facet normal 0.608761 -5.56088e-06 0.793353
    outer loop
      vertex 2 -5.632 16.4641
      vertex 2.82843 -9 15.8284
      vertex 2.60483 -5.32382 16
    endloop
  endfacet
  facet normal 0.608775 0 0.793343
    outer loop
      vertex 2.82843 -9 15.8284
      vertex 2 -5.632 16.4641
      vertex 2 -9 16.4641
    endloop
  endfacet
  facet normal 0 1 0
    outer loop
      vertex 1.03528 9 16.8637
      vertex -1.03528 9 16.8637
      vertex 0 9 17
    endloop
  endfacet
  facet normal 0 1 0
    outer loop
      vertex 2 9 16.4641
      vertex -1.03528 9 16.8637
      vertex 1.03528 9 16.8637
    endloop
  endfacet
  facet normal 0 1 0
    outer loop
      vertex 2 9 16.4641
      vertex -2 9 16.4641
      vertex -1.03528 9 16.8637
    endloop
  endfacet
  facet normal 0 1 0
    outer loop
      vertex 2.82843 9 15.8284
      vertex -2 9 16.4641
      vertex 2 9 16.4641
    endloop
  endfacet
  facet normal 0 1 0
    outer loop
      vertex 2.82843 9 15.8284
      vertex -2.82843 9 15.8284
      vertex -2 9 16.4641
    endloop
  endfacet
  facet normal 0 1 0
    outer loop
      vertex 3.4641 9 15
      vertex -2.82843 9 15.8284
      vertex 2.82843 9 15.8284
    endloop
  endfacet
  facet normal 0 1 0
    outer loop
      vertex 3.4641 9 15
      vertex -3.4641 9 15
      vertex -2.82843 9 15.8284
    endloop
  endfacet
  facet normal 0 1 0
    outer loop
      vertex 3.8637 9 14.0353
      vertex -3.4641 9 15
      vertex 3.4641 9 15
    endloop
  endfacet
  facet normal 0 1 0
    outer loop
      vertex 3.8637 9 14.0353
      vertex -3.8637 9 14.0353
      vertex -3.4641 9 15
    endloop
  endfacet
  facet normal 0 1 0
    outer loop
      vertex 4 9 13
      vertex -3.8637 9 14.0353
      vertex 3.8637 9 14.0353
    endloop
  endfacet
  facet normal 0 1 0
    outer loop
      vertex 4 9 13
      vertex -4 9 13
      vertex -3.8637 9 14.0353
    endloop
  endfacet
  facet normal 0 1 -0
    outer loop
      vertex 3.8637 9 11.9647
      vertex -4 9 13
      vertex 4 9 13
    endloop
  endfacet
  facet normal 0 1 0
    outer loop
      vertex 3.8637 9 11.9647
      vertex -3.8637 9 11.9647
      vertex -4 9 13
    endloop
  endfacet
  facet normal 0 1 -0
    outer loop
      vertex 3.4641 9 11
      vertex -3.8637 9 11.9647
      vertex 3.8637 9 11.9647
    endloop
  endfacet
  facet normal 0 1 0
    outer loop
      vertex 3.4641 9 11
      vertex -3.4641 9 11
      vertex -3.8637 9 11.9647
    endloop
  endfacet
  facet normal 0 1 -0
    outer loop
      vertex 2.82843 9 10.1716
      vertex -3.4641 9 11
      vertex 3.4641 9 11
    endloop
  endfacet
  facet normal 0 1 0
    outer loop
      vertex 2.82843 9 10.1716
      vertex -2.82843 9 10.1716
      vertex -3.4641 9 11
    endloop
  endfacet
  facet normal 0 1 -0
    outer loop
      vertex 2 9 9.5359
      vertex -2.82843 9 10.1716
      vertex 2.82843 9 10.1716
    endloop
  endfacet
  facet normal 0 1 0
    outer loop
      vertex 2 9 9.5359
      vertex -2 9 9.5359
      vertex -2.82843 9 10.1716
    endloop
  endfacet
  facet normal 0 1 -0
    outer loop
      vertex 1.03528 9 9.1363
      vertex -2 9 9.5359
      vertex 2 9 9.5359
    endloop
  endfacet
  facet normal 0 1 0
    outer loop
      vertex 1.03528 9 9.1363
      vertex -1.03528 9 9.1363
      vertex -2 9 9.5359
    endloop
  endfacet
  facet normal -0 1 0
    outer loop
      vertex -1.03528 9 9.1363
      vertex 1.03528 9 9.1363
      vertex 0 9 9
    endloop
  endfacet
  facet normal -0.382683 0 0.92388
    outer loop
      vertex -2 9 16.4641
      vertex -1.03528 5.83603 16.8637
      vertex -1.03528 9 16.8637
    endloop
  endfacet
  facet normal -0.382714 -1.10735e-05 0.923867
    outer loop
      vertex -1.03528 5.83603 16.8637
      vertex -2 9 16.4641
      vertex -1.8541 5.70634 16.5245
    endloop
  endfacet
  facet normal -0.382501 0 0.923955
    outer loop
      vertex -1.8541 5.70634 16.5245
      vertex -2 9 16.4641
      vertex -2 5.632 16.4641
    endloop
  endfacet
  facet normal -0.382714 1.10735e-05 0.923867
    outer loop
      vertex -2 -9 16.4641
      vertex -1.03528 -5.83603 16.8637
      vertex -1.8541 -5.70634 16.5245
    endloop
  endfacet
  facet normal -0.382501 0 0.923955
    outer loop
      vertex -2 -9 16.4641
      vertex -1.8541 -5.70634 16.5245
      vertex -2 -5.632 16.4641
    endloop
  endfacet
  facet normal -0.382683 0 0.92388
    outer loop
      vertex -1.03528 -5.83603 16.8637
      vertex -2 -9 16.4641
      vertex -1.03528 -9 16.8637
    endloop
  endfacet
  facet normal 0.382683 0 -0.92388
    outer loop
      vertex 1.03528 -9 9.1363
      vertex 2 9 9.5359
      vertex 2 -9 9.5359
    endloop
  endfacet
  facet normal 0.382683 0 -0.92388
    outer loop
      vertex 2 9 9.5359
      vertex 1.03528 -9 9.1363
      vertex 1.03528 9 9.1363
    endloop
  endfacet
  facet normal -0.923877 0 -0.38269
    outer loop
      vertex -3.4641 -9 11
      vertex -3.8637 9 11.9647
      vertex -3.4641 9 11
    endloop
  endfacet
  facet normal -0.923877 -0 -0.38269
    outer loop
      vertex -3.8637 9 11.9647
      vertex -3.4641 -9 11
      vertex -3.8637 -9 11.9647
    endloop
  endfacet
  facet normal 0.130529 -0 0.991445
    outer loop
      vertex 0 6 17
      vertex 1.03528 9 16.8637
      vertex 0 9 17
    endloop
  endfacet
  facet normal 0.130529 0 0.991445
    outer loop
      vertex 1.03528 9 16.8637
      vertex 0 6 17
      vertex 1.03528 5.83603 16.8637
    endloop
  endfacet
  facet normal 0.130529 0 0.991445
    outer loop
      vertex 0 -6 17
      vertex 1.03528 -9 16.8637
      vertex 1.03528 -5.83603 16.8637
    endloop
  endfacet
  facet normal 0.130529 0 0.991445
    outer loop
      vertex 1.03528 -9 16.8637
      vertex 0 -6 17
      vertex 0 -9 17
    endloop
  endfacet
  facet normal 0.382501 0 0.923955
    outer loop
      vertex 2 9 16.4641
      vertex 1.8541 5.70634 16.5245
      vertex 2 5.632 16.4641
    endloop
  endfacet
  facet normal 0.382683 -0 0.92388
    outer loop
      vertex 1.03528 5.83603 16.8637
      vertex 2 9 16.4641
      vertex 1.03528 9 16.8637
    endloop
  endfacet
  facet normal 0.382714 -1.10735e-05 0.923867
    outer loop
      vertex 2 9 16.4641
      vertex 1.03528 5.83603 16.8637
      vertex 1.8541 5.70634 16.5245
    endloop
  endfacet
  facet normal 0.382501 0 0.923955
    outer loop
      vertex 1.8541 -5.70634 16.5245
      vertex 2 -9 16.4641
      vertex 2 -5.632 16.4641
    endloop
  endfacet
  facet normal 0.382714 1.10735e-05 0.923867
    outer loop
      vertex 1.03528 -5.83603 16.8637
      vertex 2 -9 16.4641
      vertex 1.8541 -5.70634 16.5245
    endloop
  endfacet
  facet normal 0.382683 0 0.92388
    outer loop
      vertex 2 -9 16.4641
      vertex 1.03528 -5.83603 16.8637
      vertex 1.03528 -9 16.8637
    endloop
  endfacet
  facet normal -0.923877 0 0.38269
    outer loop
      vertex -3.8637 -9 14.0353
      vertex -3.4641 9 15
      vertex -3.8637 9 14.0353
    endloop
  endfacet
  facet normal -0.923877 0 0.38269
    outer loop
      vertex -3.4641 9 15
      vertex -3.8637 -9 14.0353
      vertex -3.4641 -9 15
    endloop
  endfacet
  facet normal -0.991445 0 0.130526
    outer loop
      vertex -4 -9 13
      vertex -3.8637 9 14.0353
      vertex -4 9 13
    endloop
  endfacet
  facet normal -0.991445 0 0.130526
    outer loop
      vertex -3.8637 9 14.0353
      vertex -4 -9 13
      vertex -3.8637 -9 14.0353
    endloop
  endfacet
  facet normal -0.991445 0 -0.130526
    outer loop
      vertex -3.8637 -9 11.9647
      vertex -4 9 13
      vertex -3.8637 9 11.9647
    endloop
  endfacet
  facet normal -0.991445 -0 -0.130526
    outer loop
      vertex -4 9 13
      vertex -3.8637 -9 11.9647
      vertex -4 -9 13
    endloop
  endfacet
  facet normal -0.382683 0 -0.92388
    outer loop
      vertex -2 -9 9.5359
      vertex -1.03528 9 9.1363
      vertex -1.03528 -9 9.1363
    endloop
  endfacet
  facet normal -0.382683 0 -0.92388
    outer loop
      vertex -1.03528 9 9.1363
      vertex -2 -9 9.5359
      vertex -2 9 9.5359
    endloop
  endfacet
  facet normal 0.793346 -0 0.608771
    outer loop
      vertex 2.82843 -9 15.8284
      vertex 3.4641 9 15
      vertex 2.82843 9 15.8284
    endloop
  endfacet
  facet normal 0.793346 0 0.608771
    outer loop
      vertex 3.4641 9 15
      vertex 2.82843 -9 15.8284
      vertex 3.4641 -9 15
    endloop
  endfacet
  facet normal 0 -1 0
    outer loop
      vertex -1.03528 -9 16.8637
      vertex 1.03528 -9 16.8637
      vertex 0 -9 17
    endloop
  endfacet
  facet normal 0 -1 0
    outer loop
      vertex -2 -9 16.4641
      vertex 1.03528 -9 16.8637
      vertex -1.03528 -9 16.8637
    endloop
  endfacet
  facet normal 0 -1 0
    outer loop
      vertex -2 -9 16.4641
      vertex 2 -9 16.4641
      vertex 1.03528 -9 16.8637
    endloop
  endfacet
  facet normal 0 -1 0
    outer loop
      vertex -2.82843 -9 15.8284
      vertex 2 -9 16.4641
      vertex -2 -9 16.4641
    endloop
  endfacet
  facet normal 0 -1 0
    outer loop
      vertex -2.82843 -9 15.8284
      vertex 2.82843 -9 15.8284
      vertex 2 -9 16.4641
    endloop
  endfacet
  facet normal 0 -1 0
    outer loop
      vertex -3.4641 -9 15
      vertex 2.82843 -9 15.8284
      vertex -2.82843 -9 15.8284
    endloop
  endfacet
  facet normal 0 -1 0
    outer loop
      vertex -3.4641 -9 15
      vertex 3.4641 -9 15
      vertex 2.82843 -9 15.8284
    endloop
  endfacet
  facet normal 0 -1 0
    outer loop
      vertex -3.8637 -9 14.0353
      vertex 3.4641 -9 15
      vertex -3.4641 -9 15
    endloop
  endfacet
  facet normal 0 -1 0
    outer loop
      vertex -3.8637 -9 14.0353
      vertex 3.8637 -9 14.0353
      vertex 3.4641 -9 15
    endloop
  endfacet
  facet normal 0 -1 0
    outer loop
      vertex -4 -9 13
      vertex 3.8637 -9 14.0353
      vertex -3.8637 -9 14.0353
    endloop
  endfacet
  facet normal 0 -1 0
    outer loop
      vertex -4 -9 13
      vertex 4 -9 13
      vertex 3.8637 -9 14.0353
    endloop
  endfacet
  facet normal 0 -1 0
    outer loop
      vertex -3.8637 -9 11.9647
      vertex 4 -9 13
      vertex -4 -9 13
    endloop
  endfacet
  facet normal 0 -1 0
    outer loop
      vertex -3.8637 -9 11.9647
      vertex 3.8637 -9 11.9647
      vertex 4 -9 13
    endloop
  endfacet
  facet normal 0 -1 0
    outer loop
      vertex -3.4641 -9 11
      vertex 3.8637 -9 11.9647
      vertex -3.8637 -9 11.9647
    endloop
  endfacet
  facet normal 0 -1 0
    outer loop
      vertex -3.4641 -9 11
      vertex 3.4641 -9 11
      vertex 3.8637 -9 11.9647
    endloop
  endfacet
  facet normal 0 -1 0
    outer loop
      vertex -2.82843 -9 10.1716
      vertex 3.4641 -9 11
      vertex -3.4641 -9 11
    endloop
  endfacet
  facet normal 0 -1 0
    outer loop
      vertex -2.82843 -9 10.1716
      vertex 2.82843 -9 10.1716
      vertex 3.4641 -9 11
    endloop
  endfacet
  facet normal 0 -1 0
    outer loop
      vertex -2 -9 9.5359
      vertex 2.82843 -9 10.1716
      vertex -2.82843 -9 10.1716
    endloop
  endfacet
  facet normal 0 -1 0
    outer loop
      vertex -2 -9 9.5359
      vertex 2 -9 9.5359
      vertex 2.82843 -9 10.1716
    endloop
  endfacet
  facet normal 0 -1 0
    outer loop
      vertex -1.03528 -9 9.1363
      vertex 2 -9 9.5359
      vertex -2 -9 9.5359
    endloop
  endfacet
  facet normal 0 -1 0
    outer loop
      vertex -1.03528 -9 9.1363
      vertex 1.03528 -9 9.1363
      vertex 2 -9 9.5359
    endloop
  endfacet
  facet normal -0 -1 0
    outer loop
      vertex 1.03528 -9 9.1363
      vertex -1.03528 -9 9.1363
      vertex 0 -9 9
    endloop
  endfacet
  facet normal -0.608775 0 0.793343
    outer loop
      vertex -2.82843 9 15.8284
      vertex -2 5.632 16.4641
      vertex -2 9 16.4641
    endloop
  endfacet
  facet normal -0.608819 0 0.793309
    outer loop
      vertex -2.60483 5.32382 16
      vertex -2.82843 9 15.8284
      vertex -2.60483 -5.32382 16
    endloop
  endfacet
  facet normal -0.608761 5.56088e-06 0.793353
    outer loop
      vertex -2 5.632 16.4641
      vertex -2.82843 9 15.8284
      vertex -2.60483 5.32382 16
    endloop
  endfacet
  facet normal -0.608761 -5.56088e-06 0.793353
    outer loop
      vertex -2.82843 -9 15.8284
      vertex -2 -5.632 16.4641
      vertex -2.60483 -5.32382 16
    endloop
  endfacet
  facet normal -0.608775 0 0.793343
    outer loop
      vertex -2 -5.632 16.4641
      vertex -2.82843 -9 15.8284
      vertex -2 -9 16.4641
    endloop
  endfacet
  facet normal -0.608819 0 0.793309
    outer loop
      vertex -2.82843 -9 15.8284
      vertex -2.60483 -5.32382 16
      vertex -2.82843 9 15.8284
    endloop
  endfacet
  facet normal -0.793346 0 0.608771
    outer loop
      vertex -3.4641 -9 15
      vertex -2.82843 9 15.8284
      vertex -3.4641 9 15
    endloop
  endfacet
  facet normal -0.793346 0 0.608771
    outer loop
      vertex -2.82843 9 15.8284
      vertex -3.4641 -9 15
      vertex -2.82843 -9 15.8284
    endloop
  endfacet
  facet normal 0.923877 0 -0.38269
    outer loop
      vertex 3.8637 -9 11.9647
      vertex 3.4641 9 11
      vertex 3.8637 9 11.9647
    endloop
  endfacet
  facet normal 0.923877 0 -0.38269
    outer loop
      vertex 3.4641 9 11
      vertex 3.8637 -9 11.9647
      vertex 3.4641 -9 11
    endloop
  endfacet
  facet normal 0.991445 0 -0.130526
    outer loop
      vertex 4 -9 13
      vertex 3.8637 9 11.9647
      vertex 4 9 13
    endloop
  endfacet
  facet normal 0.991445 0 -0.130526
    outer loop
      vertex 3.8637 9 11.9647
      vertex 4 -9 13
      vertex 3.8637 -9 11.9647
    endloop
  endfacet
  facet normal 0.608775 0 -0.793343
    outer loop
      vertex 2 -9 9.5359
      vertex 2.82843 9 10.1716
      vertex 2.82843 -9 10.1716
    endloop
  endfacet
  facet normal 0.608775 0 -0.793343
    outer loop
      vertex 2.82843 9 10.1716
      vertex 2 -9 9.5359
      vertex 2 9 9.5359
    endloop
  endfacet
  facet normal 0.793346 0 -0.608771
    outer loop
      vertex 3.4641 -9 11
      vertex 2.82843 9 10.1716
      vertex 3.4641 9 11
    endloop
  endfacet
  facet normal 0.793346 0 -0.608771
    outer loop
      vertex 2.82843 9 10.1716
      vertex 3.4641 -9 11
      vertex 2.82843 -9 10.1716
    endloop
  endfacet
  facet normal -0.130529 0 -0.991445
    outer loop
      vertex -1.03528 -9 9.1363
      vertex 0 9 9
      vertex 0 -9 9
    endloop
  endfacet
  facet normal -0.130529 0 -0.991445
    outer loop
      vertex 0 9 9
      vertex -1.03528 -9 9.1363
      vertex -1.03528 9 9.1363
    endloop
  endfacet
  facet normal 0.130529 0 -0.991445
    outer loop
      vertex 0 -9 9
      vertex 1.03528 9 9.1363
      vertex 1.03528 -9 9.1363
    endloop
  endfacet
  facet normal 0.130529 0 -0.991445
    outer loop
      vertex 1.03528 9 9.1363
      vertex 0 -9 9
      vertex 0 9 9
    endloop
  endfacet
  facet normal -0.793346 0 -0.608771
    outer loop
      vertex -2.82843 -9 10.1716
      vertex -3.4641 9 11
      vertex -2.82843 9 10.1716
    endloop
  endfacet
  facet normal -0.793346 -0 -0.608771
    outer loop
      vertex -3.4641 9 11
      vertex -2.82843 -9 10.1716
      vertex -3.4641 -9 11
    endloop
  endfacet
  facet normal -0.608775 0 -0.793343
    outer loop
      vertex -2.82843 -9 10.1716
      vertex -2 9 9.5359
      vertex -2 -9 9.5359
    endloop
  endfacet
  facet normal -0.608775 0 -0.793343
    outer loop
      vertex -2 9 9.5359
      vertex -2.82843 -9 10.1716
      vertex -2.82843 9 10.1716
    endloop
  endfacet
endsolid OpenSCAD_Model
